G04 #@! TF.GenerationSoftware,KiCad,Pcbnew,(6.99.0-1912-g359c99991b)*
G04 #@! TF.CreationDate,2023-05-12T11:08:49+07:00*
G04 #@! TF.ProjectId,artemisia,61727465-6d69-4736-9961-2e6b69636164,1*
G04 #@! TF.SameCoordinates,Original*
G04 #@! TF.FileFunction,Soldermask,Bot*
G04 #@! TF.FilePolarity,Negative*
%FSLAX46Y46*%
G04 Gerber Fmt 4.6, Leading zero omitted, Abs format (unit mm)*
G04 Created by KiCad (PCBNEW (6.99.0-1912-g359c99991b)) date 2023-05-12 11:08:49*
%MOMM*%
%LPD*%
G01*
G04 APERTURE LIST*
G04 Aperture macros list*
%AMFreePoly0*
4,1,19,0.550000,-0.750000,0.000000,-0.750000,0.000000,-0.744911,-0.071157,-0.744911,-0.207708,-0.704816,-0.327430,-0.627875,-0.420627,-0.520320,-0.479746,-0.390866,-0.500000,-0.250000,-0.500000,0.250000,-0.479746,0.390866,-0.420627,0.520320,-0.327430,0.627875,-0.207708,0.704816,-0.071157,0.744911,0.000000,0.744911,0.000000,0.750000,0.550000,0.750000,0.550000,-0.750000,0.550000,-0.750000,
$1*%
%AMFreePoly1*
4,1,19,0.000000,0.744911,0.071157,0.744911,0.207708,0.704816,0.327430,0.627875,0.420627,0.520320,0.479746,0.390866,0.500000,0.250000,0.500000,-0.250000,0.479746,-0.390866,0.420627,-0.520320,0.327430,-0.627875,0.207708,-0.704816,0.071157,-0.744911,0.000000,-0.744911,0.000000,-0.750000,-0.550000,-0.750000,-0.550000,0.750000,0.000000,0.750000,0.000000,0.744911,0.000000,0.744911,
$1*%
%AMFreePoly2*
4,1,6,1.000000,0.000000,0.500000,-0.750000,-0.500000,-0.750000,-0.500000,0.750000,0.500000,0.750000,1.000000,0.000000,1.000000,0.000000,$1*%
%AMFreePoly3*
4,1,6,0.500000,-0.750000,-0.650000,-0.750000,-0.150000,0.000000,-0.650000,0.750000,0.500000,0.750000,0.500000,-0.750000,0.500000,-0.750000,$1*%
G04 Aperture macros list end*
%ADD10C,1.500000*%
%ADD11O,2.800000X1.500000*%
%ADD12R,1.700000X1.700000*%
%ADD13O,1.700000X1.700000*%
%ADD14C,0.650000*%
%ADD15O,1.000000X2.100000*%
%ADD16O,1.000000X1.600000*%
%ADD17FreePoly0,180.000000*%
%ADD18R,1.000000X1.500000*%
%ADD19FreePoly1,180.000000*%
%ADD20FreePoly2,180.000000*%
%ADD21FreePoly3,180.000000*%
G04 #@! TA.AperFunction,Profile*
%ADD22C,0.100000*%
G04 #@! TD*
G04 APERTURE END LIST*
D10*
X17910000Y-31740000D03*
D11*
X17209999Y-31739999D03*
D10*
X17910000Y-29200000D03*
D11*
X17209999Y-29199999D03*
D10*
X17910000Y-26660000D03*
D11*
X17209999Y-26659999D03*
D10*
X17910000Y-24120000D03*
D11*
X17209999Y-24119999D03*
D10*
X17910000Y-21580000D03*
D11*
X17209999Y-21579999D03*
D10*
X17910000Y-19040000D03*
D11*
X17209999Y-19039999D03*
D10*
X17910000Y-16500000D03*
D11*
X17209999Y-16499999D03*
D10*
X17910000Y-13960000D03*
D11*
X17209999Y-13959999D03*
D10*
X17910000Y-11420000D03*
D11*
X17209999Y-11419999D03*
D10*
X17910000Y-8880000D03*
D11*
X17209999Y-8879999D03*
D10*
X17910000Y-6340000D03*
D11*
X17209999Y-6339999D03*
D10*
X17910000Y-3800000D03*
D11*
X17209999Y-3799999D03*
D12*
X4199999Y-16499999D03*
D13*
X4199999Y-13959999D03*
D10*
X-130000Y-3800000D03*
D11*
X569999Y-3799999D03*
D10*
X-130000Y-6340000D03*
D11*
X569999Y-6339999D03*
D10*
X-130000Y-8880000D03*
D11*
X569999Y-8879999D03*
D10*
X-130000Y-11420000D03*
D11*
X569999Y-11419999D03*
D10*
X-130000Y-13960000D03*
D11*
X569999Y-13959999D03*
D10*
X-130000Y-16500000D03*
D11*
X569999Y-16499999D03*
D10*
X-130000Y-19040000D03*
D11*
X569999Y-19039999D03*
D10*
X-130000Y-21580000D03*
D11*
X569999Y-21579999D03*
D10*
X-130000Y-24120000D03*
D11*
X569999Y-24119999D03*
D10*
X-130000Y-26660000D03*
D11*
X569999Y-26659999D03*
D10*
X-130000Y-29200000D03*
D11*
X569999Y-29199999D03*
D10*
X-130000Y-31740000D03*
D11*
X569999Y-31739999D03*
D14*
X11780000Y-4980000D03*
X6000000Y-4980000D03*
D15*
X13209999Y-5509999D03*
D16*
X13209999Y-1329999D03*
D15*
X4569999Y-5509999D03*
D16*
X4569999Y-1329999D03*
D17*
X10200000Y-5257500D03*
D18*
X8899999Y-5257499D03*
D19*
X7600000Y-5257500D03*
D17*
X10200000Y-1857500D03*
D18*
X8899999Y-1857499D03*
D19*
X7600000Y-1857500D03*
D20*
X9725000Y-10000000D03*
D21*
X8275000Y-10000000D03*
D22*
X0Y-500000D02*
X0Y-32500000D01*
X17780000Y-500000D02*
G75*
G03*
X17280000Y0I-500000J0D01*
G01*
X0Y-32500000D02*
G75*
G03*
X500000Y-33000000I500000J0D01*
G01*
X500000Y0D02*
G75*
G03*
X0Y-500000I0J-500000D01*
G01*
X17780000Y-500000D02*
X17780000Y-32500000D01*
X500000Y0D02*
X17280000Y0D01*
X500000Y-33000000D02*
X17280000Y-33000000D01*
X17280000Y-33000000D02*
G75*
G03*
X17780000Y-32500000I0J500000D01*
G01*
M02*
