G04 #@! TF.GenerationSoftware,KiCad,Pcbnew,(6.99.0-1912-g359c99991b)*
G04 #@! TF.CreationDate,2023-05-12T11:08:49+07:00*
G04 #@! TF.ProjectId,artemisia,61727465-6d69-4736-9961-2e6b69636164,1*
G04 #@! TF.SameCoordinates,Original*
G04 #@! TF.FileFunction,Soldermask,Top*
G04 #@! TF.FilePolarity,Negative*
%FSLAX46Y46*%
G04 Gerber Fmt 4.6, Leading zero omitted, Abs format (unit mm)*
G04 Created by KiCad (PCBNEW (6.99.0-1912-g359c99991b)) date 2023-05-12 11:08:49*
%MOMM*%
%LPD*%
G01*
G04 APERTURE LIST*
G04 Aperture macros list*
%AMRoundRect*
0 Rectangle with rounded corners*
0 $1 Rounding radius*
0 $2 $3 $4 $5 $6 $7 $8 $9 X,Y pos of 4 corners*
0 Add a 4 corners polygon primitive as box body*
4,1,4,$2,$3,$4,$5,$6,$7,$8,$9,$2,$3,0*
0 Add four circle primitives for the rounded corners*
1,1,$1+$1,$2,$3*
1,1,$1+$1,$4,$5*
1,1,$1+$1,$6,$7*
1,1,$1+$1,$8,$9*
0 Add four rect primitives between the rounded corners*
20,1,$1+$1,$2,$3,$4,$5,0*
20,1,$1+$1,$4,$5,$6,$7,0*
20,1,$1+$1,$6,$7,$8,$9,0*
20,1,$1+$1,$8,$9,$2,$3,0*%
%AMFreePoly0*
4,1,14,0.314644,0.085355,0.385355,0.014644,0.400000,-0.020711,0.400000,-0.050000,0.385355,-0.085355,0.350000,-0.100000,-0.350000,-0.100000,-0.385355,-0.085355,-0.400000,-0.050000,-0.400000,0.050000,-0.385355,0.085355,-0.350000,0.100000,0.279289,0.100000,0.314644,0.085355,0.314644,0.085355,$1*%
%AMFreePoly1*
4,1,15,0.385355,0.085355,0.400000,0.050000,0.400000,0.020711,0.397487,0.014645,0.385355,-0.014645,0.314644,-0.085355,0.279289,-0.100000,-0.350000,-0.100000,-0.385355,-0.085355,-0.400000,-0.050000,-0.400000,0.050000,-0.385355,0.085355,-0.350000,0.100000,0.350000,0.100000,0.385355,0.085355,0.385355,0.085355,$1*%
%AMFreePoly2*
4,1,15,0.085355,0.385355,0.100000,0.350000,0.100000,-0.350000,0.085355,-0.385355,0.050000,-0.400000,-0.050000,-0.400000,-0.085355,-0.385355,-0.100000,-0.350000,-0.100000,0.279289,-0.085355,0.314644,-0.014645,0.385355,-0.004289,0.389644,0.020711,0.400000,0.050000,0.400000,0.085355,0.385355,0.085355,0.385355,$1*%
%AMFreePoly3*
4,1,14,0.014644,0.385355,0.085355,0.314644,0.100000,0.279289,0.100000,-0.350000,0.085355,-0.385355,0.050000,-0.400000,-0.050000,-0.400000,-0.085355,-0.385355,-0.100000,-0.350000,-0.100000,0.350000,-0.085355,0.385355,-0.050000,0.400000,-0.020711,0.400000,0.014644,0.385355,0.014644,0.385355,$1*%
%AMFreePoly4*
4,1,14,0.385355,0.085355,0.400000,0.050000,0.400000,-0.050000,0.385355,-0.085355,0.350000,-0.100000,-0.279289,-0.100000,-0.314645,-0.085355,-0.385355,-0.014644,-0.400000,0.020711,-0.400000,0.050000,-0.385355,0.085355,-0.350000,0.100000,0.350000,0.100000,0.385355,0.085355,0.385355,0.085355,$1*%
%AMFreePoly5*
4,1,15,0.385355,0.085355,0.400000,0.050000,0.400000,-0.050000,0.385355,-0.085355,0.350000,-0.100000,-0.350000,-0.100000,-0.385355,-0.085355,-0.400000,-0.050000,-0.400000,-0.020711,-0.385355,0.014644,-0.314645,0.085355,-0.304289,0.089644,-0.279289,0.100000,0.350000,0.100000,0.385355,0.085355,0.385355,0.085355,$1*%
%AMFreePoly6*
4,1,14,0.085355,0.385355,0.100000,0.350000,0.100000,-0.279289,0.085355,-0.314645,0.014644,-0.385355,-0.020711,-0.400000,-0.050000,-0.400000,-0.085355,-0.385355,-0.100000,-0.350000,-0.100000,0.350000,-0.085355,0.385355,-0.050000,0.400000,0.050000,0.400000,0.085355,0.385355,0.085355,0.385355,$1*%
%AMFreePoly7*
4,1,14,0.085355,0.385355,0.100000,0.350000,0.100000,-0.350000,0.085355,-0.385355,0.050000,-0.400000,0.020711,-0.400000,-0.014645,-0.385355,-0.085355,-0.314644,-0.100000,-0.279289,-0.100000,0.350000,-0.085355,0.385355,-0.050000,0.400000,0.050000,0.400000,0.085355,0.385355,0.085355,0.385355,$1*%
G04 Aperture macros list end*
%ADD10FreePoly0,90.000000*%
%ADD11RoundRect,0.050000X0.050000X-0.350000X0.050000X0.350000X-0.050000X0.350000X-0.050000X-0.350000X0*%
%ADD12FreePoly1,90.000000*%
%ADD13FreePoly2,90.000000*%
%ADD14RoundRect,0.050000X0.350000X-0.050000X0.350000X0.050000X-0.350000X0.050000X-0.350000X-0.050000X0*%
%ADD15FreePoly3,90.000000*%
%ADD16FreePoly4,90.000000*%
%ADD17FreePoly5,90.000000*%
%ADD18FreePoly6,90.000000*%
%ADD19FreePoly7,90.000000*%
%ADD20R,2.650000X2.650000*%
%ADD21RoundRect,0.140000X-0.140000X-0.170000X0.140000X-0.170000X0.140000X0.170000X-0.140000X0.170000X0*%
%ADD22RoundRect,0.135000X0.185000X-0.135000X0.185000X0.135000X-0.185000X0.135000X-0.185000X-0.135000X0*%
%ADD23RoundRect,0.150000X-0.512500X-0.150000X0.512500X-0.150000X0.512500X0.150000X-0.512500X0.150000X0*%
%ADD24RoundRect,0.140000X0.140000X0.170000X-0.140000X0.170000X-0.140000X-0.170000X0.140000X-0.170000X0*%
%ADD25RoundRect,0.135000X0.135000X0.185000X-0.135000X0.185000X-0.135000X-0.185000X0.135000X-0.185000X0*%
%ADD26RoundRect,0.140000X0.170000X-0.140000X0.170000X0.140000X-0.170000X0.140000X-0.170000X-0.140000X0*%
%ADD27C,1.500000*%
%ADD28O,2.800000X1.500000*%
%ADD29R,1.700000X1.700000*%
%ADD30O,1.700000X1.700000*%
%ADD31RoundRect,0.135000X-0.135000X-0.185000X0.135000X-0.185000X0.135000X0.185000X-0.135000X0.185000X0*%
%ADD32R,1.700000X0.900000*%
%ADD33R,0.800000X1.000000*%
%ADD34RoundRect,0.243750X0.456250X-0.243750X0.456250X0.243750X-0.456250X0.243750X-0.456250X-0.243750X0*%
%ADD35RoundRect,0.140000X-0.170000X0.140000X-0.170000X-0.140000X0.170000X-0.140000X0.170000X0.140000X0*%
%ADD36R,1.400000X1.200000*%
%ADD37RoundRect,0.135000X-0.185000X0.135000X-0.185000X-0.135000X0.185000X-0.135000X0.185000X0.135000X0*%
%ADD38RoundRect,0.147500X-0.172500X0.147500X-0.172500X-0.147500X0.172500X-0.147500X0.172500X0.147500X0*%
%ADD39C,0.650000*%
%ADD40R,0.600000X1.450000*%
%ADD41R,0.300000X1.450000*%
G04 #@! TA.AperFunction,Profile*
%ADD42C,0.100000*%
G04 #@! TD*
G04 APERTURE END LIST*
D10*
X7490000Y-21950000D03*
D11*
X7890000Y-21950000D03*
X8290000Y-21950000D03*
X8690000Y-21950000D03*
X9090000Y-21950000D03*
X9490000Y-21950000D03*
X9890000Y-21950000D03*
D12*
X10290000Y-21950000D03*
D13*
X10840000Y-21400000D03*
D14*
X10840000Y-21000000D03*
X10840000Y-20600000D03*
X10840000Y-20200000D03*
X10840000Y-19800000D03*
X10840000Y-19400000D03*
X10840000Y-19000000D03*
D15*
X10840000Y-18600000D03*
D16*
X10290000Y-18050000D03*
D11*
X9890000Y-18050000D03*
X9490000Y-18050000D03*
X9090000Y-18050000D03*
X8690000Y-18050000D03*
X8290000Y-18050000D03*
X7890000Y-18050000D03*
D17*
X7490000Y-18050000D03*
D18*
X6940000Y-18600000D03*
D14*
X6940000Y-19000000D03*
X6940000Y-19400000D03*
X6940000Y-19800000D03*
X6940000Y-20200000D03*
X6940000Y-20600000D03*
X6940000Y-21000000D03*
D19*
X6940000Y-21400000D03*
D20*
X8889999Y-19999999D03*
D21*
X7790000Y-32025000D03*
X8750000Y-32025000D03*
D22*
X14300000Y-16710000D03*
X14300000Y-15690000D03*
D21*
X12495000Y-14650000D03*
X13455000Y-14650000D03*
D23*
X7752500Y-9050000D03*
X7752500Y-10000000D03*
X7752500Y-10950000D03*
X10027500Y-10950000D03*
X10027500Y-10000000D03*
X10027500Y-9050000D03*
D24*
X13400000Y-12500000D03*
X12440000Y-12500000D03*
D25*
X4720000Y-26600000D03*
X3700000Y-26600000D03*
D26*
X12610000Y-16680000D03*
X12610000Y-15720000D03*
D21*
X9620000Y-25500000D03*
X10580000Y-25500000D03*
D24*
X4690000Y-25500000D03*
X3730000Y-25500000D03*
D27*
X17910000Y-31740000D03*
D28*
X17209999Y-31739999D03*
D27*
X17910000Y-29200000D03*
D28*
X17209999Y-29199999D03*
D27*
X17910000Y-26660000D03*
D28*
X17209999Y-26659999D03*
D27*
X17910000Y-24120000D03*
D28*
X17209999Y-24119999D03*
D27*
X17910000Y-21580000D03*
D28*
X17209999Y-21579999D03*
D27*
X17910000Y-19040000D03*
D28*
X17209999Y-19039999D03*
D27*
X17910000Y-16500000D03*
D28*
X17209999Y-16499999D03*
D27*
X17910000Y-13960000D03*
D28*
X17209999Y-13959999D03*
D27*
X17910000Y-11420000D03*
D28*
X17209999Y-11419999D03*
D27*
X17910000Y-8880000D03*
D28*
X17209999Y-8879999D03*
D27*
X17910000Y-6340000D03*
D28*
X17209999Y-6339999D03*
D27*
X17910000Y-3800000D03*
D28*
X17209999Y-3799999D03*
D29*
X4199999Y-16499999D03*
D30*
X4199999Y-13959999D03*
D31*
X13060000Y-26600000D03*
X14080000Y-26600000D03*
D32*
X4499999Y-32024999D03*
X4499999Y-27924999D03*
D33*
X12450000Y-11199999D03*
X14349999Y-11199999D03*
X13399999Y-8799999D03*
D34*
X3400000Y-10737500D03*
X3400000Y-8862500D03*
D32*
X13279999Y-27924999D03*
X13279999Y-32024999D03*
D27*
X-130000Y-3800000D03*
D28*
X569999Y-3799999D03*
D27*
X-130000Y-6340000D03*
D28*
X569999Y-6339999D03*
D27*
X-130000Y-8880000D03*
D28*
X569999Y-8879999D03*
D27*
X-130000Y-11420000D03*
D28*
X569999Y-11419999D03*
D27*
X-130000Y-13960000D03*
D28*
X569999Y-13959999D03*
D27*
X-130000Y-16500000D03*
D28*
X569999Y-16499999D03*
D27*
X-130000Y-19040000D03*
D28*
X569999Y-19039999D03*
D27*
X-130000Y-21580000D03*
D28*
X569999Y-21579999D03*
D27*
X-130000Y-24120000D03*
D28*
X569999Y-24119999D03*
D27*
X-130000Y-26660000D03*
D28*
X569999Y-26659999D03*
D27*
X-130000Y-29200000D03*
D28*
X569999Y-29199999D03*
D27*
X-130000Y-31740000D03*
D28*
X569999Y-31739999D03*
D22*
X5100000Y-10610000D03*
X5100000Y-9590000D03*
D35*
X5800000Y-25570000D03*
X5800000Y-26530000D03*
D21*
X9990000Y-27150000D03*
X10950000Y-27150000D03*
D35*
X11500000Y-15720000D03*
X11500000Y-16680000D03*
D21*
X4840000Y-24400000D03*
X5800000Y-24400000D03*
D36*
X9989999Y-28749999D03*
X7789999Y-28749999D03*
X7789999Y-30449999D03*
X9989999Y-30449999D03*
D22*
X8325000Y-13410000D03*
X8325000Y-12390000D03*
D24*
X14050000Y-25500000D03*
X13090000Y-25500000D03*
D37*
X7225000Y-12390000D03*
X7225000Y-13410000D03*
D38*
X14700000Y-815000D03*
X14700000Y-1785000D03*
D22*
X9425000Y-13410000D03*
X9425000Y-12390000D03*
X10550000Y-13410000D03*
X10550000Y-12390000D03*
X15800000Y-1810000D03*
X15800000Y-790000D03*
D39*
X11780000Y-4980000D03*
X6000000Y-4980000D03*
D40*
X12114999Y-6424999D03*
X11339999Y-6424999D03*
D41*
X10639999Y-6424999D03*
X10139999Y-6424999D03*
X9639999Y-6424999D03*
X9139999Y-6424999D03*
X8639999Y-6424999D03*
X8139999Y-6424999D03*
X7639999Y-6424999D03*
X7139999Y-6424999D03*
D40*
X6439999Y-6424999D03*
X5664999Y-6424999D03*
D42*
X0Y-500000D02*
X0Y-32500000D01*
X17780000Y-500000D02*
G75*
G03*
X17280000Y0I-500000J0D01*
G01*
X0Y-32500000D02*
G75*
G03*
X500000Y-33000000I500000J0D01*
G01*
X500000Y0D02*
G75*
G03*
X0Y-500000I0J-500000D01*
G01*
X17780000Y-500000D02*
X17780000Y-32500000D01*
X500000Y0D02*
X17280000Y0D01*
X500000Y-33000000D02*
X17280000Y-33000000D01*
X17280000Y-33000000D02*
G75*
G03*
X17780000Y-32500000I0J500000D01*
G01*
M02*
