M48
; DRILL file {KiCad (6.99.0-1912-g359c99991b)} date Fri May 12 11:08:51 2023
; FORMAT={-:-/ absolute / metric / decimal}
; #@! TF.CreationDate,2023-05-12T11:08:51+07:00
; #@! TF.GenerationSoftware,Kicad,Pcbnew,(6.99.0-1912-g359c99991b)
; #@! TF.FileFunction,MixedPlating,1,2
FMAT,2
METRIC
; #@! TA.AperFunction,Plated,PTH,ComponentDrill
T1C0.200
; #@! TA.AperFunction,Plated,PTH,ViaDrill
T2C0.250
; #@! TA.AperFunction,Plated,PTH,ComponentDrill
T3C0.600
; #@! TA.AperFunction,Plated,PTH,ComponentDrill
T4C1.000
; #@! TA.AperFunction,NonPlated,NPTH,ComponentDrill
T5C0.650
%
G90
G05
T1
X8.04Y-19.15
X8.04Y-20.0
X8.04Y-20.85
X8.89Y-19.15
X8.89Y-20.0
X8.89Y-20.85
X9.74Y-19.15
X9.74Y-20.0
X9.74Y-20.85
T2
X1.95Y-20.3
X2.2Y-7.7
X2.3Y-12.85
X3.1Y-3.1
X3.1Y-6.0
X3.4Y-23.2
X3.7Y-11.9
X3.8Y-7.1
X3.8Y-19.55
X4.1Y-22.6
X4.7Y-7.8
X4.8Y-23.4
X4.9Y-22.2
X5.1Y-11.5
X6.1Y-23.3
X6.4Y-17.4
X6.5Y-10.3
X6.7Y-25.0
X6.85Y-32.0
X7.0Y-22.9
X7.3Y-14.5
X7.9Y-7.8
X8.89Y-29.6
X9.3Y-7.8
X9.35Y-24.55
X9.4Y-15.6
X10.0Y-15.0
X10.14Y-7.8
X10.3Y-16.8
X10.6Y-22.9
X10.9Y-24.5
X11.1Y-22.2
X11.2Y-14.6
X11.34Y-10.8
X11.5Y-12.95
X11.5Y-17.7
X11.6Y-25.7
X12.1Y-7.8
X12.3Y-24.5
X13.3Y-20.9
X13.3Y-22.3
X13.4Y-24.5
X13.6Y-7.3
X13.6Y-17.8
X13.8Y-3.6
X14.1Y-20.9
X14.1Y-23.7
X14.5Y-12.8
X14.9Y-20.9
X15.0Y-14.6
X15.1Y-2.9
X15.2Y-12.3
X15.5Y-5.0
X15.6Y-10.1
X16.9Y-2.2
T4
X-0.13Y-3.8
X-0.13Y-6.34
X-0.13Y-8.88
X-0.13Y-11.42
X-0.13Y-13.96
X-0.13Y-16.5
X-0.13Y-19.04
X-0.13Y-21.58
X-0.13Y-24.12
X-0.13Y-26.66
X-0.13Y-29.2
X-0.13Y-31.74
X1.27Y-3.8
X1.27Y-6.34
X1.27Y-8.88
X1.27Y-11.42
X1.27Y-13.96
X1.27Y-16.5
X1.27Y-19.04
X1.27Y-21.58
X1.27Y-24.12
X1.27Y-26.66
X1.27Y-29.2
X1.27Y-31.74
X4.2Y-13.96
X4.2Y-16.5
X16.51Y-3.8
X16.51Y-6.34
X16.51Y-8.88
X16.51Y-11.42
X16.51Y-13.96
X16.51Y-16.5
X16.51Y-19.04
X16.51Y-21.58
X16.51Y-24.12
X16.51Y-26.66
X16.51Y-29.2
X16.51Y-31.74
X17.91Y-3.8
X17.91Y-6.34
X17.91Y-8.88
X17.91Y-11.42
X17.91Y-13.96
X17.91Y-16.5
X17.91Y-19.04
X17.91Y-21.58
X17.91Y-24.12
X17.91Y-26.66
X17.91Y-29.2
X17.91Y-31.74
T5
X6.0Y-4.98
X11.78Y-4.98
T3
X4.57Y-1.63G85X4.57Y-1.03
G05
X4.57Y-6.06G85X4.57Y-4.96
G05
X13.21Y-1.63G85X13.21Y-1.03
G05
X13.21Y-6.06G85X13.21Y-4.96
G05
T0
M30
