G04 #@! TF.GenerationSoftware,KiCad,Pcbnew,(6.99.0-1912-g359c99991b)*
G04 #@! TF.CreationDate,2023-05-12T11:08:48+07:00*
G04 #@! TF.ProjectId,artemisia,61727465-6d69-4736-9961-2e6b69636164,1*
G04 #@! TF.SameCoordinates,Original*
G04 #@! TF.FileFunction,Copper,L2,Bot*
G04 #@! TF.FilePolarity,Positive*
%FSLAX46Y46*%
G04 Gerber Fmt 4.6, Leading zero omitted, Abs format (unit mm)*
G04 Created by KiCad (PCBNEW (6.99.0-1912-g359c99991b)) date 2023-05-12 11:08:48*
%MOMM*%
%LPD*%
G01*
G04 APERTURE LIST*
G04 Aperture macros list*
%AMFreePoly0*
4,1,19,0.550000,-0.750000,0.000000,-0.750000,0.000000,-0.744911,-0.071157,-0.744911,-0.207708,-0.704816,-0.327430,-0.627875,-0.420627,-0.520320,-0.479746,-0.390866,-0.500000,-0.250000,-0.500000,0.250000,-0.479746,0.390866,-0.420627,0.520320,-0.327430,0.627875,-0.207708,0.704816,-0.071157,0.744911,0.000000,0.744911,0.000000,0.750000,0.550000,0.750000,0.550000,-0.750000,0.550000,-0.750000,
$1*%
%AMFreePoly1*
4,1,19,0.000000,0.744911,0.071157,0.744911,0.207708,0.704816,0.327430,0.627875,0.420627,0.520320,0.479746,0.390866,0.500000,0.250000,0.500000,-0.250000,0.479746,-0.390866,0.420627,-0.520320,0.327430,-0.627875,0.207708,-0.704816,0.071157,-0.744911,0.000000,-0.744911,0.000000,-0.750000,-0.550000,-0.750000,-0.550000,0.750000,0.000000,0.750000,0.000000,0.744911,0.000000,0.744911,
$1*%
%AMFreePoly2*
4,1,6,1.000000,0.000000,0.500000,-0.750000,-0.500000,-0.750000,-0.500000,0.750000,0.500000,0.750000,1.000000,0.000000,1.000000,0.000000,$1*%
%AMFreePoly3*
4,1,6,0.500000,-0.750000,-0.650000,-0.750000,-0.150000,0.000000,-0.650000,0.750000,0.500000,0.750000,0.500000,-0.750000,0.500000,-0.750000,$1*%
G04 Aperture macros list end*
G04 #@! TA.AperFunction,ComponentPad*
%ADD10C,0.500000*%
G04 #@! TD*
G04 #@! TA.AperFunction,CastellatedPad*
%ADD11C,1.500000*%
G04 #@! TD*
G04 #@! TA.AperFunction,ComponentPad*
%ADD12O,2.800000X1.500000*%
G04 #@! TD*
G04 #@! TA.AperFunction,ComponentPad*
%ADD13R,1.700000X1.700000*%
G04 #@! TD*
G04 #@! TA.AperFunction,ComponentPad*
%ADD14O,1.700000X1.700000*%
G04 #@! TD*
G04 #@! TA.AperFunction,ComponentPad*
%ADD15O,1.000000X2.100000*%
G04 #@! TD*
G04 #@! TA.AperFunction,ComponentPad*
%ADD16O,1.000000X1.600000*%
G04 #@! TD*
G04 #@! TA.AperFunction,SMDPad,CuDef*
%ADD17FreePoly0,180.000000*%
G04 #@! TD*
G04 #@! TA.AperFunction,SMDPad,CuDef*
%ADD18R,1.000000X1.500000*%
G04 #@! TD*
G04 #@! TA.AperFunction,SMDPad,CuDef*
%ADD19FreePoly1,180.000000*%
G04 #@! TD*
G04 #@! TA.AperFunction,SMDPad,CuDef*
%ADD20FreePoly2,180.000000*%
G04 #@! TD*
G04 #@! TA.AperFunction,SMDPad,CuDef*
%ADD21FreePoly3,180.000000*%
G04 #@! TD*
G04 #@! TA.AperFunction,ViaPad*
%ADD22C,0.500000*%
G04 #@! TD*
G04 #@! TA.AperFunction,Conductor*
%ADD23C,0.300000*%
G04 #@! TD*
G04 #@! TA.AperFunction,Conductor*
%ADD24C,0.200000*%
G04 #@! TD*
G04 #@! TA.AperFunction,Conductor*
%ADD25C,0.150000*%
G04 #@! TD*
G04 #@! TA.AperFunction,Profile*
%ADD26C,0.100000*%
G04 #@! TD*
G04 APERTURE END LIST*
D10*
X8040000Y-20850000D03*
X8890000Y-20850000D03*
X9740000Y-20850000D03*
X8040000Y-20000000D03*
X8890000Y-20000000D03*
X9740000Y-20000000D03*
X8040000Y-19150000D03*
X8890000Y-19150000D03*
X9740000Y-19150000D03*
D11*
X17910000Y-31740000D03*
D12*
X17209999Y-31739999D03*
D11*
X17910000Y-29200000D03*
D12*
X17209999Y-29199999D03*
D11*
X17910000Y-26660000D03*
D12*
X17209999Y-26659999D03*
D11*
X17910000Y-24120000D03*
D12*
X17209999Y-24119999D03*
D11*
X17910000Y-21580000D03*
D12*
X17209999Y-21579999D03*
D11*
X17910000Y-19040000D03*
D12*
X17209999Y-19039999D03*
D11*
X17910000Y-16500000D03*
D12*
X17209999Y-16499999D03*
D11*
X17910000Y-13960000D03*
D12*
X17209999Y-13959999D03*
D11*
X17910000Y-11420000D03*
D12*
X17209999Y-11419999D03*
D11*
X17910000Y-8880000D03*
D12*
X17209999Y-8879999D03*
D11*
X17910000Y-6340000D03*
D12*
X17209999Y-6339999D03*
D11*
X17910000Y-3800000D03*
D12*
X17209999Y-3799999D03*
D13*
X4199999Y-16499999D03*
D14*
X4199999Y-13959999D03*
D11*
X-130000Y-3800000D03*
D12*
X569999Y-3799999D03*
D11*
X-130000Y-6340000D03*
D12*
X569999Y-6339999D03*
D11*
X-130000Y-8880000D03*
D12*
X569999Y-8879999D03*
D11*
X-130000Y-11420000D03*
D12*
X569999Y-11419999D03*
D11*
X-130000Y-13960000D03*
D12*
X569999Y-13959999D03*
D11*
X-130000Y-16500000D03*
D12*
X569999Y-16499999D03*
D11*
X-130000Y-19040000D03*
D12*
X569999Y-19039999D03*
D11*
X-130000Y-21580000D03*
D12*
X569999Y-21579999D03*
D11*
X-130000Y-24120000D03*
D12*
X569999Y-24119999D03*
D11*
X-130000Y-26660000D03*
D12*
X569999Y-26659999D03*
D11*
X-130000Y-29200000D03*
D12*
X569999Y-29199999D03*
D11*
X-130000Y-31740000D03*
D12*
X569999Y-31739999D03*
D15*
X13209999Y-5509999D03*
D16*
X13209999Y-1329999D03*
D15*
X4569999Y-5509999D03*
D16*
X4569999Y-1329999D03*
D17*
X10200000Y-5257500D03*
D18*
X8899999Y-5257499D03*
D19*
X7600000Y-5257500D03*
D17*
X10200000Y-1857500D03*
D18*
X8899999Y-1857499D03*
D19*
X7600000Y-1857500D03*
D20*
X9725000Y-10000000D03*
D21*
X8275000Y-10000000D03*
D22*
X6700000Y-25000000D03*
X8890000Y-29600000D03*
X6850000Y-32000000D03*
X3700000Y-11900000D03*
X15600000Y-10100000D03*
X6500000Y-10300000D03*
X15200000Y-12300000D03*
X2300000Y-12850000D03*
X9350000Y-24550000D03*
X11500000Y-12950000D03*
X7300000Y-14500000D03*
X16900000Y-2200000D03*
X15000000Y-14600000D03*
X3800000Y-19550000D03*
X13400000Y-24500000D03*
X1950000Y-20300000D03*
X4700000Y-7800000D03*
X12100000Y-7800000D03*
X9300000Y-7800000D03*
X7900000Y-7800000D03*
X10900000Y-24500000D03*
X7000000Y-22900000D03*
X13600000Y-17800000D03*
X15500000Y-5000000D03*
X15100000Y-2900000D03*
X11500000Y-17700000D03*
X11200000Y-14600000D03*
X4800000Y-23400000D03*
X14500000Y-12800000D03*
X10600000Y-22900000D03*
X13800000Y-3600000D03*
X11100000Y-22200000D03*
X13600000Y-7300000D03*
X4900000Y-22200000D03*
X4100000Y-22600000D03*
X3800000Y-7100000D03*
X2200000Y-7700000D03*
X9400000Y-15600000D03*
X5100000Y-11500000D03*
X3100000Y-3100000D03*
X10000000Y-15000000D03*
X3100000Y-6000000D03*
X3400000Y-23200000D03*
X6100000Y-23300000D03*
X10300000Y-16800000D03*
X6400000Y-17400000D03*
X12300000Y-24500000D03*
X11600000Y-25700000D03*
X13300000Y-22300000D03*
X13300000Y-20900000D03*
X14100000Y-23700000D03*
X14100000Y-20900000D03*
X14900000Y-20900000D03*
X11340000Y-10800000D03*
X10140000Y-7800000D03*
D23*
X4700000Y-7800000D02*
X5400000Y-7800000D01*
X11200000Y-6900000D02*
X12100000Y-7800000D01*
X5400000Y-7800000D02*
X6300000Y-6900000D01*
X6300000Y-6900000D02*
X11200000Y-6900000D01*
D24*
X7900000Y-7800000D02*
X9300000Y-7800000D01*
X10900000Y-24500000D02*
X11000000Y-24500000D01*
X15100000Y-4600000D02*
X15500000Y-5000000D01*
X13600000Y-17800000D02*
X13862247Y-17537753D01*
X16510000Y-12040000D02*
X16510000Y-11420000D01*
X12275480Y-20224520D02*
X13600000Y-18900000D01*
X15100000Y-4600000D02*
X15100000Y-2900000D01*
X7500000Y-18200000D02*
X11000000Y-18200000D01*
X13600000Y-18900000D02*
X13600000Y-17800000D01*
X13862247Y-14687753D02*
X16510000Y-12040000D01*
X13862247Y-17537753D02*
X13862247Y-14687753D01*
X6700000Y-22600000D02*
X6700000Y-19000000D01*
X11000000Y-18200000D02*
X11500000Y-17700000D01*
X11000000Y-24500000D02*
X12275480Y-23224520D01*
X6700000Y-19000000D02*
X7500000Y-18200000D01*
X7000000Y-22900000D02*
X6700000Y-22600000D01*
X12275480Y-23224520D02*
X12275480Y-20224520D01*
D25*
X15220000Y-8880000D02*
X16510000Y-8880000D01*
X14500000Y-11950000D02*
X14750000Y-11700000D01*
D24*
X10400000Y-17700000D02*
X11200000Y-16900000D01*
X7300000Y-17700000D02*
X10400000Y-17700000D01*
D25*
X14500000Y-12800000D02*
X14500000Y-11950000D01*
D24*
X6174519Y-18825481D02*
X7300000Y-17700000D01*
X11200000Y-16900000D02*
X11200000Y-14600000D01*
D25*
X14750000Y-11700000D02*
X14750000Y-9350000D01*
X14750000Y-9350000D02*
X15220000Y-8880000D01*
D24*
X6174519Y-22025481D02*
X6174519Y-18825481D01*
X4800000Y-23400000D02*
X6174519Y-22025481D01*
D25*
X14350480Y-11549520D02*
X13537727Y-12362273D01*
X11950960Y-22549040D02*
X11600000Y-22900000D01*
X10200000Y-1857500D02*
X11042500Y-2700000D01*
X11950960Y-19949040D02*
X11950960Y-22549040D01*
X14600000Y-4100000D02*
X14350480Y-4349520D01*
X14350480Y-4349520D02*
X14350480Y-11549520D01*
X12900000Y-19000000D02*
X11950960Y-19949040D01*
X14600000Y-3400000D02*
X14600000Y-4100000D01*
X11600000Y-22900000D02*
X10600000Y-22900000D01*
X11042500Y-2700000D02*
X13900000Y-2700000D01*
X13537727Y-16862273D02*
X12900000Y-17500000D01*
X13537727Y-12362273D02*
X13537727Y-16862273D01*
X13900000Y-2700000D02*
X14600000Y-3400000D01*
X12900000Y-17500000D02*
X12900000Y-19000000D01*
X13238207Y-16738207D02*
X13238207Y-12238207D01*
X14050960Y-8650960D02*
X13600000Y-8200000D01*
X11100000Y-22200000D02*
X11651440Y-21648560D01*
X13238207Y-12238207D02*
X14050960Y-11425454D01*
X13600000Y-8200000D02*
X13600000Y-7300000D01*
X10200000Y-4000000D02*
X10200000Y-5257500D01*
X10600000Y-3600000D02*
X10200000Y-4000000D01*
X11651440Y-19824974D02*
X12600480Y-18875934D01*
X12600480Y-17375934D02*
X13238207Y-16738207D01*
X11651440Y-21648560D02*
X11651440Y-19824974D01*
X13800000Y-3600000D02*
X10600000Y-3600000D01*
X14050960Y-11425454D02*
X14050960Y-8650960D01*
X12600480Y-18875934D02*
X12600480Y-17375934D01*
X2600000Y-15800000D02*
X1270000Y-14470000D01*
X4900000Y-22200000D02*
X3000000Y-20300000D01*
X2600000Y-17776414D02*
X2600000Y-15800000D01*
X3000000Y-20300000D02*
X3000000Y-18176414D01*
X1270000Y-14470000D02*
X1270000Y-13960000D01*
X3000000Y-18176414D02*
X2600000Y-17776414D01*
X2700000Y-18300000D02*
X1270000Y-16870000D01*
X4100000Y-22600000D02*
X4100000Y-21823586D01*
X2700000Y-20423586D02*
X2700000Y-18300000D01*
X1270000Y-16870000D02*
X1270000Y-16500000D01*
X4100000Y-21823586D02*
X2700000Y-20423586D01*
X3350000Y-4050000D02*
X4049520Y-3350480D01*
X8449520Y-3350480D02*
X8900000Y-2900000D01*
X1520000Y-4050000D02*
X3350000Y-4050000D01*
X8900000Y-2900000D02*
X8900000Y-1857500D01*
X4049520Y-3350480D02*
X8449520Y-3350480D01*
X1270000Y-3800000D02*
X1520000Y-4050000D01*
X8550000Y-3700000D02*
X4123586Y-3700000D01*
X4123586Y-3700000D02*
X1483586Y-6340000D01*
X8900000Y-5257500D02*
X8900000Y-4050000D01*
X1483586Y-6340000D02*
X1270000Y-6340000D01*
X8900000Y-4050000D02*
X8550000Y-3700000D01*
X6799040Y-15200000D02*
X6349520Y-14750480D01*
X9000000Y-15200000D02*
X6799040Y-15200000D01*
X7342500Y-5257500D02*
X7600000Y-5257500D01*
X6000000Y-12500000D02*
X3100000Y-12500000D01*
X2600000Y-8100000D02*
X2200000Y-7700000D01*
X6349520Y-14750480D02*
X6349519Y-12849519D01*
X6349519Y-12849519D02*
X6000000Y-12500000D01*
X2600000Y-12000000D02*
X2600000Y-8100000D01*
X5500000Y-7100000D02*
X7342500Y-5257500D01*
X3800000Y-7100000D02*
X5500000Y-7100000D01*
X3100000Y-12500000D02*
X2600000Y-12000000D01*
X9400000Y-15600000D02*
X9000000Y-15200000D01*
X5650480Y-12050480D02*
X7749520Y-12050480D01*
X5100000Y-11500000D02*
X5650480Y-12050480D01*
X7749520Y-12050480D02*
X8275000Y-11525000D01*
X8275000Y-11525000D02*
X8275000Y-10000000D01*
X3100000Y-8100000D02*
X3100000Y-6000000D01*
X3100000Y-3100000D02*
X3400000Y-2800000D01*
X9725000Y-8925000D02*
X9300000Y-8500000D01*
X9300000Y-8500000D02*
X3500000Y-8500000D01*
X3400000Y-2800000D02*
X6657500Y-2800000D01*
X3500000Y-8500000D02*
X3100000Y-8100000D01*
X10000000Y-15000000D02*
X9725000Y-14725000D01*
X6657500Y-2800000D02*
X7600000Y-1857500D01*
X9725000Y-14725000D02*
X9725000Y-10000000D01*
X9725000Y-10000000D02*
X9725000Y-8925000D01*
X3400000Y-28800000D02*
X3000000Y-29200000D01*
X3400000Y-23200000D02*
X3400000Y-28800000D01*
X3000000Y-29200000D02*
X1270000Y-29200000D01*
X5700000Y-24500000D02*
X6100000Y-24100000D01*
X3699520Y-25000480D02*
X4200000Y-24500000D01*
X6100000Y-24100000D02*
X6100000Y-23300000D01*
X3699520Y-31200480D02*
X3699520Y-25000480D01*
X3160000Y-31740000D02*
X3699520Y-31200480D01*
X4200000Y-24500000D02*
X5700000Y-24500000D01*
X1270000Y-31740000D02*
X3160000Y-31740000D01*
X10300000Y-16800000D02*
X7000000Y-16800000D01*
X7000000Y-16800000D02*
X6400000Y-17400000D01*
X12300000Y-24500000D02*
X12600000Y-24200000D01*
X12600000Y-20400000D02*
X13000000Y-20000000D01*
X15550000Y-20000000D02*
X16510000Y-19040000D01*
X13000000Y-20000000D02*
X15550000Y-20000000D01*
X12600000Y-24200000D02*
X12600000Y-20400000D01*
X11600000Y-31300000D02*
X11600000Y-25700000D01*
X12040000Y-31740000D02*
X11600000Y-31300000D01*
X16510000Y-31740000D02*
X12040000Y-31740000D01*
X13300000Y-20900000D02*
X13300000Y-22300000D01*
X14100000Y-20900000D02*
X14100000Y-23700000D01*
X16510000Y-29200000D02*
X15200000Y-29200000D01*
X14900000Y-28900000D02*
X14900000Y-20900000D01*
X15200000Y-29200000D02*
X14900000Y-28900000D01*
X11340000Y-10800000D02*
X11340000Y-9000000D01*
X11340000Y-9000000D02*
X10140000Y-7800000D01*
G04 #@! TA.AperFunction,Conductor*
G36*
X12592725Y-3949502D02*
G01*
X12639218Y-4003158D01*
X12649322Y-4073432D01*
X12619828Y-4138012D01*
X12604537Y-4152899D01*
X12498573Y-4239861D01*
X12489861Y-4248573D01*
X12371755Y-4392486D01*
X12364904Y-4402739D01*
X12277141Y-4566931D01*
X12272428Y-4578311D01*
X12265403Y-4601468D01*
X12226487Y-4660849D01*
X12161646Y-4689764D01*
X12091465Y-4679032D01*
X12055734Y-4653986D01*
X12033220Y-4631472D01*
X11913126Y-4570281D01*
X11903337Y-4568731D01*
X11903335Y-4568730D01*
X11868620Y-4563232D01*
X11813488Y-4554500D01*
X11746512Y-4554500D01*
X11691380Y-4563232D01*
X11656665Y-4568730D01*
X11656663Y-4568731D01*
X11646874Y-4570281D01*
X11526780Y-4631472D01*
X11431472Y-4726780D01*
X11370281Y-4846874D01*
X11368731Y-4856663D01*
X11368730Y-4856665D01*
X11360318Y-4909778D01*
X11349196Y-4980000D01*
X11350747Y-4989793D01*
X11365859Y-5085204D01*
X11370281Y-5113126D01*
X11431472Y-5233220D01*
X11526780Y-5328528D01*
X11646874Y-5389719D01*
X11656663Y-5391269D01*
X11656665Y-5391270D01*
X11686149Y-5395940D01*
X11746512Y-5405500D01*
X11813488Y-5405500D01*
X11873851Y-5395940D01*
X11903335Y-5391270D01*
X11903337Y-5391269D01*
X11913126Y-5389719D01*
X12033220Y-5328528D01*
X12076715Y-5285033D01*
X12139027Y-5251007D01*
X12192591Y-5251007D01*
X12215545Y-5256000D01*
X13338000Y-5256000D01*
X13406121Y-5276002D01*
X13452614Y-5329658D01*
X13464000Y-5382000D01*
X13464000Y-5638000D01*
X13443998Y-5706121D01*
X13390342Y-5752614D01*
X13338000Y-5764000D01*
X12220115Y-5764000D01*
X12204876Y-5768475D01*
X12203671Y-5769865D01*
X12202000Y-5777548D01*
X12202000Y-6106426D01*
X12202303Y-6112598D01*
X12215978Y-6251438D01*
X12218384Y-6263532D01*
X12272427Y-6441687D01*
X12277141Y-6453069D01*
X12364904Y-6617261D01*
X12371755Y-6627514D01*
X12489861Y-6771427D01*
X12498573Y-6780139D01*
X12642486Y-6898245D01*
X12652739Y-6905096D01*
X12816931Y-6992859D01*
X12828313Y-6997573D01*
X13012397Y-7053415D01*
X13011979Y-7054793D01*
X13068471Y-7084338D01*
X13103607Y-7146031D01*
X13105703Y-7192948D01*
X13091594Y-7291077D01*
X13091594Y-7291083D01*
X13090312Y-7300000D01*
X13110958Y-7443596D01*
X13114701Y-7451792D01*
X13114702Y-7451796D01*
X13130298Y-7485946D01*
X13137475Y-7505992D01*
X13141445Y-7520968D01*
X13183782Y-7607402D01*
X13190024Y-7619350D01*
X13190605Y-7620395D01*
X13197332Y-7631800D01*
X13230776Y-7685327D01*
X13235847Y-7693443D01*
X13238248Y-7697450D01*
X13245506Y-7710100D01*
X13261832Y-7763010D01*
X13265443Y-7809363D01*
X13266850Y-7814766D01*
X13267772Y-7820264D01*
X13267352Y-7820334D01*
X13270500Y-7844919D01*
X13270500Y-8180118D01*
X13270020Y-8191100D01*
X13267870Y-8215679D01*
X13266690Y-8229160D01*
X13269543Y-8239807D01*
X13269543Y-8239809D01*
X13276580Y-8266070D01*
X13278959Y-8276801D01*
X13283480Y-8302437D01*
X13285595Y-8314434D01*
X13291106Y-8323979D01*
X13292363Y-8327433D01*
X13293913Y-8330757D01*
X13296765Y-8341401D01*
X13303085Y-8350427D01*
X13303086Y-8350429D01*
X13318681Y-8372700D01*
X13324587Y-8381971D01*
X13338180Y-8405515D01*
X13338182Y-8405518D01*
X13343695Y-8415066D01*
X13352142Y-8422154D01*
X13352143Y-8422155D01*
X13372962Y-8439624D01*
X13381067Y-8447050D01*
X13684556Y-8750540D01*
X13718581Y-8812852D01*
X13721460Y-8839635D01*
X13721460Y-11236781D01*
X13701458Y-11304902D01*
X13684555Y-11325876D01*
X13019284Y-11991147D01*
X13011180Y-11998574D01*
X12981902Y-12023141D01*
X12976392Y-12032684D01*
X12976389Y-12032688D01*
X12962794Y-12056236D01*
X12956890Y-12065503D01*
X12934972Y-12096806D01*
X12932120Y-12107450D01*
X12930570Y-12110774D01*
X12929313Y-12114228D01*
X12923802Y-12123773D01*
X12921888Y-12134625D01*
X12921888Y-12134626D01*
X12917166Y-12161406D01*
X12914788Y-12172134D01*
X12904897Y-12209047D01*
X12905858Y-12220029D01*
X12908227Y-12247107D01*
X12908707Y-12258089D01*
X12908707Y-16549534D01*
X12888705Y-16617655D01*
X12871802Y-16638629D01*
X12381557Y-17128874D01*
X12373453Y-17136301D01*
X12344175Y-17160868D01*
X12338665Y-17170411D01*
X12338662Y-17170415D01*
X12325067Y-17193963D01*
X12319163Y-17203230D01*
X12297245Y-17234533D01*
X12294393Y-17245177D01*
X12292843Y-17248501D01*
X12291586Y-17251955D01*
X12286075Y-17261500D01*
X12284161Y-17272352D01*
X12284161Y-17272353D01*
X12279439Y-17299133D01*
X12277060Y-17309864D01*
X12273912Y-17321614D01*
X12267170Y-17346774D01*
X12269816Y-17377016D01*
X12270500Y-17384834D01*
X12270980Y-17395816D01*
X12270980Y-18687261D01*
X12250978Y-18755382D01*
X12234075Y-18776356D01*
X11432517Y-19577914D01*
X11424413Y-19585341D01*
X11395135Y-19609908D01*
X11389625Y-19619451D01*
X11389622Y-19619455D01*
X11376027Y-19643003D01*
X11370121Y-19652274D01*
X11357030Y-19670970D01*
X11348205Y-19683573D01*
X11345353Y-19694217D01*
X11343803Y-19697541D01*
X11342546Y-19700995D01*
X11337035Y-19710540D01*
X11335121Y-19721392D01*
X11335121Y-19721393D01*
X11330399Y-19748173D01*
X11328021Y-19758901D01*
X11318130Y-19795814D01*
X11319091Y-19806796D01*
X11321460Y-19833874D01*
X11321940Y-19844856D01*
X11321940Y-21459886D01*
X11301938Y-21528007D01*
X11285035Y-21548981D01*
X11252187Y-21581829D01*
X11233558Y-21595943D01*
X11234078Y-21596688D01*
X11229005Y-21600229D01*
X11223607Y-21603258D01*
X11218907Y-21607279D01*
X11218905Y-21607280D01*
X11188275Y-21633482D01*
X11139311Y-21659352D01*
X11134745Y-21660589D01*
X11125290Y-21663149D01*
X11120726Y-21664294D01*
X11049898Y-21680650D01*
X11036967Y-21683989D01*
X11035809Y-21684320D01*
X11035046Y-21684560D01*
X11035031Y-21684564D01*
X11023803Y-21688088D01*
X11023767Y-21688100D01*
X11023056Y-21688323D01*
X11022316Y-21688577D01*
X11022299Y-21688582D01*
X10938301Y-21717347D01*
X10938299Y-21717348D01*
X10932000Y-21719505D01*
X10926289Y-21722937D01*
X10921649Y-21725096D01*
X10903985Y-21731756D01*
X10896913Y-21733832D01*
X10896909Y-21733834D01*
X10888268Y-21736371D01*
X10880691Y-21741241D01*
X10880690Y-21741241D01*
X10773805Y-21809932D01*
X10773802Y-21809934D01*
X10766225Y-21814804D01*
X10760324Y-21821614D01*
X10677125Y-21917630D01*
X10677123Y-21917633D01*
X10671223Y-21924442D01*
X10667479Y-21932639D01*
X10667479Y-21932640D01*
X10654953Y-21960069D01*
X10610958Y-22056404D01*
X10590312Y-22200000D01*
X10591594Y-22208917D01*
X10591594Y-22208918D01*
X10599198Y-22261807D01*
X10589093Y-22332081D01*
X10542600Y-22385736D01*
X10509978Y-22400634D01*
X10396914Y-22433832D01*
X10396912Y-22433833D01*
X10388268Y-22436371D01*
X10380689Y-22441242D01*
X10273805Y-22509932D01*
X10273802Y-22509934D01*
X10266225Y-22514804D01*
X10260324Y-22521614D01*
X10177125Y-22617630D01*
X10177123Y-22617633D01*
X10171223Y-22624442D01*
X10110958Y-22756404D01*
X10109676Y-22765321D01*
X10092601Y-22884083D01*
X10090312Y-22900000D01*
X10110958Y-23043596D01*
X10114701Y-23051792D01*
X10150574Y-23130342D01*
X10171223Y-23175558D01*
X10177123Y-23182367D01*
X10177125Y-23182370D01*
X10249005Y-23265323D01*
X10266225Y-23285196D01*
X10273802Y-23290066D01*
X10273805Y-23290068D01*
X10315040Y-23316568D01*
X10388268Y-23363629D01*
X10396912Y-23366167D01*
X10396914Y-23366168D01*
X10518819Y-23401962D01*
X10518821Y-23401962D01*
X10527464Y-23404500D01*
X10672536Y-23404500D01*
X10681179Y-23401962D01*
X10681181Y-23401962D01*
X10803083Y-23366169D01*
X10803086Y-23366168D01*
X10811732Y-23363629D01*
X10818689Y-23359158D01*
X10820971Y-23358553D01*
X10826527Y-23355832D01*
X10826531Y-23355830D01*
X10906683Y-23316568D01*
X10907412Y-23316211D01*
X10919339Y-23309981D01*
X10920377Y-23309404D01*
X10925186Y-23306568D01*
X10931138Y-23303058D01*
X10931169Y-23303039D01*
X10931800Y-23302667D01*
X10993474Y-23264133D01*
X10997496Y-23261724D01*
X11010085Y-23254501D01*
X11063008Y-23238167D01*
X11109364Y-23234556D01*
X11114764Y-23233150D01*
X11120263Y-23232228D01*
X11120333Y-23232647D01*
X11144918Y-23229500D01*
X11464971Y-23229500D01*
X11533092Y-23249502D01*
X11579585Y-23303158D01*
X11589689Y-23373432D01*
X11560195Y-23438012D01*
X11554066Y-23444595D01*
X11079547Y-23919114D01*
X11059040Y-23935543D01*
X11054899Y-23937632D01*
X11050026Y-23941442D01*
X11050023Y-23941444D01*
X11045191Y-23945222D01*
X10976983Y-23971607D01*
X10976957Y-23971609D01*
X10976783Y-23971621D01*
X10973026Y-23971914D01*
X10972609Y-23971947D01*
X10972595Y-23971948D01*
X10972200Y-23971979D01*
X10971931Y-23972002D01*
X10971838Y-23972010D01*
X10912352Y-23977185D01*
X10889542Y-23979169D01*
X10877617Y-23980807D01*
X10865527Y-23982468D01*
X10865516Y-23982470D01*
X10863964Y-23982683D01*
X10861688Y-23983112D01*
X10836747Y-23989103D01*
X10743780Y-24016359D01*
X10731013Y-24020463D01*
X10729868Y-24020864D01*
X10717226Y-24025665D01*
X10715874Y-24026561D01*
X10699742Y-24033002D01*
X10696914Y-24033832D01*
X10696911Y-24033833D01*
X10688268Y-24036371D01*
X10680689Y-24041242D01*
X10573805Y-24109932D01*
X10573802Y-24109934D01*
X10566225Y-24114804D01*
X10560324Y-24121614D01*
X10477125Y-24217630D01*
X10477123Y-24217633D01*
X10471223Y-24224442D01*
X10410958Y-24356404D01*
X10390312Y-24500000D01*
X10410958Y-24643596D01*
X10471223Y-24775558D01*
X10477123Y-24782367D01*
X10477125Y-24782370D01*
X10560321Y-24878383D01*
X10566225Y-24885196D01*
X10573802Y-24890066D01*
X10573805Y-24890068D01*
X10650764Y-24939527D01*
X10688268Y-24963629D01*
X10696912Y-24966167D01*
X10696914Y-24966168D01*
X10818819Y-25001962D01*
X10818821Y-25001962D01*
X10827464Y-25004500D01*
X10972536Y-25004500D01*
X10981179Y-25001962D01*
X10981181Y-25001962D01*
X11103086Y-24966168D01*
X11103088Y-24966167D01*
X11111732Y-24963629D01*
X11149236Y-24939527D01*
X11226195Y-24890068D01*
X11226198Y-24890066D01*
X11233775Y-24885196D01*
X11239677Y-24878385D01*
X11239679Y-24878383D01*
X11254640Y-24861117D01*
X11272924Y-24843849D01*
X11280485Y-24838019D01*
X11287502Y-24829980D01*
X11335001Y-24775558D01*
X11351709Y-24756415D01*
X11364718Y-24740249D01*
X11365827Y-24738752D01*
X11377419Y-24721731D01*
X11378061Y-24720703D01*
X11378074Y-24720683D01*
X11422541Y-24649475D01*
X11422549Y-24649462D01*
X11422903Y-24648895D01*
X11428460Y-24639567D01*
X11428946Y-24638711D01*
X11429228Y-24638188D01*
X11429254Y-24638142D01*
X11433855Y-24629623D01*
X11433864Y-24629605D01*
X11434161Y-24629056D01*
X11461510Y-24575755D01*
X11466741Y-24566536D01*
X11467915Y-24564657D01*
X11488078Y-24532369D01*
X11500024Y-24516254D01*
X11505087Y-24510454D01*
X11552632Y-24455982D01*
X11555532Y-24451123D01*
X11558852Y-24446550D01*
X11559036Y-24446683D01*
X11574478Y-24426861D01*
X11576499Y-24424840D01*
X11638811Y-24390814D01*
X11709626Y-24395879D01*
X11766462Y-24438426D01*
X11789473Y-24500121D01*
X11790312Y-24500000D01*
X11810958Y-24643596D01*
X11871223Y-24775558D01*
X11877123Y-24782367D01*
X11877125Y-24782370D01*
X11960321Y-24878383D01*
X11966225Y-24885196D01*
X11973802Y-24890066D01*
X11973805Y-24890068D01*
X12050764Y-24939527D01*
X12088268Y-24963629D01*
X12096912Y-24966167D01*
X12096914Y-24966168D01*
X12218819Y-25001962D01*
X12218821Y-25001962D01*
X12227464Y-25004500D01*
X12372536Y-25004500D01*
X12381179Y-25001962D01*
X12381181Y-25001962D01*
X12503086Y-24966168D01*
X12503088Y-24966167D01*
X12511732Y-24963629D01*
X12549236Y-24939527D01*
X12626195Y-24890068D01*
X12626198Y-24890066D01*
X12633775Y-24885196D01*
X12639679Y-24878383D01*
X12722875Y-24782370D01*
X12722877Y-24782367D01*
X12728777Y-24775558D01*
X12732521Y-24767360D01*
X12732523Y-24767357D01*
X12752283Y-24724089D01*
X12764520Y-24702980D01*
X12768326Y-24697675D01*
X12768327Y-24697673D01*
X12771932Y-24692649D01*
X12781580Y-24671391D01*
X12815473Y-24596712D01*
X12817504Y-24592450D01*
X12854089Y-24519257D01*
X12854334Y-24518767D01*
X12858557Y-24509904D01*
X12858922Y-24509099D01*
X12860142Y-24506265D01*
X12862654Y-24500424D01*
X12862879Y-24499902D01*
X12874798Y-24470667D01*
X12890822Y-24431360D01*
X12890823Y-24431358D01*
X12891356Y-24430050D01*
X12891832Y-24428711D01*
X12898803Y-24409098D01*
X12898806Y-24409089D01*
X12899284Y-24407744D01*
X12899907Y-24405700D01*
X12905787Y-24382676D01*
X12914703Y-24339633D01*
X12922748Y-24300793D01*
X12922749Y-24300786D01*
X12922996Y-24299595D01*
X12926326Y-24279622D01*
X12926555Y-24277817D01*
X12928313Y-24257764D01*
X12928363Y-24256727D01*
X12929658Y-24248945D01*
X12930458Y-24239806D01*
X12933310Y-24229160D01*
X12932350Y-24218183D01*
X12932350Y-24218179D01*
X12931740Y-24211208D01*
X12931410Y-24194108D01*
X12932581Y-24170020D01*
X12933597Y-24149139D01*
X12931108Y-24133707D01*
X12929500Y-24113644D01*
X12929500Y-22885327D01*
X12949502Y-22817206D01*
X13003158Y-22770713D01*
X13073432Y-22760609D01*
X13090997Y-22764431D01*
X13196812Y-22795500D01*
X13227464Y-22804500D01*
X13372536Y-22804500D01*
X13381179Y-22801962D01*
X13381181Y-22801962D01*
X13503086Y-22766168D01*
X13503088Y-22766167D01*
X13511732Y-22763629D01*
X13519310Y-22758759D01*
X13519312Y-22758758D01*
X13576379Y-22722083D01*
X13644500Y-22702081D01*
X13712621Y-22722083D01*
X13759114Y-22775739D01*
X13770500Y-22828081D01*
X13770500Y-23155273D01*
X13767307Y-23178418D01*
X13768203Y-23178577D01*
X13767119Y-23184674D01*
X13765443Y-23190636D01*
X13761832Y-23236988D01*
X13745500Y-23289907D01*
X13738266Y-23302514D01*
X13735838Y-23306568D01*
X13698601Y-23366169D01*
X13697331Y-23368201D01*
X13696924Y-23368891D01*
X13696907Y-23368919D01*
X13693313Y-23375013D01*
X13690605Y-23379604D01*
X13690024Y-23380649D01*
X13683782Y-23392597D01*
X13641445Y-23479031D01*
X13639836Y-23485485D01*
X13638427Y-23491134D01*
X13630785Y-23512987D01*
X13622513Y-23531101D01*
X13610958Y-23556404D01*
X13590312Y-23700000D01*
X13591594Y-23708917D01*
X13593236Y-23720334D01*
X13610958Y-23843596D01*
X13671223Y-23975558D01*
X13677123Y-23982367D01*
X13677125Y-23982370D01*
X13757599Y-24075241D01*
X13766225Y-24085196D01*
X13773802Y-24090066D01*
X13773805Y-24090068D01*
X13826195Y-24123737D01*
X13888268Y-24163629D01*
X13896912Y-24166167D01*
X13896914Y-24166168D01*
X14018819Y-24201962D01*
X14018821Y-24201962D01*
X14027464Y-24204500D01*
X14172536Y-24204500D01*
X14181179Y-24201962D01*
X14181181Y-24201962D01*
X14303086Y-24166168D01*
X14303088Y-24166167D01*
X14311732Y-24163629D01*
X14319310Y-24158759D01*
X14319312Y-24158758D01*
X14376379Y-24122083D01*
X14444500Y-24102081D01*
X14512621Y-24122083D01*
X14559114Y-24175739D01*
X14570500Y-24228081D01*
X14570500Y-28880118D01*
X14570020Y-28891100D01*
X14566690Y-28929160D01*
X14569543Y-28939807D01*
X14569543Y-28939809D01*
X14576580Y-28966070D01*
X14578959Y-28976801D01*
X14583594Y-29003084D01*
X14585595Y-29014434D01*
X14591106Y-29023979D01*
X14592363Y-29027433D01*
X14593913Y-29030757D01*
X14596765Y-29041401D01*
X14603085Y-29050427D01*
X14603086Y-29050429D01*
X14618681Y-29072700D01*
X14624587Y-29081971D01*
X14638180Y-29105515D01*
X14638182Y-29105518D01*
X14643695Y-29115066D01*
X14672981Y-29139640D01*
X14681072Y-29147055D01*
X14952940Y-29418923D01*
X14960367Y-29427027D01*
X14984934Y-29456305D01*
X14994477Y-29461815D01*
X14994481Y-29461818D01*
X15018029Y-29475413D01*
X15027300Y-29481319D01*
X15049571Y-29496914D01*
X15049573Y-29496915D01*
X15058599Y-29503235D01*
X15069243Y-29506087D01*
X15072567Y-29507637D01*
X15076021Y-29508894D01*
X15085566Y-29514405D01*
X15096418Y-29516319D01*
X15096419Y-29516319D01*
X15123199Y-29521041D01*
X15133930Y-29523420D01*
X15160191Y-29530457D01*
X15160193Y-29530457D01*
X15170840Y-29533310D01*
X15181824Y-29532349D01*
X15181825Y-29532349D01*
X15208900Y-29529980D01*
X15219882Y-29529500D01*
X15324618Y-29529500D01*
X15375155Y-29540079D01*
X15410898Y-29555729D01*
X15425438Y-29563256D01*
X15630374Y-29686864D01*
X15642071Y-29694849D01*
X15705974Y-29743955D01*
X15736128Y-29777212D01*
X15761570Y-29818031D01*
X15765975Y-29822665D01*
X15897922Y-29961475D01*
X15897926Y-29961479D01*
X15902322Y-29966103D01*
X15907561Y-29969750D01*
X15907564Y-29969752D01*
X16007418Y-30039252D01*
X16070000Y-30082810D01*
X16257739Y-30163375D01*
X16263997Y-30164661D01*
X16264000Y-30164662D01*
X16334381Y-30179126D01*
X16457852Y-30204500D01*
X17553500Y-30204500D01*
X17621621Y-30224502D01*
X17668114Y-30278158D01*
X17679500Y-30330500D01*
X17679500Y-30609500D01*
X17659498Y-30677621D01*
X17605842Y-30724114D01*
X17553500Y-30735500D01*
X16509060Y-30735500D01*
X16505886Y-30735823D01*
X16505881Y-30735823D01*
X16451471Y-30741356D01*
X16356753Y-30750988D01*
X16161827Y-30812147D01*
X16156240Y-30815248D01*
X15988788Y-30908191D01*
X15988784Y-30908194D01*
X15983202Y-30911292D01*
X15828191Y-31044364D01*
X15824282Y-31049414D01*
X15824281Y-31049415D01*
X15790521Y-31093029D01*
X15761475Y-31120272D01*
X15674306Y-31179230D01*
X15662157Y-31187447D01*
X15648758Y-31195350D01*
X15451701Y-31295732D01*
X15435333Y-31302663D01*
X15247061Y-31367141D01*
X15228021Y-31372041D01*
X15168675Y-31382458D01*
X15024813Y-31407710D01*
X15024746Y-31407329D01*
X14999535Y-31410500D01*
X12228673Y-31410500D01*
X12160552Y-31390498D01*
X12139578Y-31373595D01*
X11966405Y-31200422D01*
X11932379Y-31138110D01*
X11929500Y-31111327D01*
X11929500Y-26244723D01*
X11932693Y-26221576D01*
X11931798Y-26221417D01*
X11932882Y-26215317D01*
X11934557Y-26209360D01*
X11938168Y-26163005D01*
X11954501Y-26110085D01*
X11961728Y-26097489D01*
X11964133Y-26093474D01*
X12002667Y-26031800D01*
X12009394Y-26020395D01*
X12009975Y-26019350D01*
X12010330Y-26018670D01*
X12010347Y-26018639D01*
X12015844Y-26008118D01*
X12015860Y-26008087D01*
X12016216Y-26007405D01*
X12058554Y-25920972D01*
X12061571Y-25908873D01*
X12069214Y-25887013D01*
X12085301Y-25851788D01*
X12085301Y-25851787D01*
X12089042Y-25843596D01*
X12109688Y-25700000D01*
X12089042Y-25556404D01*
X12028777Y-25424442D01*
X12022877Y-25417633D01*
X12022875Y-25417630D01*
X11939676Y-25321614D01*
X11933775Y-25314804D01*
X11926198Y-25309934D01*
X11926195Y-25309932D01*
X11819311Y-25241242D01*
X11811732Y-25236371D01*
X11803088Y-25233833D01*
X11803086Y-25233832D01*
X11681181Y-25198038D01*
X11681179Y-25198038D01*
X11672536Y-25195500D01*
X11527464Y-25195500D01*
X11518821Y-25198038D01*
X11518819Y-25198038D01*
X11396914Y-25233832D01*
X11396912Y-25233833D01*
X11388268Y-25236371D01*
X11380689Y-25241242D01*
X11273805Y-25309932D01*
X11273802Y-25309934D01*
X11266225Y-25314804D01*
X11260324Y-25321614D01*
X11177125Y-25417630D01*
X11177123Y-25417633D01*
X11171223Y-25424442D01*
X11110958Y-25556404D01*
X11090312Y-25700000D01*
X11110958Y-25843596D01*
X11114701Y-25851792D01*
X11114702Y-25851796D01*
X11130298Y-25885946D01*
X11137475Y-25905992D01*
X11141445Y-25920968D01*
X11183782Y-26007402D01*
X11190024Y-26019350D01*
X11190605Y-26020395D01*
X11197332Y-26031800D01*
X11200793Y-26037339D01*
X11235847Y-26093443D01*
X11238248Y-26097450D01*
X11245506Y-26110100D01*
X11261832Y-26163010D01*
X11265443Y-26209363D01*
X11266850Y-26214766D01*
X11267772Y-26220264D01*
X11267352Y-26220334D01*
X11270500Y-26244919D01*
X11270500Y-31280118D01*
X11270020Y-31291100D01*
X11266690Y-31329160D01*
X11269543Y-31339807D01*
X11269543Y-31339809D01*
X11276580Y-31366070D01*
X11278959Y-31376801D01*
X11279957Y-31382458D01*
X11285595Y-31414434D01*
X11291106Y-31423979D01*
X11292363Y-31427433D01*
X11293913Y-31430757D01*
X11296765Y-31441401D01*
X11303085Y-31450427D01*
X11303086Y-31450429D01*
X11318681Y-31472700D01*
X11324587Y-31481971D01*
X11338180Y-31505515D01*
X11338182Y-31505518D01*
X11343695Y-31515066D01*
X11372981Y-31539640D01*
X11381072Y-31547055D01*
X11792940Y-31958923D01*
X11800367Y-31967027D01*
X11824934Y-31996305D01*
X11834477Y-32001815D01*
X11834481Y-32001818D01*
X11858029Y-32015413D01*
X11867300Y-32021319D01*
X11889571Y-32036914D01*
X11889573Y-32036915D01*
X11898599Y-32043235D01*
X11909243Y-32046087D01*
X11912567Y-32047637D01*
X11916021Y-32048894D01*
X11925566Y-32054405D01*
X11936418Y-32056319D01*
X11936419Y-32056319D01*
X11963199Y-32061041D01*
X11973930Y-32063420D01*
X12000191Y-32070457D01*
X12000193Y-32070457D01*
X12010840Y-32073310D01*
X12021824Y-32072349D01*
X12021825Y-32072349D01*
X12048900Y-32069980D01*
X12059882Y-32069500D01*
X14999827Y-32069500D01*
X15024704Y-32072904D01*
X15024812Y-32072290D01*
X15136121Y-32091828D01*
X15228025Y-32107959D01*
X15247057Y-32112857D01*
X15429111Y-32175204D01*
X15435323Y-32177332D01*
X15451691Y-32184263D01*
X15648759Y-32284651D01*
X15662158Y-32292554D01*
X15754938Y-32355307D01*
X15775671Y-32372866D01*
X15902322Y-32506103D01*
X15907561Y-32509750D01*
X15907564Y-32509752D01*
X16007418Y-32579252D01*
X16070000Y-32622810D01*
X16141939Y-32653682D01*
X16151329Y-32657711D01*
X16206041Y-32702956D01*
X16227607Y-32770598D01*
X16209179Y-32839161D01*
X16156608Y-32886878D01*
X16101640Y-32899500D01*
X1687466Y-32899500D01*
X1619345Y-32879498D01*
X1572852Y-32825842D01*
X1562748Y-32755568D01*
X1592242Y-32690988D01*
X1626318Y-32663332D01*
X1791212Y-32571809D01*
X1791216Y-32571806D01*
X1796798Y-32568708D01*
X1951809Y-32435636D01*
X1989478Y-32386971D01*
X2018525Y-32359727D01*
X2117840Y-32292555D01*
X2131238Y-32284652D01*
X2131240Y-32284651D01*
X2328311Y-32184260D01*
X2344675Y-32177331D01*
X2532929Y-32112860D01*
X2551964Y-32107962D01*
X2755187Y-32072291D01*
X2755254Y-32072671D01*
X2780468Y-32069500D01*
X3140118Y-32069500D01*
X3151100Y-32069980D01*
X3178175Y-32072349D01*
X3178176Y-32072349D01*
X3189160Y-32073310D01*
X3199807Y-32070457D01*
X3199809Y-32070457D01*
X3226070Y-32063420D01*
X3236801Y-32061041D01*
X3263581Y-32056319D01*
X3263582Y-32056319D01*
X3274434Y-32054405D01*
X3283979Y-32048894D01*
X3287433Y-32047637D01*
X3290757Y-32046087D01*
X3301401Y-32043235D01*
X3310427Y-32036915D01*
X3310429Y-32036914D01*
X3332700Y-32021319D01*
X3341971Y-32015413D01*
X3365515Y-32001820D01*
X3365518Y-32001818D01*
X3375066Y-31996305D01*
X3399624Y-31967038D01*
X3407050Y-31958933D01*
X3918456Y-31447528D01*
X3926560Y-31440102D01*
X3955825Y-31415546D01*
X3974930Y-31382454D01*
X3980833Y-31373190D01*
X3996431Y-31350913D01*
X3996433Y-31350909D01*
X4002755Y-31341880D01*
X4005608Y-31331233D01*
X4007162Y-31327901D01*
X4008415Y-31324459D01*
X4013925Y-31314914D01*
X4020561Y-31277282D01*
X4022940Y-31266553D01*
X4029976Y-31240294D01*
X4029976Y-31240290D01*
X4032830Y-31229640D01*
X4029499Y-31191565D01*
X4029020Y-31180584D01*
X4029020Y-25189154D01*
X4049022Y-25121033D01*
X4065925Y-25100058D01*
X4299580Y-24866404D01*
X4361892Y-24832379D01*
X4388675Y-24829500D01*
X5680118Y-24829500D01*
X5691100Y-24829980D01*
X5718175Y-24832349D01*
X5718176Y-24832349D01*
X5729160Y-24833310D01*
X5739807Y-24830457D01*
X5739809Y-24830457D01*
X5766070Y-24823420D01*
X5776801Y-24821041D01*
X5803581Y-24816319D01*
X5803582Y-24816319D01*
X5814434Y-24814405D01*
X5823979Y-24808894D01*
X5827433Y-24807637D01*
X5830757Y-24806087D01*
X5841401Y-24803235D01*
X5850427Y-24796915D01*
X5850429Y-24796914D01*
X5872700Y-24781319D01*
X5881971Y-24775413D01*
X5905515Y-24761820D01*
X5905518Y-24761818D01*
X5915066Y-24756305D01*
X5939640Y-24727019D01*
X5947055Y-24718928D01*
X6318923Y-24347060D01*
X6327027Y-24339633D01*
X6347861Y-24322151D01*
X6356305Y-24315066D01*
X6361815Y-24305523D01*
X6361818Y-24305519D01*
X6375413Y-24281971D01*
X6381319Y-24272700D01*
X6396914Y-24250429D01*
X6396915Y-24250427D01*
X6403235Y-24241401D01*
X6406087Y-24230757D01*
X6407637Y-24227433D01*
X6408894Y-24223979D01*
X6414405Y-24214434D01*
X6416318Y-24203583D01*
X6416321Y-24203576D01*
X6421044Y-24176791D01*
X6423422Y-24166063D01*
X6430457Y-24139807D01*
X6430457Y-24139805D01*
X6433309Y-24129161D01*
X6431952Y-24113644D01*
X6429979Y-24091097D01*
X6429500Y-24080116D01*
X6429500Y-23844723D01*
X6432693Y-23821576D01*
X6431798Y-23821417D01*
X6432882Y-23815317D01*
X6434557Y-23809360D01*
X6438168Y-23763005D01*
X6454501Y-23710085D01*
X6461728Y-23697489D01*
X6464133Y-23693474D01*
X6502667Y-23631800D01*
X6509394Y-23620395D01*
X6509975Y-23619350D01*
X6510330Y-23618670D01*
X6510347Y-23618639D01*
X6515844Y-23608118D01*
X6515860Y-23608087D01*
X6516216Y-23607405D01*
X6558554Y-23520972D01*
X6561571Y-23508873D01*
X6569214Y-23487013D01*
X6573209Y-23478266D01*
X6589042Y-23443596D01*
X6590325Y-23434674D01*
X6591876Y-23429391D01*
X6630259Y-23369665D01*
X6694840Y-23340171D01*
X6765114Y-23350274D01*
X6780466Y-23358656D01*
X6780687Y-23358757D01*
X6788268Y-23363629D01*
X6796912Y-23366167D01*
X6796914Y-23366168D01*
X6918819Y-23401962D01*
X6918821Y-23401962D01*
X6927464Y-23404500D01*
X7072536Y-23404500D01*
X7081179Y-23401962D01*
X7081181Y-23401962D01*
X7203086Y-23366168D01*
X7203088Y-23366167D01*
X7211732Y-23363629D01*
X7284960Y-23316568D01*
X7326195Y-23290068D01*
X7326198Y-23290066D01*
X7333775Y-23285196D01*
X7350995Y-23265323D01*
X7422875Y-23182370D01*
X7422877Y-23182367D01*
X7428777Y-23175558D01*
X7449427Y-23130342D01*
X7485299Y-23051792D01*
X7489042Y-23043596D01*
X7509688Y-22900000D01*
X7507400Y-22884083D01*
X7490324Y-22765321D01*
X7489042Y-22756404D01*
X7428777Y-22624442D01*
X7422877Y-22617633D01*
X7422875Y-22617630D01*
X7339676Y-22521614D01*
X7333775Y-22514804D01*
X7326198Y-22509934D01*
X7326195Y-22509932D01*
X7219311Y-22441242D01*
X7211732Y-22436371D01*
X7175475Y-22425725D01*
X7155773Y-22418094D01*
X7148722Y-22414658D01*
X7142732Y-22413083D01*
X7136935Y-22410932D01*
X7137932Y-22408245D01*
X7087646Y-22377903D01*
X7056339Y-22314181D01*
X7054500Y-22292731D01*
X7054500Y-21535767D01*
X7713406Y-21535767D01*
X7716467Y-21539855D01*
X7863583Y-21591334D01*
X7877291Y-21594463D01*
X8032971Y-21612004D01*
X8047029Y-21612004D01*
X8202709Y-21594463D01*
X8216417Y-21591334D01*
X8362177Y-21540330D01*
X8368866Y-21532768D01*
X8560785Y-21532768D01*
X8560947Y-21532874D01*
X8565747Y-21538894D01*
X8566467Y-21539855D01*
X8713583Y-21591334D01*
X8727291Y-21594463D01*
X8882971Y-21612004D01*
X8897029Y-21612004D01*
X9052709Y-21594463D01*
X9066417Y-21591334D01*
X9212177Y-21540330D01*
X9218866Y-21532768D01*
X9410785Y-21532768D01*
X9410947Y-21532874D01*
X9415747Y-21538894D01*
X9416467Y-21539855D01*
X9563583Y-21591334D01*
X9577291Y-21594463D01*
X9732971Y-21612004D01*
X9747029Y-21612004D01*
X9902709Y-21594463D01*
X9916417Y-21591334D01*
X10062175Y-21540331D01*
X10066650Y-21535273D01*
X10062596Y-21526149D01*
X9752812Y-21216365D01*
X9738868Y-21208751D01*
X9737035Y-21208882D01*
X9730420Y-21213133D01*
X9410785Y-21532768D01*
X9218866Y-21532768D01*
X9219030Y-21532583D01*
X8902812Y-21216365D01*
X8888868Y-21208751D01*
X8887035Y-21208882D01*
X8880420Y-21213133D01*
X8560785Y-21532768D01*
X8368866Y-21532768D01*
X8369030Y-21532583D01*
X8052812Y-21216365D01*
X8038868Y-21208751D01*
X8037035Y-21208882D01*
X8030420Y-21213133D01*
X7720166Y-21523387D01*
X7713406Y-21535767D01*
X7054500Y-21535767D01*
X7054500Y-21070212D01*
X7074502Y-21002091D01*
X7128158Y-20955598D01*
X7198432Y-20945494D01*
X7263012Y-20974988D01*
X7299429Y-21028597D01*
X7349669Y-21172175D01*
X7354727Y-21176650D01*
X7363851Y-21172596D01*
X7673635Y-20862812D01*
X7680013Y-20851132D01*
X8398751Y-20851132D01*
X8398882Y-20852965D01*
X8403133Y-20859580D01*
X8452188Y-20908635D01*
X8466132Y-20916249D01*
X8467965Y-20916118D01*
X8474580Y-20911867D01*
X8523635Y-20862812D01*
X8530013Y-20851132D01*
X9248751Y-20851132D01*
X9248882Y-20852965D01*
X9253133Y-20859580D01*
X9302188Y-20908635D01*
X9316132Y-20916249D01*
X9317965Y-20916118D01*
X9324580Y-20911867D01*
X9373635Y-20862812D01*
X9380013Y-20851132D01*
X10098751Y-20851132D01*
X10098882Y-20852965D01*
X10103133Y-20859580D01*
X10413387Y-21169834D01*
X10425767Y-21176594D01*
X10429855Y-21173533D01*
X10481334Y-21026417D01*
X10484463Y-21012709D01*
X10502004Y-20857029D01*
X10502004Y-20842971D01*
X10484463Y-20687291D01*
X10481334Y-20673583D01*
X10430330Y-20527823D01*
X10422583Y-20520970D01*
X10106365Y-20837188D01*
X10098751Y-20851132D01*
X9380013Y-20851132D01*
X9381249Y-20848868D01*
X9381118Y-20847035D01*
X9376867Y-20840420D01*
X9327812Y-20791365D01*
X9313868Y-20783751D01*
X9312035Y-20783882D01*
X9305420Y-20788133D01*
X9256365Y-20837188D01*
X9248751Y-20851132D01*
X8530013Y-20851132D01*
X8531249Y-20848868D01*
X8531118Y-20847035D01*
X8526867Y-20840420D01*
X8477812Y-20791365D01*
X8463868Y-20783751D01*
X8462035Y-20783882D01*
X8455420Y-20788133D01*
X8406365Y-20837188D01*
X8398751Y-20851132D01*
X7680013Y-20851132D01*
X7681249Y-20848868D01*
X7681118Y-20847035D01*
X7676867Y-20840420D01*
X7357232Y-20520785D01*
X7357126Y-20520947D01*
X7351106Y-20525747D01*
X7350145Y-20526467D01*
X7299429Y-20671403D01*
X7258051Y-20729095D01*
X7192050Y-20755257D01*
X7122383Y-20741584D01*
X7071167Y-20692417D01*
X7054500Y-20629788D01*
X7054500Y-20426132D01*
X7973751Y-20426132D01*
X7973882Y-20427965D01*
X7978133Y-20434580D01*
X8027188Y-20483635D01*
X8041132Y-20491249D01*
X8042965Y-20491118D01*
X8049580Y-20486867D01*
X8098635Y-20437812D01*
X8105013Y-20426132D01*
X8823751Y-20426132D01*
X8823882Y-20427965D01*
X8828133Y-20434580D01*
X8877188Y-20483635D01*
X8891132Y-20491249D01*
X8892965Y-20491118D01*
X8899580Y-20486867D01*
X8948635Y-20437812D01*
X8955013Y-20426132D01*
X9673751Y-20426132D01*
X9673882Y-20427965D01*
X9678133Y-20434580D01*
X9727188Y-20483635D01*
X9741132Y-20491249D01*
X9742965Y-20491118D01*
X9749580Y-20486867D01*
X9798635Y-20437812D01*
X9806249Y-20423868D01*
X9806118Y-20422035D01*
X9801867Y-20415420D01*
X9752812Y-20366365D01*
X9738868Y-20358751D01*
X9737035Y-20358882D01*
X9730420Y-20363133D01*
X9681365Y-20412188D01*
X9673751Y-20426132D01*
X8955013Y-20426132D01*
X8956249Y-20423868D01*
X8956118Y-20422035D01*
X8951867Y-20415420D01*
X8902812Y-20366365D01*
X8888868Y-20358751D01*
X8887035Y-20358882D01*
X8880420Y-20363133D01*
X8831365Y-20412188D01*
X8823751Y-20426132D01*
X8105013Y-20426132D01*
X8106249Y-20423868D01*
X8106118Y-20422035D01*
X8101867Y-20415420D01*
X8052812Y-20366365D01*
X8038868Y-20358751D01*
X8037035Y-20358882D01*
X8030420Y-20363133D01*
X7981365Y-20412188D01*
X7973751Y-20426132D01*
X7054500Y-20426132D01*
X7054500Y-20220212D01*
X7074502Y-20152091D01*
X7128158Y-20105598D01*
X7198432Y-20095494D01*
X7263012Y-20124988D01*
X7299429Y-20178597D01*
X7349670Y-20322177D01*
X7357417Y-20329030D01*
X7673635Y-20012812D01*
X7680013Y-20001132D01*
X8398751Y-20001132D01*
X8398882Y-20002965D01*
X8403133Y-20009580D01*
X8452188Y-20058635D01*
X8466132Y-20066249D01*
X8467965Y-20066118D01*
X8474580Y-20061867D01*
X8523635Y-20012812D01*
X8530013Y-20001132D01*
X9248751Y-20001132D01*
X9248882Y-20002965D01*
X9253133Y-20009580D01*
X9302188Y-20058635D01*
X9316132Y-20066249D01*
X9317965Y-20066118D01*
X9324580Y-20061867D01*
X9373635Y-20012812D01*
X9380013Y-20001132D01*
X10098751Y-20001132D01*
X10098882Y-20002965D01*
X10103133Y-20009580D01*
X10422768Y-20329215D01*
X10422874Y-20329053D01*
X10428894Y-20324253D01*
X10429855Y-20323533D01*
X10481334Y-20176417D01*
X10484463Y-20162709D01*
X10502004Y-20007029D01*
X10502004Y-19992971D01*
X10484463Y-19837291D01*
X10481334Y-19823583D01*
X10430330Y-19677823D01*
X10422583Y-19670970D01*
X10106365Y-19987188D01*
X10098751Y-20001132D01*
X9380013Y-20001132D01*
X9381249Y-19998868D01*
X9381118Y-19997035D01*
X9376867Y-19990420D01*
X9327812Y-19941365D01*
X9313868Y-19933751D01*
X9312035Y-19933882D01*
X9305420Y-19938133D01*
X9256365Y-19987188D01*
X9248751Y-20001132D01*
X8530013Y-20001132D01*
X8531249Y-19998868D01*
X8531118Y-19997035D01*
X8526867Y-19990420D01*
X8477812Y-19941365D01*
X8463868Y-19933751D01*
X8462035Y-19933882D01*
X8455420Y-19938133D01*
X8406365Y-19987188D01*
X8398751Y-20001132D01*
X7680013Y-20001132D01*
X7681249Y-19998868D01*
X7681118Y-19997035D01*
X7676867Y-19990420D01*
X7357232Y-19670785D01*
X7357126Y-19670947D01*
X7351106Y-19675747D01*
X7350145Y-19676467D01*
X7299429Y-19821403D01*
X7258051Y-19879095D01*
X7192050Y-19905257D01*
X7122383Y-19891584D01*
X7071167Y-19842417D01*
X7054500Y-19779788D01*
X7054500Y-19576132D01*
X7973751Y-19576132D01*
X7973882Y-19577965D01*
X7978133Y-19584580D01*
X8027188Y-19633635D01*
X8041132Y-19641249D01*
X8042965Y-19641118D01*
X8049580Y-19636867D01*
X8098635Y-19587812D01*
X8105013Y-19576132D01*
X8823751Y-19576132D01*
X8823882Y-19577965D01*
X8828133Y-19584580D01*
X8877188Y-19633635D01*
X8891132Y-19641249D01*
X8892965Y-19641118D01*
X8899580Y-19636867D01*
X8948635Y-19587812D01*
X8955013Y-19576132D01*
X9673751Y-19576132D01*
X9673882Y-19577965D01*
X9678133Y-19584580D01*
X9727188Y-19633635D01*
X9741132Y-19641249D01*
X9742965Y-19641118D01*
X9749580Y-19636867D01*
X9798635Y-19587812D01*
X9806249Y-19573868D01*
X9806118Y-19572035D01*
X9801867Y-19565420D01*
X9752812Y-19516365D01*
X9738868Y-19508751D01*
X9737035Y-19508882D01*
X9730420Y-19513133D01*
X9681365Y-19562188D01*
X9673751Y-19576132D01*
X8955013Y-19576132D01*
X8956249Y-19573868D01*
X8956118Y-19572035D01*
X8951867Y-19565420D01*
X8902812Y-19516365D01*
X8888868Y-19508751D01*
X8887035Y-19508882D01*
X8880420Y-19513133D01*
X8831365Y-19562188D01*
X8823751Y-19576132D01*
X8105013Y-19576132D01*
X8106249Y-19573868D01*
X8106118Y-19572035D01*
X8101867Y-19565420D01*
X8052812Y-19516365D01*
X8038868Y-19508751D01*
X8037035Y-19508882D01*
X8030420Y-19513133D01*
X7981365Y-19562188D01*
X7973751Y-19576132D01*
X7054500Y-19576132D01*
X7054500Y-19370212D01*
X7074502Y-19302091D01*
X7128158Y-19255598D01*
X7198432Y-19245494D01*
X7263012Y-19274988D01*
X7299429Y-19328597D01*
X7349670Y-19472177D01*
X7357417Y-19479030D01*
X7685315Y-19151132D01*
X8398751Y-19151132D01*
X8398882Y-19152965D01*
X8403133Y-19159580D01*
X8452188Y-19208635D01*
X8466132Y-19216249D01*
X8467965Y-19216118D01*
X8474580Y-19211867D01*
X8523635Y-19162812D01*
X8530013Y-19151132D01*
X9248751Y-19151132D01*
X9248882Y-19152965D01*
X9253133Y-19159580D01*
X9302188Y-19208635D01*
X9316132Y-19216249D01*
X9317965Y-19216118D01*
X9324580Y-19211867D01*
X9373635Y-19162812D01*
X9381249Y-19148868D01*
X9381118Y-19147035D01*
X9376867Y-19140420D01*
X9327812Y-19091365D01*
X9313868Y-19083751D01*
X9312035Y-19083882D01*
X9305420Y-19088133D01*
X9256365Y-19137188D01*
X9248751Y-19151132D01*
X8530013Y-19151132D01*
X8531249Y-19148868D01*
X8531118Y-19147035D01*
X8526867Y-19140420D01*
X8477812Y-19091365D01*
X8463868Y-19083751D01*
X8462035Y-19083882D01*
X8455420Y-19088133D01*
X8406365Y-19137188D01*
X8398751Y-19151132D01*
X7685315Y-19151132D01*
X8245042Y-18591405D01*
X8307354Y-18557379D01*
X8334137Y-18554500D01*
X8595863Y-18554500D01*
X8663984Y-18574502D01*
X8684958Y-18591405D01*
X8877188Y-18783635D01*
X8891132Y-18791249D01*
X8892965Y-18791118D01*
X8899580Y-18786867D01*
X9095042Y-18591405D01*
X9157354Y-18557379D01*
X9184137Y-18554500D01*
X9445863Y-18554500D01*
X9513984Y-18574502D01*
X9534958Y-18591405D01*
X10422768Y-19479215D01*
X10422874Y-19479053D01*
X10428894Y-19474253D01*
X10429855Y-19473533D01*
X10481334Y-19326417D01*
X10484463Y-19312709D01*
X10502004Y-19157029D01*
X10502004Y-19142971D01*
X10484463Y-18987291D01*
X10481334Y-18973583D01*
X10429592Y-18825715D01*
X10423491Y-18813045D01*
X10382329Y-18747535D01*
X10363024Y-18679214D01*
X10383720Y-18611301D01*
X10437847Y-18565358D01*
X10489017Y-18554500D01*
X10950166Y-18554500D01*
X10973081Y-18556876D01*
X10974928Y-18556952D01*
X10985147Y-18559095D01*
X10995505Y-18557804D01*
X10995508Y-18557804D01*
X11015144Y-18555356D01*
X11020321Y-18554819D01*
X11024171Y-18554500D01*
X11029377Y-18554500D01*
X11034512Y-18553643D01*
X11034513Y-18553643D01*
X11038926Y-18552907D01*
X11048544Y-18551301D01*
X11053690Y-18550551D01*
X11092186Y-18545753D01*
X11092187Y-18545753D01*
X11102551Y-18544461D01*
X11109294Y-18541164D01*
X11116698Y-18539929D01*
X11159987Y-18516501D01*
X11164619Y-18514117D01*
X11199460Y-18497085D01*
X11199462Y-18497084D01*
X11208840Y-18492499D01*
X11214147Y-18487192D01*
X11220749Y-18483619D01*
X11254088Y-18447403D01*
X11257694Y-18443645D01*
X11369159Y-18332180D01*
X11388325Y-18317319D01*
X11388134Y-18317059D01*
X11393122Y-18313408D01*
X11398456Y-18310257D01*
X11403072Y-18306127D01*
X11403075Y-18306124D01*
X11443616Y-18269844D01*
X11460949Y-18256834D01*
X11464780Y-18254445D01*
X11486269Y-18243738D01*
X11501860Y-18237750D01*
X11509842Y-18234988D01*
X11571290Y-18216012D01*
X11571352Y-18215992D01*
X11571609Y-18215913D01*
X11578111Y-18213811D01*
X11578694Y-18213614D01*
X11579025Y-18213497D01*
X11579075Y-18213480D01*
X11584815Y-18211455D01*
X11584869Y-18211436D01*
X11585205Y-18211317D01*
X11585559Y-18211187D01*
X11585625Y-18211163D01*
X11667786Y-18180942D01*
X11667789Y-18180941D01*
X11673864Y-18178706D01*
X11679355Y-18175279D01*
X11680672Y-18174634D01*
X11700568Y-18166907D01*
X11701810Y-18166542D01*
X11711732Y-18163629D01*
X11787014Y-18115248D01*
X11826195Y-18090068D01*
X11826198Y-18090066D01*
X11833775Y-18085196D01*
X11861758Y-18052902D01*
X11922875Y-17982370D01*
X11922877Y-17982367D01*
X11928777Y-17975558D01*
X11935267Y-17961348D01*
X11985299Y-17851792D01*
X11989042Y-17843596D01*
X12009688Y-17700000D01*
X12007044Y-17681607D01*
X11998198Y-17620084D01*
X11989042Y-17556404D01*
X11965096Y-17503969D01*
X11932521Y-17432640D01*
X11932521Y-17432639D01*
X11928777Y-17424442D01*
X11922877Y-17417633D01*
X11922875Y-17417630D01*
X11839676Y-17321614D01*
X11833775Y-17314804D01*
X11826198Y-17309934D01*
X11826195Y-17309932D01*
X11730606Y-17248501D01*
X11711732Y-17236371D01*
X11703088Y-17233833D01*
X11703086Y-17233832D01*
X11610541Y-17206659D01*
X11550815Y-17168276D01*
X11521322Y-17103695D01*
X11525277Y-17049812D01*
X11536931Y-17010665D01*
X11538520Y-17005704D01*
X11551109Y-16969033D01*
X11554500Y-16959156D01*
X11554500Y-16951651D01*
X11556642Y-16944456D01*
X11554608Y-16895286D01*
X11554500Y-16890078D01*
X11554500Y-15139540D01*
X11557545Y-15115481D01*
X11557226Y-15115432D01*
X11558174Y-15109311D01*
X11559715Y-15103319D01*
X11560547Y-15088323D01*
X11563072Y-15042807D01*
X11566127Y-15021364D01*
X11567140Y-15016989D01*
X11574773Y-14994190D01*
X11581562Y-14978932D01*
X11585258Y-14971327D01*
X11615251Y-14914531D01*
X11615255Y-14914524D01*
X11615447Y-14914160D01*
X11615665Y-14913735D01*
X11618327Y-14908531D01*
X11618510Y-14908174D01*
X11618779Y-14907631D01*
X11621807Y-14901304D01*
X11625864Y-14892527D01*
X11658719Y-14821437D01*
X11661438Y-14815554D01*
X11662900Y-14809239D01*
X11663978Y-14804582D01*
X11672118Y-14780658D01*
X11685297Y-14751798D01*
X11685298Y-14751794D01*
X11689042Y-14743596D01*
X11709688Y-14600000D01*
X11708048Y-14588590D01*
X11690324Y-14465321D01*
X11689042Y-14456404D01*
X11628777Y-14324442D01*
X11622877Y-14317633D01*
X11622875Y-14317630D01*
X11539676Y-14221614D01*
X11533775Y-14214804D01*
X11526198Y-14209934D01*
X11526195Y-14209932D01*
X11419311Y-14141242D01*
X11411732Y-14136371D01*
X11403088Y-14133833D01*
X11403086Y-14133832D01*
X11281181Y-14098038D01*
X11281179Y-14098038D01*
X11272536Y-14095500D01*
X11127464Y-14095500D01*
X11118821Y-14098038D01*
X11118819Y-14098038D01*
X10996914Y-14133832D01*
X10996912Y-14133833D01*
X10988268Y-14136371D01*
X10980689Y-14141242D01*
X10873805Y-14209932D01*
X10873802Y-14209934D01*
X10866225Y-14214804D01*
X10860324Y-14221614D01*
X10777125Y-14317630D01*
X10777123Y-14317633D01*
X10771223Y-14324442D01*
X10710958Y-14456404D01*
X10709676Y-14465321D01*
X10691953Y-14588590D01*
X10690312Y-14600000D01*
X10710754Y-14742177D01*
X10710754Y-14742178D01*
X10710958Y-14743596D01*
X10710754Y-14743625D01*
X10710754Y-14753361D01*
X10716137Y-14758025D01*
X10724753Y-14773803D01*
X10727644Y-14780133D01*
X10735523Y-14802948D01*
X10738561Y-14815552D01*
X10752257Y-14845186D01*
X10774136Y-14892527D01*
X10778191Y-14901302D01*
X10781208Y-14907605D01*
X10781469Y-14908132D01*
X10784543Y-14914142D01*
X10814747Y-14971337D01*
X10818431Y-14978919D01*
X10825223Y-14994184D01*
X10825226Y-14994190D01*
X10832856Y-15016977D01*
X10832859Y-15016989D01*
X10833871Y-15021357D01*
X10836926Y-15042805D01*
X10839965Y-15097573D01*
X10839967Y-15097584D01*
X10840285Y-15103322D01*
X10841639Y-15108907D01*
X10841640Y-15108911D01*
X10841951Y-15110193D01*
X10842466Y-15114499D01*
X10842481Y-15114603D01*
X10842478Y-15114603D01*
X10845500Y-15139888D01*
X10845500Y-16324060D01*
X10825498Y-16392181D01*
X10771842Y-16438674D01*
X10701568Y-16448778D01*
X10638096Y-16419790D01*
X10633775Y-16414804D01*
X10626198Y-16409934D01*
X10626195Y-16409932D01*
X10528436Y-16347106D01*
X10511732Y-16336371D01*
X10503088Y-16333833D01*
X10503086Y-16333832D01*
X10381181Y-16298038D01*
X10381179Y-16298038D01*
X10372536Y-16295500D01*
X10227464Y-16295500D01*
X10218821Y-16298038D01*
X10218819Y-16298038D01*
X10130196Y-16324060D01*
X10088268Y-16336371D01*
X10081316Y-16340839D01*
X10079033Y-16341444D01*
X9992590Y-16383785D01*
X9991823Y-16384186D01*
X9991807Y-16384194D01*
X9981335Y-16389668D01*
X9980566Y-16390070D01*
X9979529Y-16390647D01*
X9968201Y-16397331D01*
X9967535Y-16397747D01*
X9967522Y-16397755D01*
X9906557Y-16435845D01*
X9902500Y-16438275D01*
X9889906Y-16445501D01*
X9836986Y-16461832D01*
X9796202Y-16465009D01*
X9796198Y-16465010D01*
X9790636Y-16465443D01*
X9785234Y-16466850D01*
X9779737Y-16467772D01*
X9779666Y-16467351D01*
X9755081Y-16470500D01*
X7019882Y-16470500D01*
X7008900Y-16470020D01*
X6981825Y-16467651D01*
X6981824Y-16467651D01*
X6970840Y-16466690D01*
X6960193Y-16469543D01*
X6960191Y-16469543D01*
X6933930Y-16476580D01*
X6923199Y-16478959D01*
X6896419Y-16483681D01*
X6896418Y-16483681D01*
X6885566Y-16485595D01*
X6876021Y-16491106D01*
X6872567Y-16492363D01*
X6869243Y-16493913D01*
X6858599Y-16496765D01*
X6849573Y-16503085D01*
X6849571Y-16503086D01*
X6827300Y-16518681D01*
X6818029Y-16524587D01*
X6794485Y-16538180D01*
X6794482Y-16538182D01*
X6784934Y-16543695D01*
X6760360Y-16572981D01*
X6752945Y-16581072D01*
X6552190Y-16781827D01*
X6533559Y-16795940D01*
X6534080Y-16796686D01*
X6529002Y-16800231D01*
X6523607Y-16803258D01*
X6518908Y-16807278D01*
X6488275Y-16833482D01*
X6439311Y-16859352D01*
X6434745Y-16860589D01*
X6425290Y-16863149D01*
X6420726Y-16864294D01*
X6349898Y-16880650D01*
X6336967Y-16883989D01*
X6335809Y-16884320D01*
X6335046Y-16884560D01*
X6335031Y-16884564D01*
X6323803Y-16888088D01*
X6323767Y-16888100D01*
X6323056Y-16888323D01*
X6322316Y-16888577D01*
X6322299Y-16888582D01*
X6238301Y-16917347D01*
X6238299Y-16917348D01*
X6232000Y-16919505D01*
X6226289Y-16922937D01*
X6221649Y-16925096D01*
X6203985Y-16931756D01*
X6196913Y-16933832D01*
X6196909Y-16933834D01*
X6188268Y-16936371D01*
X6180691Y-16941241D01*
X6180690Y-16941241D01*
X6073805Y-17009932D01*
X6073802Y-17009934D01*
X6066225Y-17014804D01*
X6060324Y-17021614D01*
X5977125Y-17117630D01*
X5977123Y-17117633D01*
X5971223Y-17124442D01*
X5910958Y-17256404D01*
X5904043Y-17304500D01*
X5892493Y-17384834D01*
X5890312Y-17400000D01*
X5891594Y-17408917D01*
X5892426Y-17414702D01*
X5910958Y-17543596D01*
X5914701Y-17551792D01*
X5932029Y-17589734D01*
X5971223Y-17675558D01*
X5977123Y-17682367D01*
X5977125Y-17682370D01*
X6059613Y-17777565D01*
X6066225Y-17785196D01*
X6073802Y-17790066D01*
X6073805Y-17790068D01*
X6093766Y-17802896D01*
X6188268Y-17863629D01*
X6196912Y-17866167D01*
X6196914Y-17866168D01*
X6327464Y-17904500D01*
X6326597Y-17907453D01*
X6377204Y-17930569D01*
X6415583Y-17990298D01*
X6415577Y-18061294D01*
X6383779Y-18114882D01*
X5959089Y-18539572D01*
X5941220Y-18554083D01*
X5939845Y-18555348D01*
X5931103Y-18561060D01*
X5924691Y-18569298D01*
X5924688Y-18569301D01*
X5912518Y-18584937D01*
X5909236Y-18588979D01*
X5906769Y-18591892D01*
X5903077Y-18595584D01*
X5900043Y-18599834D01*
X5900041Y-18599836D01*
X5891779Y-18611408D01*
X5888669Y-18615579D01*
X5858434Y-18654425D01*
X5855997Y-18661523D01*
X5851635Y-18667633D01*
X5848656Y-18677638D01*
X5848656Y-18677639D01*
X5837588Y-18714817D01*
X5836002Y-18719767D01*
X5820019Y-18766325D01*
X5820019Y-18773830D01*
X5817877Y-18781025D01*
X5818309Y-18791460D01*
X5819911Y-18830195D01*
X5820019Y-18835403D01*
X5820019Y-21826452D01*
X5800017Y-21894573D01*
X5783114Y-21915547D01*
X5595646Y-22103015D01*
X5533334Y-22137041D01*
X5462519Y-22131976D01*
X5405683Y-22089429D01*
X5389130Y-22056364D01*
X5389042Y-22056404D01*
X5387912Y-22053929D01*
X5387909Y-22053922D01*
X5385301Y-22048212D01*
X5385300Y-22048209D01*
X5332521Y-21932640D01*
X5332521Y-21932639D01*
X5328777Y-21924442D01*
X5322877Y-21917633D01*
X5322875Y-21917630D01*
X5239676Y-21821614D01*
X5233775Y-21814804D01*
X5226198Y-21809934D01*
X5226195Y-21809932D01*
X5119311Y-21741242D01*
X5111732Y-21736371D01*
X5103089Y-21733833D01*
X5103084Y-21733831D01*
X5096626Y-21731935D01*
X5079301Y-21724493D01*
X5078985Y-21725185D01*
X5073355Y-21722616D01*
X5068000Y-21719505D01*
X5011425Y-21700132D01*
X4977737Y-21688595D01*
X4977720Y-21688589D01*
X4976942Y-21688323D01*
X4976162Y-21688078D01*
X4964961Y-21684561D01*
X4964942Y-21684555D01*
X4964218Y-21684328D01*
X4963064Y-21683998D01*
X4955654Y-21682084D01*
X4950922Y-21680862D01*
X4950904Y-21680858D01*
X4950104Y-21680651D01*
X4879342Y-21664311D01*
X4874753Y-21663161D01*
X4860689Y-21659352D01*
X4811720Y-21633479D01*
X4805582Y-21628229D01*
X4776394Y-21603259D01*
X4771590Y-21600440D01*
X4767042Y-21597198D01*
X4767288Y-21596853D01*
X4747674Y-21581690D01*
X4057067Y-20891083D01*
X3366405Y-20200422D01*
X3332380Y-20138110D01*
X3329500Y-20111327D01*
X3329500Y-18196284D01*
X3329980Y-18185302D01*
X3332348Y-18158235D01*
X3333309Y-18147253D01*
X3323422Y-18110351D01*
X3321044Y-18099623D01*
X3316321Y-18072838D01*
X3316318Y-18072831D01*
X3314405Y-18061980D01*
X3308894Y-18052435D01*
X3307637Y-18048981D01*
X3306087Y-18045657D01*
X3303235Y-18035013D01*
X3295604Y-18024114D01*
X3281319Y-18003714D01*
X3275413Y-17994443D01*
X3261820Y-17970899D01*
X3261818Y-17970896D01*
X3256305Y-17961348D01*
X3227019Y-17936774D01*
X3218928Y-17929359D01*
X3036032Y-17746463D01*
X3002006Y-17684151D01*
X3007071Y-17613336D01*
X3049618Y-17556500D01*
X3116138Y-17531689D01*
X3185512Y-17546780D01*
X3195129Y-17552603D01*
X3240379Y-17582838D01*
X3250699Y-17589734D01*
X3324933Y-17604500D01*
X4199858Y-17604500D01*
X5075066Y-17604499D01*
X5116274Y-17596303D01*
X5137126Y-17592156D01*
X5137128Y-17592155D01*
X5149301Y-17589734D01*
X5159621Y-17582839D01*
X5159622Y-17582838D01*
X5223168Y-17540377D01*
X5233484Y-17533484D01*
X5289734Y-17449301D01*
X5304500Y-17375067D01*
X5304499Y-15624934D01*
X5294000Y-15572147D01*
X5292156Y-15562874D01*
X5292155Y-15562872D01*
X5289734Y-15550699D01*
X5278231Y-15533483D01*
X5240377Y-15476832D01*
X5233484Y-15466516D01*
X5168089Y-15422820D01*
X5159620Y-15417161D01*
X5149301Y-15410266D01*
X5075067Y-15395500D01*
X4200142Y-15395500D01*
X3324934Y-15395501D01*
X3289182Y-15402612D01*
X3262874Y-15407844D01*
X3262872Y-15407845D01*
X3250699Y-15410266D01*
X3240379Y-15417161D01*
X3240378Y-15417162D01*
X3209760Y-15437621D01*
X3166516Y-15466516D01*
X3159623Y-15476832D01*
X3121770Y-15533483D01*
X3110266Y-15550699D01*
X3107845Y-15562869D01*
X3107844Y-15562872D01*
X3105437Y-15574976D01*
X3072531Y-15637887D01*
X3010836Y-15673019D01*
X2939942Y-15669220D01*
X2882355Y-15627696D01*
X2872739Y-15613398D01*
X2861818Y-15594483D01*
X2856305Y-15584934D01*
X2827019Y-15560360D01*
X2818928Y-15552945D01*
X2328093Y-15062110D01*
X2294067Y-14999798D01*
X2291709Y-14984463D01*
X2291205Y-14978932D01*
X2288910Y-14953778D01*
X2288745Y-14951796D01*
X2274075Y-14756474D01*
X2273983Y-14755150D01*
X2273770Y-14751798D01*
X2259183Y-14523243D01*
X2259121Y-14522207D01*
X2244214Y-14253488D01*
X2244172Y-14252684D01*
X2230017Y-13964188D01*
X2229733Y-13958399D01*
X2228440Y-13952945D01*
X2227360Y-13929049D01*
X2228384Y-13908861D01*
X2223541Y-13877244D01*
X2198415Y-13713236D01*
X2197448Y-13706921D01*
X2126495Y-13515343D01*
X2039682Y-13376065D01*
X2021809Y-13347390D01*
X2018430Y-13341969D01*
X2014029Y-13337339D01*
X1882078Y-13198525D01*
X1882074Y-13198521D01*
X1877678Y-13193897D01*
X1872439Y-13190250D01*
X1872436Y-13190248D01*
X1715247Y-13080842D01*
X1710000Y-13077190D01*
X1522261Y-12996625D01*
X1516003Y-12995339D01*
X1516000Y-12995338D01*
X1445619Y-12980874D01*
X1322148Y-12955500D01*
X226500Y-12955500D01*
X158379Y-12935498D01*
X111886Y-12881842D01*
X100500Y-12829500D01*
X100500Y-12804000D01*
X120502Y-12735879D01*
X174158Y-12689386D01*
X226500Y-12678000D01*
X1273678Y-12678000D01*
X1279308Y-12677747D01*
X1439895Y-12663294D01*
X1450991Y-12661281D01*
X1658356Y-12604051D01*
X1668919Y-12600086D01*
X1862732Y-12506751D01*
X1872416Y-12500966D01*
X2046456Y-12374518D01*
X2054942Y-12367104D01*
X2182530Y-12233658D01*
X2244063Y-12198243D01*
X2314974Y-12201718D01*
X2354589Y-12224208D01*
X2372976Y-12239636D01*
X2381067Y-12247050D01*
X2852952Y-12718936D01*
X2860377Y-12727039D01*
X2884934Y-12756305D01*
X2894479Y-12761816D01*
X2894483Y-12761819D01*
X2918024Y-12775410D01*
X2927294Y-12781315D01*
X2958599Y-12803235D01*
X2969244Y-12806087D01*
X2972567Y-12807637D01*
X2976021Y-12808894D01*
X2985566Y-12814405D01*
X2996418Y-12816319D01*
X2996419Y-12816319D01*
X3023199Y-12821041D01*
X3033927Y-12823419D01*
X3070840Y-12833310D01*
X3081815Y-12832350D01*
X3081816Y-12832350D01*
X3108915Y-12829979D01*
X3119896Y-12829500D01*
X3484891Y-12829500D01*
X3553012Y-12849502D01*
X3599505Y-12903158D01*
X3609609Y-12973432D01*
X3580115Y-13038012D01*
X3551226Y-13062624D01*
X3531538Y-13074814D01*
X3380268Y-13212715D01*
X3256912Y-13376065D01*
X3254315Y-13381280D01*
X3254314Y-13381282D01*
X3187560Y-13515343D01*
X3165672Y-13559299D01*
X3109655Y-13756179D01*
X3090768Y-13960000D01*
X3109655Y-14163821D01*
X3165672Y-14360701D01*
X3168270Y-14365919D01*
X3168271Y-14365921D01*
X3254314Y-14538718D01*
X3256912Y-14543935D01*
X3380268Y-14707285D01*
X3531538Y-14845186D01*
X3536489Y-14848252D01*
X3536491Y-14848253D01*
X3690635Y-14943695D01*
X3705573Y-14952944D01*
X3896444Y-15026888D01*
X4097653Y-15064500D01*
X4302347Y-15064500D01*
X4503556Y-15026888D01*
X4694427Y-14952944D01*
X4709365Y-14943695D01*
X4863509Y-14848253D01*
X4863511Y-14848252D01*
X4868462Y-14845186D01*
X5019732Y-14707285D01*
X5143088Y-14543935D01*
X5145686Y-14538718D01*
X5231729Y-14365921D01*
X5231730Y-14365919D01*
X5234328Y-14360701D01*
X5290345Y-14163821D01*
X5309232Y-13960000D01*
X5290345Y-13756179D01*
X5234328Y-13559299D01*
X5212441Y-13515343D01*
X5145686Y-13381282D01*
X5145685Y-13381280D01*
X5143088Y-13376065D01*
X5019732Y-13212715D01*
X4868462Y-13074814D01*
X4848777Y-13062625D01*
X4801391Y-13009761D01*
X4790108Y-12939667D01*
X4818511Y-12874600D01*
X4877584Y-12835218D01*
X4915109Y-12829500D01*
X5811326Y-12829500D01*
X5879447Y-12849502D01*
X5900422Y-12866405D01*
X5983115Y-12949099D01*
X6017140Y-13011412D01*
X6020019Y-13038194D01*
X6020020Y-14730598D01*
X6019540Y-14741580D01*
X6016210Y-14779640D01*
X6019063Y-14790287D01*
X6019063Y-14790289D01*
X6022893Y-14804582D01*
X6025833Y-14815552D01*
X6026100Y-14816550D01*
X6028479Y-14827281D01*
X6031070Y-14841972D01*
X6035115Y-14864914D01*
X6040626Y-14874459D01*
X6041883Y-14877913D01*
X6043433Y-14881237D01*
X6046285Y-14891881D01*
X6052605Y-14900907D01*
X6052606Y-14900909D01*
X6068201Y-14923180D01*
X6074107Y-14932451D01*
X6087700Y-14955995D01*
X6087702Y-14955998D01*
X6093215Y-14965546D01*
X6122501Y-14990120D01*
X6130592Y-14997535D01*
X6551980Y-15418923D01*
X6559407Y-15427027D01*
X6583974Y-15456305D01*
X6593517Y-15461815D01*
X6593521Y-15461818D01*
X6617069Y-15475413D01*
X6626336Y-15481317D01*
X6633742Y-15486502D01*
X6648611Y-15496914D01*
X6648613Y-15496915D01*
X6657639Y-15503235D01*
X6668283Y-15506087D01*
X6671607Y-15507637D01*
X6675061Y-15508894D01*
X6684606Y-15514405D01*
X6695457Y-15516318D01*
X6695464Y-15516321D01*
X6722249Y-15521044D01*
X6732977Y-15523422D01*
X6759233Y-15530457D01*
X6759235Y-15530457D01*
X6769879Y-15533309D01*
X6780854Y-15532349D01*
X6780855Y-15532349D01*
X6807943Y-15529979D01*
X6818924Y-15529500D01*
X8752581Y-15529500D01*
X8820702Y-15549502D01*
X8867195Y-15603158D01*
X8875350Y-15627150D01*
X8880651Y-15650105D01*
X8883998Y-15663064D01*
X8884328Y-15664218D01*
X8888323Y-15676942D01*
X8888566Y-15677651D01*
X8910820Y-15742639D01*
X8910645Y-15742699D01*
X8910890Y-15743125D01*
X8910958Y-15743596D01*
X8911718Y-15745260D01*
X8919505Y-15768000D01*
X8926672Y-15779927D01*
X8933279Y-15792472D01*
X8971223Y-15875558D01*
X8977123Y-15882367D01*
X8977125Y-15882370D01*
X9024015Y-15936483D01*
X9066225Y-15985196D01*
X9073802Y-15990066D01*
X9073805Y-15990068D01*
X9150764Y-16039527D01*
X9188268Y-16063629D01*
X9196912Y-16066167D01*
X9196914Y-16066168D01*
X9318819Y-16101962D01*
X9318821Y-16101962D01*
X9327464Y-16104500D01*
X9472536Y-16104500D01*
X9481179Y-16101962D01*
X9481181Y-16101962D01*
X9603086Y-16066168D01*
X9603088Y-16066167D01*
X9611732Y-16063629D01*
X9649236Y-16039527D01*
X9726195Y-15990068D01*
X9726198Y-15990066D01*
X9733775Y-15985196D01*
X9775985Y-15936483D01*
X9822875Y-15882370D01*
X9822877Y-15882367D01*
X9828777Y-15875558D01*
X9889042Y-15743596D01*
X9890324Y-15734678D01*
X9890326Y-15734672D01*
X9907882Y-15612568D01*
X9937375Y-15547988D01*
X9997101Y-15509604D01*
X10032599Y-15504500D01*
X10072536Y-15504500D01*
X10081179Y-15501962D01*
X10081181Y-15501962D01*
X10203086Y-15466168D01*
X10203088Y-15466167D01*
X10211732Y-15463629D01*
X10252201Y-15437621D01*
X10326195Y-15390068D01*
X10326198Y-15390066D01*
X10333775Y-15385196D01*
X10396627Y-15312661D01*
X10422875Y-15282370D01*
X10422877Y-15282367D01*
X10428777Y-15275558D01*
X10489042Y-15143596D01*
X10505095Y-15031947D01*
X10508406Y-15008917D01*
X10509688Y-15000000D01*
X10505753Y-14972632D01*
X10490324Y-14865319D01*
X10490324Y-14865318D01*
X10489042Y-14856404D01*
X10489246Y-14856375D01*
X10489246Y-14846638D01*
X10483861Y-14841972D01*
X10475244Y-14826191D01*
X10473269Y-14821865D01*
X10443446Y-14756562D01*
X10432521Y-14732640D01*
X10432521Y-14732639D01*
X10428777Y-14724442D01*
X10422877Y-14717633D01*
X10422875Y-14717630D01*
X10339676Y-14621614D01*
X10333775Y-14614804D01*
X10326198Y-14609934D01*
X10326195Y-14609932D01*
X10249236Y-14560473D01*
X10211732Y-14536371D01*
X10178786Y-14526697D01*
X10157941Y-14518501D01*
X10151429Y-14515245D01*
X10145457Y-14513610D01*
X10139675Y-14511397D01*
X10140282Y-14509812D01*
X10086798Y-14476805D01*
X10056131Y-14412773D01*
X10054500Y-14392567D01*
X10054500Y-11135486D01*
X10074502Y-11067365D01*
X10128158Y-11020872D01*
X10180500Y-11009486D01*
X10225000Y-11009486D01*
X10324301Y-10989734D01*
X10408484Y-10933484D01*
X10464734Y-10849301D01*
X10484486Y-10750000D01*
X10484486Y-9250000D01*
X10464734Y-9150699D01*
X10408484Y-9066516D01*
X10324301Y-9010266D01*
X10225000Y-8990514D01*
X10180129Y-8990514D01*
X10112008Y-8970512D01*
X10065515Y-8916856D01*
X10059867Y-8895423D01*
X10058310Y-8895840D01*
X10048420Y-8858930D01*
X10046041Y-8848199D01*
X10041319Y-8821419D01*
X10041319Y-8821418D01*
X10039405Y-8810566D01*
X10033894Y-8801021D01*
X10032637Y-8797567D01*
X10031087Y-8794244D01*
X10028235Y-8783599D01*
X10006315Y-8752294D01*
X10000410Y-8743024D01*
X9986819Y-8719483D01*
X9986816Y-8719479D01*
X9981305Y-8709934D01*
X9969077Y-8699673D01*
X9952044Y-8685381D01*
X9943940Y-8677955D01*
X9630734Y-8364749D01*
X9596708Y-8302437D01*
X9601773Y-8231622D01*
X9635044Y-8183731D01*
X9638422Y-8179833D01*
X9702140Y-8150778D01*
X9772408Y-8160923D01*
X9801281Y-8179491D01*
X9806225Y-8185196D01*
X9813802Y-8190066D01*
X9813805Y-8190068D01*
X9915235Y-8255253D01*
X9928268Y-8263629D01*
X9936918Y-8266169D01*
X9943374Y-8268065D01*
X9960702Y-8275514D01*
X9961020Y-8274817D01*
X9966647Y-8277384D01*
X9972002Y-8280495D01*
X10038515Y-8303272D01*
X10038520Y-8303274D01*
X10063063Y-8311678D01*
X10075810Y-8315679D01*
X10076961Y-8316008D01*
X10077749Y-8316211D01*
X10077773Y-8316218D01*
X10084684Y-8318002D01*
X10089893Y-8319347D01*
X10090664Y-8319525D01*
X10090672Y-8319527D01*
X10160688Y-8335695D01*
X10165263Y-8336842D01*
X10179313Y-8340647D01*
X10228279Y-8366519D01*
X10263606Y-8396741D01*
X10268415Y-8399563D01*
X10272958Y-8402801D01*
X10272712Y-8403146D01*
X10292327Y-8418310D01*
X10973595Y-9099578D01*
X11007621Y-9161890D01*
X11010500Y-9188673D01*
X11010500Y-10255273D01*
X11007307Y-10278418D01*
X11008203Y-10278577D01*
X11007119Y-10284674D01*
X11005443Y-10290636D01*
X11001832Y-10336988D01*
X10985500Y-10389907D01*
X10978266Y-10402514D01*
X10975838Y-10406568D01*
X10960985Y-10430342D01*
X10937331Y-10468201D01*
X10930605Y-10479604D01*
X10930024Y-10480649D01*
X10923782Y-10492597D01*
X10881445Y-10579031D01*
X10879836Y-10585485D01*
X10878427Y-10591134D01*
X10870785Y-10612987D01*
X10854702Y-10648205D01*
X10850958Y-10656404D01*
X10830312Y-10800000D01*
X10850958Y-10943596D01*
X10854701Y-10951792D01*
X10905761Y-11063597D01*
X10911223Y-11075558D01*
X10917123Y-11082367D01*
X10917125Y-11082370D01*
X11000324Y-11178386D01*
X11006225Y-11185196D01*
X11013802Y-11190066D01*
X11013805Y-11190068D01*
X11086492Y-11236781D01*
X11128268Y-11263629D01*
X11136912Y-11266167D01*
X11136914Y-11266168D01*
X11258819Y-11301962D01*
X11258821Y-11301962D01*
X11267464Y-11304500D01*
X11412536Y-11304500D01*
X11421179Y-11301962D01*
X11421181Y-11301962D01*
X11543086Y-11266168D01*
X11543088Y-11266167D01*
X11551732Y-11263629D01*
X11593508Y-11236781D01*
X11666195Y-11190068D01*
X11666198Y-11190066D01*
X11673775Y-11185196D01*
X11679676Y-11178386D01*
X11762875Y-11082370D01*
X11762877Y-11082367D01*
X11768777Y-11075558D01*
X11774240Y-11063597D01*
X11825299Y-10951792D01*
X11829042Y-10943596D01*
X11849688Y-10800000D01*
X11829042Y-10656404D01*
X11809702Y-10614055D01*
X11802523Y-10594002D01*
X11802174Y-10592686D01*
X11798554Y-10579030D01*
X11756212Y-10492588D01*
X11749981Y-10480660D01*
X11749404Y-10479622D01*
X11742668Y-10468201D01*
X11704129Y-10406517D01*
X11701731Y-10402514D01*
X11694498Y-10389907D01*
X11678167Y-10336988D01*
X11674990Y-10296201D01*
X11674989Y-10296196D01*
X11674556Y-10290636D01*
X11673151Y-10285238D01*
X11672228Y-10279738D01*
X11672647Y-10279668D01*
X11669500Y-10255082D01*
X11669500Y-9019884D01*
X11669979Y-9008903D01*
X11672349Y-8981815D01*
X11672349Y-8981814D01*
X11673309Y-8970839D01*
X11670268Y-8959487D01*
X11663422Y-8933937D01*
X11661044Y-8923209D01*
X11656321Y-8896424D01*
X11656318Y-8896417D01*
X11654405Y-8885566D01*
X11648894Y-8876021D01*
X11647637Y-8872567D01*
X11646087Y-8869243D01*
X11643235Y-8858599D01*
X11636866Y-8849502D01*
X11621319Y-8827300D01*
X11615413Y-8818029D01*
X11601820Y-8794485D01*
X11601818Y-8794482D01*
X11596305Y-8784934D01*
X11567019Y-8760360D01*
X11558928Y-8752945D01*
X10758172Y-7952189D01*
X10744060Y-7933560D01*
X10743314Y-7934081D01*
X10739770Y-7929004D01*
X10736741Y-7923606D01*
X10732719Y-7918904D01*
X10732713Y-7918896D01*
X10706518Y-7888276D01*
X10680646Y-7839313D01*
X10677795Y-7828787D01*
X10676841Y-7825265D01*
X10675710Y-7820757D01*
X10659347Y-7749893D01*
X10656000Y-7736933D01*
X10655670Y-7735779D01*
X10652757Y-7726498D01*
X10651911Y-7723804D01*
X10651907Y-7723791D01*
X10651676Y-7723056D01*
X10629180Y-7657361D01*
X10629366Y-7657297D01*
X10629105Y-7656844D01*
X10629042Y-7656404D01*
X10628282Y-7654739D01*
X10620496Y-7632003D01*
X10617072Y-7626304D01*
X10617069Y-7626298D01*
X10613330Y-7620076D01*
X10606719Y-7607524D01*
X10606664Y-7607402D01*
X10568777Y-7524442D01*
X10558872Y-7513011D01*
X10529380Y-7448430D01*
X10539485Y-7378156D01*
X10585979Y-7324501D01*
X10654098Y-7304500D01*
X10980260Y-7304500D01*
X11048381Y-7324502D01*
X11069355Y-7341405D01*
X11440636Y-7712686D01*
X11456878Y-7732642D01*
X11463521Y-7742763D01*
X11467859Y-7747173D01*
X11467863Y-7747178D01*
X11519633Y-7799807D01*
X11524658Y-7805225D01*
X11549010Y-7833074D01*
X11559100Y-7846278D01*
X11566380Y-7857233D01*
X11574562Y-7871479D01*
X11582802Y-7888276D01*
X11591199Y-7905395D01*
X11594132Y-7911825D01*
X11625497Y-7986035D01*
X11628909Y-7991092D01*
X11634654Y-7999608D01*
X11644814Y-8017732D01*
X11667477Y-8067357D01*
X11667479Y-8067360D01*
X11671223Y-8075558D01*
X11677123Y-8082367D01*
X11677125Y-8082370D01*
X11745192Y-8160923D01*
X11766225Y-8185196D01*
X11773802Y-8190066D01*
X11773805Y-8190068D01*
X11845632Y-8236228D01*
X11888268Y-8263629D01*
X11896912Y-8266167D01*
X11896914Y-8266168D01*
X12018819Y-8301962D01*
X12018821Y-8301962D01*
X12027464Y-8304500D01*
X12172536Y-8304500D01*
X12181179Y-8301962D01*
X12181181Y-8301962D01*
X12303086Y-8266168D01*
X12303088Y-8266167D01*
X12311732Y-8263629D01*
X12354368Y-8236228D01*
X12426195Y-8190068D01*
X12426198Y-8190066D01*
X12433775Y-8185196D01*
X12454808Y-8160923D01*
X12522875Y-8082370D01*
X12522877Y-8082367D01*
X12528777Y-8075558D01*
X12589042Y-7943596D01*
X12606764Y-7820334D01*
X12608406Y-7808917D01*
X12609688Y-7800000D01*
X12605883Y-7773532D01*
X12593437Y-7686971D01*
X12589042Y-7656404D01*
X12528777Y-7524442D01*
X12522877Y-7517633D01*
X12522875Y-7517630D01*
X12439676Y-7421614D01*
X12433775Y-7414804D01*
X12426198Y-7409934D01*
X12426195Y-7409932D01*
X12323878Y-7344177D01*
X12311732Y-7336371D01*
X12303087Y-7333833D01*
X12294887Y-7330088D01*
X12295044Y-7329745D01*
X12288017Y-7326842D01*
X12286034Y-7325496D01*
X12280332Y-7323086D01*
X12280330Y-7323085D01*
X12211845Y-7294141D01*
X12205406Y-7291204D01*
X12171479Y-7274562D01*
X12157230Y-7266379D01*
X12146267Y-7259093D01*
X12133071Y-7249008D01*
X12105233Y-7224666D01*
X12099814Y-7219640D01*
X12047132Y-7167819D01*
X12042763Y-7163521D01*
X12032341Y-7156650D01*
X12012599Y-7140549D01*
X11463515Y-6591465D01*
X11463511Y-6591462D01*
X11440723Y-6568674D01*
X11420844Y-6558545D01*
X11403989Y-6548216D01*
X11393953Y-6540925D01*
X11385929Y-6535095D01*
X11364704Y-6528199D01*
X11346438Y-6520633D01*
X11345714Y-6520264D01*
X11326555Y-6510502D01*
X11304513Y-6507011D01*
X11285287Y-6502395D01*
X11273500Y-6498565D01*
X11273498Y-6498565D01*
X11264066Y-6495500D01*
X10407298Y-6495500D01*
X10339177Y-6475498D01*
X10292684Y-6421842D01*
X10282580Y-6351568D01*
X10312074Y-6286988D01*
X10371800Y-6248604D01*
X10376466Y-6247234D01*
X10482949Y-6215968D01*
X10550132Y-6185287D01*
X10671086Y-6107555D01*
X10677000Y-6102431D01*
X10723513Y-6062127D01*
X10726906Y-6059187D01*
X10821060Y-5950526D01*
X10860988Y-5888395D01*
X10894206Y-5815658D01*
X10918844Y-5761710D01*
X10918846Y-5761705D01*
X10920716Y-5757610D01*
X10941525Y-5686744D01*
X10961987Y-5544429D01*
X10961987Y-5470571D01*
X10961348Y-5466127D01*
X10961347Y-5466112D01*
X10960769Y-5462093D01*
X10959486Y-5444161D01*
X10959486Y-5070839D01*
X10960769Y-5052907D01*
X10961347Y-5048888D01*
X10961348Y-5048873D01*
X10961987Y-5044429D01*
X10961987Y-4970571D01*
X10941525Y-4828256D01*
X10920716Y-4757390D01*
X10910771Y-4735612D01*
X10862859Y-4630702D01*
X10860988Y-4626605D01*
X10832373Y-4582077D01*
X10823495Y-4568263D01*
X10821060Y-4564474D01*
X10726906Y-4455813D01*
X10671086Y-4407445D01*
X10587379Y-4353650D01*
X10540887Y-4299996D01*
X10529500Y-4247653D01*
X10529500Y-4188673D01*
X10549502Y-4120552D01*
X10566405Y-4099578D01*
X10699578Y-3966405D01*
X10761890Y-3932379D01*
X10788673Y-3929500D01*
X12524604Y-3929500D01*
X12592725Y-3949502D01*
G37*
G04 #@! TD.AperFunction*
G04 #@! TA.AperFunction,Conductor*
G36*
X2315524Y-19414357D02*
G01*
X2360516Y-19469277D01*
X2370500Y-19518432D01*
X2370500Y-20403704D01*
X2370020Y-20414686D01*
X2366690Y-20452746D01*
X2369543Y-20463393D01*
X2369543Y-20463395D01*
X2376580Y-20489656D01*
X2378959Y-20500387D01*
X2382589Y-20520970D01*
X2385595Y-20538020D01*
X2391106Y-20547565D01*
X2392363Y-20551019D01*
X2393913Y-20554343D01*
X2396765Y-20564987D01*
X2403085Y-20574013D01*
X2403086Y-20574015D01*
X2418681Y-20596286D01*
X2424587Y-20605557D01*
X2438180Y-20629101D01*
X2438182Y-20629104D01*
X2443695Y-20638652D01*
X2472981Y-20663226D01*
X2481072Y-20670641D01*
X3733595Y-21923164D01*
X3767621Y-21985476D01*
X3770500Y-22012259D01*
X3770500Y-22055273D01*
X3767307Y-22078418D01*
X3768203Y-22078577D01*
X3767119Y-22084674D01*
X3765443Y-22090636D01*
X3761832Y-22136988D01*
X3745500Y-22189907D01*
X3738266Y-22202514D01*
X3735838Y-22206568D01*
X3699800Y-22264250D01*
X3697331Y-22268201D01*
X3696924Y-22268891D01*
X3696907Y-22268919D01*
X3692175Y-22276942D01*
X3690605Y-22279604D01*
X3690024Y-22280649D01*
X3683782Y-22292597D01*
X3641445Y-22379031D01*
X3638427Y-22391134D01*
X3630785Y-22412987D01*
X3617882Y-22441242D01*
X3610958Y-22456404D01*
X3609676Y-22465322D01*
X3609674Y-22465328D01*
X3592118Y-22587432D01*
X3562625Y-22652012D01*
X3502899Y-22690396D01*
X3467401Y-22695500D01*
X3327464Y-22695500D01*
X3318821Y-22698038D01*
X3318819Y-22698038D01*
X3196914Y-22733832D01*
X3196912Y-22733833D01*
X3188268Y-22736371D01*
X3150764Y-22760473D01*
X3073805Y-22809932D01*
X3073802Y-22809934D01*
X3066225Y-22814804D01*
X3060324Y-22821614D01*
X2977125Y-22917630D01*
X2977123Y-22917633D01*
X2971223Y-22924442D01*
X2910958Y-23056404D01*
X2890312Y-23200000D01*
X2910958Y-23343596D01*
X2914701Y-23351792D01*
X2914702Y-23351796D01*
X2930298Y-23385946D01*
X2937475Y-23405992D01*
X2941445Y-23420968D01*
X2983782Y-23507402D01*
X2990024Y-23519350D01*
X2990605Y-23520395D01*
X2997332Y-23531800D01*
X3035847Y-23593443D01*
X3038248Y-23597450D01*
X3045506Y-23610100D01*
X3061832Y-23663010D01*
X3065443Y-23709363D01*
X3066850Y-23714766D01*
X3067772Y-23720264D01*
X3067352Y-23720334D01*
X3070500Y-23744919D01*
X3070500Y-28611327D01*
X3050498Y-28679448D01*
X3033595Y-28700422D01*
X2900422Y-28833595D01*
X2838110Y-28867621D01*
X2811327Y-28870500D01*
X2780176Y-28870500D01*
X2755295Y-28867096D01*
X2755187Y-28867709D01*
X2551971Y-28832039D01*
X2532942Y-28827143D01*
X2344661Y-28762663D01*
X2328319Y-28755742D01*
X2131234Y-28655345D01*
X2117838Y-28647443D01*
X2025062Y-28584693D01*
X2004329Y-28567134D01*
X1882078Y-28438526D01*
X1877678Y-28433897D01*
X1872439Y-28430250D01*
X1872436Y-28430248D01*
X1715247Y-28320842D01*
X1710000Y-28317190D01*
X1522261Y-28236625D01*
X1516003Y-28235339D01*
X1516000Y-28235338D01*
X1445619Y-28220874D01*
X1322148Y-28195500D01*
X226500Y-28195500D01*
X158379Y-28175498D01*
X111886Y-28121842D01*
X100500Y-28069500D01*
X100500Y-27790500D01*
X120502Y-27722379D01*
X174158Y-27675886D01*
X226500Y-27664500D01*
X1270940Y-27664500D01*
X1274114Y-27664177D01*
X1274119Y-27664177D01*
X1328529Y-27658644D01*
X1423247Y-27649012D01*
X1618173Y-27587853D01*
X1705905Y-27539158D01*
X1791212Y-27491809D01*
X1791216Y-27491806D01*
X1796798Y-27488708D01*
X1951809Y-27355636D01*
X2008296Y-27282661D01*
X2072945Y-27199141D01*
X2072947Y-27199138D01*
X2076859Y-27194084D01*
X2166830Y-27010667D01*
X2190547Y-26919068D01*
X2216437Y-26819075D01*
X2216438Y-26819071D01*
X2218037Y-26812894D01*
X2228384Y-26608861D01*
X2197448Y-26406921D01*
X2131474Y-26228787D01*
X2128714Y-26221334D01*
X2128713Y-26221333D01*
X2126495Y-26215343D01*
X2018430Y-26041969D01*
X1997923Y-26020395D01*
X1882078Y-25898525D01*
X1882074Y-25898521D01*
X1877678Y-25893897D01*
X1872439Y-25890250D01*
X1872436Y-25890248D01*
X1715247Y-25780842D01*
X1710000Y-25777190D01*
X1522261Y-25696625D01*
X1516003Y-25695339D01*
X1516000Y-25695338D01*
X1445619Y-25680874D01*
X1322148Y-25655500D01*
X226500Y-25655500D01*
X158379Y-25635498D01*
X111886Y-25581842D01*
X100500Y-25529500D01*
X100500Y-25250500D01*
X120502Y-25182379D01*
X174158Y-25135886D01*
X226500Y-25124500D01*
X1270940Y-25124500D01*
X1274114Y-25124177D01*
X1274119Y-25124177D01*
X1328529Y-25118644D01*
X1423247Y-25109012D01*
X1618173Y-25047853D01*
X1694785Y-25005330D01*
X1791212Y-24951809D01*
X1791216Y-24951806D01*
X1796798Y-24948708D01*
X1951809Y-24815636D01*
X2011321Y-24738752D01*
X2072945Y-24659141D01*
X2072947Y-24659138D01*
X2076859Y-24654084D01*
X2166830Y-24470667D01*
X2177007Y-24431360D01*
X2216437Y-24279075D01*
X2216438Y-24279071D01*
X2218037Y-24272894D01*
X2228384Y-24068861D01*
X2197448Y-23866921D01*
X2139094Y-23709360D01*
X2128714Y-23681334D01*
X2128713Y-23681333D01*
X2126495Y-23675343D01*
X2018430Y-23501969D01*
X2008131Y-23491134D01*
X1882078Y-23358525D01*
X1882074Y-23358521D01*
X1877678Y-23353897D01*
X1872439Y-23350250D01*
X1872436Y-23350248D01*
X1715247Y-23240842D01*
X1710000Y-23237190D01*
X1522261Y-23156625D01*
X1516003Y-23155339D01*
X1516000Y-23155338D01*
X1445619Y-23140874D01*
X1322148Y-23115500D01*
X226500Y-23115500D01*
X158379Y-23095498D01*
X111886Y-23041842D01*
X100500Y-22989500D01*
X100500Y-22710500D01*
X120502Y-22642379D01*
X174158Y-22595886D01*
X226500Y-22584500D01*
X1270940Y-22584500D01*
X1274114Y-22584177D01*
X1274119Y-22584177D01*
X1328529Y-22578644D01*
X1423247Y-22569012D01*
X1618173Y-22507853D01*
X1660793Y-22484197D01*
X1791212Y-22411809D01*
X1791216Y-22411806D01*
X1796798Y-22408708D01*
X1951809Y-22275636D01*
X2010355Y-22200000D01*
X2072945Y-22119141D01*
X2072947Y-22119138D01*
X2076859Y-22114084D01*
X2081643Y-22104333D01*
X2142816Y-21979622D01*
X2166830Y-21930667D01*
X2170745Y-21915547D01*
X2216437Y-21739075D01*
X2216438Y-21739071D01*
X2218037Y-21732894D01*
X2228384Y-21528861D01*
X2197448Y-21326921D01*
X2163595Y-21235516D01*
X2128714Y-21141334D01*
X2128713Y-21141333D01*
X2126495Y-21135343D01*
X2018430Y-20961969D01*
X2012374Y-20955598D01*
X1882078Y-20818525D01*
X1882074Y-20818521D01*
X1877678Y-20813897D01*
X1872439Y-20810250D01*
X1872436Y-20810248D01*
X1715247Y-20700842D01*
X1710000Y-20697190D01*
X1522261Y-20616625D01*
X1516003Y-20615339D01*
X1516000Y-20615338D01*
X1423292Y-20596286D01*
X1322148Y-20575500D01*
X226500Y-20575500D01*
X158379Y-20555498D01*
X111886Y-20501842D01*
X100500Y-20449500D01*
X100500Y-20170500D01*
X120502Y-20102379D01*
X174158Y-20055886D01*
X226500Y-20044500D01*
X1270940Y-20044500D01*
X1274114Y-20044177D01*
X1274119Y-20044177D01*
X1328529Y-20038644D01*
X1423247Y-20029012D01*
X1538117Y-19992971D01*
X1612073Y-19969767D01*
X1612074Y-19969767D01*
X1618173Y-19967853D01*
X1623760Y-19964752D01*
X1791212Y-19871809D01*
X1791216Y-19871806D01*
X1796798Y-19868708D01*
X1951809Y-19735636D01*
X2016336Y-19652274D01*
X2072945Y-19579141D01*
X2072947Y-19579138D01*
X2076859Y-19574084D01*
X2082695Y-19562188D01*
X2123474Y-19479053D01*
X2131377Y-19462942D01*
X2179335Y-19410592D01*
X2247982Y-19392480D01*
X2315524Y-19414357D01*
G37*
G04 #@! TD.AperFunction*
G04 #@! TA.AperFunction,Conductor*
G36*
X15481481Y-13674024D02*
G01*
X15538317Y-13716571D01*
X15563128Y-13783091D01*
X15562196Y-13806208D01*
X15561963Y-13807106D01*
X15551616Y-14011139D01*
X15582552Y-14213079D01*
X15584770Y-14219067D01*
X15584770Y-14219068D01*
X15623797Y-14324442D01*
X15653505Y-14404657D01*
X15656886Y-14410081D01*
X15743216Y-14548584D01*
X15761570Y-14578031D01*
X15765970Y-14582660D01*
X15765971Y-14582661D01*
X15897922Y-14721475D01*
X15897926Y-14721479D01*
X15902322Y-14726103D01*
X15907561Y-14729750D01*
X15907564Y-14729752D01*
X16005170Y-14797687D01*
X16070000Y-14842810D01*
X16257739Y-14923375D01*
X16263997Y-14924661D01*
X16264000Y-14924662D01*
X16334381Y-14939126D01*
X16457852Y-14964500D01*
X17553500Y-14964500D01*
X17621621Y-14984502D01*
X17668114Y-15038158D01*
X17679500Y-15090500D01*
X17679500Y-15369500D01*
X17659498Y-15437621D01*
X17605842Y-15484114D01*
X17553500Y-15495500D01*
X16509060Y-15495500D01*
X16505886Y-15495823D01*
X16505881Y-15495823D01*
X16451471Y-15501356D01*
X16356753Y-15510988D01*
X16161827Y-15572147D01*
X16156240Y-15575248D01*
X15988788Y-15668191D01*
X15988784Y-15668194D01*
X15983202Y-15671292D01*
X15828191Y-15804364D01*
X15784738Y-15860500D01*
X15725924Y-15936483D01*
X15703141Y-15965916D01*
X15700326Y-15971655D01*
X15700324Y-15971658D01*
X15659275Y-16055343D01*
X15613170Y-16149333D01*
X15611569Y-16155515D01*
X15611569Y-16155516D01*
X15563586Y-16340839D01*
X15561963Y-16347106D01*
X15551616Y-16551139D01*
X15582552Y-16753079D01*
X15584770Y-16759067D01*
X15584770Y-16759068D01*
X15631159Y-16884320D01*
X15653505Y-16944657D01*
X15761570Y-17118031D01*
X15765970Y-17122660D01*
X15765971Y-17122661D01*
X15897922Y-17261475D01*
X15897926Y-17261479D01*
X15902322Y-17266103D01*
X15907561Y-17269750D01*
X15907564Y-17269752D01*
X16064753Y-17379158D01*
X16070000Y-17382810D01*
X16257739Y-17463375D01*
X16263997Y-17464661D01*
X16264000Y-17464662D01*
X16334381Y-17479126D01*
X16457852Y-17504500D01*
X17553500Y-17504500D01*
X17621621Y-17524502D01*
X17668114Y-17578158D01*
X17679500Y-17630500D01*
X17679500Y-17909500D01*
X17659498Y-17977621D01*
X17605842Y-18024114D01*
X17553500Y-18035500D01*
X16509060Y-18035500D01*
X16505886Y-18035823D01*
X16505881Y-18035823D01*
X16451471Y-18041356D01*
X16356753Y-18050988D01*
X16350652Y-18052902D01*
X16350653Y-18052902D01*
X16174490Y-18108174D01*
X16161827Y-18112147D01*
X16156240Y-18115248D01*
X15988788Y-18208191D01*
X15988784Y-18208194D01*
X15983202Y-18211292D01*
X15828191Y-18344364D01*
X15824283Y-18349413D01*
X15709977Y-18497085D01*
X15703141Y-18505916D01*
X15700326Y-18511655D01*
X15700324Y-18511658D01*
X15677055Y-18559095D01*
X15613170Y-18689333D01*
X15611569Y-18695515D01*
X15611569Y-18695516D01*
X15561963Y-18887106D01*
X15561456Y-18889508D01*
X15559897Y-18895286D01*
X15534868Y-18988017D01*
X15533674Y-18992159D01*
X15486192Y-19146839D01*
X15464926Y-19216118D01*
X15454678Y-19249501D01*
X15452940Y-19254747D01*
X15426661Y-19328597D01*
X15376154Y-19470529D01*
X15373482Y-19477396D01*
X15324298Y-19593609D01*
X15279327Y-19648547D01*
X15208262Y-19670500D01*
X13635029Y-19670500D01*
X13566908Y-19650498D01*
X13520415Y-19596842D01*
X13510311Y-19526568D01*
X13539805Y-19461988D01*
X13545934Y-19455405D01*
X13815430Y-19185909D01*
X13833299Y-19171398D01*
X13834674Y-19170133D01*
X13843416Y-19164421D01*
X13849828Y-19156183D01*
X13849831Y-19156180D01*
X13862001Y-19140544D01*
X13865283Y-19136502D01*
X13867750Y-19133589D01*
X13871442Y-19129897D01*
X13882740Y-19114073D01*
X13885856Y-19109893D01*
X13909674Y-19079293D01*
X13909675Y-19079292D01*
X13916085Y-19071056D01*
X13918522Y-19063958D01*
X13922884Y-19057848D01*
X13936934Y-19010655D01*
X13938520Y-19005704D01*
X13951109Y-18969033D01*
X13954500Y-18959156D01*
X13954500Y-18951651D01*
X13956642Y-18944456D01*
X13954608Y-18895286D01*
X13954500Y-18890078D01*
X13954500Y-18339540D01*
X13957545Y-18315481D01*
X13957226Y-18315432D01*
X13958174Y-18309311D01*
X13959715Y-18303319D01*
X13961572Y-18269844D01*
X13963072Y-18242807D01*
X13966127Y-18221364D01*
X13967140Y-18216989D01*
X13974773Y-18194190D01*
X13981559Y-18178939D01*
X13985258Y-18171327D01*
X14015251Y-18114531D01*
X14015447Y-18114160D01*
X14018510Y-18108174D01*
X14018779Y-18107631D01*
X14021807Y-18101304D01*
X14040299Y-18061294D01*
X14066492Y-18004619D01*
X14066540Y-18004514D01*
X14067499Y-18002413D01*
X14067648Y-18002083D01*
X14067647Y-18002083D01*
X14067705Y-18001954D01*
X14068770Y-17999554D01*
X14068893Y-17999274D01*
X14119013Y-17884713D01*
X14119339Y-17883975D01*
X14155431Y-17802896D01*
X14155724Y-17802238D01*
X14156012Y-17801549D01*
X14160217Y-17791462D01*
X14160220Y-17791456D01*
X14160490Y-17790807D01*
X14160890Y-17789779D01*
X14162880Y-17784285D01*
X14164780Y-17779042D01*
X14164787Y-17779021D01*
X14165042Y-17778318D01*
X14189513Y-17705476D01*
X14195524Y-17684770D01*
X14195988Y-17682882D01*
X14200264Y-17661722D01*
X14203529Y-17641200D01*
X14208791Y-17620084D01*
X14210609Y-17614789D01*
X14216747Y-17596909D01*
X14216747Y-17589404D01*
X14218889Y-17582209D01*
X14217427Y-17546862D01*
X14217396Y-17537249D01*
X14221163Y-17429829D01*
X14218565Y-17414702D01*
X14216747Y-17393374D01*
X14216747Y-14886782D01*
X14236749Y-14818661D01*
X14253652Y-14797687D01*
X15348354Y-13702985D01*
X15410666Y-13668959D01*
X15481481Y-13674024D01*
G37*
G04 #@! TD.AperFunction*
G04 #@! TA.AperFunction,Conductor*
G36*
X9116820Y-10983801D02*
G01*
X9125699Y-10989734D01*
X9225000Y-11009486D01*
X9269500Y-11009486D01*
X9337621Y-11029488D01*
X9384114Y-11083144D01*
X9395500Y-11135486D01*
X9395500Y-14595284D01*
X9393686Y-14616589D01*
X9390909Y-14632777D01*
X9391992Y-14673725D01*
X9393365Y-14725671D01*
X9392930Y-14739980D01*
X9392738Y-14742178D01*
X9391690Y-14754160D01*
X9394543Y-14764806D01*
X9394747Y-14767143D01*
X9396816Y-14777608D01*
X9401847Y-14816550D01*
X9402015Y-14817848D01*
X9390905Y-14887970D01*
X9343648Y-14940954D01*
X9275248Y-14959978D01*
X9214053Y-14943110D01*
X9181967Y-14924585D01*
X9172700Y-14918681D01*
X9166774Y-14914531D01*
X9157325Y-14907915D01*
X9150429Y-14903086D01*
X9150427Y-14903085D01*
X9141401Y-14896765D01*
X9130757Y-14893913D01*
X9127433Y-14892363D01*
X9123979Y-14891106D01*
X9114434Y-14885595D01*
X9103582Y-14883681D01*
X9103581Y-14883681D01*
X9076801Y-14878959D01*
X9066070Y-14876580D01*
X9039809Y-14869543D01*
X9039807Y-14869543D01*
X9029160Y-14866690D01*
X9018176Y-14867651D01*
X9018175Y-14867651D01*
X8991100Y-14870020D01*
X8980118Y-14870500D01*
X6987713Y-14870500D01*
X6919592Y-14850498D01*
X6898618Y-14833595D01*
X6715925Y-14650902D01*
X6681899Y-14588590D01*
X6679020Y-14561807D01*
X6679019Y-12869401D01*
X6679499Y-12858419D01*
X6681868Y-12831341D01*
X6682829Y-12820359D01*
X6679421Y-12807637D01*
X6672939Y-12783449D01*
X6670560Y-12772718D01*
X6665838Y-12745938D01*
X6665838Y-12745937D01*
X6663924Y-12735085D01*
X6658413Y-12725540D01*
X6657156Y-12722086D01*
X6655606Y-12718763D01*
X6652754Y-12708118D01*
X6630834Y-12676813D01*
X6624929Y-12667543D01*
X6611338Y-12644002D01*
X6611335Y-12643998D01*
X6605824Y-12634453D01*
X6576563Y-12609900D01*
X6568459Y-12602474D01*
X6561060Y-12595075D01*
X6527034Y-12532763D01*
X6532099Y-12461948D01*
X6574646Y-12405112D01*
X6641166Y-12380301D01*
X6650155Y-12379980D01*
X7729638Y-12379980D01*
X7740620Y-12380460D01*
X7767695Y-12382829D01*
X7767696Y-12382829D01*
X7778680Y-12383790D01*
X7789327Y-12380937D01*
X7789329Y-12380937D01*
X7815590Y-12373900D01*
X7826321Y-12371521D01*
X7853101Y-12366799D01*
X7853102Y-12366799D01*
X7863954Y-12364885D01*
X7873499Y-12359374D01*
X7876953Y-12358117D01*
X7880277Y-12356567D01*
X7890921Y-12353715D01*
X7899947Y-12347395D01*
X7899949Y-12347394D01*
X7922220Y-12331799D01*
X7931491Y-12325893D01*
X7955035Y-12312300D01*
X7955038Y-12312298D01*
X7964586Y-12306785D01*
X7989160Y-12277499D01*
X7996575Y-12269408D01*
X8493923Y-11772060D01*
X8502027Y-11764633D01*
X8522861Y-11747151D01*
X8531305Y-11740066D01*
X8536815Y-11730523D01*
X8536818Y-11730519D01*
X8550413Y-11706971D01*
X8556319Y-11697700D01*
X8571914Y-11675429D01*
X8571915Y-11675427D01*
X8578235Y-11666401D01*
X8581087Y-11655757D01*
X8582637Y-11652433D01*
X8583894Y-11648979D01*
X8589405Y-11639434D01*
X8596041Y-11601801D01*
X8598420Y-11591070D01*
X8605457Y-11564809D01*
X8605457Y-11564807D01*
X8608310Y-11554160D01*
X8604980Y-11516100D01*
X8604500Y-11505118D01*
X8604500Y-11135486D01*
X8624502Y-11067365D01*
X8678158Y-11020872D01*
X8730500Y-11009486D01*
X8925000Y-11009486D01*
X8944782Y-11007548D01*
X8966123Y-11005458D01*
X8966126Y-11005457D01*
X8975357Y-11004553D01*
X9023554Y-10984648D01*
X9094150Y-10977132D01*
X9116820Y-10983801D01*
G37*
G04 #@! TD.AperFunction*
G04 #@! TA.AperFunction,Conductor*
G36*
X15310989Y-9329602D02*
G01*
X15316044Y-9330317D01*
X15335414Y-9334634D01*
X15502357Y-9385932D01*
X15519244Y-9392483D01*
X15694632Y-9475481D01*
X15708593Y-9483205D01*
X15794766Y-9538283D01*
X15818233Y-9557640D01*
X15902322Y-9646103D01*
X15907568Y-9649754D01*
X15907570Y-9649756D01*
X15947691Y-9677681D01*
X16070000Y-9762810D01*
X16149085Y-9796748D01*
X16169589Y-9805547D01*
X16170952Y-9806142D01*
X16179391Y-9809882D01*
X16178058Y-9812891D01*
X16178453Y-9813139D01*
X16179826Y-9809940D01*
X16257739Y-9843375D01*
X16263997Y-9844661D01*
X16264000Y-9844662D01*
X16334381Y-9859126D01*
X16457852Y-9884500D01*
X17553500Y-9884500D01*
X17621621Y-9904502D01*
X17668114Y-9958158D01*
X17679500Y-10010500D01*
X17679500Y-10289500D01*
X17659498Y-10357621D01*
X17605842Y-10404114D01*
X17553500Y-10415500D01*
X16509060Y-10415500D01*
X16505886Y-10415823D01*
X16505881Y-10415823D01*
X16451471Y-10421356D01*
X16356753Y-10430988D01*
X16350652Y-10432902D01*
X16350653Y-10432902D01*
X16201747Y-10479622D01*
X16161827Y-10492147D01*
X16156240Y-10495248D01*
X15988788Y-10588191D01*
X15988784Y-10588194D01*
X15983202Y-10591292D01*
X15828191Y-10724364D01*
X15808347Y-10750000D01*
X15723496Y-10859620D01*
X15703141Y-10885916D01*
X15700326Y-10891655D01*
X15700324Y-10891658D01*
X15679221Y-10934679D01*
X15613170Y-11069333D01*
X15611569Y-11075515D01*
X15611569Y-11075516D01*
X15565484Y-11253509D01*
X15561963Y-11267106D01*
X15557692Y-11351325D01*
X15555163Y-11401197D01*
X15552887Y-11419482D01*
X15550491Y-11431479D01*
X15550486Y-11437671D01*
X15550486Y-11437673D01*
X15550335Y-11634081D01*
X15550264Y-11726510D01*
X15550029Y-11997821D01*
X15549794Y-12233726D01*
X15549559Y-12434219D01*
X15549545Y-12444502D01*
X15549541Y-12447106D01*
X15529444Y-12515199D01*
X15512636Y-12536025D01*
X15217718Y-12830943D01*
X15155406Y-12864969D01*
X15084591Y-12859904D01*
X15027755Y-12817357D01*
X15003905Y-12759779D01*
X14992147Y-12678000D01*
X14989042Y-12656404D01*
X14979017Y-12634453D01*
X14969702Y-12614055D01*
X14962523Y-12594002D01*
X14958554Y-12579030D01*
X14927288Y-12515199D01*
X14916569Y-12493316D01*
X14916557Y-12493292D01*
X14916212Y-12492588D01*
X14909981Y-12480660D01*
X14909404Y-12479622D01*
X14902668Y-12468201D01*
X14864129Y-12406517D01*
X14861743Y-12402534D01*
X14854498Y-12389907D01*
X14838167Y-12336988D01*
X14834990Y-12296201D01*
X14834989Y-12296196D01*
X14834556Y-12290636D01*
X14833151Y-12285238D01*
X14832228Y-12279738D01*
X14832647Y-12279668D01*
X14829500Y-12255082D01*
X14829500Y-12138673D01*
X14849502Y-12070552D01*
X14866405Y-12049578D01*
X14968923Y-11947060D01*
X14977027Y-11939633D01*
X14997861Y-11922151D01*
X15006305Y-11915066D01*
X15011815Y-11905523D01*
X15011818Y-11905519D01*
X15025413Y-11881971D01*
X15031319Y-11872700D01*
X15046914Y-11850429D01*
X15046915Y-11850427D01*
X15053235Y-11841401D01*
X15056087Y-11830757D01*
X15057637Y-11827433D01*
X15058894Y-11823979D01*
X15064405Y-11814434D01*
X15066318Y-11803583D01*
X15066321Y-11803576D01*
X15071044Y-11776791D01*
X15073422Y-11766063D01*
X15080457Y-11739807D01*
X15080457Y-11739805D01*
X15083309Y-11729161D01*
X15082342Y-11718101D01*
X15079979Y-11691097D01*
X15079500Y-11680116D01*
X15079500Y-9538673D01*
X15099502Y-9470552D01*
X15116405Y-9449578D01*
X15201155Y-9364828D01*
X15263467Y-9330802D01*
X15307888Y-9329164D01*
X15310989Y-9329602D01*
G37*
G04 #@! TD.AperFunction*
G04 #@! TA.AperFunction,Conductor*
G36*
X3138012Y-8604449D02*
G01*
X3144595Y-8610578D01*
X3252940Y-8718923D01*
X3260367Y-8727027D01*
X3284934Y-8756305D01*
X3294477Y-8761815D01*
X3294481Y-8761818D01*
X3318029Y-8775413D01*
X3327296Y-8781317D01*
X3334702Y-8786502D01*
X3349571Y-8796914D01*
X3349573Y-8796915D01*
X3358599Y-8803235D01*
X3369243Y-8806087D01*
X3372567Y-8807637D01*
X3376021Y-8808894D01*
X3385566Y-8814405D01*
X3396417Y-8816318D01*
X3396424Y-8816321D01*
X3423209Y-8821044D01*
X3433937Y-8823422D01*
X3460193Y-8830457D01*
X3460195Y-8830457D01*
X3470839Y-8833309D01*
X3481814Y-8832349D01*
X3481815Y-8832349D01*
X3508903Y-8829979D01*
X3519884Y-8829500D01*
X7530869Y-8829500D01*
X7598990Y-8849502D01*
X7645483Y-8903158D01*
X7655587Y-8973432D01*
X7626093Y-9038012D01*
X7603582Y-9057873D01*
X7601832Y-9059623D01*
X7591516Y-9066516D01*
X7535266Y-9150699D01*
X7515514Y-9250000D01*
X7515514Y-10750000D01*
X7535266Y-10849301D01*
X7591516Y-10933484D01*
X7675699Y-10989734D01*
X7775000Y-11009486D01*
X7819500Y-11009486D01*
X7887621Y-11029488D01*
X7934114Y-11083144D01*
X7945500Y-11135486D01*
X7945500Y-11336327D01*
X7925498Y-11404448D01*
X7908595Y-11425422D01*
X7649942Y-11684075D01*
X7587630Y-11718101D01*
X7560847Y-11720980D01*
X5839153Y-11720980D01*
X5771032Y-11700978D01*
X5750058Y-11684075D01*
X5718172Y-11652189D01*
X5704060Y-11633560D01*
X5703314Y-11634081D01*
X5699770Y-11629004D01*
X5696741Y-11623606D01*
X5692719Y-11618904D01*
X5692713Y-11618896D01*
X5666518Y-11588276D01*
X5640646Y-11539313D01*
X5636841Y-11525265D01*
X5635710Y-11520757D01*
X5619347Y-11449893D01*
X5616000Y-11436933D01*
X5615670Y-11435779D01*
X5611676Y-11423056D01*
X5589180Y-11357361D01*
X5589366Y-11357297D01*
X5589105Y-11356844D01*
X5589042Y-11356404D01*
X5588282Y-11354739D01*
X5580496Y-11332003D01*
X5577072Y-11326304D01*
X5577069Y-11326298D01*
X5573330Y-11320076D01*
X5566719Y-11307524D01*
X5532521Y-11232640D01*
X5532521Y-11232639D01*
X5528777Y-11224442D01*
X5522877Y-11217633D01*
X5522875Y-11217630D01*
X5439676Y-11121614D01*
X5433775Y-11114804D01*
X5426198Y-11109934D01*
X5426195Y-11109932D01*
X5319311Y-11041242D01*
X5311732Y-11036371D01*
X5303088Y-11033833D01*
X5303086Y-11033832D01*
X5181181Y-10998038D01*
X5181179Y-10998038D01*
X5172536Y-10995500D01*
X5027464Y-10995500D01*
X5018821Y-10998038D01*
X5018819Y-10998038D01*
X4896914Y-11033832D01*
X4896912Y-11033833D01*
X4888268Y-11036371D01*
X4880689Y-11041242D01*
X4773805Y-11109932D01*
X4773802Y-11109934D01*
X4766225Y-11114804D01*
X4760324Y-11121614D01*
X4677125Y-11217630D01*
X4677123Y-11217633D01*
X4671223Y-11224442D01*
X4667479Y-11232639D01*
X4667479Y-11232640D01*
X4655551Y-11258758D01*
X4610958Y-11356404D01*
X4590312Y-11500000D01*
X4610958Y-11643596D01*
X4614701Y-11651792D01*
X4648824Y-11726510D01*
X4671223Y-11775558D01*
X4677123Y-11782367D01*
X4677125Y-11782370D01*
X4716173Y-11827433D01*
X4766225Y-11885196D01*
X4773802Y-11890066D01*
X4773805Y-11890068D01*
X4849170Y-11938502D01*
X4895663Y-11992158D01*
X4905766Y-12062432D01*
X4876273Y-12127013D01*
X4816547Y-12165396D01*
X4781049Y-12170500D01*
X3288675Y-12170500D01*
X3220554Y-12150498D01*
X3199580Y-12133596D01*
X2966405Y-11900422D01*
X2932380Y-11838109D01*
X2929500Y-11811326D01*
X2929500Y-8699673D01*
X2949502Y-8631552D01*
X3003158Y-8585059D01*
X3073432Y-8574955D01*
X3138012Y-8604449D01*
G37*
G04 #@! TD.AperFunction*
G04 #@! TA.AperFunction,Conductor*
G36*
X652251Y-7842704D02*
G01*
X697314Y-7871665D01*
X878335Y-8052686D01*
X912361Y-8114998D01*
X907296Y-8185813D01*
X878335Y-8230876D01*
X496023Y-8613188D01*
X490514Y-8623276D01*
X497817Y-8626000D01*
X2144500Y-8626000D01*
X2212621Y-8646002D01*
X2259114Y-8699658D01*
X2270500Y-8752000D01*
X2270500Y-9008000D01*
X2250498Y-9076121D01*
X2196842Y-9122614D01*
X2144500Y-9134000D01*
X842115Y-9134000D01*
X826876Y-9138475D01*
X825671Y-9139865D01*
X824000Y-9147548D01*
X824000Y-9456674D01*
X831530Y-9482319D01*
X878335Y-9529124D01*
X912361Y-9591436D01*
X907296Y-9662251D01*
X878335Y-9707314D01*
X836809Y-9748840D01*
X824000Y-9772298D01*
X824000Y-10138000D01*
X822798Y-10138000D01*
X823655Y-10162000D01*
X824000Y-10162000D01*
X824000Y-10171666D01*
X824119Y-10174998D01*
X824000Y-10175545D01*
X824000Y-10520235D01*
X831531Y-10545882D01*
X878335Y-10592686D01*
X912361Y-10654998D01*
X907296Y-10725813D01*
X878335Y-10770876D01*
X836812Y-10812399D01*
X824000Y-10835861D01*
X824000Y-11147885D01*
X828475Y-11163124D01*
X829865Y-11164329D01*
X837548Y-11166000D01*
X2144500Y-11166000D01*
X2212621Y-11186002D01*
X2259114Y-11239658D01*
X2270500Y-11292000D01*
X2270500Y-11548000D01*
X2250498Y-11616121D01*
X2196842Y-11662614D01*
X2144500Y-11674000D01*
X842115Y-11674000D01*
X826876Y-11678475D01*
X825671Y-11679865D01*
X824000Y-11687548D01*
X824000Y-11892000D01*
X803998Y-11960121D01*
X750342Y-12006614D01*
X698000Y-12018000D01*
X442000Y-12018000D01*
X373879Y-11997998D01*
X327386Y-11944342D01*
X316000Y-11892000D01*
X316000Y-11351325D01*
X312763Y-11340300D01*
X285832Y-11352599D01*
X284833Y-11350413D01*
X253283Y-11367641D01*
X182468Y-11362576D01*
X125632Y-11320029D01*
X100821Y-11253509D01*
X100500Y-11244520D01*
X100500Y-10882479D01*
X120502Y-10814358D01*
X137405Y-10793384D01*
X303188Y-10627601D01*
X316000Y-10604139D01*
X316000Y-10162000D01*
X317202Y-10162000D01*
X316345Y-10138000D01*
X316000Y-10138000D01*
X316000Y-10128334D01*
X315881Y-10125002D01*
X316000Y-10124455D01*
X316000Y-9703326D01*
X308470Y-9677681D01*
X137405Y-9506616D01*
X103379Y-9444304D01*
X100500Y-9417521D01*
X100500Y-9055480D01*
X120502Y-8987359D01*
X174158Y-8940866D01*
X244432Y-8930762D01*
X285090Y-8949331D01*
X287292Y-8945298D01*
X313277Y-8959487D01*
X316000Y-8952186D01*
X316000Y-8811325D01*
X312763Y-8800300D01*
X285832Y-8812599D01*
X284833Y-8810413D01*
X253283Y-8827641D01*
X182468Y-8822576D01*
X125632Y-8780029D01*
X100821Y-8713509D01*
X100500Y-8704520D01*
X100500Y-8342479D01*
X120502Y-8274358D01*
X137405Y-8253384D01*
X519124Y-7871665D01*
X581436Y-7837639D01*
X652251Y-7842704D01*
G37*
G04 #@! TD.AperFunction*
G04 #@! TA.AperFunction,Conductor*
G36*
X17406121Y-5762002D02*
G01*
X17452614Y-5815658D01*
X17464000Y-5868000D01*
X17464000Y-6408675D01*
X17467237Y-6419700D01*
X17494168Y-6407401D01*
X17495167Y-6409587D01*
X17526717Y-6392359D01*
X17597532Y-6397424D01*
X17654368Y-6439971D01*
X17679179Y-6506491D01*
X17679500Y-6515480D01*
X17679500Y-6877521D01*
X17659498Y-6945642D01*
X17642595Y-6966616D01*
X17260876Y-7348335D01*
X17198564Y-7382361D01*
X17127749Y-7377296D01*
X17082686Y-7348335D01*
X16901665Y-7167314D01*
X16867639Y-7105002D01*
X16872704Y-7034187D01*
X16901665Y-6989124D01*
X17283977Y-6606812D01*
X17289486Y-6596724D01*
X17282183Y-6594000D01*
X17082000Y-6594000D01*
X17013879Y-6573998D01*
X16967386Y-6520342D01*
X16956000Y-6468000D01*
X16956000Y-5868000D01*
X16976002Y-5799879D01*
X17029658Y-5753386D01*
X17082000Y-5742000D01*
X17338000Y-5742000D01*
X17406121Y-5762002D01*
G37*
G04 #@! TD.AperFunction*
G04 #@! TA.AperFunction,Conductor*
G36*
X7426766Y-4049502D02*
G01*
X7473259Y-4103158D01*
X7483363Y-4173432D01*
X7453869Y-4238012D01*
X7394143Y-4276396D01*
X7317051Y-4299032D01*
X7249868Y-4329713D01*
X7128914Y-4407445D01*
X7073094Y-4455813D01*
X6978940Y-4564474D01*
X6976505Y-4568263D01*
X6967628Y-4582077D01*
X6939012Y-4626605D01*
X6937141Y-4630702D01*
X6889230Y-4735612D01*
X6879284Y-4757390D01*
X6858475Y-4828256D01*
X6838013Y-4970571D01*
X6838013Y-5044429D01*
X6838652Y-5048873D01*
X6838653Y-5048888D01*
X6839231Y-5052907D01*
X6840514Y-5070839D01*
X6840514Y-5241313D01*
X6820512Y-5309434D01*
X6803609Y-5330408D01*
X5778224Y-6355793D01*
X5715912Y-6389819D01*
X5645097Y-6384754D01*
X5588261Y-6342207D01*
X5563450Y-6275687D01*
X5563736Y-6254348D01*
X5577697Y-6112599D01*
X5578000Y-6106426D01*
X5578000Y-5782115D01*
X5573525Y-5766876D01*
X5572135Y-5765671D01*
X5564452Y-5764000D01*
X3620596Y-5764000D01*
X3552475Y-5743998D01*
X3525374Y-5720514D01*
X3433775Y-5614804D01*
X3426198Y-5609934D01*
X3426195Y-5609932D01*
X3319311Y-5541242D01*
X3311732Y-5536371D01*
X3303088Y-5533833D01*
X3303086Y-5533832D01*
X3181181Y-5498038D01*
X3181179Y-5498038D01*
X3172536Y-5495500D01*
X3098259Y-5495500D01*
X3030138Y-5475498D01*
X2983645Y-5421842D01*
X2973541Y-5351568D01*
X3003035Y-5286988D01*
X3009164Y-5280405D01*
X3346905Y-4942664D01*
X3409217Y-4908638D01*
X3480032Y-4913703D01*
X3536868Y-4956250D01*
X3561679Y-5022770D01*
X3562000Y-5031759D01*
X3562000Y-5237885D01*
X3566475Y-5253124D01*
X3567865Y-5254329D01*
X3575548Y-5256000D01*
X5559885Y-5256000D01*
X5576563Y-5251103D01*
X5647560Y-5251103D01*
X5701156Y-5282904D01*
X5746780Y-5328528D01*
X5866874Y-5389719D01*
X5876663Y-5391269D01*
X5876665Y-5391270D01*
X5906149Y-5395940D01*
X5966512Y-5405500D01*
X6033488Y-5405500D01*
X6093851Y-5395940D01*
X6123335Y-5391270D01*
X6123337Y-5391269D01*
X6133126Y-5389719D01*
X6253220Y-5328528D01*
X6348528Y-5233220D01*
X6409719Y-5113126D01*
X6414142Y-5085204D01*
X6429253Y-4989793D01*
X6430804Y-4980000D01*
X6419682Y-4909778D01*
X6411270Y-4856665D01*
X6411269Y-4856663D01*
X6409719Y-4846874D01*
X6348528Y-4726780D01*
X6253220Y-4631472D01*
X6133126Y-4570281D01*
X6123337Y-4568731D01*
X6123335Y-4568730D01*
X6088620Y-4563232D01*
X6033488Y-4554500D01*
X5966512Y-4554500D01*
X5911380Y-4563232D01*
X5876665Y-4568730D01*
X5876663Y-4568731D01*
X5866874Y-4570281D01*
X5746780Y-4631472D01*
X5724266Y-4653986D01*
X5661954Y-4688012D01*
X5591139Y-4682947D01*
X5534303Y-4640400D01*
X5514597Y-4601468D01*
X5507572Y-4578311D01*
X5502859Y-4566931D01*
X5415096Y-4402739D01*
X5408245Y-4392486D01*
X5290139Y-4248573D01*
X5286161Y-4244595D01*
X5252135Y-4182283D01*
X5257200Y-4111468D01*
X5299747Y-4054632D01*
X5366267Y-4029821D01*
X5375256Y-4029500D01*
X7358645Y-4029500D01*
X7426766Y-4049502D01*
G37*
G04 #@! TD.AperFunction*
G04 #@! TA.AperFunction,Conductor*
G36*
X3831865Y-120502D02*
G01*
X3878358Y-174158D01*
X3888462Y-244432D01*
X3858968Y-309012D01*
X3852839Y-315595D01*
X3849861Y-318573D01*
X3731755Y-462486D01*
X3724904Y-472739D01*
X3637141Y-636931D01*
X3632427Y-648313D01*
X3578384Y-826468D01*
X3575978Y-838562D01*
X3562303Y-977402D01*
X3562000Y-983574D01*
X3562000Y-1057885D01*
X3566475Y-1073124D01*
X3567865Y-1074329D01*
X3575548Y-1076000D01*
X5559885Y-1076000D01*
X5575124Y-1071525D01*
X5576329Y-1070135D01*
X5578000Y-1062452D01*
X5578000Y-983574D01*
X5577697Y-977402D01*
X5564022Y-838562D01*
X5561616Y-826468D01*
X5507573Y-648313D01*
X5502859Y-636931D01*
X5415096Y-472739D01*
X5408245Y-462486D01*
X5290139Y-318573D01*
X5287161Y-315595D01*
X5253135Y-253283D01*
X5258200Y-182468D01*
X5300747Y-125632D01*
X5367267Y-100821D01*
X5376256Y-100500D01*
X12403744Y-100500D01*
X12471865Y-120502D01*
X12518358Y-174158D01*
X12528462Y-244432D01*
X12498968Y-309012D01*
X12492839Y-315595D01*
X12489861Y-318573D01*
X12371755Y-462486D01*
X12364904Y-472739D01*
X12277141Y-636931D01*
X12272427Y-648313D01*
X12218384Y-826468D01*
X12215978Y-838562D01*
X12202303Y-977402D01*
X12202000Y-983574D01*
X12202000Y-1057885D01*
X12206475Y-1073124D01*
X12207865Y-1074329D01*
X12215548Y-1076000D01*
X14199885Y-1076000D01*
X14215124Y-1071525D01*
X14216329Y-1070135D01*
X14218000Y-1062452D01*
X14218000Y-983574D01*
X14217697Y-977402D01*
X14204022Y-838562D01*
X14201616Y-826468D01*
X14147573Y-648313D01*
X14142859Y-636931D01*
X14055096Y-472739D01*
X14048245Y-462486D01*
X13930139Y-318573D01*
X13927161Y-315595D01*
X13893135Y-253283D01*
X13898200Y-182468D01*
X13940747Y-125632D01*
X14007267Y-100821D01*
X14016256Y-100500D01*
X17271741Y-100500D01*
X17288188Y-101578D01*
X17366952Y-111948D01*
X17398723Y-120461D01*
X17464426Y-147676D01*
X17492909Y-164120D01*
X17549333Y-207416D01*
X17572584Y-230667D01*
X17615880Y-287091D01*
X17632324Y-315574D01*
X17659539Y-381277D01*
X17668052Y-413048D01*
X17678422Y-491812D01*
X17679500Y-508259D01*
X17679500Y-2669500D01*
X17659498Y-2737621D01*
X17605842Y-2784114D01*
X17553500Y-2795500D01*
X16509060Y-2795500D01*
X16505886Y-2795823D01*
X16505881Y-2795823D01*
X16451471Y-2801356D01*
X16356753Y-2810988D01*
X16295960Y-2830062D01*
X16194171Y-2861999D01*
X16161827Y-2872147D01*
X16156240Y-2875248D01*
X15988788Y-2968191D01*
X15988784Y-2968194D01*
X15983202Y-2971292D01*
X15828191Y-3104364D01*
X15824283Y-3109413D01*
X15824279Y-3109417D01*
X15816078Y-3120012D01*
X15758565Y-3161638D01*
X15687676Y-3165561D01*
X15625921Y-3130536D01*
X15592904Y-3067684D01*
X15591723Y-3024956D01*
X15608406Y-2908923D01*
X15608406Y-2908917D01*
X15609688Y-2900000D01*
X15589042Y-2756404D01*
X15528777Y-2624442D01*
X15522877Y-2617633D01*
X15522875Y-2617630D01*
X15439676Y-2521614D01*
X15433775Y-2514804D01*
X15426198Y-2509934D01*
X15426195Y-2509932D01*
X15319311Y-2441242D01*
X15311732Y-2436371D01*
X15303088Y-2433833D01*
X15303086Y-2433832D01*
X15181181Y-2398038D01*
X15181179Y-2398038D01*
X15172536Y-2395500D01*
X15027464Y-2395500D01*
X15018821Y-2398038D01*
X15018819Y-2398038D01*
X14896914Y-2433832D01*
X14896912Y-2433833D01*
X14888268Y-2436371D01*
X14880689Y-2441242D01*
X14773805Y-2509932D01*
X14773802Y-2509934D01*
X14766225Y-2514804D01*
X14760324Y-2521614D01*
X14677125Y-2617630D01*
X14677123Y-2617633D01*
X14671223Y-2624442D01*
X14667480Y-2632639D01*
X14667477Y-2632643D01*
X14627225Y-2720782D01*
X14580732Y-2774437D01*
X14512612Y-2794439D01*
X14444491Y-2774437D01*
X14423517Y-2757534D01*
X14147060Y-2481077D01*
X14139633Y-2472973D01*
X14135142Y-2467621D01*
X14115066Y-2443695D01*
X14105523Y-2438185D01*
X14105519Y-2438182D01*
X14081971Y-2424587D01*
X14072699Y-2418680D01*
X14053311Y-2405104D01*
X14008983Y-2349646D01*
X14001675Y-2279027D01*
X14028183Y-2221960D01*
X14048245Y-2197514D01*
X14055096Y-2187261D01*
X14142859Y-2023069D01*
X14147573Y-2011687D01*
X14201616Y-1833532D01*
X14204022Y-1821438D01*
X14217697Y-1682598D01*
X14218000Y-1676426D01*
X14218000Y-1602115D01*
X14213525Y-1586876D01*
X14212135Y-1585671D01*
X14204452Y-1584000D01*
X12220115Y-1584000D01*
X12204876Y-1588475D01*
X12203671Y-1589865D01*
X12202000Y-1597548D01*
X12202000Y-1676426D01*
X12202303Y-1682598D01*
X12215978Y-1821438D01*
X12218384Y-1833532D01*
X12272427Y-2011687D01*
X12277141Y-2023069D01*
X12363751Y-2185104D01*
X12378223Y-2254610D01*
X12352819Y-2320906D01*
X12295606Y-2362944D01*
X12252629Y-2370500D01*
X11231175Y-2370500D01*
X11163054Y-2350498D01*
X11142080Y-2333596D01*
X10998892Y-2190409D01*
X10964867Y-2128097D01*
X10961987Y-2101313D01*
X10961987Y-2070571D01*
X10961348Y-2066127D01*
X10961347Y-2066112D01*
X10960769Y-2062093D01*
X10959486Y-2044161D01*
X10959486Y-1670839D01*
X10960769Y-1652907D01*
X10961347Y-1648888D01*
X10961348Y-1648873D01*
X10961987Y-1644429D01*
X10961987Y-1570571D01*
X10941525Y-1428256D01*
X10920716Y-1357390D01*
X10860988Y-1226605D01*
X10821060Y-1164474D01*
X10726906Y-1055813D01*
X10671086Y-1007445D01*
X10550132Y-929713D01*
X10482949Y-899032D01*
X10344994Y-858525D01*
X10340538Y-857884D01*
X10340532Y-857883D01*
X10302434Y-852406D01*
X10271889Y-848014D01*
X9650000Y-848014D01*
X9550699Y-867766D01*
X9549864Y-863570D01*
X9502620Y-868646D01*
X9499319Y-867677D01*
X9499301Y-867766D01*
X9431135Y-854207D01*
X9425067Y-853000D01*
X8900085Y-853000D01*
X8374934Y-853001D01*
X8300699Y-867766D01*
X8299864Y-863566D01*
X8252676Y-868657D01*
X8249320Y-867672D01*
X8249301Y-867766D01*
X8156068Y-849221D01*
X8150000Y-848014D01*
X7528111Y-848014D01*
X7497566Y-852406D01*
X7459468Y-857883D01*
X7459462Y-857884D01*
X7455006Y-858525D01*
X7317051Y-899032D01*
X7249868Y-929713D01*
X7128914Y-1007445D01*
X7073094Y-1055813D01*
X6978940Y-1164474D01*
X6939012Y-1226605D01*
X6879284Y-1357390D01*
X6858475Y-1428256D01*
X6838013Y-1570571D01*
X6838013Y-1644429D01*
X6838652Y-1648873D01*
X6838653Y-1648888D01*
X6839231Y-1652907D01*
X6840514Y-1670839D01*
X6840514Y-2044161D01*
X6839231Y-2062093D01*
X6838653Y-2066112D01*
X6838652Y-2066127D01*
X6838013Y-2070571D01*
X6838013Y-2101314D01*
X6818011Y-2169435D01*
X6801108Y-2190409D01*
X6557922Y-2433595D01*
X6495610Y-2467621D01*
X6468827Y-2470500D01*
X5450615Y-2470500D01*
X5382494Y-2450498D01*
X5336001Y-2396842D01*
X5325897Y-2326568D01*
X5353216Y-2264566D01*
X5408248Y-2197509D01*
X5415096Y-2187261D01*
X5502859Y-2023069D01*
X5507573Y-2011687D01*
X5561616Y-1833532D01*
X5564022Y-1821438D01*
X5577697Y-1682598D01*
X5578000Y-1676426D01*
X5578000Y-1602115D01*
X5573525Y-1586876D01*
X5572135Y-1585671D01*
X5564452Y-1584000D01*
X3580115Y-1584000D01*
X3564876Y-1588475D01*
X3563671Y-1589865D01*
X3562000Y-1597548D01*
X3562000Y-1676426D01*
X3562303Y-1682598D01*
X3575978Y-1821438D01*
X3578384Y-1833532D01*
X3632427Y-2011687D01*
X3637141Y-2023069D01*
X3724904Y-2187261D01*
X3731752Y-2197509D01*
X3786784Y-2264566D01*
X3814538Y-2329914D01*
X3802556Y-2399892D01*
X3754644Y-2452284D01*
X3689385Y-2470500D01*
X3487714Y-2470500D01*
X3469162Y-2469127D01*
X3465561Y-2468591D01*
X3450863Y-2466403D01*
X3405877Y-2468591D01*
X3388785Y-2468260D01*
X3370840Y-2466690D01*
X3360190Y-2469543D01*
X3351038Y-2470344D01*
X3343278Y-2471635D01*
X3342237Y-2471686D01*
X3341028Y-2471792D01*
X3341013Y-2471793D01*
X3323401Y-2473337D01*
X3323394Y-2473338D01*
X3322182Y-2473444D01*
X3320377Y-2473673D01*
X3300404Y-2477003D01*
X3299212Y-2477250D01*
X3218754Y-2493915D01*
X3218738Y-2493919D01*
X3217322Y-2494212D01*
X3194298Y-2500092D01*
X3192254Y-2500715D01*
X3169947Y-2508643D01*
X3100086Y-2537124D01*
X3099587Y-2537339D01*
X3099539Y-2537359D01*
X3092090Y-2540568D01*
X3090759Y-2541141D01*
X3089964Y-2541502D01*
X3081233Y-2545665D01*
X3080787Y-2545888D01*
X3080752Y-2545905D01*
X3007586Y-2582477D01*
X3003325Y-2584508D01*
X2930348Y-2617630D01*
X2907348Y-2628069D01*
X2904591Y-2630009D01*
X2898965Y-2632895D01*
X2896911Y-2633833D01*
X2888268Y-2636371D01*
X2880691Y-2641241D01*
X2880690Y-2641241D01*
X2773805Y-2709932D01*
X2773802Y-2709934D01*
X2766225Y-2714804D01*
X2760324Y-2721614D01*
X2677125Y-2817630D01*
X2677123Y-2817633D01*
X2671223Y-2824442D01*
X2610958Y-2956404D01*
X2609676Y-2965321D01*
X2593228Y-3079722D01*
X2590312Y-3100000D01*
X2610958Y-3243596D01*
X2614701Y-3251792D01*
X2651307Y-3331947D01*
X2671223Y-3375558D01*
X2677125Y-3382369D01*
X2677128Y-3382374D01*
X2758357Y-3476117D01*
X2787851Y-3540697D01*
X2777747Y-3610971D01*
X2731254Y-3664627D01*
X2663133Y-3684629D01*
X2617490Y-3676071D01*
X2607854Y-3672326D01*
X2590481Y-3663992D01*
X2453870Y-3585074D01*
X2440247Y-3575972D01*
X2292829Y-3462945D01*
X2282446Y-3454048D01*
X2229367Y-3403319D01*
X2126161Y-3304681D01*
X2118333Y-3296495D01*
X2018787Y-3182541D01*
X2019739Y-3181710D01*
X2017156Y-3179672D01*
X2016659Y-3180106D01*
X2014332Y-3177442D01*
X2014331Y-3177442D01*
X1954406Y-3108843D01*
X1946414Y-3100207D01*
X1944907Y-3098578D01*
X1944890Y-3098560D01*
X1944280Y-3097901D01*
X1943332Y-3096934D01*
X1932418Y-3086433D01*
X1926321Y-3082773D01*
X1926198Y-3082679D01*
X1911462Y-3069438D01*
X1882078Y-3038525D01*
X1882074Y-3038522D01*
X1877678Y-3033897D01*
X1872439Y-3030250D01*
X1872436Y-3030248D01*
X1715247Y-2920842D01*
X1710000Y-2917190D01*
X1522261Y-2836625D01*
X1516003Y-2835339D01*
X1516000Y-2835338D01*
X1429832Y-2817630D01*
X1322148Y-2795500D01*
X226500Y-2795500D01*
X158379Y-2775498D01*
X111886Y-2721842D01*
X100500Y-2669500D01*
X100500Y-508259D01*
X101578Y-491812D01*
X111948Y-413048D01*
X120461Y-381277D01*
X147676Y-315574D01*
X164120Y-287091D01*
X207416Y-230667D01*
X230667Y-207416D01*
X287091Y-164120D01*
X315574Y-147676D01*
X381277Y-120461D01*
X413048Y-111948D01*
X491812Y-101578D01*
X508259Y-100500D01*
X3763744Y-100500D01*
X3831865Y-120502D01*
G37*
G04 #@! TD.AperFunction*
G04 #@! TA.AperFunction,Conductor*
G36*
X4821977Y-7579706D02*
G01*
X4890907Y-7607681D01*
X4890918Y-7607685D01*
X4891073Y-7607748D01*
X4960904Y-7631616D01*
X5023466Y-7644222D01*
X5023842Y-7644247D01*
X5023848Y-7644248D01*
X5078059Y-7647880D01*
X5097063Y-7649153D01*
X5140328Y-7649509D01*
X5188396Y-7649905D01*
X5196641Y-7653400D01*
X5200000Y-7661605D01*
X5200000Y-7938395D01*
X5196573Y-7946668D01*
X5188396Y-7950095D01*
X5146307Y-7950441D01*
X5097063Y-7950846D01*
X5023466Y-7955777D01*
X5023100Y-7955851D01*
X5023098Y-7955851D01*
X5004874Y-7959523D01*
X4960904Y-7968382D01*
X4960548Y-7968504D01*
X4960543Y-7968505D01*
X4906032Y-7987137D01*
X4891073Y-7992250D01*
X4890907Y-7992317D01*
X4890908Y-7992317D01*
X4806395Y-8026617D01*
X4797440Y-8026553D01*
X4791202Y-8020293D01*
X4700891Y-7804517D01*
X4700891Y-7795483D01*
X4760358Y-7653400D01*
X4791203Y-7579705D01*
X4797557Y-7573397D01*
X4806394Y-7573382D01*
X4821977Y-7579706D01*
G37*
G04 #@! TD.AperFunction*
G04 #@! TA.AperFunction,Conductor*
G36*
X11860785Y-7348519D02*
G01*
X11925782Y-7412455D01*
X11925897Y-7412568D01*
X11926023Y-7412678D01*
X11981128Y-7460862D01*
X11981133Y-7460866D01*
X11981426Y-7461122D01*
X12034577Y-7496447D01*
X12100832Y-7528947D01*
X12100961Y-7529002D01*
X12100973Y-7529007D01*
X12133974Y-7542954D01*
X12185012Y-7564525D01*
X12191297Y-7570901D01*
X12191282Y-7579738D01*
X12172310Y-7626023D01*
X12102564Y-7796176D01*
X12096176Y-7802564D01*
X12032730Y-7828571D01*
X11879738Y-7891282D01*
X11870784Y-7891249D01*
X11864525Y-7885012D01*
X11828947Y-7800832D01*
X11796447Y-7734577D01*
X11761122Y-7681426D01*
X11760866Y-7681133D01*
X11760862Y-7681128D01*
X11712678Y-7626023D01*
X11712568Y-7625897D01*
X11712455Y-7625782D01*
X11648519Y-7560785D01*
X11645160Y-7552484D01*
X11648587Y-7544307D01*
X11844307Y-7348587D01*
X11852580Y-7345160D01*
X11860785Y-7348519D01*
G37*
G04 #@! TD.AperFunction*
G04 #@! TA.AperFunction,Conductor*
G36*
X9209014Y-7580224D02*
G01*
X9249653Y-7677319D01*
X9299109Y-7795483D01*
X9299109Y-7804517D01*
X9260513Y-7896733D01*
X9223046Y-7986252D01*
X9209015Y-8019775D01*
X9202660Y-8026084D01*
X9193314Y-8025879D01*
X9170183Y-8015189D01*
X9107549Y-7986242D01*
X9107035Y-7985987D01*
X9066207Y-7964426D01*
X9038569Y-7949830D01*
X9038558Y-7949825D01*
X9038392Y-7949737D01*
X8977582Y-7922680D01*
X8954622Y-7917359D01*
X8905293Y-7905926D01*
X8905289Y-7905925D01*
X8904804Y-7905813D01*
X8904302Y-7905785D01*
X8904301Y-7905785D01*
X8811052Y-7900613D01*
X8802981Y-7896733D01*
X8800000Y-7888931D01*
X8800000Y-7711069D01*
X8803427Y-7702796D01*
X8811052Y-7699387D01*
X8904301Y-7694214D01*
X8904302Y-7694214D01*
X8904804Y-7694186D01*
X8905289Y-7694074D01*
X8905293Y-7694073D01*
X8954622Y-7682640D01*
X8977582Y-7677319D01*
X9038392Y-7650262D01*
X9038558Y-7650174D01*
X9038569Y-7650169D01*
X9066207Y-7635573D01*
X9107035Y-7614012D01*
X9107549Y-7613757D01*
X9180106Y-7580225D01*
X9193314Y-7574121D01*
X9202261Y-7573761D01*
X9209014Y-7580224D01*
G37*
G04 #@! TD.AperFunction*
G04 #@! TA.AperFunction,Conductor*
G36*
X8006686Y-7574121D02*
G01*
X8019894Y-7580225D01*
X8092449Y-7613757D01*
X8092963Y-7614012D01*
X8133789Y-7635572D01*
X8161430Y-7650169D01*
X8161441Y-7650174D01*
X8161607Y-7650262D01*
X8222416Y-7677319D01*
X8245271Y-7682616D01*
X8294706Y-7694073D01*
X8294710Y-7694074D01*
X8295195Y-7694186D01*
X8295697Y-7694214D01*
X8295698Y-7694214D01*
X8388948Y-7699387D01*
X8397019Y-7703267D01*
X8400000Y-7711069D01*
X8400000Y-7888931D01*
X8396573Y-7897204D01*
X8388948Y-7900613D01*
X8295698Y-7905785D01*
X8295697Y-7905785D01*
X8295195Y-7905813D01*
X8294710Y-7905925D01*
X8294706Y-7905926D01*
X8245271Y-7917383D01*
X8222416Y-7922680D01*
X8161607Y-7949737D01*
X8161441Y-7949825D01*
X8161430Y-7949830D01*
X8124116Y-7969536D01*
X8092979Y-7985979D01*
X8092447Y-7986243D01*
X8006686Y-8025879D01*
X7997739Y-8026239D01*
X7990985Y-8019775D01*
X7976900Y-7986121D01*
X7939684Y-7897204D01*
X7900891Y-7804517D01*
X7900891Y-7795483D01*
X7950347Y-7677319D01*
X7990986Y-7580224D01*
X7997340Y-7573916D01*
X8006686Y-7574121D01*
G37*
G04 #@! TD.AperFunction*
G04 #@! TA.AperFunction,Conductor*
G36*
X15225405Y-4583117D02*
G01*
X15225904Y-4583563D01*
X15295376Y-4645732D01*
X15358764Y-4685268D01*
X15359282Y-4685467D01*
X15359284Y-4685468D01*
X15386140Y-4695784D01*
X15420895Y-4709135D01*
X15421087Y-4709194D01*
X15421089Y-4709195D01*
X15495035Y-4732030D01*
X15495619Y-4732227D01*
X15584282Y-4764841D01*
X15590863Y-4770913D01*
X15591068Y-4780258D01*
X15502564Y-4996175D01*
X15496175Y-5002564D01*
X15280258Y-5091068D01*
X15271304Y-5091035D01*
X15264840Y-5084281D01*
X15234099Y-5000707D01*
X15232227Y-4995619D01*
X15232030Y-4995035D01*
X15209195Y-4921089D01*
X15209194Y-4921087D01*
X15209135Y-4920895D01*
X15185268Y-4858764D01*
X15145732Y-4795376D01*
X15089046Y-4732030D01*
X15083117Y-4725405D01*
X15080154Y-4716955D01*
X15083563Y-4709330D01*
X15209330Y-4583563D01*
X15217603Y-4580136D01*
X15225405Y-4583117D01*
G37*
G04 #@! TD.AperFunction*
G04 #@! TA.AperFunction,Conductor*
G36*
X13958402Y-17412052D02*
G01*
X13961822Y-17420735D01*
X13957884Y-17533039D01*
X13957746Y-17534467D01*
X13943987Y-17620949D01*
X13943523Y-17622837D01*
X13919052Y-17695679D01*
X13918652Y-17696707D01*
X13881685Y-17779752D01*
X13862125Y-17824461D01*
X13831027Y-17895541D01*
X13830969Y-17895670D01*
X13600000Y-17801000D01*
X13599296Y-17799294D01*
X13599297Y-17799294D01*
X13591251Y-17779785D01*
X13509247Y-17580953D01*
X13509260Y-17571998D01*
X13515602Y-17565676D01*
X13516670Y-17565295D01*
X13584428Y-17544791D01*
X13585636Y-17544494D01*
X13646017Y-17533039D01*
X13655727Y-17531197D01*
X13711867Y-17513955D01*
X13748892Y-17478043D01*
X13760421Y-17418114D01*
X13765349Y-17410638D01*
X13771910Y-17408625D01*
X13950129Y-17408625D01*
X13958402Y-17412052D01*
G37*
G04 #@! TD.AperFunction*
G04 #@! TA.AperFunction,Conductor*
G36*
X15216446Y-2947738D02*
G01*
X15319776Y-2990986D01*
X15326084Y-2997340D01*
X15325879Y-3006686D01*
X15286252Y-3092428D01*
X15286248Y-3092436D01*
X15285979Y-3092979D01*
X15249737Y-3161607D01*
X15222680Y-3222416D01*
X15205813Y-3295195D01*
X15205785Y-3295697D01*
X15205785Y-3295698D01*
X15200613Y-3388948D01*
X15196733Y-3397019D01*
X15188931Y-3400000D01*
X15011069Y-3400000D01*
X15002796Y-3396573D01*
X14999387Y-3388948D01*
X14994214Y-3295698D01*
X14994214Y-3295697D01*
X14994186Y-3295195D01*
X14977319Y-3222416D01*
X14950262Y-3161607D01*
X14914012Y-3092963D01*
X14913751Y-3092436D01*
X14874121Y-3006686D01*
X14873761Y-2997739D01*
X14880224Y-2990986D01*
X14983554Y-2947738D01*
X15095483Y-2900891D01*
X15104517Y-2900891D01*
X15216446Y-2947738D01*
G37*
G04 #@! TD.AperFunction*
G04 #@! TA.AperFunction,Conductor*
G36*
X13830969Y-17895671D02*
G01*
X13830933Y-17895751D01*
X13786252Y-17992428D01*
X13786248Y-17992436D01*
X13785979Y-17992979D01*
X13749737Y-18061607D01*
X13722680Y-18122416D01*
X13705813Y-18195195D01*
X13705785Y-18195697D01*
X13705785Y-18195698D01*
X13700613Y-18288948D01*
X13696733Y-18297019D01*
X13688931Y-18300000D01*
X13511069Y-18300000D01*
X13502796Y-18296573D01*
X13499387Y-18288948D01*
X13494214Y-18195698D01*
X13494214Y-18195697D01*
X13494186Y-18195195D01*
X13477319Y-18122416D01*
X13450262Y-18061607D01*
X13414012Y-17992963D01*
X13413751Y-17992436D01*
X13374121Y-17906686D01*
X13373761Y-17897739D01*
X13380224Y-17890986D01*
X13600000Y-17799000D01*
X13830969Y-17895671D01*
G37*
G04 #@! TD.AperFunction*
G04 #@! TA.AperFunction,Conductor*
G36*
X16512433Y-11422719D02*
G01*
X16514136Y-11424874D01*
X16766738Y-11835931D01*
X16866382Y-11998079D01*
X16963375Y-12155915D01*
X16964787Y-12164758D01*
X16959533Y-12172009D01*
X16955870Y-12173479D01*
X16768121Y-12213902D01*
X16768115Y-12213904D01*
X16767673Y-12213999D01*
X16563316Y-12293117D01*
X16358959Y-12407352D01*
X16154602Y-12556705D01*
X16103107Y-12603189D01*
X15958497Y-12733727D01*
X15950059Y-12736727D01*
X15942384Y-12733315D01*
X15812258Y-12603189D01*
X15808831Y-12594899D01*
X15809059Y-12434588D01*
X15809294Y-12234030D01*
X15809529Y-11998079D01*
X15809764Y-11726735D01*
X15809991Y-11431679D01*
X15813424Y-11423408D01*
X15821678Y-11419988D01*
X16064952Y-11419743D01*
X16504156Y-11419300D01*
X16512433Y-11422719D01*
G37*
G04 #@! TD.AperFunction*
G04 #@! TA.AperFunction,Conductor*
G36*
X11496175Y-17697436D02*
G01*
X11502564Y-17703824D01*
X11503031Y-17704963D01*
X11584872Y-17904623D01*
X11591068Y-17919740D01*
X11591035Y-17928695D01*
X11584281Y-17935159D01*
X11495622Y-17967770D01*
X11495039Y-17967967D01*
X11420895Y-17990864D01*
X11358764Y-18014730D01*
X11295376Y-18054266D01*
X11294998Y-18054604D01*
X11294997Y-18054605D01*
X11225405Y-18116883D01*
X11216955Y-18119846D01*
X11209330Y-18116437D01*
X11083563Y-17990670D01*
X11080136Y-17982397D01*
X11083117Y-17974595D01*
X11145393Y-17905002D01*
X11145394Y-17905001D01*
X11145732Y-17904623D01*
X11185268Y-17841234D01*
X11209135Y-17779104D01*
X11232031Y-17704959D01*
X11232228Y-17704376D01*
X11264840Y-17615719D01*
X11270913Y-17609137D01*
X11280258Y-17608932D01*
X11496175Y-17697436D01*
G37*
G04 #@! TD.AperFunction*
G04 #@! TA.AperFunction,Conductor*
G36*
X11230219Y-24143004D02*
G01*
X11356587Y-24269372D01*
X11360014Y-24277645D01*
X11357129Y-24285339D01*
X11284279Y-24368802D01*
X11238036Y-24442854D01*
X11237928Y-24443065D01*
X11203281Y-24510588D01*
X11202795Y-24511444D01*
X11157311Y-24584280D01*
X11156202Y-24585777D01*
X11084978Y-24667381D01*
X11076956Y-24671360D01*
X11067923Y-24667993D01*
X10910116Y-24511444D01*
X10900977Y-24502378D01*
X10898392Y-24498510D01*
X10875666Y-24443065D01*
X10809253Y-24281042D01*
X10809286Y-24272088D01*
X10815642Y-24265779D01*
X10816787Y-24265378D01*
X10909754Y-24238122D01*
X10912030Y-24237693D01*
X10994522Y-24230516D01*
X10994688Y-24230503D01*
X11023919Y-24228481D01*
X11066159Y-24225560D01*
X11066161Y-24225560D01*
X11066907Y-24225508D01*
X11139205Y-24201121D01*
X11139985Y-24200511D01*
X11139987Y-24200510D01*
X11167657Y-24178875D01*
X11214741Y-24142060D01*
X11223367Y-24139664D01*
X11230219Y-24143004D01*
G37*
G04 #@! TD.AperFunction*
G04 #@! TA.AperFunction,Conductor*
G36*
X6798901Y-22527690D02*
G01*
X6802045Y-22533409D01*
X6816150Y-22596479D01*
X6860278Y-22628188D01*
X6871922Y-22629976D01*
X6925713Y-22638237D01*
X6925725Y-22638238D01*
X6925898Y-22638265D01*
X6975110Y-22642734D01*
X7005552Y-22645499D01*
X7007469Y-22645836D01*
X7082727Y-22665626D01*
X7089857Y-22671044D01*
X7091067Y-22679916D01*
X7090568Y-22681402D01*
X7001861Y-22896487D01*
X6995482Y-22902852D01*
X6779257Y-22991479D01*
X6770304Y-22991446D01*
X6764265Y-22985697D01*
X6714654Y-22881848D01*
X6668281Y-22802162D01*
X6668002Y-22801654D01*
X6632454Y-22732816D01*
X6631578Y-22730585D01*
X6608700Y-22648382D01*
X6608299Y-22646041D01*
X6604778Y-22594379D01*
X6600851Y-22536758D01*
X6603707Y-22528272D01*
X6612524Y-22524263D01*
X6790628Y-22524263D01*
X6798901Y-22527690D01*
G37*
G04 #@! TD.AperFunction*
G04 #@! TA.AperFunction,Conductor*
G36*
X16276321Y-8200060D02*
G01*
X16278903Y-8204316D01*
X16509404Y-8875499D01*
X16509406Y-8883089D01*
X16383235Y-9251230D01*
X16278396Y-9557127D01*
X16272472Y-9563843D01*
X16263535Y-9564402D01*
X16259991Y-9562447D01*
X16253384Y-9557127D01*
X16050368Y-9393676D01*
X15827750Y-9251385D01*
X15827426Y-9251232D01*
X15827423Y-9251230D01*
X15605512Y-9146217D01*
X15605132Y-9146037D01*
X15382514Y-9077632D01*
X15208332Y-9053015D01*
X15163767Y-9046717D01*
X15157131Y-9043405D01*
X15067895Y-8954169D01*
X15064468Y-8945896D01*
X15067895Y-8937623D01*
X15072956Y-8934645D01*
X15297259Y-8870616D01*
X15297262Y-8870615D01*
X15297661Y-8870501D01*
X15298043Y-8870328D01*
X15298047Y-8870327D01*
X15541142Y-8760556D01*
X15541141Y-8760556D01*
X15541492Y-8760398D01*
X15785323Y-8609795D01*
X16029155Y-8418692D01*
X16156568Y-8297670D01*
X16259780Y-8199635D01*
X16268139Y-8196422D01*
X16276321Y-8200060D01*
G37*
G04 #@! TD.AperFunction*
G04 #@! TA.AperFunction,Conductor*
G36*
X14572449Y-12303427D02*
G01*
X14575840Y-12310790D01*
X14583260Y-12406038D01*
X14606019Y-12478276D01*
X14640246Y-12537927D01*
X14682591Y-12605702D01*
X14683168Y-12606740D01*
X14725510Y-12693182D01*
X14726072Y-12702118D01*
X14719520Y-12709121D01*
X14504517Y-12799109D01*
X14495483Y-12799109D01*
X14280480Y-12709121D01*
X14274171Y-12702765D01*
X14274490Y-12693181D01*
X14316827Y-12606747D01*
X14317408Y-12605702D01*
X14359753Y-12537927D01*
X14393979Y-12478276D01*
X14416739Y-12406038D01*
X14424159Y-12310790D01*
X14428218Y-12302809D01*
X14435824Y-12300000D01*
X14564176Y-12300000D01*
X14572449Y-12303427D01*
G37*
G04 #@! TD.AperFunction*
G04 #@! TA.AperFunction,Conductor*
G36*
X11316446Y-14647738D02*
G01*
X11419776Y-14690986D01*
X11426084Y-14697340D01*
X11425879Y-14706686D01*
X11386252Y-14792428D01*
X11386248Y-14792436D01*
X11385979Y-14792979D01*
X11349737Y-14861607D01*
X11322680Y-14922416D01*
X11305813Y-14995195D01*
X11305785Y-14995697D01*
X11305785Y-14995698D01*
X11300613Y-15088948D01*
X11296733Y-15097019D01*
X11288931Y-15100000D01*
X11111069Y-15100000D01*
X11102796Y-15096573D01*
X11099387Y-15088948D01*
X11094214Y-14995698D01*
X11094214Y-14995697D01*
X11094186Y-14995195D01*
X11077319Y-14922416D01*
X11050262Y-14861607D01*
X11014012Y-14792963D01*
X11013751Y-14792436D01*
X10974121Y-14706686D01*
X10973761Y-14697739D01*
X10980224Y-14690986D01*
X11083554Y-14647738D01*
X11195483Y-14600891D01*
X11204517Y-14600891D01*
X11316446Y-14647738D01*
G37*
G04 #@! TD.AperFunction*
G04 #@! TA.AperFunction,Conductor*
G36*
X5090670Y-22983563D02*
G01*
X5216437Y-23109330D01*
X5219864Y-23117603D01*
X5216883Y-23125405D01*
X5154266Y-23195376D01*
X5114730Y-23258764D01*
X5090864Y-23320895D01*
X5090806Y-23321084D01*
X5067968Y-23395035D01*
X5067770Y-23395622D01*
X5035159Y-23484281D01*
X5029087Y-23490863D01*
X5019740Y-23491068D01*
X5003183Y-23484281D01*
X4936089Y-23456780D01*
X4803824Y-23402564D01*
X4797436Y-23396175D01*
X4708932Y-23180258D01*
X4708965Y-23171304D01*
X4715719Y-23164840D01*
X4804379Y-23132227D01*
X4804963Y-23132030D01*
X4878910Y-23109195D01*
X4878912Y-23109194D01*
X4879104Y-23109135D01*
X4914002Y-23095729D01*
X4940714Y-23085468D01*
X4940716Y-23085467D01*
X4941234Y-23085268D01*
X5004623Y-23045732D01*
X5005002Y-23045393D01*
X5074595Y-22983117D01*
X5083045Y-22980154D01*
X5090670Y-22983563D01*
G37*
G04 #@! TD.AperFunction*
G04 #@! TA.AperFunction,Conductor*
G36*
X10706818Y-22674490D02*
G01*
X10793260Y-22716831D01*
X10794297Y-22717408D01*
X10862071Y-22759753D01*
X10921723Y-22793979D01*
X10922322Y-22794168D01*
X10922325Y-22794169D01*
X10993323Y-22816538D01*
X10993961Y-22816739D01*
X10994623Y-22816791D01*
X10994625Y-22816791D01*
X11037700Y-22820147D01*
X11089210Y-22824159D01*
X11097191Y-22828218D01*
X11100000Y-22835824D01*
X11100000Y-22964176D01*
X11096573Y-22972449D01*
X11089210Y-22975840D01*
X11031922Y-22980303D01*
X10994625Y-22983208D01*
X10994623Y-22983208D01*
X10993961Y-22983260D01*
X10993323Y-22983461D01*
X10922325Y-23005829D01*
X10922322Y-23005830D01*
X10921723Y-23006019D01*
X10862071Y-23040246D01*
X10794297Y-23082591D01*
X10793259Y-23083168D01*
X10706818Y-23125510D01*
X10697881Y-23126072D01*
X10690879Y-23119521D01*
X10629323Y-22972449D01*
X10600891Y-22904517D01*
X10600891Y-22895483D01*
X10690879Y-22680480D01*
X10697235Y-22674171D01*
X10706818Y-22674490D01*
G37*
G04 #@! TD.AperFunction*
G04 #@! TA.AperFunction,Conductor*
G36*
X11408174Y-21801068D02*
G01*
X11498932Y-21891826D01*
X11502359Y-21900099D01*
X11499550Y-21907704D01*
X11437446Y-21980301D01*
X11402459Y-22047474D01*
X11384481Y-22113856D01*
X11384459Y-22113951D01*
X11384454Y-22113971D01*
X11366501Y-22191717D01*
X11366170Y-22192874D01*
X11334991Y-22283927D01*
X11329069Y-22290644D01*
X11319484Y-22290963D01*
X11103824Y-22202564D01*
X11097436Y-22196176D01*
X11009037Y-21980516D01*
X11009070Y-21971561D01*
X11016072Y-21965009D01*
X11107128Y-21933827D01*
X11108286Y-21933496D01*
X11154219Y-21922889D01*
X11186143Y-21915517D01*
X11186228Y-21915494D01*
X11186248Y-21915489D01*
X11230841Y-21903411D01*
X11252524Y-21897539D01*
X11319698Y-21862553D01*
X11392295Y-21800450D01*
X11400810Y-21797676D01*
X11408174Y-21801068D01*
G37*
G04 #@! TD.AperFunction*
G04 #@! TA.AperFunction,Conductor*
G36*
X13689111Y-7336297D02*
G01*
X13819521Y-7390879D01*
X13825829Y-7397233D01*
X13825510Y-7406818D01*
X13825510Y-7406819D01*
X13783172Y-7493252D01*
X13782591Y-7494297D01*
X13740246Y-7562071D01*
X13706019Y-7621723D01*
X13683260Y-7693961D01*
X13683208Y-7694623D01*
X13683208Y-7694625D01*
X13675841Y-7789209D01*
X13671782Y-7797191D01*
X13664176Y-7800000D01*
X13535824Y-7800000D01*
X13527551Y-7796573D01*
X13524159Y-7789209D01*
X13516791Y-7694625D01*
X13516791Y-7694623D01*
X13516739Y-7693961D01*
X13493979Y-7621723D01*
X13459753Y-7562071D01*
X13417408Y-7494297D01*
X13416827Y-7493252D01*
X13374490Y-7406818D01*
X13373928Y-7397882D01*
X13380480Y-7390879D01*
X13595483Y-7300891D01*
X13604517Y-7300891D01*
X13689111Y-7336297D01*
G37*
G04 #@! TD.AperFunction*
G04 #@! TA.AperFunction,Conductor*
G36*
X13709121Y-3380480D02*
G01*
X13799109Y-3595483D01*
X13799109Y-3604517D01*
X13709121Y-3819520D01*
X13702765Y-3825829D01*
X13693182Y-3825510D01*
X13606740Y-3783168D01*
X13605702Y-3782591D01*
X13537927Y-3740246D01*
X13478276Y-3706019D01*
X13477677Y-3705830D01*
X13477674Y-3705829D01*
X13406676Y-3683461D01*
X13406038Y-3683260D01*
X13405376Y-3683208D01*
X13405374Y-3683208D01*
X13367692Y-3680273D01*
X13310790Y-3675841D01*
X13302809Y-3671782D01*
X13300000Y-3664176D01*
X13300000Y-3535824D01*
X13303427Y-3527551D01*
X13310790Y-3524159D01*
X13361760Y-3520189D01*
X13405374Y-3516791D01*
X13405376Y-3516791D01*
X13406038Y-3516739D01*
X13406676Y-3516538D01*
X13477674Y-3494169D01*
X13477677Y-3494168D01*
X13478276Y-3493979D01*
X13537927Y-3459753D01*
X13605702Y-3417408D01*
X13606739Y-3416831D01*
X13693182Y-3374490D01*
X13702119Y-3373928D01*
X13709121Y-3380480D01*
G37*
G04 #@! TD.AperFunction*
G04 #@! TA.AperFunction,Conductor*
G36*
X1958871Y-13959989D02*
G01*
X1967140Y-13963424D01*
X1970545Y-13971116D01*
X1985049Y-14266731D01*
X2000099Y-14538015D01*
X2000100Y-14538038D01*
X2015145Y-14773794D01*
X2015149Y-14773851D01*
X2030199Y-14974240D01*
X2030205Y-14974304D01*
X2030205Y-14974306D01*
X2044751Y-15133724D01*
X2042090Y-15142274D01*
X2041372Y-15143060D01*
X1946681Y-15237751D01*
X1938408Y-15241178D01*
X1930986Y-15238522D01*
X1719597Y-15065045D01*
X1719356Y-15064847D01*
X1499529Y-14921121D01*
X1279702Y-14814071D01*
X1059876Y-14743697D01*
X856890Y-14712581D01*
X849233Y-14707941D01*
X847099Y-14699244D01*
X848507Y-14695209D01*
X1093505Y-14266731D01*
X1265920Y-13965192D01*
X1273002Y-13959711D01*
X1276089Y-13959300D01*
X1958871Y-13959989D01*
G37*
G04 #@! TD.AperFunction*
G04 #@! TA.AperFunction,Conductor*
G36*
X4607705Y-21800450D02*
G01*
X4680301Y-21862553D01*
X4701914Y-21873810D01*
X4746916Y-21897249D01*
X4746921Y-21897251D01*
X4747474Y-21897539D01*
X4813856Y-21915517D01*
X4813951Y-21915539D01*
X4813971Y-21915544D01*
X4891717Y-21933497D01*
X4892871Y-21933827D01*
X4983929Y-21965009D01*
X4990645Y-21970931D01*
X4990964Y-21980514D01*
X4936359Y-22113730D01*
X4902564Y-22196176D01*
X4896176Y-22202564D01*
X4856111Y-22218987D01*
X4680513Y-22290964D01*
X4671561Y-22290931D01*
X4665009Y-22283929D01*
X4636510Y-22200707D01*
X4633827Y-22192871D01*
X4633497Y-22191717D01*
X4615544Y-22113971D01*
X4615539Y-22113951D01*
X4615517Y-22113856D01*
X4597539Y-22047474D01*
X4597251Y-22046921D01*
X4597249Y-22046916D01*
X4562860Y-21980891D01*
X4562553Y-21980301D01*
X4500450Y-21907705D01*
X4497676Y-21899190D01*
X4501068Y-21891826D01*
X4591826Y-21801068D01*
X4600099Y-21797641D01*
X4607705Y-21800450D01*
G37*
G04 #@! TD.AperFunction*
G04 #@! TA.AperFunction,Conductor*
G36*
X1959591Y-16499989D02*
G01*
X1967859Y-16503424D01*
X1971200Y-16510340D01*
X2004373Y-16796083D01*
X2038746Y-17057705D01*
X2073120Y-17284865D01*
X2073134Y-17284945D01*
X2073137Y-17284962D01*
X2099350Y-17431911D01*
X2107493Y-17477564D01*
X2107518Y-17477680D01*
X2107520Y-17477689D01*
X2140511Y-17629560D01*
X2138919Y-17638372D01*
X2137351Y-17640317D01*
X2042976Y-17734692D01*
X2034703Y-17738119D01*
X2027684Y-17735780D01*
X1942890Y-17672198D01*
X1803786Y-17567891D01*
X1803488Y-17567716D01*
X1572105Y-17431911D01*
X1572100Y-17431908D01*
X1571772Y-17431716D01*
X1571430Y-17431571D01*
X1571422Y-17431567D01*
X1340145Y-17333507D01*
X1340144Y-17333507D01*
X1339758Y-17333343D01*
X1107744Y-17272771D01*
X953089Y-17257592D01*
X893012Y-17251696D01*
X885113Y-17247477D01*
X882511Y-17238909D01*
X883792Y-17234622D01*
X1266004Y-16505567D01*
X1272880Y-16499831D01*
X1276377Y-16499300D01*
X1959591Y-16499989D01*
G37*
G04 #@! TD.AperFunction*
G04 #@! TA.AperFunction,Conductor*
G36*
X4172449Y-22103427D02*
G01*
X4175840Y-22110790D01*
X4183260Y-22206038D01*
X4206019Y-22278276D01*
X4240246Y-22337927D01*
X4282591Y-22405702D01*
X4283168Y-22406740D01*
X4325510Y-22493182D01*
X4326072Y-22502118D01*
X4319520Y-22509121D01*
X4104517Y-22599109D01*
X4095483Y-22599109D01*
X3880480Y-22509121D01*
X3874171Y-22502765D01*
X3874490Y-22493181D01*
X3916827Y-22406747D01*
X3917408Y-22405702D01*
X3959753Y-22337927D01*
X3993979Y-22278276D01*
X4016739Y-22206038D01*
X4024159Y-22110790D01*
X4028218Y-22102809D01*
X4035824Y-22100000D01*
X4164176Y-22100000D01*
X4172449Y-22103427D01*
G37*
G04 #@! TD.AperFunction*
G04 #@! TA.AperFunction,Conductor*
G36*
X1758026Y-3278599D02*
G01*
X1758974Y-3279566D01*
X1917691Y-3461255D01*
X1934318Y-3480288D01*
X1934505Y-3480467D01*
X1934511Y-3480473D01*
X2039923Y-3581218D01*
X2118306Y-3656131D01*
X2302294Y-3797197D01*
X2302624Y-3797387D01*
X2302626Y-3797389D01*
X2485893Y-3903261D01*
X2485896Y-3903262D01*
X2486283Y-3903486D01*
X2486700Y-3903648D01*
X2486704Y-3903650D01*
X2662811Y-3972100D01*
X2669280Y-3978291D01*
X2670272Y-3983005D01*
X2670272Y-4113319D01*
X2666845Y-4121592D01*
X2658591Y-4125019D01*
X2641796Y-4125046D01*
X2438076Y-4125377D01*
X2438073Y-4125377D01*
X2437620Y-4125378D01*
X2301237Y-4147057D01*
X2205400Y-4162290D01*
X2205396Y-4162291D01*
X2204968Y-4162359D01*
X1972316Y-4235941D01*
X1739664Y-4346124D01*
X1739359Y-4346317D01*
X1739358Y-4346317D01*
X1519518Y-4485020D01*
X1510693Y-4486536D01*
X1503380Y-4481368D01*
X1502210Y-4478926D01*
X1328116Y-3972100D01*
X1271247Y-3806542D01*
X1271800Y-3797604D01*
X1273646Y-3794881D01*
X1741499Y-3279400D01*
X1749597Y-3275577D01*
X1758026Y-3278599D01*
G37*
G04 #@! TD.AperFunction*
G04 #@! TA.AperFunction,Conductor*
G36*
X8906211Y-1869627D02*
G01*
X8909983Y-1873744D01*
X9305938Y-2597301D01*
X9306903Y-2606204D01*
X9301357Y-2613145D01*
X9240825Y-2646770D01*
X9225742Y-2655149D01*
X9210476Y-2663629D01*
X9109434Y-2740919D01*
X9008392Y-2839370D01*
X8907350Y-2958983D01*
X8882439Y-2993691D01*
X8814344Y-3088563D01*
X8806736Y-3093286D01*
X8798017Y-3091246D01*
X8796566Y-3090014D01*
X8701378Y-2994826D01*
X8699457Y-2992296D01*
X8640282Y-2887257D01*
X8640273Y-2887242D01*
X8640194Y-2887102D01*
X8580145Y-2795189D01*
X8520097Y-2717950D01*
X8460048Y-2655387D01*
X8408401Y-2614199D01*
X8404070Y-2606363D01*
X8405962Y-2598561D01*
X8406803Y-2597301D01*
X8889984Y-1872869D01*
X8897427Y-1867888D01*
X8906211Y-1869627D01*
G37*
G04 #@! TD.AperFunction*
G04 #@! TA.AperFunction,Conductor*
G36*
X2338958Y-5390068D02*
G01*
X2432368Y-5483478D01*
X2435795Y-5491751D01*
X2433717Y-5498407D01*
X2343017Y-5629514D01*
X2333998Y-5642551D01*
X2228726Y-5832300D01*
X2123454Y-6059626D01*
X2123404Y-6059751D01*
X2123397Y-6059768D01*
X2036509Y-6278410D01*
X2018181Y-6324530D01*
X2018138Y-6324654D01*
X1917091Y-6614998D01*
X1911135Y-6621685D01*
X1902195Y-6622202D01*
X1901286Y-6621842D01*
X1732163Y-6546610D01*
X1273897Y-6342755D01*
X1267618Y-6335953D01*
X1011288Y-5608317D01*
X1011771Y-5599376D01*
X1018436Y-5593395D01*
X1024044Y-5592857D01*
X1270069Y-5629449D01*
X1270075Y-5629449D01*
X1270509Y-5629514D01*
X1270950Y-5629513D01*
X1270955Y-5629513D01*
X1405614Y-5629101D01*
X1536182Y-5628702D01*
X1641006Y-5612471D01*
X1801439Y-5587630D01*
X1801443Y-5587629D01*
X1801857Y-5587565D01*
X1802253Y-5587444D01*
X1802260Y-5587442D01*
X1950105Y-5542108D01*
X2067531Y-5506103D01*
X2067875Y-5505945D01*
X2067881Y-5505943D01*
X2201825Y-5444541D01*
X2325810Y-5387705D01*
X2334758Y-5387373D01*
X2338958Y-5390068D01*
G37*
G04 #@! TD.AperFunction*
G04 #@! TA.AperFunction,Conductor*
G36*
X8929006Y-3977435D02*
G01*
X8930723Y-3979618D01*
X9014826Y-4117590D01*
X9014942Y-4117753D01*
X9014943Y-4117755D01*
X9106521Y-4246775D01*
X9106527Y-4246783D01*
X9106672Y-4246987D01*
X9198519Y-4355104D01*
X9290366Y-4441941D01*
X9290690Y-4442172D01*
X9373151Y-4501032D01*
X9377894Y-4508628D01*
X9376202Y-4516872D01*
X8910364Y-5243151D01*
X8903013Y-5248264D01*
X8894199Y-5246682D01*
X8890782Y-5243326D01*
X8406765Y-4517643D01*
X8405026Y-4508859D01*
X8410413Y-4501159D01*
X8483382Y-4456727D01*
X8566765Y-4387888D01*
X8650148Y-4300984D01*
X8733531Y-4196015D01*
X8816291Y-4073901D01*
X8817702Y-4072193D01*
X8912460Y-3977435D01*
X8920733Y-3974008D01*
X8929006Y-3977435D01*
G37*
G04 #@! TD.AperFunction*
G04 #@! TA.AperFunction,Conductor*
G36*
X2428439Y-7609070D02*
G01*
X2434991Y-7616073D01*
X2466171Y-7707126D01*
X2466501Y-7708280D01*
X2484481Y-7786143D01*
X2502459Y-7852524D01*
X2537446Y-7919698D01*
X2537878Y-7920203D01*
X2599550Y-7992295D01*
X2602324Y-8000810D01*
X2598932Y-8008174D01*
X2508174Y-8098932D01*
X2499901Y-8102359D01*
X2492295Y-8099550D01*
X2420203Y-8037878D01*
X2419698Y-8037446D01*
X2352524Y-8002459D01*
X2330841Y-7996587D01*
X2286248Y-7984509D01*
X2286228Y-7984504D01*
X2286143Y-7984481D01*
X2208280Y-7966501D01*
X2207129Y-7966172D01*
X2182586Y-7957768D01*
X2116073Y-7934991D01*
X2109356Y-7929069D01*
X2109037Y-7919484D01*
X2197436Y-7703824D01*
X2203824Y-7697436D01*
X2402319Y-7616073D01*
X2419484Y-7609037D01*
X2428439Y-7609070D01*
G37*
G04 #@! TD.AperFunction*
G04 #@! TA.AperFunction,Conductor*
G36*
X3906818Y-6874490D02*
G01*
X3993260Y-6916831D01*
X3994297Y-6917408D01*
X4062071Y-6959753D01*
X4121723Y-6993979D01*
X4122322Y-6994168D01*
X4122325Y-6994169D01*
X4193323Y-7016538D01*
X4193961Y-7016739D01*
X4194623Y-7016791D01*
X4194625Y-7016791D01*
X4237700Y-7020147D01*
X4289210Y-7024159D01*
X4297191Y-7028218D01*
X4300000Y-7035824D01*
X4300000Y-7164176D01*
X4296573Y-7172449D01*
X4289210Y-7175840D01*
X4231922Y-7180303D01*
X4194625Y-7183208D01*
X4194623Y-7183208D01*
X4193961Y-7183260D01*
X4193323Y-7183461D01*
X4122325Y-7205829D01*
X4122322Y-7205830D01*
X4121723Y-7206019D01*
X4062071Y-7240246D01*
X3994297Y-7282591D01*
X3993259Y-7283168D01*
X3906818Y-7325510D01*
X3897881Y-7326072D01*
X3890879Y-7319521D01*
X3829323Y-7172449D01*
X3800891Y-7104517D01*
X3800891Y-7095483D01*
X3890879Y-6880480D01*
X3897235Y-6874171D01*
X3906818Y-6874490D01*
G37*
G04 #@! TD.AperFunction*
G04 #@! TA.AperFunction,Conductor*
G36*
X9107705Y-15200450D02*
G01*
X9180301Y-15262553D01*
X9201914Y-15273810D01*
X9246916Y-15297249D01*
X9246921Y-15297251D01*
X9247474Y-15297539D01*
X9313856Y-15315517D01*
X9313951Y-15315539D01*
X9313971Y-15315544D01*
X9391717Y-15333497D01*
X9392871Y-15333827D01*
X9483929Y-15365009D01*
X9490645Y-15370931D01*
X9490964Y-15380514D01*
X9436359Y-15513730D01*
X9402564Y-15596176D01*
X9396176Y-15602564D01*
X9356111Y-15618987D01*
X9180513Y-15690964D01*
X9171561Y-15690931D01*
X9165009Y-15683929D01*
X9136510Y-15600707D01*
X9133827Y-15592871D01*
X9133497Y-15591717D01*
X9115544Y-15513971D01*
X9115539Y-15513951D01*
X9115517Y-15513856D01*
X9097539Y-15447474D01*
X9097251Y-15446921D01*
X9097249Y-15446916D01*
X9062860Y-15380891D01*
X9062553Y-15380301D01*
X9000450Y-15307705D01*
X8997676Y-15299190D01*
X9001068Y-15291826D01*
X9091826Y-15201068D01*
X9100099Y-15197641D01*
X9107705Y-15200450D01*
G37*
G04 #@! TD.AperFunction*
G04 #@! TA.AperFunction,Conductor*
G36*
X5328439Y-11409070D02*
G01*
X5334991Y-11416073D01*
X5366171Y-11507126D01*
X5366501Y-11508280D01*
X5384481Y-11586143D01*
X5402459Y-11652524D01*
X5437446Y-11719698D01*
X5437878Y-11720203D01*
X5499550Y-11792295D01*
X5502324Y-11800810D01*
X5498932Y-11808174D01*
X5408174Y-11898932D01*
X5399901Y-11902359D01*
X5392295Y-11899550D01*
X5320203Y-11837878D01*
X5319698Y-11837446D01*
X5252524Y-11802459D01*
X5230841Y-11796587D01*
X5186248Y-11784509D01*
X5186228Y-11784504D01*
X5186143Y-11784481D01*
X5108280Y-11766501D01*
X5107129Y-11766172D01*
X5082586Y-11757768D01*
X5016073Y-11734991D01*
X5009356Y-11729069D01*
X5009037Y-11719484D01*
X5097436Y-11503824D01*
X5103824Y-11497436D01*
X5302319Y-11416073D01*
X5319484Y-11409037D01*
X5328439Y-11409070D01*
G37*
G04 #@! TD.AperFunction*
G04 #@! TA.AperFunction,Conductor*
G36*
X3189111Y-6036297D02*
G01*
X3319521Y-6090879D01*
X3325829Y-6097233D01*
X3325510Y-6106818D01*
X3325510Y-6106819D01*
X3283172Y-6193252D01*
X3282591Y-6194297D01*
X3240246Y-6262071D01*
X3206019Y-6321723D01*
X3183260Y-6393961D01*
X3183208Y-6394623D01*
X3183208Y-6394625D01*
X3175841Y-6489209D01*
X3171782Y-6497191D01*
X3164176Y-6500000D01*
X3035824Y-6500000D01*
X3027551Y-6496573D01*
X3024159Y-6489209D01*
X3016791Y-6394625D01*
X3016791Y-6394623D01*
X3016739Y-6393961D01*
X2993979Y-6321723D01*
X2959753Y-6262071D01*
X2917408Y-6194297D01*
X2916827Y-6193252D01*
X2874490Y-6106818D01*
X2873928Y-6097882D01*
X2880480Y-6090879D01*
X3095483Y-6000891D01*
X3104517Y-6000891D01*
X3189111Y-6036297D01*
G37*
G04 #@! TD.AperFunction*
G04 #@! TA.AperFunction,Conductor*
G36*
X3471898Y-2728618D02*
G01*
X3475737Y-2737283D01*
X3475737Y-2865713D01*
X3472310Y-2873986D01*
X3466693Y-2877108D01*
X3399591Y-2892747D01*
X3368171Y-2941068D01*
X3360346Y-3012583D01*
X3360339Y-3012701D01*
X3355054Y-3098833D01*
X3354726Y-3100953D01*
X3334263Y-3182542D01*
X3328928Y-3189730D01*
X3320070Y-3191042D01*
X3318455Y-3190509D01*
X3103513Y-3101861D01*
X3097148Y-3095482D01*
X3008605Y-2879461D01*
X3008638Y-2870507D01*
X3014596Y-2864370D01*
X3117010Y-2817888D01*
X3117013Y-2817886D01*
X3117131Y-2817833D01*
X3197256Y-2777783D01*
X3198051Y-2777422D01*
X3237128Y-2761491D01*
X3267912Y-2748941D01*
X3269956Y-2748318D01*
X3353038Y-2731109D01*
X3354843Y-2730880D01*
X3463469Y-2725597D01*
X3471898Y-2728618D01*
G37*
G04 #@! TD.AperFunction*
G04 #@! TA.AperFunction,Conductor*
G36*
X9798823Y-14617335D02*
G01*
X9801987Y-14623146D01*
X9815942Y-14688014D01*
X9859655Y-14722231D01*
X9861016Y-14722495D01*
X9861018Y-14722496D01*
X9900801Y-14730217D01*
X9924963Y-14734907D01*
X9959334Y-14738945D01*
X10004814Y-14744288D01*
X10006539Y-14744623D01*
X10052066Y-14757089D01*
X10082894Y-14765531D01*
X10089968Y-14771022D01*
X10091089Y-14779906D01*
X10090620Y-14781277D01*
X10001861Y-14996487D01*
X9995482Y-15002852D01*
X9779696Y-15091299D01*
X9770742Y-15091266D01*
X9764500Y-15085070D01*
X9728580Y-15001000D01*
X9720188Y-14981360D01*
X9686346Y-14899091D01*
X9685936Y-14897920D01*
X9664808Y-14825537D01*
X9664435Y-14823758D01*
X9653339Y-14737873D01*
X9653247Y-14736683D01*
X9650318Y-14625917D01*
X9653525Y-14617556D01*
X9662014Y-14613908D01*
X9790550Y-14613908D01*
X9798823Y-14617335D01*
G37*
G04 #@! TD.AperFunction*
G04 #@! TA.AperFunction,Conductor*
G36*
X3489111Y-23236297D02*
G01*
X3619521Y-23290879D01*
X3625829Y-23297233D01*
X3625510Y-23306818D01*
X3625510Y-23306819D01*
X3583172Y-23393252D01*
X3582591Y-23394297D01*
X3540246Y-23462071D01*
X3506019Y-23521723D01*
X3483260Y-23593961D01*
X3483208Y-23594623D01*
X3483208Y-23594625D01*
X3475841Y-23689209D01*
X3471782Y-23697191D01*
X3464176Y-23700000D01*
X3335824Y-23700000D01*
X3327551Y-23696573D01*
X3324159Y-23689209D01*
X3316791Y-23594625D01*
X3316791Y-23594623D01*
X3316739Y-23593961D01*
X3293979Y-23521723D01*
X3259753Y-23462071D01*
X3217408Y-23394297D01*
X3216827Y-23393252D01*
X3174490Y-23306818D01*
X3173928Y-23297882D01*
X3180480Y-23290879D01*
X3395483Y-23200891D01*
X3404517Y-23200891D01*
X3489111Y-23236297D01*
G37*
G04 #@! TD.AperFunction*
G04 #@! TA.AperFunction,Conductor*
G36*
X1520070Y-28518101D02*
G01*
X1749610Y-28711672D01*
X1992207Y-28875753D01*
X1992533Y-28875919D01*
X1992538Y-28875922D01*
X2234437Y-28999149D01*
X2234442Y-28999151D01*
X2234805Y-28999336D01*
X2235191Y-28999468D01*
X2235193Y-28999469D01*
X2476969Y-29082270D01*
X2476972Y-29082271D01*
X2477402Y-29082418D01*
X2710324Y-29123302D01*
X2717879Y-29128107D01*
X2720000Y-29134825D01*
X2720000Y-29265175D01*
X2716573Y-29273448D01*
X2710324Y-29276698D01*
X2477402Y-29317582D01*
X2476972Y-29317729D01*
X2476969Y-29317730D01*
X2235193Y-29400530D01*
X2234805Y-29400663D01*
X2234442Y-29400848D01*
X2234437Y-29400850D01*
X1992538Y-29524077D01*
X1992533Y-29524080D01*
X1992207Y-29524246D01*
X1749610Y-29688328D01*
X1520071Y-29881898D01*
X1511538Y-29884612D01*
X1503585Y-29880497D01*
X1501464Y-29876755D01*
X1270306Y-29203801D01*
X1270306Y-29196199D01*
X1501464Y-28523245D01*
X1507392Y-28516534D01*
X1516330Y-28515981D01*
X1520070Y-28518101D01*
G37*
G04 #@! TD.AperFunction*
G04 #@! TA.AperFunction,Conductor*
G36*
X6189111Y-23336297D02*
G01*
X6319521Y-23390879D01*
X6325829Y-23397233D01*
X6325510Y-23406818D01*
X6325510Y-23406819D01*
X6283172Y-23493252D01*
X6282591Y-23494297D01*
X6240246Y-23562071D01*
X6206019Y-23621723D01*
X6183260Y-23693961D01*
X6183208Y-23694623D01*
X6183208Y-23694625D01*
X6175841Y-23789209D01*
X6171782Y-23797191D01*
X6164176Y-23800000D01*
X6035824Y-23800000D01*
X6027551Y-23796573D01*
X6024159Y-23789209D01*
X6016791Y-23694625D01*
X6016791Y-23694623D01*
X6016739Y-23693961D01*
X5993979Y-23621723D01*
X5959753Y-23562071D01*
X5917408Y-23494297D01*
X5916827Y-23493252D01*
X5874490Y-23406818D01*
X5873928Y-23397882D01*
X5880480Y-23390879D01*
X6095483Y-23300891D01*
X6104517Y-23300891D01*
X6189111Y-23336297D01*
G37*
G04 #@! TD.AperFunction*
G04 #@! TA.AperFunction,Conductor*
G36*
X1520070Y-31058101D02*
G01*
X1749610Y-31251672D01*
X1992207Y-31415753D01*
X1992533Y-31415919D01*
X1992538Y-31415922D01*
X2234437Y-31539149D01*
X2234442Y-31539151D01*
X2234805Y-31539336D01*
X2235191Y-31539468D01*
X2235193Y-31539469D01*
X2476969Y-31622270D01*
X2476972Y-31622271D01*
X2477402Y-31622418D01*
X2710324Y-31663302D01*
X2717879Y-31668107D01*
X2720000Y-31674825D01*
X2720000Y-31805175D01*
X2716573Y-31813448D01*
X2710324Y-31816698D01*
X2477402Y-31857582D01*
X2476972Y-31857729D01*
X2476969Y-31857730D01*
X2235193Y-31940530D01*
X2234805Y-31940663D01*
X2234442Y-31940848D01*
X2234437Y-31940850D01*
X1992538Y-32064077D01*
X1992533Y-32064080D01*
X1992207Y-32064246D01*
X1749610Y-32228328D01*
X1520071Y-32421898D01*
X1511538Y-32424612D01*
X1503585Y-32420497D01*
X1501464Y-32416755D01*
X1270306Y-31743801D01*
X1270306Y-31736199D01*
X1501464Y-31063245D01*
X1507392Y-31056534D01*
X1516330Y-31055981D01*
X1520070Y-31058101D01*
G37*
G04 #@! TD.AperFunction*
G04 #@! TA.AperFunction,Conductor*
G36*
X10209121Y-16580480D02*
G01*
X10299109Y-16795483D01*
X10299109Y-16804517D01*
X10209121Y-17019520D01*
X10202765Y-17025829D01*
X10193182Y-17025510D01*
X10106740Y-16983168D01*
X10105702Y-16982591D01*
X10037927Y-16940246D01*
X9978276Y-16906019D01*
X9977677Y-16905830D01*
X9977674Y-16905829D01*
X9906676Y-16883461D01*
X9906038Y-16883260D01*
X9905376Y-16883208D01*
X9905374Y-16883208D01*
X9867692Y-16880273D01*
X9810790Y-16875841D01*
X9802809Y-16871782D01*
X9800000Y-16864176D01*
X9800000Y-16735824D01*
X9803427Y-16727551D01*
X9810790Y-16724159D01*
X9861760Y-16720189D01*
X9905374Y-16716791D01*
X9905376Y-16716791D01*
X9906038Y-16716739D01*
X9906676Y-16716538D01*
X9977674Y-16694169D01*
X9977677Y-16694168D01*
X9978276Y-16693979D01*
X10037927Y-16659753D01*
X10105702Y-16617408D01*
X10106739Y-16616831D01*
X10193182Y-16574490D01*
X10202119Y-16573928D01*
X10209121Y-16580480D01*
G37*
G04 #@! TD.AperFunction*
G04 #@! TA.AperFunction,Conductor*
G36*
X6708174Y-17001068D02*
G01*
X6798932Y-17091826D01*
X6802359Y-17100099D01*
X6799550Y-17107704D01*
X6737446Y-17180301D01*
X6702459Y-17247474D01*
X6684481Y-17313856D01*
X6684459Y-17313951D01*
X6684454Y-17313971D01*
X6666501Y-17391717D01*
X6666170Y-17392874D01*
X6634991Y-17483927D01*
X6629069Y-17490644D01*
X6619484Y-17490963D01*
X6403824Y-17402564D01*
X6397436Y-17396176D01*
X6309037Y-17180516D01*
X6309070Y-17171561D01*
X6316072Y-17165009D01*
X6407128Y-17133827D01*
X6408286Y-17133496D01*
X6454219Y-17122889D01*
X6486143Y-17115517D01*
X6486228Y-17115494D01*
X6486248Y-17115489D01*
X6530841Y-17103411D01*
X6552524Y-17097539D01*
X6619698Y-17062553D01*
X6692295Y-17000450D01*
X6700810Y-16997676D01*
X6708174Y-17001068D01*
G37*
G04 #@! TD.AperFunction*
G04 #@! TA.AperFunction,Conductor*
G36*
X12670990Y-24127690D02*
G01*
X12674403Y-24136531D01*
X12669119Y-24245156D01*
X12668890Y-24246961D01*
X12651681Y-24330042D01*
X12651058Y-24332086D01*
X12622581Y-24401938D01*
X12622216Y-24402743D01*
X12582166Y-24482867D01*
X12582113Y-24482984D01*
X12582111Y-24482988D01*
X12535630Y-24585404D01*
X12529090Y-24591522D01*
X12520539Y-24591395D01*
X12304518Y-24502852D01*
X12298139Y-24496487D01*
X12209491Y-24281545D01*
X12209504Y-24272590D01*
X12215846Y-24266268D01*
X12217459Y-24265737D01*
X12238482Y-24260464D01*
X12299037Y-24245275D01*
X12301166Y-24244945D01*
X12332991Y-24242992D01*
X12387416Y-24239653D01*
X12458931Y-24231828D01*
X12507252Y-24200408D01*
X12522892Y-24133307D01*
X12528108Y-24126028D01*
X12534287Y-24124263D01*
X12662717Y-24124263D01*
X12670990Y-24127690D01*
G37*
G04 #@! TD.AperFunction*
G04 #@! TA.AperFunction,Conductor*
G36*
X15879580Y-18758554D02*
G01*
X16506583Y-19038031D01*
X16512738Y-19044511D01*
X16624212Y-19333854D01*
X16793198Y-19772477D01*
X16792974Y-19781429D01*
X16786486Y-19787601D01*
X16781244Y-19788337D01*
X16530404Y-19766039D01*
X16529965Y-19766000D01*
X16504737Y-19767542D01*
X16260416Y-19782473D01*
X16260410Y-19782474D01*
X16259982Y-19782500D01*
X15989999Y-19839500D01*
X15989622Y-19839636D01*
X15989619Y-19839637D01*
X15911384Y-19867891D01*
X15720016Y-19937000D01*
X15477022Y-20061205D01*
X15467058Y-20066298D01*
X15458132Y-20067012D01*
X15451315Y-20061205D01*
X15450033Y-20055880D01*
X15450033Y-19927871D01*
X15451361Y-19922456D01*
X15533344Y-19765429D01*
X15533346Y-19765424D01*
X15533444Y-19765237D01*
X15533525Y-19765045D01*
X15533530Y-19765035D01*
X15616791Y-19568305D01*
X15616855Y-19568154D01*
X15700267Y-19333752D01*
X15783678Y-19062029D01*
X15783704Y-19061934D01*
X15863526Y-18766193D01*
X15868991Y-18759099D01*
X15877871Y-18757946D01*
X15879580Y-18758554D01*
G37*
G04 #@! TD.AperFunction*
G04 #@! TA.AperFunction,Conductor*
G36*
X11689111Y-25736297D02*
G01*
X11819521Y-25790879D01*
X11825829Y-25797233D01*
X11825510Y-25806818D01*
X11825510Y-25806819D01*
X11783172Y-25893252D01*
X11782591Y-25894297D01*
X11740246Y-25962071D01*
X11706019Y-26021723D01*
X11683260Y-26093961D01*
X11683208Y-26094623D01*
X11683208Y-26094625D01*
X11675841Y-26189209D01*
X11671782Y-26197191D01*
X11664176Y-26200000D01*
X11535824Y-26200000D01*
X11527551Y-26196573D01*
X11524159Y-26189209D01*
X11516791Y-26094625D01*
X11516791Y-26094623D01*
X11516739Y-26093961D01*
X11493979Y-26021723D01*
X11459753Y-25962071D01*
X11417408Y-25894297D01*
X11416827Y-25893252D01*
X11374490Y-25806818D01*
X11373928Y-25797882D01*
X11380480Y-25790879D01*
X11595483Y-25700891D01*
X11604517Y-25700891D01*
X11689111Y-25736297D01*
G37*
G04 #@! TD.AperFunction*
G04 #@! TA.AperFunction,Conductor*
G36*
X16276415Y-31059503D02*
G01*
X16278536Y-31063245D01*
X16509694Y-31736199D01*
X16509694Y-31743801D01*
X16278536Y-32416755D01*
X16272608Y-32423466D01*
X16263670Y-32424019D01*
X16259930Y-32421899D01*
X16030389Y-32228328D01*
X15787792Y-32064246D01*
X15787466Y-32064080D01*
X15787461Y-32064077D01*
X15545562Y-31940851D01*
X15545557Y-31940849D01*
X15545194Y-31940664D01*
X15544806Y-31940531D01*
X15303030Y-31857730D01*
X15303027Y-31857729D01*
X15302597Y-31857582D01*
X15069676Y-31816698D01*
X15062121Y-31811893D01*
X15060000Y-31805175D01*
X15060000Y-31674825D01*
X15063427Y-31666552D01*
X15069676Y-31663302D01*
X15302597Y-31622418D01*
X15303027Y-31622271D01*
X15303030Y-31622270D01*
X15544806Y-31539468D01*
X15544807Y-31539467D01*
X15545194Y-31539335D01*
X15545557Y-31539150D01*
X15545562Y-31539148D01*
X15787461Y-31415923D01*
X15787466Y-31415920D01*
X15787792Y-31415754D01*
X16030389Y-31251672D01*
X16259929Y-31058102D01*
X16268462Y-31055388D01*
X16276415Y-31059503D01*
G37*
G04 #@! TD.AperFunction*
G04 #@! TA.AperFunction,Conductor*
G36*
X13372449Y-21803427D02*
G01*
X13375840Y-21810790D01*
X13383260Y-21906038D01*
X13406019Y-21978276D01*
X13440246Y-22037927D01*
X13482591Y-22105702D01*
X13483168Y-22106740D01*
X13525510Y-22193182D01*
X13526072Y-22202118D01*
X13519520Y-22209121D01*
X13304517Y-22299109D01*
X13295483Y-22299109D01*
X13080480Y-22209121D01*
X13074171Y-22202765D01*
X13074490Y-22193181D01*
X13116827Y-22106747D01*
X13117408Y-22105702D01*
X13159753Y-22037927D01*
X13193979Y-21978276D01*
X13216739Y-21906038D01*
X13224159Y-21810790D01*
X13228218Y-21802809D01*
X13235824Y-21800000D01*
X13364176Y-21800000D01*
X13372449Y-21803427D01*
G37*
G04 #@! TD.AperFunction*
G04 #@! TA.AperFunction,Conductor*
G36*
X13389111Y-20936297D02*
G01*
X13519521Y-20990879D01*
X13525829Y-20997233D01*
X13525510Y-21006818D01*
X13525510Y-21006819D01*
X13483172Y-21093252D01*
X13482591Y-21094297D01*
X13440246Y-21162071D01*
X13406019Y-21221723D01*
X13383260Y-21293961D01*
X13383208Y-21294623D01*
X13383208Y-21294625D01*
X13375841Y-21389209D01*
X13371782Y-21397191D01*
X13364176Y-21400000D01*
X13235824Y-21400000D01*
X13227551Y-21396573D01*
X13224159Y-21389209D01*
X13216791Y-21294625D01*
X13216791Y-21294623D01*
X13216739Y-21293961D01*
X13193979Y-21221723D01*
X13159753Y-21162071D01*
X13117408Y-21094297D01*
X13116827Y-21093252D01*
X13074490Y-21006818D01*
X13073928Y-20997882D01*
X13080480Y-20990879D01*
X13295483Y-20900891D01*
X13304517Y-20900891D01*
X13389111Y-20936297D01*
G37*
G04 #@! TD.AperFunction*
G04 #@! TA.AperFunction,Conductor*
G36*
X14172449Y-23203427D02*
G01*
X14175840Y-23210790D01*
X14183260Y-23306038D01*
X14206019Y-23378276D01*
X14240246Y-23437927D01*
X14282591Y-23505702D01*
X14283168Y-23506740D01*
X14325510Y-23593182D01*
X14326072Y-23602118D01*
X14319520Y-23609121D01*
X14104517Y-23699109D01*
X14095483Y-23699109D01*
X13880480Y-23609121D01*
X13874171Y-23602765D01*
X13874490Y-23593181D01*
X13916827Y-23506747D01*
X13917408Y-23505702D01*
X13959753Y-23437927D01*
X13993979Y-23378276D01*
X14016739Y-23306038D01*
X14024159Y-23210790D01*
X14028218Y-23202809D01*
X14035824Y-23200000D01*
X14164176Y-23200000D01*
X14172449Y-23203427D01*
G37*
G04 #@! TD.AperFunction*
G04 #@! TA.AperFunction,Conductor*
G36*
X14189111Y-20936297D02*
G01*
X14319521Y-20990879D01*
X14325829Y-20997233D01*
X14325510Y-21006818D01*
X14325510Y-21006819D01*
X14283172Y-21093252D01*
X14282591Y-21094297D01*
X14240246Y-21162071D01*
X14206019Y-21221723D01*
X14183260Y-21293961D01*
X14183208Y-21294623D01*
X14183208Y-21294625D01*
X14175841Y-21389209D01*
X14171782Y-21397191D01*
X14164176Y-21400000D01*
X14035824Y-21400000D01*
X14027551Y-21396573D01*
X14024159Y-21389209D01*
X14016791Y-21294625D01*
X14016791Y-21294623D01*
X14016739Y-21293961D01*
X13993979Y-21221723D01*
X13959753Y-21162071D01*
X13917408Y-21094297D01*
X13916827Y-21093252D01*
X13874490Y-21006818D01*
X13873928Y-20997882D01*
X13880480Y-20990879D01*
X14095483Y-20900891D01*
X14104517Y-20900891D01*
X14189111Y-20936297D01*
G37*
G04 #@! TD.AperFunction*
G04 #@! TA.AperFunction,Conductor*
G36*
X16276430Y-28519383D02*
G01*
X16278436Y-28522990D01*
X16494652Y-29153860D01*
X16509406Y-29196910D01*
X16509404Y-29204501D01*
X16351489Y-29664326D01*
X16278849Y-29875842D01*
X16272920Y-29882554D01*
X16263983Y-29883108D01*
X16259798Y-29880594D01*
X16136242Y-29765223D01*
X16027984Y-29664135D01*
X16027758Y-29663961D01*
X15783234Y-29476055D01*
X15783229Y-29476052D01*
X15782981Y-29475861D01*
X15537978Y-29328087D01*
X15292975Y-29220813D01*
X15292562Y-29220701D01*
X15292558Y-29220699D01*
X15067428Y-29159341D01*
X15060348Y-29153860D01*
X15059217Y-29144976D01*
X15062232Y-29139780D01*
X15151314Y-29050698D01*
X15157849Y-29047401D01*
X15307629Y-29024907D01*
X15377828Y-29014365D01*
X15483084Y-28981021D01*
X15601214Y-28943600D01*
X15601218Y-28943598D01*
X15601617Y-28943472D01*
X15825407Y-28835296D01*
X15867202Y-28808129D01*
X16048930Y-28690009D01*
X16048936Y-28690005D01*
X16049197Y-28689835D01*
X16259968Y-28517721D01*
X16268543Y-28515142D01*
X16276430Y-28519383D01*
G37*
G04 #@! TD.AperFunction*
G04 #@! TA.AperFunction,Conductor*
G36*
X14989111Y-20936297D02*
G01*
X15119521Y-20990879D01*
X15125829Y-20997233D01*
X15125510Y-21006818D01*
X15125510Y-21006819D01*
X15083172Y-21093252D01*
X15082591Y-21094297D01*
X15040246Y-21162071D01*
X15006019Y-21221723D01*
X14983260Y-21293961D01*
X14983208Y-21294623D01*
X14983208Y-21294625D01*
X14975841Y-21389209D01*
X14971782Y-21397191D01*
X14964176Y-21400000D01*
X14835824Y-21400000D01*
X14827551Y-21396573D01*
X14824159Y-21389209D01*
X14816791Y-21294625D01*
X14816791Y-21294623D01*
X14816739Y-21293961D01*
X14793979Y-21221723D01*
X14759753Y-21162071D01*
X14717408Y-21094297D01*
X14716827Y-21093252D01*
X14674490Y-21006818D01*
X14673928Y-20997882D01*
X14680480Y-20990879D01*
X14895483Y-20900891D01*
X14904517Y-20900891D01*
X14989111Y-20936297D01*
G37*
G04 #@! TD.AperFunction*
G04 #@! TA.AperFunction,Conductor*
G36*
X11412449Y-10303427D02*
G01*
X11415840Y-10310790D01*
X11423260Y-10406038D01*
X11446019Y-10478276D01*
X11480246Y-10537927D01*
X11522591Y-10605702D01*
X11523168Y-10606740D01*
X11565510Y-10693182D01*
X11566072Y-10702118D01*
X11559520Y-10709121D01*
X11344517Y-10799109D01*
X11335483Y-10799109D01*
X11120480Y-10709121D01*
X11114171Y-10702765D01*
X11114490Y-10693181D01*
X11156827Y-10606747D01*
X11157408Y-10605702D01*
X11199753Y-10537927D01*
X11233979Y-10478276D01*
X11256739Y-10406038D01*
X11264159Y-10310790D01*
X11268218Y-10302809D01*
X11275824Y-10300000D01*
X11404176Y-10300000D01*
X11412449Y-10303427D01*
G37*
G04 #@! TD.AperFunction*
G04 #@! TA.AperFunction,Conductor*
G36*
X10368439Y-7709070D02*
G01*
X10374991Y-7716073D01*
X10406171Y-7807126D01*
X10406501Y-7808280D01*
X10424481Y-7886143D01*
X10442459Y-7952524D01*
X10477446Y-8019698D01*
X10477878Y-8020203D01*
X10539550Y-8092295D01*
X10542324Y-8100810D01*
X10538932Y-8108174D01*
X10448174Y-8198932D01*
X10439901Y-8202359D01*
X10432295Y-8199550D01*
X10360203Y-8137878D01*
X10359698Y-8137446D01*
X10292524Y-8102459D01*
X10270841Y-8096587D01*
X10226248Y-8084509D01*
X10226228Y-8084504D01*
X10226143Y-8084481D01*
X10148280Y-8066501D01*
X10147129Y-8066172D01*
X10122586Y-8057768D01*
X10056073Y-8034991D01*
X10049356Y-8029069D01*
X10049037Y-8019484D01*
X10137436Y-7803824D01*
X10143824Y-7797436D01*
X10342319Y-7716073D01*
X10359484Y-7709037D01*
X10368439Y-7709070D01*
G37*
G04 #@! TD.AperFunction*
D26*
X0Y-500000D02*
X0Y-32500000D01*
X17780000Y-500000D02*
G75*
G03*
X17280000Y0I-500000J0D01*
G01*
X0Y-32500000D02*
G75*
G03*
X500000Y-33000000I500000J0D01*
G01*
X500000Y0D02*
G75*
G03*
X0Y-500000I0J-500000D01*
G01*
X17780000Y-500000D02*
X17780000Y-32500000D01*
X500000Y0D02*
X17280000Y0D01*
X500000Y-33000000D02*
X17280000Y-33000000D01*
X17280000Y-33000000D02*
G75*
G03*
X17780000Y-32500000I0J500000D01*
G01*
M02*
