G04 #@! TF.GenerationSoftware,KiCad,Pcbnew,8.0.0*
G04 #@! TF.CreationDate,2024-04-25T20:12:48+07:00*
G04 #@! TF.ProjectId,artemisia,61727465-6d69-4736-9961-2e6b69636164,2*
G04 #@! TF.SameCoordinates,Original*
G04 #@! TF.FileFunction,Soldermask,Top*
G04 #@! TF.FilePolarity,Negative*
%FSLAX46Y46*%
G04 Gerber Fmt 4.6, Leading zero omitted, Abs format (unit mm)*
G04 Created by KiCad (PCBNEW 8.0.0) date 2024-04-25 20:12:48*
%MOMM*%
%LPD*%
G01*
G04 APERTURE LIST*
G04 Aperture macros list*
%AMRoundRect*
0 Rectangle with rounded corners*
0 $1 Rounding radius*
0 $2 $3 $4 $5 $6 $7 $8 $9 X,Y pos of 4 corners*
0 Add a 4 corners polygon primitive as box body*
4,1,4,$2,$3,$4,$5,$6,$7,$8,$9,$2,$3,0*
0 Add four circle primitives for the rounded corners*
1,1,$1+$1,$2,$3*
1,1,$1+$1,$4,$5*
1,1,$1+$1,$6,$7*
1,1,$1+$1,$8,$9*
0 Add four rect primitives between the rounded corners*
20,1,$1+$1,$2,$3,$4,$5,0*
20,1,$1+$1,$4,$5,$6,$7,0*
20,1,$1+$1,$6,$7,$8,$9,0*
20,1,$1+$1,$8,$9,$2,$3,0*%
%AMFreePoly0*
4,1,14,0.314644,0.085355,0.385355,0.014644,0.400000,-0.020711,0.400000,-0.050000,0.385355,-0.085355,0.350000,-0.100000,-0.350000,-0.100000,-0.385355,-0.085355,-0.400000,-0.050000,-0.400000,0.050000,-0.385355,0.085355,-0.350000,0.100000,0.279289,0.100000,0.314644,0.085355,0.314644,0.085355,$1*%
%AMFreePoly1*
4,1,14,0.385355,0.085355,0.400000,0.050000,0.400000,0.020711,0.385355,-0.014644,0.314644,-0.085355,0.279289,-0.100000,-0.350000,-0.100000,-0.385355,-0.085355,-0.400000,-0.050000,-0.400000,0.050000,-0.385355,0.085355,-0.350000,0.100000,0.350000,0.100000,0.385355,0.085355,0.385355,0.085355,$1*%
%AMFreePoly2*
4,1,14,0.085355,0.385355,0.100000,0.350000,0.100000,-0.350000,0.085355,-0.385355,0.050000,-0.400000,-0.050000,-0.400000,-0.085355,-0.385355,-0.100000,-0.350000,-0.100000,0.279289,-0.085355,0.314644,-0.014644,0.385355,0.020711,0.400000,0.050000,0.400000,0.085355,0.385355,0.085355,0.385355,$1*%
%AMFreePoly3*
4,1,14,0.014644,0.385355,0.085355,0.314644,0.100000,0.279289,0.100000,-0.350000,0.085355,-0.385355,0.050000,-0.400000,-0.050000,-0.400000,-0.085355,-0.385355,-0.100000,-0.350000,-0.100000,0.350000,-0.085355,0.385355,-0.050000,0.400000,-0.020711,0.400000,0.014644,0.385355,0.014644,0.385355,$1*%
%AMFreePoly4*
4,1,14,0.385355,0.085355,0.400000,0.050000,0.400000,-0.050000,0.385355,-0.085355,0.350000,-0.100000,-0.279289,-0.100000,-0.314644,-0.085355,-0.385355,-0.014644,-0.400000,0.020711,-0.400000,0.050000,-0.385355,0.085355,-0.350000,0.100000,0.350000,0.100000,0.385355,0.085355,0.385355,0.085355,$1*%
%AMFreePoly5*
4,1,14,0.385355,0.085355,0.400000,0.050000,0.400000,-0.050000,0.385355,-0.085355,0.350000,-0.100000,-0.350000,-0.100000,-0.385355,-0.085355,-0.400000,-0.050000,-0.400000,-0.020711,-0.385355,0.014644,-0.314644,0.085355,-0.279289,0.100000,0.350000,0.100000,0.385355,0.085355,0.385355,0.085355,$1*%
%AMFreePoly6*
4,1,14,0.085355,0.385355,0.100000,0.350000,0.100000,-0.279289,0.085355,-0.314644,0.014644,-0.385355,-0.020711,-0.400000,-0.050000,-0.400000,-0.085355,-0.385355,-0.100000,-0.350000,-0.100000,0.350000,-0.085355,0.385355,-0.050000,0.400000,0.050000,0.400000,0.085355,0.385355,0.085355,0.385355,$1*%
%AMFreePoly7*
4,1,14,0.085355,0.385355,0.100000,0.350000,0.100000,-0.350000,0.085355,-0.385355,0.050000,-0.400000,0.020711,-0.400000,-0.014644,-0.385355,-0.085355,-0.314644,-0.100000,-0.279289,-0.100000,0.350000,-0.085355,0.385355,-0.050000,0.400000,0.050000,0.400000,0.085355,0.385355,0.085355,0.385355,$1*%
G04 Aperture macros list end*
%ADD10C,1.260000*%
%ADD11C,1.700000*%
%ADD12R,1.700000X2.000000*%
%ADD13R,2.000000X1.700000*%
%ADD14RoundRect,0.140000X-0.140000X-0.170000X0.140000X-0.170000X0.140000X0.170000X-0.140000X0.170000X0*%
%ADD15RoundRect,0.135000X-0.135000X-0.185000X0.135000X-0.185000X0.135000X0.185000X-0.135000X0.185000X0*%
%ADD16RoundRect,0.135000X0.135000X0.185000X-0.135000X0.185000X-0.135000X-0.185000X0.135000X-0.185000X0*%
%ADD17RoundRect,0.140000X0.140000X0.170000X-0.140000X0.170000X-0.140000X-0.170000X0.140000X-0.170000X0*%
%ADD18RoundRect,0.150000X-0.512500X-0.150000X0.512500X-0.150000X0.512500X0.150000X-0.512500X0.150000X0*%
%ADD19RoundRect,0.140000X0.170000X-0.140000X0.170000X0.140000X-0.170000X0.140000X-0.170000X-0.140000X0*%
%ADD20R,0.600000X0.800000*%
%ADD21R,0.300000X0.800000*%
%ADD22O,1.000000X2.200000*%
%ADD23O,1.000000X1.800000*%
%ADD24R,1.700000X0.900000*%
%ADD25FreePoly0,90.000000*%
%ADD26RoundRect,0.050000X0.050000X-0.350000X0.050000X0.350000X-0.050000X0.350000X-0.050000X-0.350000X0*%
%ADD27FreePoly1,90.000000*%
%ADD28FreePoly2,90.000000*%
%ADD29RoundRect,0.050000X0.350000X-0.050000X0.350000X0.050000X-0.350000X0.050000X-0.350000X-0.050000X0*%
%ADD30FreePoly3,90.000000*%
%ADD31FreePoly4,90.000000*%
%ADD32FreePoly5,90.000000*%
%ADD33FreePoly6,90.000000*%
%ADD34FreePoly7,90.000000*%
%ADD35R,2.650000X2.650000*%
%ADD36RoundRect,0.150000X-0.150000X0.512500X-0.150000X-0.512500X0.150000X-0.512500X0.150000X0.512500X0*%
%ADD37RoundRect,0.218750X-0.256250X0.218750X-0.256250X-0.218750X0.256250X-0.218750X0.256250X0.218750X0*%
%ADD38RoundRect,0.140000X-0.170000X0.140000X-0.170000X-0.140000X0.170000X-0.140000X0.170000X0.140000X0*%
%ADD39RoundRect,0.125000X0.125000X-0.125000X0.125000X0.125000X-0.125000X0.125000X-0.125000X-0.125000X0*%
%ADD40R,1.400000X1.200000*%
%ADD41RoundRect,0.135000X0.185000X-0.135000X0.185000X0.135000X-0.185000X0.135000X-0.185000X-0.135000X0*%
%ADD42RoundRect,0.135000X-0.185000X0.135000X-0.185000X-0.135000X0.185000X-0.135000X0.185000X0.135000X0*%
%ADD43RoundRect,0.147500X0.147500X0.172500X-0.147500X0.172500X-0.147500X-0.172500X0.147500X-0.172500X0*%
G04 #@! TA.AperFunction,Profile*
%ADD44C,0.100000*%
G04 #@! TD*
G04 APERTURE END LIST*
D10*
X3780000Y-31862500D03*
D11*
X3810000Y-30162500D03*
D12*
X3810000Y-31162500D03*
D10*
X6320000Y-31862500D03*
D11*
X6350000Y-30162500D03*
D12*
X6350000Y-31162500D03*
D10*
X8860000Y-31862500D03*
D11*
X8890000Y-30162500D03*
D12*
X8890000Y-31162500D03*
D10*
X11400000Y-31862500D03*
D11*
X11430000Y-30162500D03*
D12*
X11430000Y-31162500D03*
D10*
X13940000Y-31862500D03*
D11*
X13970000Y-30162500D03*
D12*
X13970000Y-31162500D03*
D10*
X17910000Y-2146300D03*
D11*
X16510000Y-2146300D03*
D13*
X17510000Y-2146300D03*
D10*
X17910000Y-4686300D03*
D11*
X16510000Y-4686300D03*
D13*
X17510000Y-4686300D03*
D10*
X17910000Y-7226300D03*
D11*
X16510000Y-7226300D03*
D13*
X17510000Y-7226300D03*
D10*
X17910000Y-9766300D03*
D11*
X16510000Y-9766300D03*
D13*
X17510000Y-9766300D03*
D10*
X17910000Y-12306300D03*
D11*
X16510000Y-12306300D03*
D13*
X17510000Y-12306300D03*
D10*
X17910000Y-14846300D03*
D11*
X16510000Y-14846300D03*
D13*
X17510000Y-14846300D03*
D10*
X17910000Y-17386300D03*
D11*
X16510000Y-17386300D03*
D13*
X17510000Y-17386300D03*
D10*
X17910000Y-19926300D03*
D11*
X16510000Y-19926300D03*
D13*
X17510000Y-19926300D03*
D10*
X17910000Y-22466300D03*
D11*
X16510000Y-22466300D03*
D13*
X17510000Y-22466300D03*
D10*
X17910000Y-25006300D03*
D11*
X16510000Y-25006300D03*
D13*
X17510000Y-25006300D03*
D10*
X17910000Y-27546300D03*
D11*
X16510000Y-27546300D03*
D13*
X17510000Y-27546300D03*
D10*
X17910000Y-30086300D03*
D11*
X16510000Y-30086300D03*
D13*
X17510000Y-30086300D03*
D10*
X-130000Y-2146300D03*
D11*
X1270000Y-2146300D03*
D13*
X270000Y-2146300D03*
D10*
X-130000Y-4686300D03*
D11*
X1270000Y-4686300D03*
D13*
X270000Y-4686300D03*
D10*
X-130000Y-7226300D03*
D11*
X1270000Y-7226300D03*
D13*
X270000Y-7226300D03*
D10*
X-130000Y-9766300D03*
D11*
X1270000Y-9766300D03*
D13*
X270000Y-9766300D03*
D10*
X-130000Y-12306300D03*
D11*
X1270000Y-12306300D03*
D13*
X270000Y-12306300D03*
D10*
X-130000Y-14846300D03*
D11*
X1270000Y-14846300D03*
D13*
X270000Y-14846300D03*
D10*
X-130000Y-17386300D03*
D11*
X1270000Y-17386300D03*
D13*
X270000Y-17386300D03*
D10*
X-130000Y-19926300D03*
D11*
X1270000Y-19926300D03*
D13*
X270000Y-19926300D03*
D10*
X-130000Y-22466300D03*
D11*
X1270000Y-22466300D03*
D13*
X270000Y-22466300D03*
D10*
X-130000Y-25006300D03*
D11*
X1270000Y-25006300D03*
D13*
X270000Y-25006300D03*
D10*
X-130000Y-27546300D03*
D11*
X1270000Y-27546300D03*
D13*
X270000Y-27546300D03*
D10*
X-130000Y-30086300D03*
D11*
X1270000Y-30086300D03*
D13*
X270000Y-30086300D03*
D14*
X7790000Y-27850000D03*
X8750000Y-27850000D03*
D15*
X3490000Y-12350000D03*
X4510000Y-12350000D03*
D16*
X13710000Y-14500000D03*
X12690000Y-14500000D03*
D17*
X10480000Y-21500000D03*
X9520000Y-21500000D03*
D18*
X7752500Y-8250000D03*
X7752500Y-9200000D03*
X7752500Y-10150000D03*
X10027500Y-10150000D03*
X10027500Y-9200000D03*
X10027500Y-8250000D03*
D14*
X13520000Y-7100000D03*
X14480000Y-7100000D03*
D16*
X4720000Y-22325000D03*
X3700000Y-22325000D03*
D17*
X14580000Y-12325000D03*
X13620000Y-12325000D03*
D19*
X12400000Y-13355000D03*
X12400000Y-12395000D03*
D20*
X12103000Y-6150474D03*
X11303000Y-6150474D03*
D21*
X10653000Y-6150474D03*
X10153000Y-6150474D03*
X9653000Y-6150474D03*
X9153000Y-6150474D03*
X8653000Y-6150474D03*
X8153000Y-6150474D03*
X7653000Y-6150474D03*
X7153000Y-6150474D03*
D20*
X6503000Y-6150474D03*
X5703000Y-6150474D03*
D22*
X3328000Y-1250474D03*
D23*
X3328000Y-5250474D03*
D22*
X14478000Y-1250474D03*
D23*
X14478000Y-5250474D03*
D17*
X4690000Y-21225000D03*
X3730000Y-21225000D03*
D15*
X11490000Y-22325000D03*
X12510000Y-22325000D03*
D24*
X4500000Y-23650000D03*
X4500000Y-27750000D03*
D25*
X7490000Y-18550000D03*
D26*
X7890000Y-18550000D03*
X8290000Y-18550000D03*
X8690000Y-18550000D03*
X9090000Y-18550000D03*
X9490000Y-18550000D03*
X9890000Y-18550000D03*
D27*
X10290000Y-18550000D03*
D28*
X10840000Y-18000000D03*
D29*
X10840000Y-17600000D03*
X10840000Y-17200000D03*
X10840000Y-16800000D03*
X10840000Y-16400000D03*
X10840000Y-16000000D03*
X10840000Y-15600000D03*
D30*
X10840000Y-15200000D03*
D31*
X10290000Y-14650000D03*
D26*
X9890000Y-14650000D03*
X9490000Y-14650000D03*
X9090000Y-14650000D03*
X8690000Y-14650000D03*
X8290000Y-14650000D03*
X7890000Y-14650000D03*
D32*
X7490000Y-14650000D03*
D33*
X6940000Y-15200000D03*
D29*
X6940000Y-15600000D03*
X6940000Y-16000000D03*
X6940000Y-16400000D03*
X6940000Y-16800000D03*
X6940000Y-17200000D03*
X6940000Y-17600000D03*
D34*
X6940000Y-18000000D03*
D35*
X8890000Y-16600000D03*
D36*
X14150000Y-8562500D03*
X13200000Y-8562500D03*
X12250000Y-8562500D03*
X12250000Y-10837500D03*
X14150000Y-10837500D03*
D37*
X5200000Y-8412500D03*
X5200000Y-9987500D03*
D24*
X13280000Y-23650000D03*
X13280000Y-27750000D03*
D38*
X5800000Y-21295000D03*
X5800000Y-22255000D03*
D14*
X9030000Y-23150000D03*
X9990000Y-23150000D03*
D39*
X14400000Y-16550000D03*
X14400000Y-15650000D03*
X13500000Y-15650000D03*
X13500000Y-16550000D03*
D14*
X13620000Y-13425000D03*
X14580000Y-13425000D03*
D19*
X6900000Y-22255000D03*
X6900000Y-21295000D03*
D40*
X9990000Y-24650000D03*
X7790000Y-24650000D03*
X7790000Y-26350000D03*
X9990000Y-26350000D03*
D41*
X8325000Y-12510000D03*
X8325000Y-11490000D03*
D14*
X11520000Y-21225000D03*
X12480000Y-21225000D03*
D42*
X7225000Y-11490000D03*
X7225000Y-12510000D03*
D43*
X4485000Y-14500000D03*
X3515000Y-14500000D03*
D41*
X9425000Y-12510000D03*
X9425000Y-11490000D03*
X10550000Y-12510000D03*
X10550000Y-11490000D03*
D15*
X3490000Y-13450000D03*
X4510000Y-13450000D03*
D44*
X0Y-1270000D02*
X0Y-30607000D01*
X16510000Y0D02*
G75*
G02*
X17780000Y-1270000I0J-1270000D01*
G01*
X13462000Y-5711600D02*
X4318000Y-5711600D01*
X1270000Y-31877000D02*
G75*
G02*
X0Y-30607000I-3J1269997D01*
G01*
X0Y-1270000D02*
G75*
G02*
X1270000Y0I1270000J0D01*
G01*
X17780000Y-1270000D02*
X17780000Y-30607000D01*
X4318000Y-5711600D02*
X4318000Y0D01*
X13462000Y0D02*
X16510000Y0D01*
X1270000Y0D02*
X4318000Y0D01*
X1270000Y-31877000D02*
X16510000Y-31877000D01*
X13462000Y0D02*
X13462000Y-5711600D01*
X17780000Y-30607000D02*
G75*
G02*
X16510000Y-31877000I-1270000J0D01*
G01*
M02*
