  0
SECTION
  2
HEADER
  9
$ANGBASE
  50
0.0
  9
$ANGDIR
  70
1
  9
$MEASUREMENT
  70
1
  0
ENDSEC
  0
SECTION
  2
TABLES
  0
TABLE
  2
LTYPE
  70
4
  0
LTYPE
  5
40F
  2
CONTINUOUS
  70
0
  3
Solid line
  72
65
  73
0
  40
0.0
  0
LTYPE
  5
410
  2
DASHDOT
 70
0
  3
Dash Dot ____ _ ____ _
 72
65
 73
4
 40
2.0
 49
1.25
 49
-0.25
 49
0.25
 49
-0.25
  0
LTYPE
  5
411
  2
DASHED
 70
0
  3
Dashed __ __ __ __ __
 72
65
 73
2
 40
0.75
 49
0.5
 49
-0.25
  0
LTYPE
  5
43B
  2
DOTTED
 70
0
  3
Dotted .  .  .  .
 72
65
 73
2
 40
0.2
 49
0.0
 49
-0.2
  0
ENDTAB
  0
TABLE
  2
STYLE
  70
4
  0
STYLE
  2
KICAD
  70
0
  40
0
  41
1
  42
1
  50
0
  71
0
  3
isocp.shx
  0
STYLE
  2
KICADB
  70
0
  40
0
  41
1
  42
1
  50
0
  71
0
  3
isocp.shx
  0
STYLE
  2
KICADI
  70
0
  40
0
  41
1
  42
1
  50
15
  71
0
  3
isocp.shx
  0
STYLE
  2
KICADBI
  70
0
  40
0
  41
1
  42
1
  50
15
  71
0
  3
isocp.shx
  0
ENDTAB
  0
TABLE
  2
LAYER
  70
1
  0
LAYER
  2
BLACK
  70
0
  62
7
  6
CONTINUOUS
  0
ENDTAB
  0
ENDSEC
  0
SECTION
  2
ENTITIES
0
LINE
8
BLACK
6
CONTINUOUS
10
0.
20
-1.27
11
0.
21
-30.6069999999999993
0
ARC
8
BLACK
10
16.509999999999998
20
-1.27
40
1.27
50
0.00000000
51
90.00000000
0
LINE
8
BLACK
6
CONTINUOUS
10
13.4619999999999997
20
-5.7115999999999998
11
4.3179999999999996
21
-5.7115999999999998
0
ARC
8
BLACK
10
1.269997
20
-30.6070029999999988
40
1.2699970000035432
50
-180.00013534
51
-89.99986466
0
ARC
8
BLACK
10
1.27
20
-1.27
40
1.27
50
90.00000000
51
180.00000000
0
LINE
8
BLACK
6
CONTINUOUS
10
17.7799999999999976
20
-1.27
11
17.7799999999999976
21
-30.6069999999999993
0
LINE
8
BLACK
6
CONTINUOUS
10
4.3179999999999996
20
-5.7115999999999998
11
4.3179999999999996
21
0.
0
LINE
8
BLACK
6
CONTINUOUS
10
13.4619999999999997
20
0.
11
16.509999999999998
21
0.
0
LINE
8
BLACK
6
CONTINUOUS
10
1.27
20
0.
11
4.3179999999999996
21
0.
0
LINE
8
BLACK
6
CONTINUOUS
10
1.27
20
-31.8769999999999989
11
16.509999999999998
21
-31.8769999999999989
0
LINE
8
BLACK
6
CONTINUOUS
10
13.4619999999999997
20
0.
11
13.4619999999999997
21
-5.7115999999999998
0
ARC
8
BLACK
10
16.509999999999998
20
-30.6069999999999993
40
1.27
50
-90.00000000
51
-0.00000000
0
LINE
8
BLACK
6
CONTINUOUS
10
7.9399999999999995
20
-15.6499999999999986
11
8.1399999999999988
21
-15.8499999999999996
0
LINE
8
BLACK
6
CONTINUOUS
10
8.1399999999999988
20
-15.6499999999999986
11
7.9399999999999995
21
-15.8499999999999996
0
LINE
8
BLACK
6
CONTINUOUS
10
7.9399999999999995
20
-16.5
11
8.1399999999999988
21
-16.6999999999999993
0
LINE
8
BLACK
6
CONTINUOUS
10
8.1399999999999988
20
-16.5
11
7.9399999999999995
21
-16.6999999999999993
0
LINE
8
BLACK
6
CONTINUOUS
10
7.9399999999999995
20
-17.3499999999999979
11
8.1399999999999988
21
-17.5500000000000007
0
LINE
8
BLACK
6
CONTINUOUS
10
8.1399999999999988
20
-17.3499999999999979
11
7.9399999999999995
21
-17.5500000000000007
0
LINE
8
BLACK
6
CONTINUOUS
10
8.7899999999999991
20
-15.6499999999999986
11
8.9900000000000002
21
-15.8499999999999996
0
LINE
8
BLACK
6
CONTINUOUS
10
8.9900000000000002
20
-15.6499999999999986
11
8.7899999999999991
21
-15.8499999999999996
0
LINE
8
BLACK
6
CONTINUOUS
10
8.7899999999999991
20
-16.5
11
8.9900000000000002
21
-16.6999999999999993
0
LINE
8
BLACK
6
CONTINUOUS
10
8.9900000000000002
20
-16.5
11
8.7899999999999991
21
-16.6999999999999993
0
LINE
8
BLACK
6
CONTINUOUS
10
8.7899999999999991
20
-17.3499999999999979
11
8.9900000000000002
21
-17.5500000000000007
0
LINE
8
BLACK
6
CONTINUOUS
10
8.9900000000000002
20
-17.3499999999999979
11
8.7899999999999991
21
-17.5500000000000007
0
LINE
8
BLACK
6
CONTINUOUS
10
9.6399999999999988
20
-15.6499999999999986
11
9.8399999999999999
21
-15.8499999999999996
0
LINE
8
BLACK
6
CONTINUOUS
10
9.8399999999999999
20
-15.6499999999999986
11
9.6399999999999988
21
-15.8499999999999996
0
LINE
8
BLACK
6
CONTINUOUS
10
9.6399999999999988
20
-16.5
11
9.8399999999999999
21
-16.6999999999999993
0
LINE
8
BLACK
6
CONTINUOUS
10
9.8399999999999999
20
-16.5
11
9.6399999999999988
21
-16.6999999999999993
0
LINE
8
BLACK
6
CONTINUOUS
10
9.6399999999999988
20
-17.3499999999999979
11
9.8399999999999999
21
-17.5500000000000007
0
LINE
8
BLACK
6
CONTINUOUS
10
9.8399999999999999
20
-17.3499999999999979
11
9.6399999999999988
21
-17.5500000000000007
0
CIRCLE
8
BLACK
10
2.2999999999999998
20
-11.
40
0.125
0
CIRCLE
8
BLACK
10
2.3999999999999999
20
-18.1999999999999993
40
0.125
0
CIRCLE
8
BLACK
10
2.6999999999999997
20
-12.6999999999999993
40
0.125
0
CIRCLE
8
BLACK
10
2.6999999999999997
20
-18.8999999999999986
40
0.125
0
CIRCLE
8
BLACK
10
3.
20
-13.4499999999999993
40
0.125
0
CIRCLE
8
BLACK
10
3.5
20
-15.
40
0.125
0
CIRCLE
8
BLACK
10
3.5999999999999996
20
-11.4000000000000004
40
0.125
0
CIRCLE
8
BLACK
10
4.0999999999999996
20
-24.5
40
0.125
0
CIRCLE
8
BLACK
10
4.2000000000000002
20
-6.5
40
0.125
0
CIRCLE
8
BLACK
10
4.2000000000000002
20
-25.5
40
0.125
0
CIRCLE
8
BLACK
10
4.7999999999999998
20
-20.3000000000000007
40
0.125
0
CIRCLE
8
BLACK
10
5.
20
-17.8000000000000007
40
0.125
0
CIRCLE
8
BLACK
10
5.
20
-18.5999999999999979
40
0.125
0
CIRCLE
8
BLACK
10
5.
20
-26.
40
0.125
0
CIRCLE
8
BLACK
10
5.7000000000000002
20
-7.
40
0.125
0
CIRCLE
8
BLACK
10
5.7999999999999998
20
-12.
40
0.125
0
CIRCLE
8
BLACK
10
6.0999999999999996
20
-20.3999999999999986
40
0.125
0
CIRCLE
8
BLACK
10
6.2999999999999998
20
-11.4000000000000004
40
0.125
0
CIRCLE
8
BLACK
10
6.2999999999999998
20
-12.6999999999999993
40
0.125
0
CIRCLE
8
BLACK
10
6.5030000000000001
20
-7.1999999999999993
40
0.125
0
CIRCLE
8
BLACK
10
6.7999999999999998
20
-9.5
40
0.125
0
CIRCLE
8
BLACK
10
7.0999999999999996
20
-22.8999999999999986
40
0.125
0
CIRCLE
8
BLACK
10
7.1999999999999993
20
-20.3999999999999986
40
0.125
0
CIRCLE
8
BLACK
10
7.6999999999999993
20
-7.2999999999999998
40
0.125
0
CIRCLE
8
BLACK
10
7.6999999999999993
20
-13.2999999999999989
40
0.125
0
CIRCLE
8
BLACK
10
8.6530000000000005
20
-7.1999999999999993
40
0.125
0
CIRCLE
8
BLACK
10
8.8899999999999988
20
-25.5
40
0.125
0
CIRCLE
8
BLACK
10
9.5199999999999996
20
-20.6999999999999993
40
0.125
0
CIRCLE
8
BLACK
10
9.5999999999999996
20
-13.2999999999999989
40
0.125
0
CIRCLE
8
BLACK
10
9.6529999999999987
20
-7.1999999999999993
40
0.125
0
CIRCLE
8
BLACK
10
10.3499999999999996
20
-13.2999999999999989
40
0.125
0
CIRCLE
8
BLACK
10
10.5030000000000001
20
-7.1999999999999993
40
0.125
0
CIRCLE
8
BLACK
10
10.5999999999999996
20
-19.5
40
0.125
0
CIRCLE
8
BLACK
10
10.7999999999999989
20
-23.2249999999999979
40
0.125
0
CIRCLE
8
BLACK
10
10.9000000000000004
20
-21.
40
0.125
0
CIRCLE
8
BLACK
10
11.302999999999999
20
-7.1999999999999993
40
0.125
0
CIRCLE
8
BLACK
10
11.302999999999999
20
-9.9000000000000004
40
0.125
0
CIRCLE
8
BLACK
10
11.4000000000000004
20
-12.5999999999999996
40
0.125
0
CIRCLE
8
BLACK
10
11.4000000000000004
20
-19.3999999999999986
40
0.125
0
CIRCLE
8
BLACK
10
11.5
20
-11.7999999999999989
40
0.125
0
CIRCLE
8
BLACK
10
11.5999999999999996
20
-14.1499999999999986
40
0.125
0
CIRCLE
8
BLACK
10
11.5999999999999996
20
-14.9499999999999993
40
0.125
0
CIRCLE
8
BLACK
10
11.7999999999999989
20
-24.0999999999999979
40
0.125
0
CIRCLE
8
BLACK
10
12.3999999999999986
20
-7.1999999999999993
40
0.125
0
CIRCLE
8
BLACK
10
12.5999999999999996
20
-9.6999999999999993
40
0.125
0
CIRCLE
8
BLACK
10
13.
20
-6.2504809999999997
40
0.125
0
CIRCLE
8
BLACK
10
13.0499999999999989
20
-14.
40
0.125
0
CIRCLE
8
BLACK
10
13.0999999999999996
20
-11.2999999999999989
40
0.125
0
CIRCLE
8
BLACK
10
13.1999999999999993
20
-10.5
40
0.125
0
CIRCLE
8
BLACK
10
13.1999999999999993
20
-12.0999999999999996
40
0.125
0
CIRCLE
8
BLACK
10
13.5999999999999996
20
-22.5
40
0.125
0
CIRCLE
8
BLACK
10
13.7999999999999989
20
-9.6999999999999993
40
0.125
0
CIRCLE
8
BLACK
10
13.7999999999999989
20
-20.5999999999999979
40
0.125
0
CIRCLE
8
BLACK
10
14.
20
-21.8000000000000007
40
0.125
0
CIRCLE
8
BLACK
10
14.1999999999999993
20
-25.1999999999999993
40
0.125
0
CIRCLE
8
BLACK
10
14.1999999999999993
20
-28.5999999999999979
40
0.125
0
CIRCLE
8
BLACK
10
14.2999999999999989
20
-17.75
40
0.125
0
CIRCLE
8
BLACK
10
14.2999999999999989
20
-26.2999999999999972
40
0.125
0
CIRCLE
8
BLACK
10
14.3999999999999986
20
-14.5999999999999996
40
0.125
0
CIRCLE
8
BLACK
10
14.9499999999999993
20
-15.8499999999999996
40
0.125
0
CIRCLE
8
BLACK
10
15.3999999999999986
20
-13.2999999999999989
40
0.125
0
LINE
8
BLACK
6
CONTINUOUS
10
3.3279999999999998
20
-0.9504739999999999
11
3.3279999999999998
21
-1.5504739999999999
0
LINE
8
BLACK
6
CONTINUOUS
10
3.028
20
-1.2504739999999999
11
3.6279999999999997
21
-1.2504739999999999
0
LINE
8
BLACK
6
CONTINUOUS
10
3.028
20
-0.650474
11
3.028
21
-1.850474
0
ARC
8
BLACK
10
3.3279999999999998
20
-1.850474
40
0.3
50
-180.00000000
51
0.00000000
0
LINE
8
BLACK
6
CONTINUOUS
10
3.6279999999999997
20
-1.850474
11
3.6279999999999997
21
-0.650474
0
ARC
8
BLACK
10
3.3279999999999998
20
-0.650474
40
0.3
50
0.00000000
51
180.00000000
0
LINE
8
BLACK
6
CONTINUOUS
10
3.3279999999999998
20
-4.9504739999999998
11
3.3279999999999998
21
-5.5504739999999995
0
LINE
8
BLACK
6
CONTINUOUS
10
3.028
20
-5.2504739999999996
11
3.6279999999999997
21
-5.2504739999999996
0
LINE
8
BLACK
6
CONTINUOUS
10
3.028
20
-4.8504740000000002
11
3.028
21
-5.650474
0
ARC
8
BLACK
10
3.3279999999999998
20
-5.650474
40
0.3
50
-180.00000000
51
0.00000000
0
LINE
8
BLACK
6
CONTINUOUS
10
3.6279999999999997
20
-5.650474
11
3.6279999999999997
21
-4.8504740000000002
0
ARC
8
BLACK
10
3.3279999999999998
20
-4.8504740000000002
40
0.3
50
0.00000000
51
180.00000000
0
LINE
8
BLACK
6
CONTINUOUS
10
14.4779999999999998
20
-0.9504739999999999
11
14.4779999999999998
21
-1.5504739999999999
0
LINE
8
BLACK
6
CONTINUOUS
10
14.177999999999999
20
-1.2504739999999999
11
14.7779999999999987
21
-1.2504739999999999
0
LINE
8
BLACK
6
CONTINUOUS
10
14.177999999999999
20
-0.650474
11
14.177999999999999
21
-1.850474
0
ARC
8
BLACK
10
14.4779999999999998
20
-1.850474
40
0.3
50
-180.00000000
51
0.00000000
0
LINE
8
BLACK
6
CONTINUOUS
10
14.7779999999999987
20
-1.850474
11
14.7779999999999987
21
-0.650474
0
ARC
8
BLACK
10
14.4779999999999998
20
-0.650474
40
0.3
50
0.00000000
51
180.00000000
0
LINE
8
BLACK
6
CONTINUOUS
10
14.4779999999999998
20
-4.9504739999999998
11
14.4779999999999998
21
-5.5504739999999995
0
LINE
8
BLACK
6
CONTINUOUS
10
14.177999999999999
20
-5.2504739999999996
11
14.7779999999999987
21
-5.2504739999999996
0
LINE
8
BLACK
6
CONTINUOUS
10
14.177999999999999
20
-4.8504740000000002
11
14.177999999999999
21
-5.650474
0
ARC
8
BLACK
10
14.4779999999999998
20
-5.650474
40
0.3
50
-180.00000000
51
0.00000000
0
LINE
8
BLACK
6
CONTINUOUS
10
14.7779999999999987
20
-5.650474
11
14.7779999999999987
21
-4.8504740000000002
0
ARC
8
BLACK
10
14.4779999999999998
20
-4.8504740000000002
40
0.3
50
0.00000000
51
180.00000000
0
LINE
8
BLACK
6
CONTINUOUS
10
0.223557
20
-2.499857
11
0.223557
21
-1.792743
0
LINE
8
BLACK
6
CONTINUOUS
10
0.223557
20
-1.792743
11
-0.483557
21
-1.792743
0
LINE
8
BLACK
6
CONTINUOUS
10
-0.483557
20
-1.792743
11
-0.483557
21
-2.499857
0
LINE
8
BLACK
6
CONTINUOUS
10
-0.483557
20
-2.499857
11
0.223557
21
-2.499857
0
LINE
8
BLACK
6
CONTINUOUS
10
0.223557
20
-5.0398569999999996
11
0.223557
21
-4.3327429999999998
0
LINE
8
BLACK
6
CONTINUOUS
10
0.223557
20
-4.3327429999999998
11
-0.483557
21
-4.3327429999999998
0
LINE
8
BLACK
6
CONTINUOUS
10
-0.483557
20
-4.3327429999999998
11
-0.483557
21
-5.0398569999999996
0
LINE
8
BLACK
6
CONTINUOUS
10
-0.483557
20
-5.0398569999999996
11
0.223557
21
-5.0398569999999996
0
LINE
8
BLACK
6
CONTINUOUS
10
0.223557
20
-7.5798569999999996
11
0.223557
21
-6.8727429999999998
0
LINE
8
BLACK
6
CONTINUOUS
10
0.223557
20
-6.8727429999999998
11
-0.483557
21
-6.8727429999999998
0
LINE
8
BLACK
6
CONTINUOUS
10
-0.483557
20
-6.8727429999999998
11
-0.483557
21
-7.5798569999999996
0
LINE
8
BLACK
6
CONTINUOUS
10
-0.483557
20
-7.5798569999999996
11
0.223557
21
-7.5798569999999996
0
LINE
8
BLACK
6
CONTINUOUS
10
0.223557
20
-10.1198569999999997
11
0.223557
21
-9.412742999999999
0
LINE
8
BLACK
6
CONTINUOUS
10
0.223557
20
-9.412742999999999
11
-0.483557
21
-9.412742999999999
0
LINE
8
BLACK
6
CONTINUOUS
10
-0.483557
20
-9.412742999999999
11
-0.483557
21
-10.1198569999999997
0
LINE
8
BLACK
6
CONTINUOUS
10
-0.483557
20
-10.1198569999999997
11
0.223557
21
-10.1198569999999997
0
LINE
8
BLACK
6
CONTINUOUS
10
0.223557
20
-12.6598569999999988
11
0.223557
21
-11.9527429999999999
0
LINE
8
BLACK
6
CONTINUOUS
10
0.223557
20
-11.9527429999999999
11
-0.483557
21
-11.9527429999999999
0
LINE
8
BLACK
6
CONTINUOUS
10
-0.483557
20
-11.9527429999999999
11
-0.483557
21
-12.6598569999999988
0
LINE
8
BLACK
6
CONTINUOUS
10
-0.483557
20
-12.6598569999999988
11
0.223557
21
-12.6598569999999988
0
LINE
8
BLACK
6
CONTINUOUS
10
0.223557
20
-15.1998569999999997
11
0.223557
21
-14.492742999999999
0
LINE
8
BLACK
6
CONTINUOUS
10
0.223557
20
-14.492742999999999
11
-0.483557
21
-14.492742999999999
0
LINE
8
BLACK
6
CONTINUOUS
10
-0.483557
20
-14.492742999999999
11
-0.483557
21
-15.1998569999999997
0
LINE
8
BLACK
6
CONTINUOUS
10
-0.483557
20
-15.1998569999999997
11
0.223557
21
-15.1998569999999997
0
LINE
8
BLACK
6
CONTINUOUS
10
0.223557
20
-17.7398570000000007
11
0.223557
21
-17.032743
0
LINE
8
BLACK
6
CONTINUOUS
10
0.223557
20
-17.032743
11
-0.483557
21
-17.032743
0
LINE
8
BLACK
6
CONTINUOUS
10
-0.483557
20
-17.032743
11
-0.483557
21
-17.7398570000000007
0
LINE
8
BLACK
6
CONTINUOUS
10
-0.483557
20
-17.7398570000000007
11
0.223557
21
-17.7398570000000007
0
LINE
8
BLACK
6
CONTINUOUS
10
0.223557
20
-20.2798569999999998
11
0.223557
21
-19.5727429999999991
0
LINE
8
BLACK
6
CONTINUOUS
10
0.223557
20
-19.5727429999999991
11
-0.483557
21
-19.5727429999999991
0
LINE
8
BLACK
6
CONTINUOUS
10
-0.483557
20
-19.5727429999999991
11
-0.483557
21
-20.2798569999999998
0
LINE
8
BLACK
6
CONTINUOUS
10
-0.483557
20
-20.2798569999999998
11
0.223557
21
-20.2798569999999998
0
LINE
8
BLACK
6
CONTINUOUS
10
0.223557
20
-22.8198569999999989
11
0.223557
21
-22.1127429999999983
0
LINE
8
BLACK
6
CONTINUOUS
10
0.223557
20
-22.1127429999999983
11
-0.483557
21
-22.1127429999999983
0
LINE
8
BLACK
6
CONTINUOUS
10
-0.483557
20
-22.1127429999999983
11
-0.483557
21
-22.8198569999999989
0
LINE
8
BLACK
6
CONTINUOUS
10
-0.483557
20
-22.8198569999999989
11
0.223557
21
-22.8198569999999989
0
LINE
8
BLACK
6
CONTINUOUS
10
0.223557
20
-25.3598569999999981
11
0.223557
21
-24.6527429999999974
0
LINE
8
BLACK
6
CONTINUOUS
10
0.223557
20
-24.6527429999999974
11
-0.483557
21
-24.6527429999999974
0
LINE
8
BLACK
6
CONTINUOUS
10
-0.483557
20
-24.6527429999999974
11
-0.483557
21
-25.3598569999999981
0
LINE
8
BLACK
6
CONTINUOUS
10
-0.483557
20
-25.3598569999999981
11
0.223557
21
-25.3598569999999981
0
LINE
8
BLACK
6
CONTINUOUS
10
0.223557
20
-27.8998569999999972
11
0.223557
21
-27.1927430000000001
0
LINE
8
BLACK
6
CONTINUOUS
10
0.223557
20
-27.1927430000000001
11
-0.483557
21
-27.1927430000000001
0
LINE
8
BLACK
6
CONTINUOUS
10
-0.483557
20
-27.1927430000000001
11
-0.483557
21
-27.8998569999999972
0
LINE
8
BLACK
6
CONTINUOUS
10
-0.483557
20
-27.8998569999999972
11
0.223557
21
-27.8998569999999972
0
LINE
8
BLACK
6
CONTINUOUS
10
0.223557
20
-30.4398569999999999
11
0.223557
21
-29.7327429999999993
0
LINE
8
BLACK
6
CONTINUOUS
10
0.223557
20
-29.7327429999999993
11
-0.483557
21
-29.7327429999999993
0
LINE
8
BLACK
6
CONTINUOUS
10
-0.483557
20
-29.7327429999999993
11
-0.483557
21
-30.4398569999999999
0
LINE
8
BLACK
6
CONTINUOUS
10
-0.483557
20
-30.4398569999999999
11
0.223557
21
-30.4398569999999999
0
LINE
8
BLACK
6
CONTINUOUS
10
1.6235569999999999
20
-2.499857
11
1.6235569999999999
21
-1.792743
0
LINE
8
BLACK
6
CONTINUOUS
10
1.6235569999999999
20
-1.792743
11
0.916443
21
-1.792743
0
LINE
8
BLACK
6
CONTINUOUS
10
0.916443
20
-1.792743
11
0.916443
21
-2.499857
0
LINE
8
BLACK
6
CONTINUOUS
10
0.916443
20
-2.499857
11
1.6235569999999999
21
-2.499857
0
LINE
8
BLACK
6
CONTINUOUS
10
1.6235569999999999
20
-5.0398569999999996
11
1.6235569999999999
21
-4.3327429999999998
0
LINE
8
BLACK
6
CONTINUOUS
10
1.6235569999999999
20
-4.3327429999999998
11
0.916443
21
-4.3327429999999998
0
LINE
8
BLACK
6
CONTINUOUS
10
0.916443
20
-4.3327429999999998
11
0.916443
21
-5.0398569999999996
0
LINE
8
BLACK
6
CONTINUOUS
10
0.916443
20
-5.0398569999999996
11
1.6235569999999999
21
-5.0398569999999996
0
LINE
8
BLACK
6
CONTINUOUS
10
1.6235569999999999
20
-7.5798569999999996
11
1.6235569999999999
21
-6.8727429999999998
0
LINE
8
BLACK
6
CONTINUOUS
10
1.6235569999999999
20
-6.8727429999999998
11
0.916443
21
-6.8727429999999998
0
LINE
8
BLACK
6
CONTINUOUS
10
0.916443
20
-6.8727429999999998
11
0.916443
21
-7.5798569999999996
0
LINE
8
BLACK
6
CONTINUOUS
10
0.916443
20
-7.5798569999999996
11
1.6235569999999999
21
-7.5798569999999996
0
LINE
8
BLACK
6
CONTINUOUS
10
1.6235569999999999
20
-10.1198569999999997
11
1.6235569999999999
21
-9.412742999999999
0
LINE
8
BLACK
6
CONTINUOUS
10
1.6235569999999999
20
-9.412742999999999
11
0.916443
21
-9.412742999999999
0
LINE
8
BLACK
6
CONTINUOUS
10
0.916443
20
-9.412742999999999
11
0.916443
21
-10.1198569999999997
0
LINE
8
BLACK
6
CONTINUOUS
10
0.916443
20
-10.1198569999999997
11
1.6235569999999999
21
-10.1198569999999997
0
LINE
8
BLACK
6
CONTINUOUS
10
1.6235569999999999
20
-12.6598569999999988
11
1.6235569999999999
21
-11.9527429999999999
0
LINE
8
BLACK
6
CONTINUOUS
10
1.6235569999999999
20
-11.9527429999999999
11
0.916443
21
-11.9527429999999999
0
LINE
8
BLACK
6
CONTINUOUS
10
0.916443
20
-11.9527429999999999
11
0.916443
21
-12.6598569999999988
0
LINE
8
BLACK
6
CONTINUOUS
10
0.916443
20
-12.6598569999999988
11
1.6235569999999999
21
-12.6598569999999988
0
LINE
8
BLACK
6
CONTINUOUS
10
1.6235569999999999
20
-15.1998569999999997
11
1.6235569999999999
21
-14.492742999999999
0
LINE
8
BLACK
6
CONTINUOUS
10
1.6235569999999999
20
-14.492742999999999
11
0.916443
21
-14.492742999999999
0
LINE
8
BLACK
6
CONTINUOUS
10
0.916443
20
-14.492742999999999
11
0.916443
21
-15.1998569999999997
0
LINE
8
BLACK
6
CONTINUOUS
10
0.916443
20
-15.1998569999999997
11
1.6235569999999999
21
-15.1998569999999997
0
LINE
8
BLACK
6
CONTINUOUS
10
1.6235569999999999
20
-17.7398570000000007
11
1.6235569999999999
21
-17.032743
0
LINE
8
BLACK
6
CONTINUOUS
10
1.6235569999999999
20
-17.032743
11
0.916443
21
-17.032743
0
LINE
8
BLACK
6
CONTINUOUS
10
0.916443
20
-17.032743
11
0.916443
21
-17.7398570000000007
0
LINE
8
BLACK
6
CONTINUOUS
10
0.916443
20
-17.7398570000000007
11
1.6235569999999999
21
-17.7398570000000007
0
LINE
8
BLACK
6
CONTINUOUS
10
1.6235569999999999
20
-20.2798569999999998
11
1.6235569999999999
21
-19.5727429999999991
0
LINE
8
BLACK
6
CONTINUOUS
10
1.6235569999999999
20
-19.5727429999999991
11
0.916443
21
-19.5727429999999991
0
LINE
8
BLACK
6
CONTINUOUS
10
0.916443
20
-19.5727429999999991
11
0.916443
21
-20.2798569999999998
0
LINE
8
BLACK
6
CONTINUOUS
10
0.916443
20
-20.2798569999999998
11
1.6235569999999999
21
-20.2798569999999998
0
LINE
8
BLACK
6
CONTINUOUS
10
1.6235569999999999
20
-22.8198569999999989
11
1.6235569999999999
21
-22.1127429999999983
0
LINE
8
BLACK
6
CONTINUOUS
10
1.6235569999999999
20
-22.1127429999999983
11
0.916443
21
-22.1127429999999983
0
LINE
8
BLACK
6
CONTINUOUS
10
0.916443
20
-22.1127429999999983
11
0.916443
21
-22.8198569999999989
0
LINE
8
BLACK
6
CONTINUOUS
10
0.916443
20
-22.8198569999999989
11
1.6235569999999999
21
-22.8198569999999989
0
LINE
8
BLACK
6
CONTINUOUS
10
1.6235569999999999
20
-25.3598569999999981
11
1.6235569999999999
21
-24.6527429999999974
0
LINE
8
BLACK
6
CONTINUOUS
10
1.6235569999999999
20
-24.6527429999999974
11
0.916443
21
-24.6527429999999974
0
LINE
8
BLACK
6
CONTINUOUS
10
0.916443
20
-24.6527429999999974
11
0.916443
21
-25.3598569999999981
0
LINE
8
BLACK
6
CONTINUOUS
10
0.916443
20
-25.3598569999999981
11
1.6235569999999999
21
-25.3598569999999981
0
LINE
8
BLACK
6
CONTINUOUS
10
1.6235569999999999
20
-27.8998569999999972
11
1.6235569999999999
21
-27.1927430000000001
0
LINE
8
BLACK
6
CONTINUOUS
10
1.6235569999999999
20
-27.1927430000000001
11
0.916443
21
-27.1927430000000001
0
LINE
8
BLACK
6
CONTINUOUS
10
0.916443
20
-27.1927430000000001
11
0.916443
21
-27.8998569999999972
0
LINE
8
BLACK
6
CONTINUOUS
10
0.916443
20
-27.8998569999999972
11
1.6235569999999999
21
-27.8998569999999972
0
LINE
8
BLACK
6
CONTINUOUS
10
1.6235569999999999
20
-30.4398569999999999
11
1.6235569999999999
21
-29.7327429999999993
0
LINE
8
BLACK
6
CONTINUOUS
10
1.6235569999999999
20
-29.7327429999999993
11
0.916443
21
-29.7327429999999993
0
LINE
8
BLACK
6
CONTINUOUS
10
0.916443
20
-29.7327429999999993
11
0.916443
21
-30.4398569999999999
0
LINE
8
BLACK
6
CONTINUOUS
10
0.916443
20
-30.4398569999999999
11
1.6235569999999999
21
-30.4398569999999999
0
LINE
8
BLACK
6
CONTINUOUS
10
4.1335569999999997
20
-32.2160569999999993
11
4.1335569999999997
21
-31.5089429999999986
0
LINE
8
BLACK
6
CONTINUOUS
10
4.1335569999999997
20
-31.5089429999999986
11
3.4264429999999999
21
-31.5089429999999986
0
LINE
8
BLACK
6
CONTINUOUS
10
3.4264429999999999
20
-31.5089429999999986
11
3.4264429999999999
21
-32.2160569999999993
0
LINE
8
BLACK
6
CONTINUOUS
10
3.4264429999999999
20
-32.2160569999999993
11
4.1335569999999997
21
-32.2160569999999993
0
LINE
8
BLACK
6
CONTINUOUS
10
4.163557
20
-30.516057
11
4.163557
21
-29.8089429999999993
0
LINE
8
BLACK
6
CONTINUOUS
10
4.163557
20
-29.8089429999999993
11
3.4564429999999997
21
-29.8089429999999993
0
LINE
8
BLACK
6
CONTINUOUS
10
3.4564429999999997
20
-29.8089429999999993
11
3.4564429999999997
21
-30.516057
0
LINE
8
BLACK
6
CONTINUOUS
10
3.4564429999999997
20
-30.516057
11
4.163557
21
-30.516057
0
LINE
8
BLACK
6
CONTINUOUS
10
6.6735569999999997
20
-32.2160569999999993
11
6.6735569999999997
21
-31.5089429999999986
0
LINE
8
BLACK
6
CONTINUOUS
10
6.6735569999999997
20
-31.5089429999999986
11
5.9664429999999999
21
-31.5089429999999986
0
LINE
8
BLACK
6
CONTINUOUS
10
5.9664429999999999
20
-31.5089429999999986
11
5.9664429999999999
21
-32.2160569999999993
0
LINE
8
BLACK
6
CONTINUOUS
10
5.9664429999999999
20
-32.2160569999999993
11
6.6735569999999997
21
-32.2160569999999993
0
LINE
8
BLACK
6
CONTINUOUS
10
6.703557
20
-30.516057
11
6.703557
21
-29.8089429999999993
0
LINE
8
BLACK
6
CONTINUOUS
10
6.703557
20
-29.8089429999999993
11
5.9964429999999993
21
-29.8089429999999993
0
LINE
8
BLACK
6
CONTINUOUS
10
5.9964429999999993
20
-29.8089429999999993
11
5.9964429999999993
21
-30.516057
0
LINE
8
BLACK
6
CONTINUOUS
10
5.9964429999999993
20
-30.516057
11
6.703557
21
-30.516057
0
LINE
8
BLACK
6
CONTINUOUS
10
9.2135569999999998
20
-32.2160569999999993
11
9.2135569999999998
21
-31.5089429999999986
0
LINE
8
BLACK
6
CONTINUOUS
10
9.2135569999999998
20
-31.5089429999999986
11
8.5064429999999991
21
-31.5089429999999986
0
LINE
8
BLACK
6
CONTINUOUS
10
8.5064429999999991
20
-31.5089429999999986
11
8.5064429999999991
21
-32.2160569999999993
0
LINE
8
BLACK
6
CONTINUOUS
10
8.5064429999999991
20
-32.2160569999999993
11
9.2135569999999998
21
-32.2160569999999993
0
LINE
8
BLACK
6
CONTINUOUS
10
9.2435569999999991
20
-30.516057
11
9.2435569999999991
21
-29.8089429999999993
0
LINE
8
BLACK
6
CONTINUOUS
10
9.2435569999999991
20
-29.8089429999999993
11
8.5364430000000002
21
-29.8089429999999993
0
LINE
8
BLACK
6
CONTINUOUS
10
8.5364430000000002
20
-29.8089429999999993
11
8.5364430000000002
21
-30.516057
0
LINE
8
BLACK
6
CONTINUOUS
10
8.5364430000000002
20
-30.516057
11
9.2435569999999991
21
-30.516057
0
LINE
8
BLACK
6
CONTINUOUS
10
11.7535569999999989
20
-32.2160569999999993
11
11.7535569999999989
21
-31.5089429999999986
0
LINE
8
BLACK
6
CONTINUOUS
10
11.7535569999999989
20
-31.5089429999999986
11
11.046443
21
-31.5089429999999986
0
LINE
8
BLACK
6
CONTINUOUS
10
11.046443
20
-31.5089429999999986
11
11.046443
21
-32.2160569999999993
0
LINE
8
BLACK
6
CONTINUOUS
10
11.046443
20
-32.2160569999999993
11
11.7535569999999989
21
-32.2160569999999993
0
LINE
8
BLACK
6
CONTINUOUS
10
11.7835570000000001
20
-30.516057
11
11.7835570000000001
21
-29.8089429999999993
0
LINE
8
BLACK
6
CONTINUOUS
10
11.7835570000000001
20
-29.8089429999999993
11
11.0764429999999994
21
-29.8089429999999993
0
LINE
8
BLACK
6
CONTINUOUS
10
11.0764429999999994
20
-29.8089429999999993
11
11.0764429999999994
21
-30.516057
0
LINE
8
BLACK
6
CONTINUOUS
10
11.0764429999999994
20
-30.516057
11
11.7835570000000001
21
-30.516057
0
LINE
8
BLACK
6
CONTINUOUS
10
14.2935569999999998
20
-32.2160569999999993
11
14.2935569999999998
21
-31.5089429999999986
0
LINE
8
BLACK
6
CONTINUOUS
10
14.2935569999999998
20
-31.5089429999999986
11
13.5864429999999992
21
-31.5089429999999986
0
LINE
8
BLACK
6
CONTINUOUS
10
13.5864429999999992
20
-31.5089429999999986
11
13.5864429999999992
21
-32.2160569999999993
0
LINE
8
BLACK
6
CONTINUOUS
10
13.5864429999999992
20
-32.2160569999999993
11
14.2935569999999998
21
-32.2160569999999993
0
LINE
8
BLACK
6
CONTINUOUS
10
14.3235569999999992
20
-30.516057
11
14.3235569999999992
21
-29.8089429999999993
0
LINE
8
BLACK
6
CONTINUOUS
10
14.3235569999999992
20
-29.8089429999999993
11
13.6164429999999985
21
-29.8089429999999993
0
LINE
8
BLACK
6
CONTINUOUS
10
13.6164429999999985
20
-29.8089429999999993
11
13.6164429999999985
21
-30.516057
0
LINE
8
BLACK
6
CONTINUOUS
10
13.6164429999999985
20
-30.516057
11
14.3235569999999992
21
-30.516057
0
LINE
8
BLACK
6
CONTINUOUS
10
16.8635570000000001
20
-2.499857
11
16.8635570000000001
21
-1.792743
0
LINE
8
BLACK
6
CONTINUOUS
10
16.8635570000000001
20
-1.792743
11
16.1564429999999994
21
-1.792743
0
LINE
8
BLACK
6
CONTINUOUS
10
16.1564429999999994
20
-1.792743
11
16.1564429999999994
21
-2.499857
0
LINE
8
BLACK
6
CONTINUOUS
10
16.1564429999999994
20
-2.499857
11
16.8635570000000001
21
-2.499857
0
LINE
8
BLACK
6
CONTINUOUS
10
16.8635570000000001
20
-5.0398569999999996
11
16.8635570000000001
21
-4.3327429999999998
0
LINE
8
BLACK
6
CONTINUOUS
10
16.8635570000000001
20
-4.3327429999999998
11
16.1564429999999994
21
-4.3327429999999998
0
LINE
8
BLACK
6
CONTINUOUS
10
16.1564429999999994
20
-4.3327429999999998
11
16.1564429999999994
21
-5.0398569999999996
0
LINE
8
BLACK
6
CONTINUOUS
10
16.1564429999999994
20
-5.0398569999999996
11
16.8635570000000001
21
-5.0398569999999996
0
LINE
8
BLACK
6
CONTINUOUS
10
16.8635570000000001
20
-7.5798569999999996
11
16.8635570000000001
21
-6.8727429999999998
0
LINE
8
BLACK
6
CONTINUOUS
10
16.8635570000000001
20
-6.8727429999999998
11
16.1564429999999994
21
-6.8727429999999998
0
LINE
8
BLACK
6
CONTINUOUS
10
16.1564429999999994
20
-6.8727429999999998
11
16.1564429999999994
21
-7.5798569999999996
0
LINE
8
BLACK
6
CONTINUOUS
10
16.1564429999999994
20
-7.5798569999999996
11
16.8635570000000001
21
-7.5798569999999996
0
LINE
8
BLACK
6
CONTINUOUS
10
16.8635570000000001
20
-10.1198569999999997
11
16.8635570000000001
21
-9.412742999999999
0
LINE
8
BLACK
6
CONTINUOUS
10
16.8635570000000001
20
-9.412742999999999
11
16.1564429999999994
21
-9.412742999999999
0
LINE
8
BLACK
6
CONTINUOUS
10
16.1564429999999994
20
-9.412742999999999
11
16.1564429999999994
21
-10.1198569999999997
0
LINE
8
BLACK
6
CONTINUOUS
10
16.1564429999999994
20
-10.1198569999999997
11
16.8635570000000001
21
-10.1198569999999997
0
LINE
8
BLACK
6
CONTINUOUS
10
16.8635570000000001
20
-12.6598569999999988
11
16.8635570000000001
21
-11.9527429999999999
0
LINE
8
BLACK
6
CONTINUOUS
10
16.8635570000000001
20
-11.9527429999999999
11
16.1564429999999994
21
-11.9527429999999999
0
LINE
8
BLACK
6
CONTINUOUS
10
16.1564429999999994
20
-11.9527429999999999
11
16.1564429999999994
21
-12.6598569999999988
0
LINE
8
BLACK
6
CONTINUOUS
10
16.1564429999999994
20
-12.6598569999999988
11
16.8635570000000001
21
-12.6598569999999988
0
LINE
8
BLACK
6
CONTINUOUS
10
16.8635570000000001
20
-15.1998569999999997
11
16.8635570000000001
21
-14.492742999999999
0
LINE
8
BLACK
6
CONTINUOUS
10
16.8635570000000001
20
-14.492742999999999
11
16.1564429999999994
21
-14.492742999999999
0
LINE
8
BLACK
6
CONTINUOUS
10
16.1564429999999994
20
-14.492742999999999
11
16.1564429999999994
21
-15.1998569999999997
0
LINE
8
BLACK
6
CONTINUOUS
10
16.1564429999999994
20
-15.1998569999999997
11
16.8635570000000001
21
-15.1998569999999997
0
LINE
8
BLACK
6
CONTINUOUS
10
16.8635570000000001
20
-17.7398570000000007
11
16.8635570000000001
21
-17.032743
0
LINE
8
BLACK
6
CONTINUOUS
10
16.8635570000000001
20
-17.032743
11
16.1564429999999994
21
-17.032743
0
LINE
8
BLACK
6
CONTINUOUS
10
16.1564429999999994
20
-17.032743
11
16.1564429999999994
21
-17.7398570000000007
0
LINE
8
BLACK
6
CONTINUOUS
10
16.1564429999999994
20
-17.7398570000000007
11
16.8635570000000001
21
-17.7398570000000007
0
LINE
8
BLACK
6
CONTINUOUS
10
16.8635570000000001
20
-20.2798569999999998
11
16.8635570000000001
21
-19.5727429999999991
0
LINE
8
BLACK
6
CONTINUOUS
10
16.8635570000000001
20
-19.5727429999999991
11
16.1564429999999994
21
-19.5727429999999991
0
LINE
8
BLACK
6
CONTINUOUS
10
16.1564429999999994
20
-19.5727429999999991
11
16.1564429999999994
21
-20.2798569999999998
0
LINE
8
BLACK
6
CONTINUOUS
10
16.1564429999999994
20
-20.2798569999999998
11
16.8635570000000001
21
-20.2798569999999998
0
LINE
8
BLACK
6
CONTINUOUS
10
16.8635570000000001
20
-22.8198569999999989
11
16.8635570000000001
21
-22.1127429999999983
0
LINE
8
BLACK
6
CONTINUOUS
10
16.8635570000000001
20
-22.1127429999999983
11
16.1564429999999994
21
-22.1127429999999983
0
LINE
8
BLACK
6
CONTINUOUS
10
16.1564429999999994
20
-22.1127429999999983
11
16.1564429999999994
21
-22.8198569999999989
0
LINE
8
BLACK
6
CONTINUOUS
10
16.1564429999999994
20
-22.8198569999999989
11
16.8635570000000001
21
-22.8198569999999989
0
LINE
8
BLACK
6
CONTINUOUS
10
16.8635570000000001
20
-25.3598569999999981
11
16.8635570000000001
21
-24.6527429999999974
0
LINE
8
BLACK
6
CONTINUOUS
10
16.8635570000000001
20
-24.6527429999999974
11
16.1564429999999994
21
-24.6527429999999974
0
LINE
8
BLACK
6
CONTINUOUS
10
16.1564429999999994
20
-24.6527429999999974
11
16.1564429999999994
21
-25.3598569999999981
0
LINE
8
BLACK
6
CONTINUOUS
10
16.1564429999999994
20
-25.3598569999999981
11
16.8635570000000001
21
-25.3598569999999981
0
LINE
8
BLACK
6
CONTINUOUS
10
16.8635570000000001
20
-27.8998569999999972
11
16.8635570000000001
21
-27.1927430000000001
0
LINE
8
BLACK
6
CONTINUOUS
10
16.8635570000000001
20
-27.1927430000000001
11
16.1564429999999994
21
-27.1927430000000001
0
LINE
8
BLACK
6
CONTINUOUS
10
16.1564429999999994
20
-27.1927430000000001
11
16.1564429999999994
21
-27.8998569999999972
0
LINE
8
BLACK
6
CONTINUOUS
10
16.1564429999999994
20
-27.8998569999999972
11
16.8635570000000001
21
-27.8998569999999972
0
LINE
8
BLACK
6
CONTINUOUS
10
16.8635570000000001
20
-30.4398569999999999
11
16.8635570000000001
21
-29.7327429999999993
0
LINE
8
BLACK
6
CONTINUOUS
10
16.8635570000000001
20
-29.7327429999999993
11
16.1564429999999994
21
-29.7327429999999993
0
LINE
8
BLACK
6
CONTINUOUS
10
16.1564429999999994
20
-29.7327429999999993
11
16.1564429999999994
21
-30.4398569999999999
0
LINE
8
BLACK
6
CONTINUOUS
10
16.1564429999999994
20
-30.4398569999999999
11
16.8635570000000001
21
-30.4398569999999999
0
LINE
8
BLACK
6
CONTINUOUS
10
18.2635569999999987
20
-2.499857
11
18.2635569999999987
21
-1.792743
0
LINE
8
BLACK
6
CONTINUOUS
10
18.2635569999999987
20
-1.792743
11
17.556442999999998
21
-1.792743
0
LINE
8
BLACK
6
CONTINUOUS
10
17.556442999999998
20
-1.792743
11
17.556442999999998
21
-2.499857
0
LINE
8
BLACK
6
CONTINUOUS
10
17.556442999999998
20
-2.499857
11
18.2635569999999987
21
-2.499857
0
LINE
8
BLACK
6
CONTINUOUS
10
18.2635569999999987
20
-5.0398569999999996
11
18.2635569999999987
21
-4.3327429999999998
0
LINE
8
BLACK
6
CONTINUOUS
10
18.2635569999999987
20
-4.3327429999999998
11
17.556442999999998
21
-4.3327429999999998
0
LINE
8
BLACK
6
CONTINUOUS
10
17.556442999999998
20
-4.3327429999999998
11
17.556442999999998
21
-5.0398569999999996
0
LINE
8
BLACK
6
CONTINUOUS
10
17.556442999999998
20
-5.0398569999999996
11
18.2635569999999987
21
-5.0398569999999996
0
LINE
8
BLACK
6
CONTINUOUS
10
18.2635569999999987
20
-7.5798569999999996
11
18.2635569999999987
21
-6.8727429999999998
0
LINE
8
BLACK
6
CONTINUOUS
10
18.2635569999999987
20
-6.8727429999999998
11
17.556442999999998
21
-6.8727429999999998
0
LINE
8
BLACK
6
CONTINUOUS
10
17.556442999999998
20
-6.8727429999999998
11
17.556442999999998
21
-7.5798569999999996
0
LINE
8
BLACK
6
CONTINUOUS
10
17.556442999999998
20
-7.5798569999999996
11
18.2635569999999987
21
-7.5798569999999996
0
LINE
8
BLACK
6
CONTINUOUS
10
18.2635569999999987
20
-10.1198569999999997
11
18.2635569999999987
21
-9.412742999999999
0
LINE
8
BLACK
6
CONTINUOUS
10
18.2635569999999987
20
-9.412742999999999
11
17.556442999999998
21
-9.412742999999999
0
LINE
8
BLACK
6
CONTINUOUS
10
17.556442999999998
20
-9.412742999999999
11
17.556442999999998
21
-10.1198569999999997
0
LINE
8
BLACK
6
CONTINUOUS
10
17.556442999999998
20
-10.1198569999999997
11
18.2635569999999987
21
-10.1198569999999997
0
LINE
8
BLACK
6
CONTINUOUS
10
18.2635569999999987
20
-12.6598569999999988
11
18.2635569999999987
21
-11.9527429999999999
0
LINE
8
BLACK
6
CONTINUOUS
10
18.2635569999999987
20
-11.9527429999999999
11
17.556442999999998
21
-11.9527429999999999
0
LINE
8
BLACK
6
CONTINUOUS
10
17.556442999999998
20
-11.9527429999999999
11
17.556442999999998
21
-12.6598569999999988
0
LINE
8
BLACK
6
CONTINUOUS
10
17.556442999999998
20
-12.6598569999999988
11
18.2635569999999987
21
-12.6598569999999988
0
LINE
8
BLACK
6
CONTINUOUS
10
18.2635569999999987
20
-15.1998569999999997
11
18.2635569999999987
21
-14.492742999999999
0
LINE
8
BLACK
6
CONTINUOUS
10
18.2635569999999987
20
-14.492742999999999
11
17.556442999999998
21
-14.492742999999999
0
LINE
8
BLACK
6
CONTINUOUS
10
17.556442999999998
20
-14.492742999999999
11
17.556442999999998
21
-15.1998569999999997
0
LINE
8
BLACK
6
CONTINUOUS
10
17.556442999999998
20
-15.1998569999999997
11
18.2635569999999987
21
-15.1998569999999997
0
LINE
8
BLACK
6
CONTINUOUS
10
18.2635569999999987
20
-17.7398570000000007
11
18.2635569999999987
21
-17.032743
0
LINE
8
BLACK
6
CONTINUOUS
10
18.2635569999999987
20
-17.032743
11
17.556442999999998
21
-17.032743
0
LINE
8
BLACK
6
CONTINUOUS
10
17.556442999999998
20
-17.032743
11
17.556442999999998
21
-17.7398570000000007
0
LINE
8
BLACK
6
CONTINUOUS
10
17.556442999999998
20
-17.7398570000000007
11
18.2635569999999987
21
-17.7398570000000007
0
LINE
8
BLACK
6
CONTINUOUS
10
18.2635569999999987
20
-20.2798569999999998
11
18.2635569999999987
21
-19.5727429999999991
0
LINE
8
BLACK
6
CONTINUOUS
10
18.2635569999999987
20
-19.5727429999999991
11
17.556442999999998
21
-19.5727429999999991
0
LINE
8
BLACK
6
CONTINUOUS
10
17.556442999999998
20
-19.5727429999999991
11
17.556442999999998
21
-20.2798569999999998
0
LINE
8
BLACK
6
CONTINUOUS
10
17.556442999999998
20
-20.2798569999999998
11
18.2635569999999987
21
-20.2798569999999998
0
LINE
8
BLACK
6
CONTINUOUS
10
18.2635569999999987
20
-22.8198569999999989
11
18.2635569999999987
21
-22.1127429999999983
0
LINE
8
BLACK
6
CONTINUOUS
10
18.2635569999999987
20
-22.1127429999999983
11
17.556442999999998
21
-22.1127429999999983
0
LINE
8
BLACK
6
CONTINUOUS
10
17.556442999999998
20
-22.1127429999999983
11
17.556442999999998
21
-22.8198569999999989
0
LINE
8
BLACK
6
CONTINUOUS
10
17.556442999999998
20
-22.8198569999999989
11
18.2635569999999987
21
-22.8198569999999989
0
LINE
8
BLACK
6
CONTINUOUS
10
18.2635569999999987
20
-25.3598569999999981
11
18.2635569999999987
21
-24.6527429999999974
0
LINE
8
BLACK
6
CONTINUOUS
10
18.2635569999999987
20
-24.6527429999999974
11
17.556442999999998
21
-24.6527429999999974
0
LINE
8
BLACK
6
CONTINUOUS
10
17.556442999999998
20
-24.6527429999999974
11
17.556442999999998
21
-25.3598569999999981
0
LINE
8
BLACK
6
CONTINUOUS
10
17.556442999999998
20
-25.3598569999999981
11
18.2635569999999987
21
-25.3598569999999981
0
LINE
8
BLACK
6
CONTINUOUS
10
18.2635569999999987
20
-27.8998569999999972
11
18.2635569999999987
21
-27.1927430000000001
0
LINE
8
BLACK
6
CONTINUOUS
10
18.2635569999999987
20
-27.1927430000000001
11
17.556442999999998
21
-27.1927430000000001
0
LINE
8
BLACK
6
CONTINUOUS
10
17.556442999999998
20
-27.1927430000000001
11
17.556442999999998
21
-27.8998569999999972
0
LINE
8
BLACK
6
CONTINUOUS
10
17.556442999999998
20
-27.8998569999999972
11
18.2635569999999987
21
-27.8998569999999972
0
LINE
8
BLACK
6
CONTINUOUS
10
18.2635569999999987
20
-30.4398569999999999
11
18.2635569999999987
21
-29.7327429999999993
0
LINE
8
BLACK
6
CONTINUOUS
10
18.2635569999999987
20
-29.7327429999999993
11
17.556442999999998
21
-29.7327429999999993
0
LINE
8
BLACK
6
CONTINUOUS
10
17.556442999999998
20
-29.7327429999999993
11
17.556442999999998
21
-30.4398569999999999
0
LINE
8
BLACK
6
CONTINUOUS
10
17.556442999999998
20
-30.4398569999999999
11
18.2635569999999987
21
-30.4398569999999999
0
LINE
8
BLACK
6
CONTINUOUS
10
2.5577679999999998
20
-35.0418379999999985
11
2.5577679999999998
21
-33.0418379999999985
0
LINE
8
BLACK
6
CONTINUOUS
10
2.5577679999999998
20
-33.0418379999999985
11
3.0339579999999997
21
-33.0418379999999985
0
LINE
8
BLACK
6
CONTINUOUS
10
3.0339579999999997
20
-33.0418379999999985
11
3.3196729999999999
21
-33.1370760000000004
0
LINE
8
BLACK
6
CONTINUOUS
10
3.3196729999999999
20
-33.1370760000000004
11
3.5101489999999997
21
-33.3275519999999972
0
LINE
8
BLACK
6
CONTINUOUS
10
3.5101489999999997
20
-33.3275519999999972
11
3.6053869999999999
21
-33.518028000000001
0
LINE
8
BLACK
6
CONTINUOUS
10
3.6053869999999999
20
-33.518028000000001
11
3.7006250000000001
21
-33.8989800000000017
0
LINE
8
BLACK
6
CONTINUOUS
10
3.7006250000000001
20
-33.8989800000000017
11
3.7006250000000001
21
-34.1846949999999978
0
LINE
8
BLACK
6
CONTINUOUS
10
3.7006250000000001
20
-34.1846949999999978
11
3.6053869999999999
21
-34.5656469999999985
0
LINE
8
BLACK
6
CONTINUOUS
10
3.6053869999999999
20
-34.5656469999999985
11
3.5101489999999997
21
-34.7561229999999952
0
LINE
8
BLACK
6
CONTINUOUS
10
3.5101489999999997
20
-34.7561229999999952
11
3.3196729999999999
21
-34.9465999999999966
0
LINE
8
BLACK
6
CONTINUOUS
10
3.3196729999999999
20
-34.9465999999999966
11
3.0339579999999997
21
-35.0418379999999985
0
LINE
8
BLACK
6
CONTINUOUS
10
3.0339579999999997
20
-35.0418379999999985
11
2.5577679999999998
21
-35.0418379999999985
0
LINE
8
BLACK
6
CONTINUOUS
10
4.5577679999999994
20
-35.0418379999999985
11
4.5577679999999994
21
-33.7085039999999978
0
LINE
8
BLACK
6
CONTINUOUS
10
4.5577679999999994
20
-34.0894569999999959
11
4.6530059999999995
21
-33.8989800000000017
0
LINE
8
BLACK
6
CONTINUOUS
10
4.6530059999999995
20
-33.8989800000000017
11
4.7482439999999997
21
-33.8037419999999997
0
LINE
8
BLACK
6
CONTINUOUS
10
4.7482439999999997
20
-33.8037419999999997
11
4.93872
21
-33.7085039999999978
0
LINE
8
BLACK
6
CONTINUOUS
10
4.93872
20
-33.7085039999999978
11
5.1291969999999996
21
-33.7085039999999978
0
LINE
8
BLACK
6
CONTINUOUS
10
5.7958629999999998
20
-35.0418379999999985
11
5.7958629999999998
21
-33.7085039999999978
0
LINE
8
BLACK
6
CONTINUOUS
10
5.7958629999999998
20
-33.0418379999999985
11
5.7006249999999996
21
-33.1370760000000004
0
LINE
8
BLACK
6
CONTINUOUS
10
5.7006249999999996
20
-33.1370760000000004
11
5.7958629999999998
21
-33.2323139999999952
0
LINE
8
BLACK
6
CONTINUOUS
10
5.7958629999999998
20
-33.2323139999999952
11
5.8911009999999999
21
-33.1370760000000004
0
LINE
8
BLACK
6
CONTINUOUS
10
5.8911009999999999
20
-33.1370760000000004
11
5.7958629999999998
21
-33.0418379999999985
0
LINE
8
BLACK
6
CONTINUOUS
10
5.7958629999999998
20
-33.0418379999999985
11
5.7958629999999998
21
-33.2323139999999952
0
LINE
8
BLACK
6
CONTINUOUS
10
7.0339579999999993
20
-35.0418379999999985
11
6.8434819999999998
21
-34.9465999999999966
0
LINE
8
BLACK
6
CONTINUOUS
10
6.8434819999999998
20
-34.9465999999999966
11
6.7482439999999997
21
-34.7561229999999952
0
LINE
8
BLACK
6
CONTINUOUS
10
6.7482439999999997
20
-34.7561229999999952
11
6.7482439999999997
21
-33.0418379999999985
0
LINE
8
BLACK
6
CONTINUOUS
10
8.0815769999999993
20
-35.0418379999999985
11
7.8911009999999999
21
-34.9465999999999966
0
LINE
8
BLACK
6
CONTINUOUS
10
7.8911009999999999
20
-34.9465999999999966
11
7.7958629999999998
21
-34.7561229999999952
0
LINE
8
BLACK
6
CONTINUOUS
10
7.7958629999999998
20
-34.7561229999999952
11
7.7958629999999998
21
-33.0418379999999985
0
LINE
8
BLACK
6
CONTINUOUS
10
10.3672919999999991
20
-35.0418379999999985
11
10.3672919999999991
21
-33.0418379999999985
0
LINE
8
BLACK
6
CONTINUOUS
10
10.3672919999999991
20
-33.0418379999999985
11
11.0339589999999994
21
-34.4704089999999965
0
LINE
8
BLACK
6
CONTINUOUS
10
11.0339589999999994
20
-34.4704089999999965
11
11.7006249999999987
21
-33.0418379999999985
0
LINE
8
BLACK
6
CONTINUOUS
10
11.7006249999999987
20
-33.0418379999999985
11
11.7006249999999987
21
-35.0418379999999985
0
LINE
8
BLACK
6
CONTINUOUS
10
13.5101490000000002
20
-35.0418379999999985
11
13.5101490000000002
21
-33.9942190000000011
0
LINE
8
BLACK
6
CONTINUOUS
10
13.5101490000000002
20
-33.9942190000000011
11
13.414911
21
-33.8037419999999997
0
LINE
8
BLACK
6
CONTINUOUS
10
13.414911
20
-33.8037419999999997
11
13.2244349999999997
21
-33.7085039999999978
0
LINE
8
BLACK
6
CONTINUOUS
10
13.2244349999999997
20
-33.7085039999999978
11
12.8434819999999998
21
-33.7085039999999978
0
LINE
8
BLACK
6
CONTINUOUS
10
12.8434819999999998
20
-33.7085039999999978
11
12.6530059999999995
21
-33.8037419999999997
0
LINE
8
BLACK
6
CONTINUOUS
10
13.5101490000000002
20
-34.9465999999999966
11
13.3196729999999999
21
-35.0418379999999985
0
LINE
8
BLACK
6
CONTINUOUS
10
13.3196729999999999
20
-35.0418379999999985
11
12.8434819999999998
21
-35.0418379999999985
0
LINE
8
BLACK
6
CONTINUOUS
10
12.8434819999999998
20
-35.0418379999999985
11
12.6530059999999995
21
-34.9465999999999966
0
LINE
8
BLACK
6
CONTINUOUS
10
12.6530059999999995
20
-34.9465999999999966
11
12.5577679999999994
21
-34.7561229999999952
0
LINE
8
BLACK
6
CONTINUOUS
10
12.5577679999999994
20
-34.7561229999999952
11
12.5577679999999994
21
-34.5656469999999985
0
LINE
8
BLACK
6
CONTINUOUS
10
12.5577679999999994
20
-34.5656469999999985
11
12.6530059999999995
21
-34.3751710000000017
0
LINE
8
BLACK
6
CONTINUOUS
10
12.6530059999999995
20
-34.3751710000000017
11
12.8434819999999998
21
-34.2799329999999998
0
LINE
8
BLACK
6
CONTINUOUS
10
12.8434819999999998
20
-34.2799329999999998
11
13.3196729999999999
21
-34.2799329999999998
0
LINE
8
BLACK
6
CONTINUOUS
10
13.3196729999999999
20
-34.2799329999999998
11
13.5101490000000002
21
-34.1846949999999978
0
LINE
8
BLACK
6
CONTINUOUS
10
14.4625299999999992
20
-33.7085039999999978
11
14.4625299999999992
21
-35.7085039999999978
0
LINE
8
BLACK
6
CONTINUOUS
10
14.4625299999999992
20
-33.8037419999999997
11
14.6530059999999995
21
-33.7085039999999978
0
LINE
8
BLACK
6
CONTINUOUS
10
14.6530059999999995
20
-33.7085039999999978
11
15.0339589999999994
21
-33.7085039999999978
0
LINE
8
BLACK
6
CONTINUOUS
10
15.0339589999999994
20
-33.7085039999999978
11
15.2244349999999997
21
-33.8037419999999997
0
LINE
8
BLACK
6
CONTINUOUS
10
15.2244349999999997
20
-33.8037419999999997
11
15.3196729999999999
21
-33.8989800000000017
0
LINE
8
BLACK
6
CONTINUOUS
10
15.3196729999999999
20
-33.8989800000000017
11
15.414911
21
-34.0894569999999959
0
LINE
8
BLACK
6
CONTINUOUS
10
15.414911
20
-34.0894569999999959
11
15.414911
21
-34.6608850000000004
0
LINE
8
BLACK
6
CONTINUOUS
10
15.414911
20
-34.6608850000000004
11
15.3196729999999999
21
-34.8513609999999971
0
LINE
8
BLACK
6
CONTINUOUS
10
15.3196729999999999
20
-34.8513609999999971
11
15.2244349999999997
21
-34.9465999999999966
0
LINE
8
BLACK
6
CONTINUOUS
10
15.2244349999999997
20
-34.9465999999999966
11
15.0339589999999994
21
-35.0418379999999985
0
LINE
8
BLACK
6
CONTINUOUS
10
15.0339589999999994
20
-35.0418379999999985
11
14.6530059999999995
21
-35.0418379999999985
0
LINE
8
BLACK
6
CONTINUOUS
10
14.6530059999999995
20
-35.0418379999999985
11
14.4625299999999992
21
-34.9465999999999966
0
LINE
8
BLACK
6
CONTINUOUS
10
16.2720540000000007
20
-34.8513609999999971
11
16.3672919999999991
21
-34.9465999999999966
0
LINE
8
BLACK
6
CONTINUOUS
10
16.3672919999999991
20
-34.9465999999999966
11
16.2720540000000007
21
-35.0418379999999985
0
LINE
8
BLACK
6
CONTINUOUS
10
16.2720540000000007
20
-35.0418379999999985
11
16.1768159999999988
21
-34.9465999999999966
0
LINE
8
BLACK
6
CONTINUOUS
10
16.1768159999999988
20
-34.9465999999999966
11
16.2720540000000007
21
-34.8513609999999971
0
LINE
8
BLACK
6
CONTINUOUS
10
16.2720540000000007
20
-34.8513609999999971
11
16.2720540000000007
21
-35.0418379999999985
0
LINE
8
BLACK
6
CONTINUOUS
10
16.2720540000000007
20
-33.8037419999999997
11
16.3672919999999991
21
-33.8989800000000017
0
LINE
8
BLACK
6
CONTINUOUS
10
16.3672919999999991
20
-33.8989800000000017
11
16.2720540000000007
21
-33.9942190000000011
0
LINE
8
BLACK
6
CONTINUOUS
10
16.2720540000000007
20
-33.9942190000000011
11
16.1768159999999988
21
-33.8989800000000017
0
LINE
8
BLACK
6
CONTINUOUS
10
16.1768159999999988
20
-33.8989800000000017
11
16.2720540000000007
21
-33.8037419999999997
0
LINE
8
BLACK
6
CONTINUOUS
10
16.2720540000000007
20
-33.8037419999999997
11
16.2720540000000007
21
-33.9942190000000011
0
LINE
8
BLACK
6
CONTINUOUS
10
-0.25
20
-38.2269999999999968
11
-0.05
21
-38.4269999999999996
0
LINE
8
BLACK
6
CONTINUOUS
10
-0.05
20
-38.2269999999999968
11
-0.25
21
-38.4269999999999996
0
LINE
8
BLACK
6
CONTINUOUS
10
2.93872
20
-37.2418380000000013
11
3.129197
21
-37.2418380000000013
0
LINE
8
BLACK
6
CONTINUOUS
10
3.129197
20
-37.2418380000000013
11
3.3196729999999999
21
-37.3370759999999962
0
LINE
8
BLACK
6
CONTINUOUS
10
3.3196729999999999
20
-37.3370759999999962
11
3.414911
21
-37.4323139999999981
0
LINE
8
BLACK
6
CONTINUOUS
10
3.414911
20
-37.4323139999999981
11
3.5101489999999997
21
-37.6227899999999948
0
LINE
8
BLACK
6
CONTINUOUS
10
3.5101489999999997
20
-37.6227899999999948
11
3.6053869999999999
21
-38.0037419999999955
0
LINE
8
BLACK
6
CONTINUOUS
10
3.6053869999999999
20
-38.0037419999999955
11
3.6053869999999999
21
-38.4799329999999955
0
LINE
8
BLACK
6
CONTINUOUS
10
3.6053869999999999
20
-38.4799329999999955
11
3.5101489999999997
21
-38.8608849999999961
0
LINE
8
BLACK
6
CONTINUOUS
10
3.5101489999999997
20
-38.8608849999999961
11
3.414911
21
-39.051361
0
LINE
8
BLACK
6
CONTINUOUS
10
3.414911
20
-39.051361
11
3.3196729999999999
21
-39.1465999999999994
0
LINE
8
BLACK
6
CONTINUOUS
10
3.3196729999999999
20
-39.1465999999999994
11
3.129197
21
-39.2418380000000013
0
LINE
8
BLACK
6
CONTINUOUS
10
3.129197
20
-39.2418380000000013
11
2.93872
21
-39.2418380000000013
0
LINE
8
BLACK
6
CONTINUOUS
10
2.93872
20
-39.2418380000000013
11
2.7482439999999997
21
-39.1465999999999994
0
LINE
8
BLACK
6
CONTINUOUS
10
2.7482439999999997
20
-39.1465999999999994
11
2.653006
21
-39.051361
0
LINE
8
BLACK
6
CONTINUOUS
10
2.653006
20
-39.051361
11
2.5577679999999998
21
-38.8608849999999961
0
LINE
8
BLACK
6
CONTINUOUS
10
2.5577679999999998
20
-38.8608849999999961
11
2.4625300000000001
21
-38.4799329999999955
0
LINE
8
BLACK
6
CONTINUOUS
10
2.4625300000000001
20
-38.4799329999999955
11
2.4625300000000001
21
-38.0037419999999955
0
LINE
8
BLACK
6
CONTINUOUS
10
2.4625300000000001
20
-38.0037419999999955
11
2.5577679999999998
21
-37.6227899999999948
0
LINE
8
BLACK
6
CONTINUOUS
10
2.5577679999999998
20
-37.6227899999999948
11
2.653006
21
-37.4323139999999981
0
LINE
8
BLACK
6
CONTINUOUS
10
2.653006
20
-37.4323139999999981
11
2.7482439999999997
21
-37.3370759999999962
0
LINE
8
BLACK
6
CONTINUOUS
10
2.7482439999999997
20
-37.3370759999999962
11
2.93872
21
-37.2418380000000013
0
LINE
8
BLACK
6
CONTINUOUS
10
4.4625300000000001
20
-39.051361
11
4.5577679999999994
21
-39.1465999999999994
0
LINE
8
BLACK
6
CONTINUOUS
10
4.5577679999999994
20
-39.1465999999999994
11
4.4625300000000001
21
-39.2418380000000013
0
LINE
8
BLACK
6
CONTINUOUS
10
4.4625300000000001
20
-39.2418380000000013
11
4.367292
21
-39.1465999999999994
0
LINE
8
BLACK
6
CONTINUOUS
10
4.367292
20
-39.1465999999999994
11
4.4625300000000001
21
-39.051361
0
LINE
8
BLACK
6
CONTINUOUS
10
4.4625300000000001
20
-39.051361
11
4.4625300000000001
21
-39.2418380000000013
0
LINE
8
BLACK
6
CONTINUOUS
10
5.3196729999999999
20
-37.4323139999999981
11
5.414911
21
-37.3370759999999962
0
LINE
8
BLACK
6
CONTINUOUS
10
5.414911
20
-37.3370759999999962
11
5.6053869999999995
21
-37.2418380000000013
0
LINE
8
BLACK
6
CONTINUOUS
10
5.6053869999999995
20
-37.2418380000000013
11
6.0815779999999995
21
-37.2418380000000013
0
LINE
8
BLACK
6
CONTINUOUS
10
6.0815779999999995
20
-37.2418380000000013
11
6.2720539999999998
21
-37.3370759999999962
0
LINE
8
BLACK
6
CONTINUOUS
10
6.2720539999999998
20
-37.3370759999999962
11
6.367292
21
-37.4323139999999981
0
LINE
8
BLACK
6
CONTINUOUS
10
6.367292
20
-37.4323139999999981
11
6.4625300000000001
21
-37.6227899999999948
0
LINE
8
BLACK
6
CONTINUOUS
10
6.4625300000000001
20
-37.6227899999999948
11
6.4625300000000001
21
-37.8132659999999987
0
LINE
8
BLACK
6
CONTINUOUS
10
6.4625300000000001
20
-37.8132659999999987
11
6.367292
21
-38.0989799999999974
0
LINE
8
BLACK
6
CONTINUOUS
10
6.367292
20
-38.0989799999999974
11
5.2244349999999997
21
-39.2418380000000013
0
LINE
8
BLACK
6
CONTINUOUS
10
5.2244349999999997
20
-39.2418380000000013
11
6.4625300000000001
21
-39.2418380000000013
0
LINE
8
BLACK
6
CONTINUOUS
10
7.7006249999999996
20
-37.2418380000000013
11
7.8911020000000001
21
-37.2418380000000013
0
LINE
8
BLACK
6
CONTINUOUS
10
7.8911020000000001
20
-37.2418380000000013
11
8.0815780000000004
21
-37.3370759999999962
0
LINE
8
BLACK
6
CONTINUOUS
10
8.0815780000000004
20
-37.3370759999999962
11
8.1768159999999988
21
-37.4323139999999981
0
LINE
8
BLACK
6
CONTINUOUS
10
8.1768159999999988
20
-37.4323139999999981
11
8.2720539999999989
21
-37.6227899999999948
0
LINE
8
BLACK
6
CONTINUOUS
10
8.2720539999999989
20
-37.6227899999999948
11
8.3672919999999991
21
-38.0037419999999955
0
LINE
8
BLACK
6
CONTINUOUS
10
8.3672919999999991
20
-38.0037419999999955
11
8.3672919999999991
21
-38.4799329999999955
0
LINE
8
BLACK
6
CONTINUOUS
10
8.3672919999999991
20
-38.4799329999999955
11
8.2720539999999989
21
-38.8608849999999961
0
LINE
8
BLACK
6
CONTINUOUS
10
8.2720539999999989
20
-38.8608849999999961
11
8.1768159999999988
21
-39.051361
0
LINE
8
BLACK
6
CONTINUOUS
10
8.1768159999999988
20
-39.051361
11
8.0815780000000004
21
-39.1465999999999994
0
LINE
8
BLACK
6
CONTINUOUS
10
8.0815780000000004
20
-39.1465999999999994
11
7.8911020000000001
21
-39.2418380000000013
0
LINE
8
BLACK
6
CONTINUOUS
10
7.8911020000000001
20
-39.2418380000000013
11
7.7006249999999996
21
-39.2418380000000013
0
LINE
8
BLACK
6
CONTINUOUS
10
7.7006249999999996
20
-39.2418380000000013
11
7.5101489999999993
21
-39.1465999999999994
0
LINE
8
BLACK
6
CONTINUOUS
10
7.5101489999999993
20
-39.1465999999999994
11
7.414911
21
-39.051361
0
LINE
8
BLACK
6
CONTINUOUS
10
7.414911
20
-39.051361
11
7.3196729999999999
21
-38.8608849999999961
0
LINE
8
BLACK
6
CONTINUOUS
10
7.3196729999999999
20
-38.8608849999999961
11
7.2244349999999997
21
-38.4799329999999955
0
LINE
8
BLACK
6
CONTINUOUS
10
7.2244349999999997
20
-38.4799329999999955
11
7.2244349999999997
21
-38.0037419999999955
0
LINE
8
BLACK
6
CONTINUOUS
10
7.2244349999999997
20
-38.0037419999999955
11
7.3196729999999999
21
-37.6227899999999948
0
LINE
8
BLACK
6
CONTINUOUS
10
7.3196729999999999
20
-37.6227899999999948
11
7.414911
21
-37.4323139999999981
0
LINE
8
BLACK
6
CONTINUOUS
10
7.414911
20
-37.4323139999999981
11
7.5101489999999993
21
-37.3370759999999962
0
LINE
8
BLACK
6
CONTINUOUS
10
7.5101489999999993
20
-37.3370759999999962
11
7.7006249999999996
21
-37.2418380000000013
0
LINE
8
BLACK
6
CONTINUOUS
10
9.6053870000000003
20
-37.2418380000000013
11
9.7958639999999999
21
-37.2418380000000013
0
LINE
8
BLACK
6
CONTINUOUS
10
9.7958639999999999
20
-37.2418380000000013
11
9.9863400000000002
21
-37.3370759999999962
0
LINE
8
BLACK
6
CONTINUOUS
10
9.9863400000000002
20
-37.3370759999999962
11
10.0815780000000004
21
-37.4323139999999981
0
LINE
8
BLACK
6
CONTINUOUS
10
10.0815780000000004
20
-37.4323139999999981
11
10.1768159999999988
21
-37.6227899999999948
0
LINE
8
BLACK
6
CONTINUOUS
10
10.1768159999999988
20
-37.6227899999999948
11
10.2720539999999989
21
-38.0037419999999955
0
LINE
8
BLACK
6
CONTINUOUS
10
10.2720539999999989
20
-38.0037419999999955
11
10.2720539999999989
21
-38.4799329999999955
0
LINE
8
BLACK
6
CONTINUOUS
10
10.2720539999999989
20
-38.4799329999999955
11
10.1768159999999988
21
-38.8608849999999961
0
LINE
8
BLACK
6
CONTINUOUS
10
10.1768159999999988
20
-38.8608849999999961
11
10.0815780000000004
21
-39.051361
0
LINE
8
BLACK
6
CONTINUOUS
10
10.0815780000000004
20
-39.051361
11
9.9863400000000002
21
-39.1465999999999994
0
LINE
8
BLACK
6
CONTINUOUS
10
9.9863400000000002
20
-39.1465999999999994
11
9.7958639999999999
21
-39.2418380000000013
0
LINE
8
BLACK
6
CONTINUOUS
10
9.7958639999999999
20
-39.2418380000000013
11
9.6053870000000003
21
-39.2418380000000013
0
LINE
8
BLACK
6
CONTINUOUS
10
9.6053870000000003
20
-39.2418380000000013
11
9.414911
21
-39.1465999999999994
0
LINE
8
BLACK
6
CONTINUOUS
10
9.414911
20
-39.1465999999999994
11
9.3196729999999999
21
-39.051361
0
LINE
8
BLACK
6
CONTINUOUS
10
9.3196729999999999
20
-39.051361
11
9.2244349999999997
21
-38.8608849999999961
0
LINE
8
BLACK
6
CONTINUOUS
10
9.2244349999999997
20
-38.8608849999999961
11
9.1291969999999996
21
-38.4799329999999955
0
LINE
8
BLACK
6
CONTINUOUS
10
9.1291969999999996
20
-38.4799329999999955
11
9.1291969999999996
21
-38.0037419999999955
0
LINE
8
BLACK
6
CONTINUOUS
10
9.1291969999999996
20
-38.0037419999999955
11
9.2244349999999997
21
-37.6227899999999948
0
LINE
8
BLACK
6
CONTINUOUS
10
9.2244349999999997
20
-37.6227899999999948
11
9.3196729999999999
21
-37.4323139999999981
0
LINE
8
BLACK
6
CONTINUOUS
10
9.3196729999999999
20
-37.4323139999999981
11
9.414911
21
-37.3370759999999962
0
LINE
8
BLACK
6
CONTINUOUS
10
9.414911
20
-37.3370759999999962
11
9.6053870000000003
21
-37.2418380000000013
0
LINE
8
BLACK
6
CONTINUOUS
10
11.1291969999999996
20
-39.2418380000000013
11
11.1291969999999996
21
-37.9085040000000006
0
LINE
8
BLACK
6
CONTINUOUS
10
11.1291969999999996
20
-38.0989799999999974
11
11.2244349999999997
21
-38.0037419999999955
0
LINE
8
BLACK
6
CONTINUOUS
10
11.2244349999999997
20
-38.0037419999999955
11
11.414911
21
-37.9085040000000006
0
LINE
8
BLACK
6
CONTINUOUS
10
11.414911
20
-37.9085040000000006
11
11.7006259999999997
21
-37.9085040000000006
0
LINE
8
BLACK
6
CONTINUOUS
10
11.7006259999999997
20
-37.9085040000000006
11
11.8911020000000001
21
-38.0037419999999955
0
LINE
8
BLACK
6
CONTINUOUS
10
11.8911020000000001
20
-38.0037419999999955
11
11.9863400000000002
21
-38.1942189999999968
0
LINE
8
BLACK
6
CONTINUOUS
10
11.9863400000000002
20
-38.1942189999999968
11
11.9863400000000002
21
-39.2418380000000013
0
LINE
8
BLACK
6
CONTINUOUS
10
11.9863400000000002
20
-38.1942189999999968
11
12.0815779999999986
21
-38.0037419999999955
0
LINE
8
BLACK
6
CONTINUOUS
10
12.0815779999999986
20
-38.0037419999999955
11
12.2720539999999989
21
-37.9085040000000006
0
LINE
8
BLACK
6
CONTINUOUS
10
12.2720539999999989
20
-37.9085040000000006
11
12.5577679999999994
21
-37.9085040000000006
0
LINE
8
BLACK
6
CONTINUOUS
10
12.5577679999999994
20
-37.9085040000000006
11
12.7482449999999989
21
-38.0037419999999955
0
LINE
8
BLACK
6
CONTINUOUS
10
12.7482449999999989
20
-38.0037419999999955
11
12.8434829999999991
21
-38.1942189999999968
0
LINE
8
BLACK
6
CONTINUOUS
10
12.8434829999999991
20
-38.1942189999999968
11
12.8434829999999991
21
-39.2418380000000013
0
LINE
8
BLACK
6
CONTINUOUS
10
13.7958639999999999
20
-39.2418380000000013
11
13.7958639999999999
21
-37.9085040000000006
0
LINE
8
BLACK
6
CONTINUOUS
10
13.7958639999999999
20
-38.0989799999999974
11
13.8911020000000001
21
-38.0037419999999955
0
LINE
8
BLACK
6
CONTINUOUS
10
13.8911020000000001
20
-38.0037419999999955
11
14.0815779999999986
21
-37.9085040000000006
0
LINE
8
BLACK
6
CONTINUOUS
10
14.0815779999999986
20
-37.9085040000000006
11
14.3672930000000001
21
-37.9085040000000006
0
LINE
8
BLACK
6
CONTINUOUS
10
14.3672930000000001
20
-37.9085040000000006
11
14.5577689999999986
21
-38.0037419999999955
0
LINE
8
BLACK
6
CONTINUOUS
10
14.5577689999999986
20
-38.0037419999999955
11
14.6530069999999988
21
-38.1942189999999968
0
LINE
8
BLACK
6
CONTINUOUS
10
14.6530069999999988
20
-38.1942189999999968
11
14.6530069999999988
21
-39.2418380000000013
0
LINE
8
BLACK
6
CONTINUOUS
10
14.6530069999999988
20
-38.1942189999999968
11
14.7482449999999989
21
-38.0037419999999955
0
LINE
8
BLACK
6
CONTINUOUS
10
14.7482449999999989
20
-38.0037419999999955
11
14.9387209999999993
21
-37.9085040000000006
0
LINE
8
BLACK
6
CONTINUOUS
10
14.9387209999999993
20
-37.9085040000000006
11
15.2244349999999997
21
-37.9085040000000006
0
LINE
8
BLACK
6
CONTINUOUS
10
15.2244349999999997
20
-37.9085040000000006
11
15.4149119999999993
21
-38.0037419999999955
0
LINE
8
BLACK
6
CONTINUOUS
10
15.4149119999999993
20
-38.0037419999999955
11
15.5101499999999994
21
-38.1942189999999968
0
LINE
8
BLACK
6
CONTINUOUS
10
15.5101499999999994
20
-38.1942189999999968
11
15.5101499999999994
21
-39.2418380000000013
0
LINE
8
BLACK
6
CONTINUOUS
10
19.4149119999999975
20
-37.1465999999999994
11
17.7006270000000008
21
-39.7180279999999968
0
LINE
8
BLACK
6
CONTINUOUS
10
21.9863409999999995
20
-37.2418380000000013
11
22.1768179999999973
21
-37.2418380000000013
0
LINE
8
BLACK
6
CONTINUOUS
10
22.1768179999999973
20
-37.2418380000000013
11
22.3672939999999976
21
-37.3370759999999962
0
LINE
8
BLACK
6
CONTINUOUS
10
22.3672939999999976
20
-37.3370759999999962
11
22.4625319999999995
21
-37.4323139999999981
0
LINE
8
BLACK
6
CONTINUOUS
10
22.4625319999999995
20
-37.4323139999999981
11
22.5577699999999979
21
-37.6227899999999948
0
LINE
8
BLACK
6
CONTINUOUS
10
22.5577699999999979
20
-37.6227899999999948
11
22.6530079999999998
21
-38.0037419999999955
0
LINE
8
BLACK
6
CONTINUOUS
10
22.6530079999999998
20
-38.0037419999999955
11
22.6530079999999998
21
-38.4799329999999955
0
LINE
8
BLACK
6
CONTINUOUS
10
22.6530079999999998
20
-38.4799329999999955
11
22.5577699999999979
21
-38.8608849999999961
0
LINE
8
BLACK
6
CONTINUOUS
10
22.5577699999999979
20
-38.8608849999999961
11
22.4625319999999995
21
-39.051361
0
LINE
8
BLACK
6
CONTINUOUS
10
22.4625319999999995
20
-39.051361
11
22.3672939999999976
21
-39.1465999999999994
0
LINE
8
BLACK
6
CONTINUOUS
10
22.3672939999999976
20
-39.1465999999999994
11
22.1768179999999973
21
-39.2418380000000013
0
LINE
8
BLACK
6
CONTINUOUS
10
22.1768179999999973
20
-39.2418380000000013
11
21.9863409999999995
21
-39.2418380000000013
0
LINE
8
BLACK
6
CONTINUOUS
10
21.9863409999999995
20
-39.2418380000000013
11
21.7958649999999992
21
-39.1465999999999994
0
LINE
8
BLACK
6
CONTINUOUS
10
21.7958649999999992
20
-39.1465999999999994
11
21.7006270000000008
21
-39.051361
0
LINE
8
BLACK
6
CONTINUOUS
10
21.7006270000000008
20
-39.051361
11
21.6053889999999988
21
-38.8608849999999961
0
LINE
8
BLACK
6
CONTINUOUS
10
21.6053889999999988
20
-38.8608849999999961
11
21.5101510000000005
21
-38.4799329999999955
0
LINE
8
BLACK
6
CONTINUOUS
10
21.5101510000000005
20
-38.4799329999999955
11
21.5101510000000005
21
-38.0037419999999955
0
LINE
8
BLACK
6
CONTINUOUS
10
21.5101510000000005
20
-38.0037419999999955
11
21.6053889999999988
21
-37.6227899999999948
0
LINE
8
BLACK
6
CONTINUOUS
10
21.6053889999999988
20
-37.6227899999999948
11
21.7006270000000008
21
-37.4323139999999981
0
LINE
8
BLACK
6
CONTINUOUS
10
21.7006270000000008
20
-37.4323139999999981
11
21.7958649999999992
21
-37.3370759999999962
0
LINE
8
BLACK
6
CONTINUOUS
10
21.7958649999999992
20
-37.3370759999999962
11
21.9863409999999995
21
-37.2418380000000013
0
LINE
8
BLACK
6
CONTINUOUS
10
23.5101510000000005
20
-39.051361
11
23.6053889999999988
21
-39.1465999999999994
0
LINE
8
BLACK
6
CONTINUOUS
10
23.6053889999999988
20
-39.1465999999999994
11
23.5101510000000005
21
-39.2418380000000013
0
LINE
8
BLACK
6
CONTINUOUS
10
23.5101510000000005
20
-39.2418380000000013
11
23.4149129999999985
21
-39.1465999999999994
0
LINE
8
BLACK
6
CONTINUOUS
10
23.4149129999999985
20
-39.1465999999999994
11
23.5101510000000005
21
-39.051361
0
LINE
8
BLACK
6
CONTINUOUS
10
23.5101510000000005
20
-39.051361
11
23.5101510000000005
21
-39.2418380000000013
0
LINE
8
BLACK
6
CONTINUOUS
10
24.8434840000000001
20
-37.2418380000000013
11
25.0339609999999979
21
-37.2418380000000013
0
LINE
8
BLACK
6
CONTINUOUS
10
25.0339609999999979
20
-37.2418380000000013
11
25.2244369999999982
21
-37.3370759999999962
0
LINE
8
BLACK
6
CONTINUOUS
10
25.2244369999999982
20
-37.3370759999999962
11
25.3196750000000002
21
-37.4323139999999981
0
LINE
8
BLACK
6
CONTINUOUS
10
25.3196750000000002
20
-37.4323139999999981
11
25.4149129999999985
21
-37.6227899999999948
0
LINE
8
BLACK
6
CONTINUOUS
10
25.4149129999999985
20
-37.6227899999999948
11
25.5101510000000005
21
-38.0037419999999955
0
LINE
8
BLACK
6
CONTINUOUS
10
25.5101510000000005
20
-38.0037419999999955
11
25.5101510000000005
21
-38.4799329999999955
0
LINE
8
BLACK
6
CONTINUOUS
10
25.5101510000000005
20
-38.4799329999999955
11
25.4149129999999985
21
-38.8608849999999961
0
LINE
8
BLACK
6
CONTINUOUS
10
25.4149129999999985
20
-38.8608849999999961
11
25.3196750000000002
21
-39.051361
0
LINE
8
BLACK
6
CONTINUOUS
10
25.3196750000000002
20
-39.051361
11
25.2244369999999982
21
-39.1465999999999994
0
LINE
8
BLACK
6
CONTINUOUS
10
25.2244369999999982
20
-39.1465999999999994
11
25.0339609999999979
21
-39.2418380000000013
0
LINE
8
BLACK
6
CONTINUOUS
10
25.0339609999999979
20
-39.2418380000000013
11
24.8434840000000001
21
-39.2418380000000013
0
LINE
8
BLACK
6
CONTINUOUS
10
24.8434840000000001
20
-39.2418380000000013
11
24.6530079999999998
21
-39.1465999999999994
0
LINE
8
BLACK
6
CONTINUOUS
10
24.6530079999999998
20
-39.1465999999999994
11
24.5577699999999979
21
-39.051361
0
LINE
8
BLACK
6
CONTINUOUS
10
24.5577699999999979
20
-39.051361
11
24.4625319999999995
21
-38.8608849999999961
0
LINE
8
BLACK
6
CONTINUOUS
10
24.4625319999999995
20
-38.8608849999999961
11
24.3672939999999976
21
-38.4799329999999955
0
LINE
8
BLACK
6
CONTINUOUS
10
24.3672939999999976
20
-38.4799329999999955
11
24.3672939999999976
21
-38.0037419999999955
0
LINE
8
BLACK
6
CONTINUOUS
10
24.3672939999999976
20
-38.0037419999999955
11
24.4625319999999995
21
-37.6227899999999948
0
LINE
8
BLACK
6
CONTINUOUS
10
24.4625319999999995
20
-37.6227899999999948
11
24.5577699999999979
21
-37.4323139999999981
0
LINE
8
BLACK
6
CONTINUOUS
10
24.5577699999999979
20
-37.4323139999999981
11
24.6530079999999998
21
-37.3370759999999962
0
LINE
8
BLACK
6
CONTINUOUS
10
24.6530079999999998
20
-37.3370759999999962
11
24.8434840000000001
21
-37.2418380000000013
0
LINE
8
BLACK
6
CONTINUOUS
10
26.7482459999999982
20
-37.2418380000000013
11
26.9387229999999995
21
-37.2418380000000013
0
LINE
8
BLACK
6
CONTINUOUS
10
26.9387229999999995
20
-37.2418380000000013
11
27.1291989999999998
21
-37.3370759999999962
0
LINE
8
BLACK
6
CONTINUOUS
10
27.1291989999999998
20
-37.3370759999999962
11
27.2244369999999982
21
-37.4323139999999981
0
LINE
8
BLACK
6
CONTINUOUS
10
27.2244369999999982
20
-37.4323139999999981
11
27.3196750000000002
21
-37.6227899999999948
0
LINE
8
BLACK
6
CONTINUOUS
10
27.3196750000000002
20
-37.6227899999999948
11
27.4149129999999985
21
-38.0037419999999955
0
LINE
8
BLACK
6
CONTINUOUS
10
27.4149129999999985
20
-38.0037419999999955
11
27.4149129999999985
21
-38.4799329999999955
0
LINE
8
BLACK
6
CONTINUOUS
10
27.4149129999999985
20
-38.4799329999999955
11
27.3196750000000002
21
-38.8608849999999961
0
LINE
8
BLACK
6
CONTINUOUS
10
27.3196750000000002
20
-38.8608849999999961
11
27.2244369999999982
21
-39.051361
0
LINE
8
BLACK
6
CONTINUOUS
10
27.2244369999999982
20
-39.051361
11
27.1291989999999998
21
-39.1465999999999994
0
LINE
8
BLACK
6
CONTINUOUS
10
27.1291989999999998
20
-39.1465999999999994
11
26.9387229999999995
21
-39.2418380000000013
0
LINE
8
BLACK
6
CONTINUOUS
10
26.9387229999999995
20
-39.2418380000000013
11
26.7482459999999982
21
-39.2418380000000013
0
LINE
8
BLACK
6
CONTINUOUS
10
26.7482459999999982
20
-39.2418380000000013
11
26.5577699999999979
21
-39.1465999999999994
0
LINE
8
BLACK
6
CONTINUOUS
10
26.5577699999999979
20
-39.1465999999999994
11
26.4625319999999995
21
-39.051361
0
LINE
8
BLACK
6
CONTINUOUS
10
26.4625319999999995
20
-39.051361
11
26.3672939999999976
21
-38.8608849999999961
0
LINE
8
BLACK
6
CONTINUOUS
10
26.3672939999999976
20
-38.8608849999999961
11
26.2720559999999992
21
-38.4799329999999955
0
LINE
8
BLACK
6
CONTINUOUS
10
26.2720559999999992
20
-38.4799329999999955
11
26.2720559999999992
21
-38.0037419999999955
0
LINE
8
BLACK
6
CONTINUOUS
10
26.2720559999999992
20
-38.0037419999999955
11
26.3672939999999976
21
-37.6227899999999948
0
LINE
8
BLACK
6
CONTINUOUS
10
26.3672939999999976
20
-37.6227899999999948
11
26.4625319999999995
21
-37.4323139999999981
0
LINE
8
BLACK
6
CONTINUOUS
10
26.4625319999999995
20
-37.4323139999999981
11
26.5577699999999979
21
-37.3370759999999962
0
LINE
8
BLACK
6
CONTINUOUS
10
26.5577699999999979
20
-37.3370759999999962
11
26.7482459999999982
21
-37.2418380000000013
0
LINE
8
BLACK
6
CONTINUOUS
10
28.0815799999999989
20
-37.2418380000000013
11
29.4149129999999985
21
-37.2418380000000013
0
LINE
8
BLACK
6
CONTINUOUS
10
29.4149129999999985
20
-37.2418380000000013
11
28.5577699999999979
21
-39.2418380000000013
0
LINE
8
BLACK
6
CONTINUOUS
10
30.2720559999999992
20
-39.2418380000000013
11
30.6530079999999998
21
-39.2418380000000013
0
LINE
8
BLACK
6
CONTINUOUS
10
30.6530079999999998
20
-39.2418380000000013
11
30.8434849999999976
21
-39.1465999999999994
0
LINE
8
BLACK
6
CONTINUOUS
10
30.8434849999999976
20
-39.1465999999999994
11
30.9387229999999995
21
-39.051361
0
LINE
8
BLACK
6
CONTINUOUS
10
30.9387229999999995
20
-39.051361
11
31.1291989999999998
21
-38.7656470000000013
0
LINE
8
BLACK
6
CONTINUOUS
10
31.1291989999999998
20
-38.7656470000000013
11
31.2244369999999982
21
-38.3846950000000007
0
LINE
8
BLACK
6
CONTINUOUS
10
31.2244369999999982
20
-38.3846950000000007
11
31.2244369999999982
21
-37.6227899999999948
0
LINE
8
BLACK
6
CONTINUOUS
10
31.2244369999999982
20
-37.6227899999999948
11
31.1291989999999998
21
-37.4323139999999981
0
LINE
8
BLACK
6
CONTINUOUS
10
31.1291989999999998
20
-37.4323139999999981
11
31.0339609999999979
21
-37.3370759999999962
0
LINE
8
BLACK
6
CONTINUOUS
10
31.0339609999999979
20
-37.3370759999999962
11
30.8434849999999976
21
-37.2418380000000013
0
LINE
8
BLACK
6
CONTINUOUS
10
30.8434849999999976
20
-37.2418380000000013
11
30.4625319999999995
21
-37.2418380000000013
0
LINE
8
BLACK
6
CONTINUOUS
10
30.4625319999999995
20
-37.2418380000000013
11
30.2720559999999992
21
-37.3370759999999962
0
LINE
8
BLACK
6
CONTINUOUS
10
30.2720559999999992
20
-37.3370759999999962
11
30.1768179999999973
21
-37.4323139999999981
0
LINE
8
BLACK
6
CONTINUOUS
10
30.1768179999999973
20
-37.4323139999999981
11
30.0815799999999989
21
-37.6227899999999948
0
LINE
8
BLACK
6
CONTINUOUS
10
30.0815799999999989
20
-37.6227899999999948
11
30.0815799999999989
21
-38.0989799999999974
0
LINE
8
BLACK
6
CONTINUOUS
10
30.0815799999999989
20
-38.0989799999999974
11
30.1768179999999973
21
-38.2894569999999987
0
LINE
8
BLACK
6
CONTINUOUS
10
30.1768179999999973
20
-38.2894569999999987
11
30.2720559999999992
21
-38.3846950000000007
0
LINE
8
BLACK
6
CONTINUOUS
10
30.2720559999999992
20
-38.3846950000000007
11
30.4625319999999995
21
-38.4799329999999955
0
LINE
8
BLACK
6
CONTINUOUS
10
30.4625319999999995
20
-38.4799329999999955
11
30.8434849999999976
21
-38.4799329999999955
0
LINE
8
BLACK
6
CONTINUOUS
10
30.8434849999999976
20
-38.4799329999999955
11
31.0339609999999979
21
-38.3846950000000007
0
LINE
8
BLACK
6
CONTINUOUS
10
31.0339609999999979
20
-38.3846950000000007
11
31.1291989999999998
21
-38.2894569999999987
0
LINE
8
BLACK
6
CONTINUOUS
10
31.1291989999999998
20
-38.2894569999999987
11
31.2244369999999982
21
-38.0989799999999974
0
LINE
8
BLACK
6
CONTINUOUS
10
31.9863419999999969
20
-37.2418380000000013
11
31.9863419999999969
21
-37.6227899999999948
0
LINE
8
BLACK
6
CONTINUOUS
10
32.7482469999999992
20
-37.2418380000000013
11
32.7482469999999992
21
-37.6227899999999948
0
LINE
8
BLACK
6
CONTINUOUS
10
35.7006289999999993
20
-40.0037419999999955
11
35.6053899999999999
21
-39.9085040000000006
0
LINE
8
BLACK
6
CONTINUOUS
10
35.6053899999999999
20
-39.9085040000000006
11
35.414913999999996
21
-39.6227899999999948
0
LINE
8
BLACK
6
CONTINUOUS
10
35.414913999999996
20
-39.6227899999999948
11
35.3196760000000012
21
-39.4323139999999981
0
LINE
8
BLACK
6
CONTINUOUS
10
35.3196760000000012
20
-39.4323139999999981
11
35.2244379999999992
21
-39.1465999999999994
0
LINE
8
BLACK
6
CONTINUOUS
10
35.2244379999999992
20
-39.1465999999999994
11
35.1291999999999973
21
-38.6704089999999994
0
LINE
8
BLACK
6
CONTINUOUS
10
35.1291999999999973
20
-38.6704089999999994
11
35.1291999999999973
21
-38.2894569999999987
0
LINE
8
BLACK
6
CONTINUOUS
10
35.1291999999999973
20
-38.2894569999999987
11
35.2244379999999992
21
-37.8132659999999987
0
LINE
8
BLACK
6
CONTINUOUS
10
35.2244379999999992
20
-37.8132659999999987
11
35.3196760000000012
21
-37.527552
0
LINE
8
BLACK
6
CONTINUOUS
10
35.3196760000000012
20
-37.527552
11
35.414913999999996
21
-37.3370759999999962
0
LINE
8
BLACK
6
CONTINUOUS
10
35.414913999999996
20
-37.3370759999999962
11
35.6053899999999999
21
-37.051361
0
LINE
8
BLACK
6
CONTINUOUS
10
35.6053899999999999
20
-37.051361
11
35.7006289999999993
21
-36.9561229999999981
0
LINE
8
BLACK
6
CONTINUOUS
10
36.5577709999999954
20
-39.2418380000000013
11
36.938722999999996
21
-39.2418380000000013
0
LINE
8
BLACK
6
CONTINUOUS
10
36.938722999999996
20
-39.2418380000000013
11
37.1291999999999973
21
-39.1465999999999994
0
LINE
8
BLACK
6
CONTINUOUS
10
37.1291999999999973
20
-39.1465999999999994
11
37.2244379999999992
21
-39.051361
0
LINE
8
BLACK
6
CONTINUOUS
10
37.2244379999999992
20
-39.051361
11
37.414913999999996
21
-38.7656470000000013
0
LINE
8
BLACK
6
CONTINUOUS
10
37.414913999999996
20
-38.7656470000000013
11
37.5101519999999979
21
-38.3846950000000007
0
LINE
8
BLACK
6
CONTINUOUS
10
37.5101519999999979
20
-38.3846950000000007
11
37.5101519999999979
21
-37.6227899999999948
0
LINE
8
BLACK
6
CONTINUOUS
10
37.5101519999999979
20
-37.6227899999999948
11
37.414913999999996
21
-37.4323139999999981
0
LINE
8
BLACK
6
CONTINUOUS
10
37.414913999999996
20
-37.4323139999999981
11
37.3196760000000012
21
-37.3370759999999962
0
LINE
8
BLACK
6
CONTINUOUS
10
37.3196760000000012
20
-37.3370759999999962
11
37.1291999999999973
21
-37.2418380000000013
0
LINE
8
BLACK
6
CONTINUOUS
10
37.1291999999999973
20
-37.2418380000000013
11
36.7482469999999992
21
-37.2418380000000013
0
LINE
8
BLACK
6
CONTINUOUS
10
36.7482469999999992
20
-37.2418380000000013
11
36.5577709999999954
21
-37.3370759999999962
0
LINE
8
BLACK
6
CONTINUOUS
10
36.5577709999999954
20
-37.3370759999999962
11
36.4625330000000005
21
-37.4323139999999981
0
LINE
8
BLACK
6
CONTINUOUS
10
36.4625330000000005
20
-37.4323139999999981
11
36.3672949999999986
21
-37.6227899999999948
0
LINE
8
BLACK
6
CONTINUOUS
10
36.3672949999999986
20
-37.6227899999999948
11
36.3672949999999986
21
-38.0989799999999974
0
LINE
8
BLACK
6
CONTINUOUS
10
36.3672949999999986
20
-38.0989799999999974
11
36.4625330000000005
21
-38.2894569999999987
0
LINE
8
BLACK
6
CONTINUOUS
10
36.4625330000000005
20
-38.2894569999999987
11
36.5577709999999954
21
-38.3846950000000007
0
LINE
8
BLACK
6
CONTINUOUS
10
36.5577709999999954
20
-38.3846950000000007
11
36.7482469999999992
21
-38.4799329999999955
0
LINE
8
BLACK
6
CONTINUOUS
10
36.7482469999999992
20
-38.4799329999999955
11
37.1291999999999973
21
-38.4799329999999955
0
LINE
8
BLACK
6
CONTINUOUS
10
37.1291999999999973
20
-38.4799329999999955
11
37.3196760000000012
21
-38.3846950000000007
0
LINE
8
BLACK
6
CONTINUOUS
10
37.3196760000000012
20
-38.3846950000000007
11
37.414913999999996
21
-38.2894569999999987
0
LINE
8
BLACK
6
CONTINUOUS
10
37.414913999999996
20
-38.2894569999999987
11
37.5101519999999979
21
-38.0989799999999974
0
LINE
8
BLACK
6
CONTINUOUS
10
39.891104999999996
20
-39.2418380000000013
11
39.891104999999996
21
-37.2418380000000013
0
LINE
8
BLACK
6
CONTINUOUS
10
40.7482479999999967
20
-39.2418380000000013
11
40.7482479999999967
21
-38.1942189999999968
0
LINE
8
BLACK
6
CONTINUOUS
10
40.7482479999999967
20
-38.1942189999999968
11
40.6530099999999948
21
-38.0037419999999955
0
LINE
8
BLACK
6
CONTINUOUS
10
40.6530099999999948
20
-38.0037419999999955
11
40.462533999999998
21
-37.9085040000000006
0
LINE
8
BLACK
6
CONTINUOUS
10
40.462533999999998
20
-37.9085040000000006
11
40.1768189999999947
21
-37.9085040000000006
0
LINE
8
BLACK
6
CONTINUOUS
10
40.1768189999999947
20
-37.9085040000000006
11
39.986342999999998
21
-38.0037419999999955
0
LINE
8
BLACK
6
CONTINUOUS
10
39.986342999999998
20
-38.0037419999999955
11
39.891104999999996
21
-38.0989799999999974
0
LINE
8
BLACK
6
CONTINUOUS
10
41.986342999999998
20
-39.2418380000000013
11
41.7958670000000012
21
-39.1465999999999994
0
LINE
8
BLACK
6
CONTINUOUS
10
41.7958670000000012
20
-39.1465999999999994
11
41.7006289999999993
21
-39.051361
0
LINE
8
BLACK
6
CONTINUOUS
10
41.7006289999999993
20
-39.051361
11
41.6053909999999973
21
-38.8608849999999961
0
LINE
8
BLACK
6
CONTINUOUS
10
41.6053909999999973
20
-38.8608849999999961
11
41.6053909999999973
21
-38.2894569999999987
0
LINE
8
BLACK
6
CONTINUOUS
10
41.6053909999999973
20
-38.2894569999999987
11
41.7006289999999993
21
-38.0989799999999974
0
LINE
8
BLACK
6
CONTINUOUS
10
41.7006289999999993
20
-38.0989799999999974
11
41.7958670000000012
21
-38.0037419999999955
0
LINE
8
BLACK
6
CONTINUOUS
10
41.7958670000000012
20
-38.0037419999999955
11
41.986342999999998
21
-37.9085040000000006
0
LINE
8
BLACK
6
CONTINUOUS
10
41.986342999999998
20
-37.9085040000000006
11
42.2720580000000012
21
-37.9085040000000006
0
LINE
8
BLACK
6
CONTINUOUS
10
42.2720580000000012
20
-37.9085040000000006
11
42.462533999999998
21
-38.0037419999999955
0
LINE
8
BLACK
6
CONTINUOUS
10
42.462533999999998
20
-38.0037419999999955
11
42.5577719999999999
21
-38.0989799999999974
0
LINE
8
BLACK
6
CONTINUOUS
10
42.5577719999999999
20
-38.0989799999999974
11
42.6530099999999948
21
-38.2894569999999987
0
LINE
8
BLACK
6
CONTINUOUS
10
42.6530099999999948
20
-38.2894569999999987
11
42.6530099999999948
21
-38.8608849999999961
0
LINE
8
BLACK
6
CONTINUOUS
10
42.6530099999999948
20
-38.8608849999999961
11
42.5577719999999999
21
-39.051361
0
LINE
8
BLACK
6
CONTINUOUS
10
42.5577719999999999
20
-39.051361
11
42.462533999999998
21
-39.1465999999999994
0
LINE
8
BLACK
6
CONTINUOUS
10
42.462533999999998
20
-39.1465999999999994
11
42.2720580000000012
21
-39.2418380000000013
0
LINE
8
BLACK
6
CONTINUOUS
10
42.2720580000000012
20
-39.2418380000000013
11
41.986342999999998
21
-39.2418380000000013
0
LINE
8
BLACK
6
CONTINUOUS
10
43.7958670000000012
20
-39.2418380000000013
11
43.6053909999999973
21
-39.1465999999999994
0
LINE
8
BLACK
6
CONTINUOUS
10
43.6053909999999973
20
-39.1465999999999994
11
43.5101529999999954
21
-38.9561229999999981
0
LINE
8
BLACK
6
CONTINUOUS
10
43.5101529999999954
20
-38.9561229999999981
11
43.5101529999999954
21
-37.2418380000000013
0
LINE
8
BLACK
6
CONTINUOUS
10
45.3196769999999987
20
-39.1465999999999994
11
45.1292009999999948
21
-39.2418380000000013
0
LINE
8
BLACK
6
CONTINUOUS
10
45.1292009999999948
20
-39.2418380000000013
11
44.7482479999999967
21
-39.2418380000000013
0
LINE
8
BLACK
6
CONTINUOUS
10
44.7482479999999967
20
-39.2418380000000013
11
44.5577719999999999
21
-39.1465999999999994
0
LINE
8
BLACK
6
CONTINUOUS
10
44.5577719999999999
20
-39.1465999999999994
11
44.462533999999998
21
-38.9561229999999981
0
LINE
8
BLACK
6
CONTINUOUS
10
44.462533999999998
20
-38.9561229999999981
11
44.462533999999998
21
-38.1942189999999968
0
LINE
8
BLACK
6
CONTINUOUS
10
44.462533999999998
20
-38.1942189999999968
11
44.5577719999999999
21
-38.0037419999999955
0
LINE
8
BLACK
6
CONTINUOUS
10
44.5577719999999999
20
-38.0037419999999955
11
44.7482479999999967
21
-37.9085040000000006
0
LINE
8
BLACK
6
CONTINUOUS
10
44.7482479999999967
20
-37.9085040000000006
11
45.1292009999999948
21
-37.9085040000000006
0
LINE
8
BLACK
6
CONTINUOUS
10
45.1292009999999948
20
-37.9085040000000006
11
45.3196769999999987
21
-38.0037419999999955
0
LINE
8
BLACK
6
CONTINUOUS
10
45.3196769999999987
20
-38.0037419999999955
11
45.4149150000000006
21
-38.1942189999999968
0
LINE
8
BLACK
6
CONTINUOUS
10
45.4149150000000006
20
-38.1942189999999968
11
45.4149150000000006
21
-38.3846950000000007
0
LINE
8
BLACK
6
CONTINUOUS
10
45.4149150000000006
20
-38.3846950000000007
11
44.462533999999998
21
-38.5751709999999974
0
LINE
8
BLACK
6
CONTINUOUS
10
46.1768199999999993
20
-39.1465999999999994
11
46.3672959999999961
21
-39.2418380000000013
0
LINE
8
BLACK
6
CONTINUOUS
10
46.3672959999999961
20
-39.2418380000000013
11
46.7482479999999967
21
-39.2418380000000013
0
LINE
8
BLACK
6
CONTINUOUS
10
46.7482479999999967
20
-39.2418380000000013
11
46.938724999999998
21
-39.1465999999999994
0
LINE
8
BLACK
6
CONTINUOUS
10
46.938724999999998
20
-39.1465999999999994
11
47.033963
21
-38.9561229999999981
0
LINE
8
BLACK
6
CONTINUOUS
10
47.033963
20
-38.9561229999999981
11
47.033963
21
-38.8608849999999961
0
LINE
8
BLACK
6
CONTINUOUS
10
47.033963
20
-38.8608849999999961
11
46.938724999999998
21
-38.6704089999999994
0
LINE
8
BLACK
6
CONTINUOUS
10
46.938724999999998
20
-38.6704089999999994
11
46.7482479999999967
21
-38.5751709999999974
0
LINE
8
BLACK
6
CONTINUOUS
10
46.7482479999999967
20
-38.5751709999999974
11
46.462533999999998
21
-38.5751709999999974
0
LINE
8
BLACK
6
CONTINUOUS
10
46.462533999999998
20
-38.5751709999999974
11
46.2720580000000012
21
-38.4799329999999955
0
LINE
8
BLACK
6
CONTINUOUS
10
46.2720580000000012
20
-38.4799329999999955
11
46.1768199999999993
21
-38.2894569999999987
0
LINE
8
BLACK
6
CONTINUOUS
10
46.1768199999999993
20
-38.2894569999999987
11
46.1768199999999993
21
-38.1942189999999968
0
LINE
8
BLACK
6
CONTINUOUS
10
46.1768199999999993
20
-38.1942189999999968
11
46.2720580000000012
21
-38.0037419999999955
0
LINE
8
BLACK
6
CONTINUOUS
10
46.2720580000000012
20
-38.0037419999999955
11
46.462533999999998
21
-37.9085040000000006
0
LINE
8
BLACK
6
CONTINUOUS
10
46.462533999999998
20
-37.9085040000000006
11
46.7482479999999967
21
-37.9085040000000006
0
LINE
8
BLACK
6
CONTINUOUS
10
46.7482479999999967
20
-37.9085040000000006
11
46.938724999999998
21
-38.0037419999999955
0
LINE
8
BLACK
6
CONTINUOUS
10
47.7006299999999968
20
-40.0037419999999955
11
47.7958679999999987
21
-39.9085040000000006
0
LINE
8
BLACK
6
CONTINUOUS
10
47.7958679999999987
20
-39.9085040000000006
11
47.9863439999999954
21
-39.6227899999999948
0
LINE
8
BLACK
6
CONTINUOUS
10
47.9863439999999954
20
-39.6227899999999948
11
48.0815819999999974
21
-39.4323139999999981
0
LINE
8
BLACK
6
CONTINUOUS
10
48.0815819999999974
20
-39.4323139999999981
11
48.1768199999999993
21
-39.1465999999999994
0
LINE
8
BLACK
6
CONTINUOUS
10
48.1768199999999993
20
-39.1465999999999994
11
48.2720580000000012
21
-38.6704089999999994
0
LINE
8
BLACK
6
CONTINUOUS
10
48.2720580000000012
20
-38.6704089999999994
11
48.2720580000000012
21
-38.2894569999999987
0
LINE
8
BLACK
6
CONTINUOUS
10
48.2720580000000012
20
-38.2894569999999987
11
48.1768199999999993
21
-37.8132659999999987
0
LINE
8
BLACK
6
CONTINUOUS
10
48.1768199999999993
20
-37.8132659999999987
11
48.0815819999999974
21
-37.527552
0
LINE
8
BLACK
6
CONTINUOUS
10
48.0815819999999974
20
-37.527552
11
47.9863439999999954
21
-37.3370759999999962
0
LINE
8
BLACK
6
CONTINUOUS
10
47.9863439999999954
20
-37.3370759999999962
11
47.7958679999999987
21
-37.051361
0
LINE
8
BLACK
6
CONTINUOUS
10
47.7958679999999987
20
-37.051361
11
47.7006299999999968
21
-36.9561229999999981
0
CIRCLE
8
BLACK
10
-0.175
20
-40.9669999999999987
40
0.125
0
LINE
8
BLACK
6
CONTINUOUS
10
2.93872
20
-39.8818379999999948
11
3.129197
21
-39.8818379999999948
0
LINE
8
BLACK
6
CONTINUOUS
10
3.129197
20
-39.8818379999999948
11
3.3196729999999999
21
-39.9770759999999967
0
LINE
8
BLACK
6
CONTINUOUS
10
3.3196729999999999
20
-39.9770759999999967
11
3.414911
21
-40.0723139999999987
0
LINE
8
BLACK
6
CONTINUOUS
10
3.414911
20
-40.0723139999999987
11
3.5101489999999997
21
-40.2627899999999954
0
LINE
8
BLACK
6
CONTINUOUS
10
3.5101489999999997
20
-40.2627899999999954
11
3.6053869999999999
21
-40.643741999999996
0
LINE
8
BLACK
6
CONTINUOUS
10
3.6053869999999999
20
-40.643741999999996
11
3.6053869999999999
21
-41.1199329999999961
0
LINE
8
BLACK
6
CONTINUOUS
10
3.6053869999999999
20
-41.1199329999999961
11
3.5101489999999997
21
-41.5008849999999967
0
LINE
8
BLACK
6
CONTINUOUS
10
3.5101489999999997
20
-41.5008849999999967
11
3.414911
21
-41.6913610000000006
0
LINE
8
BLACK
6
CONTINUOUS
10
3.414911
20
-41.6913610000000006
11
3.3196729999999999
21
-41.7866
0
LINE
8
BLACK
6
CONTINUOUS
10
3.3196729999999999
20
-41.7866
11
3.129197
21
-41.8818379999999948
0
LINE
8
BLACK
6
CONTINUOUS
10
3.129197
20
-41.8818379999999948
11
2.93872
21
-41.8818379999999948
0
LINE
8
BLACK
6
CONTINUOUS
10
2.93872
20
-41.8818379999999948
11
2.7482439999999997
21
-41.7866
0
LINE
8
BLACK
6
CONTINUOUS
10
2.7482439999999997
20
-41.7866
11
2.653006
21
-41.6913610000000006
0
LINE
8
BLACK
6
CONTINUOUS
10
2.653006
20
-41.6913610000000006
11
2.5577679999999998
21
-41.5008849999999967
0
LINE
8
BLACK
6
CONTINUOUS
10
2.5577679999999998
20
-41.5008849999999967
11
2.4625300000000001
21
-41.1199329999999961
0
LINE
8
BLACK
6
CONTINUOUS
10
2.4625300000000001
20
-41.1199329999999961
11
2.4625300000000001
21
-40.643741999999996
0
LINE
8
BLACK
6
CONTINUOUS
10
2.4625300000000001
20
-40.643741999999996
11
2.5577679999999998
21
-40.2627899999999954
0
LINE
8
BLACK
6
CONTINUOUS
10
2.5577679999999998
20
-40.2627899999999954
11
2.653006
21
-40.0723139999999987
0
LINE
8
BLACK
6
CONTINUOUS
10
2.653006
20
-40.0723139999999987
11
2.7482439999999997
21
-39.9770759999999967
0
LINE
8
BLACK
6
CONTINUOUS
10
2.7482439999999997
20
-39.9770759999999967
11
2.93872
21
-39.8818379999999948
0
LINE
8
BLACK
6
CONTINUOUS
10
4.4625300000000001
20
-41.6913610000000006
11
4.5577679999999994
21
-41.7866
0
LINE
8
BLACK
6
CONTINUOUS
10
4.5577679999999994
20
-41.7866
11
4.4625300000000001
21
-41.8818379999999948
0
LINE
8
BLACK
6
CONTINUOUS
10
4.4625300000000001
20
-41.8818379999999948
11
4.367292
21
-41.7866
0
LINE
8
BLACK
6
CONTINUOUS
10
4.367292
20
-41.7866
11
4.4625300000000001
21
-41.6913610000000006
0
LINE
8
BLACK
6
CONTINUOUS
10
4.4625300000000001
20
-41.6913610000000006
11
4.4625300000000001
21
-41.8818379999999948
0
LINE
8
BLACK
6
CONTINUOUS
10
5.3196729999999999
20
-40.0723139999999987
11
5.414911
21
-39.9770759999999967
0
LINE
8
BLACK
6
CONTINUOUS
10
5.414911
20
-39.9770759999999967
11
5.6053869999999995
21
-39.8818379999999948
0
LINE
8
BLACK
6
CONTINUOUS
10
5.6053869999999995
20
-39.8818379999999948
11
6.0815779999999995
21
-39.8818379999999948
0
LINE
8
BLACK
6
CONTINUOUS
10
6.0815779999999995
20
-39.8818379999999948
11
6.2720539999999998
21
-39.9770759999999967
0
LINE
8
BLACK
6
CONTINUOUS
10
6.2720539999999998
20
-39.9770759999999967
11
6.367292
21
-40.0723139999999987
0
LINE
8
BLACK
6
CONTINUOUS
10
6.367292
20
-40.0723139999999987
11
6.4625300000000001
21
-40.2627899999999954
0
LINE
8
BLACK
6
CONTINUOUS
10
6.4625300000000001
20
-40.2627899999999954
11
6.4625300000000001
21
-40.4532659999999993
0
LINE
8
BLACK
6
CONTINUOUS
10
6.4625300000000001
20
-40.4532659999999993
11
6.367292
21
-40.738979999999998
0
LINE
8
BLACK
6
CONTINUOUS
10
6.367292
20
-40.738979999999998
11
5.2244349999999997
21
-41.8818379999999948
0
LINE
8
BLACK
6
CONTINUOUS
10
5.2244349999999997
20
-41.8818379999999948
11
6.4625300000000001
21
-41.8818379999999948
0
LINE
8
BLACK
6
CONTINUOUS
10
8.2720539999999989
20
-39.8818379999999948
11
7.3196729999999999
21
-39.8818379999999948
0
LINE
8
BLACK
6
CONTINUOUS
10
7.3196729999999999
20
-39.8818379999999948
11
7.2244349999999997
21
-40.8342189999999974
0
LINE
8
BLACK
6
CONTINUOUS
10
7.2244349999999997
20
-40.8342189999999974
11
7.3196729999999999
21
-40.738979999999998
0
LINE
8
BLACK
6
CONTINUOUS
10
7.3196729999999999
20
-40.738979999999998
11
7.5101489999999993
21
-40.643741999999996
0
LINE
8
BLACK
6
CONTINUOUS
10
7.5101489999999993
20
-40.643741999999996
11
7.9863399999999993
21
-40.643741999999996
0
LINE
8
BLACK
6
CONTINUOUS
10
7.9863399999999993
20
-40.643741999999996
11
8.1768159999999988
21
-40.738979999999998
0
LINE
8
BLACK
6
CONTINUOUS
10
8.1768159999999988
20
-40.738979999999998
11
8.2720539999999989
21
-40.8342189999999974
0
LINE
8
BLACK
6
CONTINUOUS
10
8.2720539999999989
20
-40.8342189999999974
11
8.3672919999999991
21
-41.0246950000000012
0
LINE
8
BLACK
6
CONTINUOUS
10
8.3672919999999991
20
-41.0246950000000012
11
8.3672919999999991
21
-41.5008849999999967
0
LINE
8
BLACK
6
CONTINUOUS
10
8.3672919999999991
20
-41.5008849999999967
11
8.2720539999999989
21
-41.6913610000000006
0
LINE
8
BLACK
6
CONTINUOUS
10
8.2720539999999989
20
-41.6913610000000006
11
8.1768159999999988
21
-41.7866
0
LINE
8
BLACK
6
CONTINUOUS
10
8.1768159999999988
20
-41.7866
11
7.9863399999999993
21
-41.8818379999999948
0
LINE
8
BLACK
6
CONTINUOUS
10
7.9863399999999993
20
-41.8818379999999948
11
7.5101489999999993
21
-41.8818379999999948
0
LINE
8
BLACK
6
CONTINUOUS
10
7.5101489999999993
20
-41.8818379999999948
11
7.3196729999999999
21
-41.7866
0
LINE
8
BLACK
6
CONTINUOUS
10
7.3196729999999999
20
-41.7866
11
7.2244349999999997
21
-41.6913610000000006
0
LINE
8
BLACK
6
CONTINUOUS
10
9.6053870000000003
20
-39.8818379999999948
11
9.7958639999999999
21
-39.8818379999999948
0
LINE
8
BLACK
6
CONTINUOUS
10
9.7958639999999999
20
-39.8818379999999948
11
9.9863400000000002
21
-39.9770759999999967
0
LINE
8
BLACK
6
CONTINUOUS
10
9.9863400000000002
20
-39.9770759999999967
11
10.0815780000000004
21
-40.0723139999999987
0
LINE
8
BLACK
6
CONTINUOUS
10
10.0815780000000004
20
-40.0723139999999987
11
10.1768159999999988
21
-40.2627899999999954
0
LINE
8
BLACK
6
CONTINUOUS
10
10.1768159999999988
20
-40.2627899999999954
11
10.2720539999999989
21
-40.643741999999996
0
LINE
8
BLACK
6
CONTINUOUS
10
10.2720539999999989
20
-40.643741999999996
11
10.2720539999999989
21
-41.1199329999999961
0
LINE
8
BLACK
6
CONTINUOUS
10
10.2720539999999989
20
-41.1199329999999961
11
10.1768159999999988
21
-41.5008849999999967
0
LINE
8
BLACK
6
CONTINUOUS
10
10.1768159999999988
20
-41.5008849999999967
11
10.0815780000000004
21
-41.6913610000000006
0
LINE
8
BLACK
6
CONTINUOUS
10
10.0815780000000004
20
-41.6913610000000006
11
9.9863400000000002
21
-41.7866
0
LINE
8
BLACK
6
CONTINUOUS
10
9.9863400000000002
20
-41.7866
11
9.7958639999999999
21
-41.8818379999999948
0
LINE
8
BLACK
6
CONTINUOUS
10
9.7958639999999999
20
-41.8818379999999948
11
9.6053870000000003
21
-41.8818379999999948
0
LINE
8
BLACK
6
CONTINUOUS
10
9.6053870000000003
20
-41.8818379999999948
11
9.414911
21
-41.7866
0
LINE
8
BLACK
6
CONTINUOUS
10
9.414911
20
-41.7866
11
9.3196729999999999
21
-41.6913610000000006
0
LINE
8
BLACK
6
CONTINUOUS
10
9.3196729999999999
20
-41.6913610000000006
11
9.2244349999999997
21
-41.5008849999999967
0
LINE
8
BLACK
6
CONTINUOUS
10
9.2244349999999997
20
-41.5008849999999967
11
9.1291969999999996
21
-41.1199329999999961
0
LINE
8
BLACK
6
CONTINUOUS
10
9.1291969999999996
20
-41.1199329999999961
11
9.1291969999999996
21
-40.643741999999996
0
LINE
8
BLACK
6
CONTINUOUS
10
9.1291969999999996
20
-40.643741999999996
11
9.2244349999999997
21
-40.2627899999999954
0
LINE
8
BLACK
6
CONTINUOUS
10
9.2244349999999997
20
-40.2627899999999954
11
9.3196729999999999
21
-40.0723139999999987
0
LINE
8
BLACK
6
CONTINUOUS
10
9.3196729999999999
20
-40.0723139999999987
11
9.414911
21
-39.9770759999999967
0
LINE
8
BLACK
6
CONTINUOUS
10
9.414911
20
-39.9770759999999967
11
9.6053870000000003
21
-39.8818379999999948
0
LINE
8
BLACK
6
CONTINUOUS
10
11.1291969999999996
20
-41.8818379999999948
11
11.1291969999999996
21
-40.5485040000000012
0
LINE
8
BLACK
6
CONTINUOUS
10
11.1291969999999996
20
-40.738979999999998
11
11.2244349999999997
21
-40.643741999999996
0
LINE
8
BLACK
6
CONTINUOUS
10
11.2244349999999997
20
-40.643741999999996
11
11.414911
21
-40.5485040000000012
0
LINE
8
BLACK
6
CONTINUOUS
10
11.414911
20
-40.5485040000000012
11
11.7006259999999997
21
-40.5485040000000012
0
LINE
8
BLACK
6
CONTINUOUS
10
11.7006259999999997
20
-40.5485040000000012
11
11.8911020000000001
21
-40.643741999999996
0
LINE
8
BLACK
6
CONTINUOUS
10
11.8911020000000001
20
-40.643741999999996
11
11.9863400000000002
21
-40.8342189999999974
0
LINE
8
BLACK
6
CONTINUOUS
10
11.9863400000000002
20
-40.8342189999999974
11
11.9863400000000002
21
-41.8818379999999948
0
LINE
8
BLACK
6
CONTINUOUS
10
11.9863400000000002
20
-40.8342189999999974
11
12.0815779999999986
21
-40.643741999999996
0
LINE
8
BLACK
6
CONTINUOUS
10
12.0815779999999986
20
-40.643741999999996
11
12.2720539999999989
21
-40.5485040000000012
0
LINE
8
BLACK
6
CONTINUOUS
10
12.2720539999999989
20
-40.5485040000000012
11
12.5577679999999994
21
-40.5485040000000012
0
LINE
8
BLACK
6
CONTINUOUS
10
12.5577679999999994
20
-40.5485040000000012
11
12.7482449999999989
21
-40.643741999999996
0
LINE
8
BLACK
6
CONTINUOUS
10
12.7482449999999989
20
-40.643741999999996
11
12.8434829999999991
21
-40.8342189999999974
0
LINE
8
BLACK
6
CONTINUOUS
10
12.8434829999999991
20
-40.8342189999999974
11
12.8434829999999991
21
-41.8818379999999948
0
LINE
8
BLACK
6
CONTINUOUS
10
13.7958639999999999
20
-41.8818379999999948
11
13.7958639999999999
21
-40.5485040000000012
0
LINE
8
BLACK
6
CONTINUOUS
10
13.7958639999999999
20
-40.738979999999998
11
13.8911020000000001
21
-40.643741999999996
0
LINE
8
BLACK
6
CONTINUOUS
10
13.8911020000000001
20
-40.643741999999996
11
14.0815779999999986
21
-40.5485040000000012
0
LINE
8
BLACK
6
CONTINUOUS
10
14.0815779999999986
20
-40.5485040000000012
11
14.3672930000000001
21
-40.5485040000000012
0
LINE
8
BLACK
6
CONTINUOUS
10
14.3672930000000001
20
-40.5485040000000012
11
14.5577689999999986
21
-40.643741999999996
0
LINE
8
BLACK
6
CONTINUOUS
10
14.5577689999999986
20
-40.643741999999996
11
14.6530069999999988
21
-40.8342189999999974
0
LINE
8
BLACK
6
CONTINUOUS
10
14.6530069999999988
20
-40.8342189999999974
11
14.6530069999999988
21
-41.8818379999999948
0
LINE
8
BLACK
6
CONTINUOUS
10
14.6530069999999988
20
-40.8342189999999974
11
14.7482449999999989
21
-40.643741999999996
0
LINE
8
BLACK
6
CONTINUOUS
10
14.7482449999999989
20
-40.643741999999996
11
14.9387209999999993
21
-40.5485040000000012
0
LINE
8
BLACK
6
CONTINUOUS
10
14.9387209999999993
20
-40.5485040000000012
11
15.2244349999999997
21
-40.5485040000000012
0
LINE
8
BLACK
6
CONTINUOUS
10
15.2244349999999997
20
-40.5485040000000012
11
15.4149119999999993
21
-40.643741999999996
0
LINE
8
BLACK
6
CONTINUOUS
10
15.4149119999999993
20
-40.643741999999996
11
15.5101499999999994
21
-40.8342189999999974
0
LINE
8
BLACK
6
CONTINUOUS
10
15.5101499999999994
20
-40.8342189999999974
11
15.5101499999999994
21
-41.8818379999999948
0
LINE
8
BLACK
6
CONTINUOUS
10
19.4149119999999975
20
-39.7866
11
17.7006270000000008
21
-42.3580279999999973
0
LINE
8
BLACK
6
CONTINUOUS
10
21.9863409999999995
20
-39.8818379999999948
11
22.1768179999999973
21
-39.8818379999999948
0
LINE
8
BLACK
6
CONTINUOUS
10
22.1768179999999973
20
-39.8818379999999948
11
22.3672939999999976
21
-39.9770759999999967
0
LINE
8
BLACK
6
CONTINUOUS
10
22.3672939999999976
20
-39.9770759999999967
11
22.4625319999999995
21
-40.0723139999999987
0
LINE
8
BLACK
6
CONTINUOUS
10
22.4625319999999995
20
-40.0723139999999987
11
22.5577699999999979
21
-40.2627899999999954
0
LINE
8
BLACK
6
CONTINUOUS
10
22.5577699999999979
20
-40.2627899999999954
11
22.6530079999999998
21
-40.643741999999996
0
LINE
8
BLACK
6
CONTINUOUS
10
22.6530079999999998
20
-40.643741999999996
11
22.6530079999999998
21
-41.1199329999999961
0
LINE
8
BLACK
6
CONTINUOUS
10
22.6530079999999998
20
-41.1199329999999961
11
22.5577699999999979
21
-41.5008849999999967
0
LINE
8
BLACK
6
CONTINUOUS
10
22.5577699999999979
20
-41.5008849999999967
11
22.4625319999999995
21
-41.6913610000000006
0
LINE
8
BLACK
6
CONTINUOUS
10
22.4625319999999995
20
-41.6913610000000006
11
22.3672939999999976
21
-41.7866
0
LINE
8
BLACK
6
CONTINUOUS
10
22.3672939999999976
20
-41.7866
11
22.1768179999999973
21
-41.8818379999999948
0
LINE
8
BLACK
6
CONTINUOUS
10
22.1768179999999973
20
-41.8818379999999948
11
21.9863409999999995
21
-41.8818379999999948
0
LINE
8
BLACK
6
CONTINUOUS
10
21.9863409999999995
20
-41.8818379999999948
11
21.7958649999999992
21
-41.7866
0
LINE
8
BLACK
6
CONTINUOUS
10
21.7958649999999992
20
-41.7866
11
21.7006270000000008
21
-41.6913610000000006
0
LINE
8
BLACK
6
CONTINUOUS
10
21.7006270000000008
20
-41.6913610000000006
11
21.6053889999999988
21
-41.5008849999999967
0
LINE
8
BLACK
6
CONTINUOUS
10
21.6053889999999988
20
-41.5008849999999967
11
21.5101510000000005
21
-41.1199329999999961
0
LINE
8
BLACK
6
CONTINUOUS
10
21.5101510000000005
20
-41.1199329999999961
11
21.5101510000000005
21
-40.643741999999996
0
LINE
8
BLACK
6
CONTINUOUS
10
21.5101510000000005
20
-40.643741999999996
11
21.6053889999999988
21
-40.2627899999999954
0
LINE
8
BLACK
6
CONTINUOUS
10
21.6053889999999988
20
-40.2627899999999954
11
21.7006270000000008
21
-40.0723139999999987
0
LINE
8
BLACK
6
CONTINUOUS
10
21.7006270000000008
20
-40.0723139999999987
11
21.7958649999999992
21
-39.9770759999999967
0
LINE
8
BLACK
6
CONTINUOUS
10
21.7958649999999992
20
-39.9770759999999967
11
21.9863409999999995
21
-39.8818379999999948
0
LINE
8
BLACK
6
CONTINUOUS
10
23.5101510000000005
20
-41.6913610000000006
11
23.6053889999999988
21
-41.7866
0
LINE
8
BLACK
6
CONTINUOUS
10
23.6053889999999988
20
-41.7866
11
23.5101510000000005
21
-41.8818379999999948
0
LINE
8
BLACK
6
CONTINUOUS
10
23.5101510000000005
20
-41.8818379999999948
11
23.4149129999999985
21
-41.7866
0
LINE
8
BLACK
6
CONTINUOUS
10
23.4149129999999985
20
-41.7866
11
23.5101510000000005
21
-41.6913610000000006
0
LINE
8
BLACK
6
CONTINUOUS
10
23.5101510000000005
20
-41.6913610000000006
11
23.5101510000000005
21
-41.8818379999999948
0
LINE
8
BLACK
6
CONTINUOUS
10
24.8434840000000001
20
-39.8818379999999948
11
25.0339609999999979
21
-39.8818379999999948
0
LINE
8
BLACK
6
CONTINUOUS
10
25.0339609999999979
20
-39.8818379999999948
11
25.2244369999999982
21
-39.9770759999999967
0
LINE
8
BLACK
6
CONTINUOUS
10
25.2244369999999982
20
-39.9770759999999967
11
25.3196750000000002
21
-40.0723139999999987
0
LINE
8
BLACK
6
CONTINUOUS
10
25.3196750000000002
20
-40.0723139999999987
11
25.4149129999999985
21
-40.2627899999999954
0
LINE
8
BLACK
6
CONTINUOUS
10
25.4149129999999985
20
-40.2627899999999954
11
25.5101510000000005
21
-40.643741999999996
0
LINE
8
BLACK
6
CONTINUOUS
10
25.5101510000000005
20
-40.643741999999996
11
25.5101510000000005
21
-41.1199329999999961
0
LINE
8
BLACK
6
CONTINUOUS
10
25.5101510000000005
20
-41.1199329999999961
11
25.4149129999999985
21
-41.5008849999999967
0
LINE
8
BLACK
6
CONTINUOUS
10
25.4149129999999985
20
-41.5008849999999967
11
25.3196750000000002
21
-41.6913610000000006
0
LINE
8
BLACK
6
CONTINUOUS
10
25.3196750000000002
20
-41.6913610000000006
11
25.2244369999999982
21
-41.7866
0
LINE
8
BLACK
6
CONTINUOUS
10
25.2244369999999982
20
-41.7866
11
25.0339609999999979
21
-41.8818379999999948
0
LINE
8
BLACK
6
CONTINUOUS
10
25.0339609999999979
20
-41.8818379999999948
11
24.8434840000000001
21
-41.8818379999999948
0
LINE
8
BLACK
6
CONTINUOUS
10
24.8434840000000001
20
-41.8818379999999948
11
24.6530079999999998
21
-41.7866
0
LINE
8
BLACK
6
CONTINUOUS
10
24.6530079999999998
20
-41.7866
11
24.5577699999999979
21
-41.6913610000000006
0
LINE
8
BLACK
6
CONTINUOUS
10
24.5577699999999979
20
-41.6913610000000006
11
24.4625319999999995
21
-41.5008849999999967
0
LINE
8
BLACK
6
CONTINUOUS
10
24.4625319999999995
20
-41.5008849999999967
11
24.3672939999999976
21
-41.1199329999999961
0
LINE
8
BLACK
6
CONTINUOUS
10
24.3672939999999976
20
-41.1199329999999961
11
24.3672939999999976
21
-40.643741999999996
0
LINE
8
BLACK
6
CONTINUOUS
10
24.3672939999999976
20
-40.643741999999996
11
24.4625319999999995
21
-40.2627899999999954
0
LINE
8
BLACK
6
CONTINUOUS
10
24.4625319999999995
20
-40.2627899999999954
11
24.5577699999999979
21
-40.0723139999999987
0
LINE
8
BLACK
6
CONTINUOUS
10
24.5577699999999979
20
-40.0723139999999987
11
24.6530079999999998
21
-39.9770759999999967
0
LINE
8
BLACK
6
CONTINUOUS
10
24.6530079999999998
20
-39.9770759999999967
11
24.8434840000000001
21
-39.8818379999999948
0
LINE
8
BLACK
6
CONTINUOUS
10
26.7482459999999982
20
-39.8818379999999948
11
26.9387229999999995
21
-39.8818379999999948
0
LINE
8
BLACK
6
CONTINUOUS
10
26.9387229999999995
20
-39.8818379999999948
11
27.1291989999999998
21
-39.9770759999999967
0
LINE
8
BLACK
6
CONTINUOUS
10
27.1291989999999998
20
-39.9770759999999967
11
27.2244369999999982
21
-40.0723139999999987
0
LINE
8
BLACK
6
CONTINUOUS
10
27.2244369999999982
20
-40.0723139999999987
11
27.3196750000000002
21
-40.2627899999999954
0
LINE
8
BLACK
6
CONTINUOUS
10
27.3196750000000002
20
-40.2627899999999954
11
27.4149129999999985
21
-40.643741999999996
0
LINE
8
BLACK
6
CONTINUOUS
10
27.4149129999999985
20
-40.643741999999996
11
27.4149129999999985
21
-41.1199329999999961
0
LINE
8
BLACK
6
CONTINUOUS
10
27.4149129999999985
20
-41.1199329999999961
11
27.3196750000000002
21
-41.5008849999999967
0
LINE
8
BLACK
6
CONTINUOUS
10
27.3196750000000002
20
-41.5008849999999967
11
27.2244369999999982
21
-41.6913610000000006
0
LINE
8
BLACK
6
CONTINUOUS
10
27.2244369999999982
20
-41.6913610000000006
11
27.1291989999999998
21
-41.7866
0
LINE
8
BLACK
6
CONTINUOUS
10
27.1291989999999998
20
-41.7866
11
26.9387229999999995
21
-41.8818379999999948
0
LINE
8
BLACK
6
CONTINUOUS
10
26.9387229999999995
20
-41.8818379999999948
11
26.7482459999999982
21
-41.8818379999999948
0
LINE
8
BLACK
6
CONTINUOUS
10
26.7482459999999982
20
-41.8818379999999948
11
26.5577699999999979
21
-41.7866
0
LINE
8
BLACK
6
CONTINUOUS
10
26.5577699999999979
20
-41.7866
11
26.4625319999999995
21
-41.6913610000000006
0
LINE
8
BLACK
6
CONTINUOUS
10
26.4625319999999995
20
-41.6913610000000006
11
26.3672939999999976
21
-41.5008849999999967
0
LINE
8
BLACK
6
CONTINUOUS
10
26.3672939999999976
20
-41.5008849999999967
11
26.2720559999999992
21
-41.1199329999999961
0
LINE
8
BLACK
6
CONTINUOUS
10
26.2720559999999992
20
-41.1199329999999961
11
26.2720559999999992
21
-40.643741999999996
0
LINE
8
BLACK
6
CONTINUOUS
10
26.2720559999999992
20
-40.643741999999996
11
26.3672939999999976
21
-40.2627899999999954
0
LINE
8
BLACK
6
CONTINUOUS
10
26.3672939999999976
20
-40.2627899999999954
11
26.4625319999999995
21
-40.0723139999999987
0
LINE
8
BLACK
6
CONTINUOUS
10
26.4625319999999995
20
-40.0723139999999987
11
26.5577699999999979
21
-39.9770759999999967
0
LINE
8
BLACK
6
CONTINUOUS
10
26.5577699999999979
20
-39.9770759999999967
11
26.7482459999999982
21
-39.8818379999999948
0
LINE
8
BLACK
6
CONTINUOUS
10
28.3672939999999976
20
-41.8818379999999948
11
28.7482459999999982
21
-41.8818379999999948
0
LINE
8
BLACK
6
CONTINUOUS
10
28.7482459999999982
20
-41.8818379999999948
11
28.9387229999999995
21
-41.7866
0
LINE
8
BLACK
6
CONTINUOUS
10
28.9387229999999995
20
-41.7866
11
29.0339609999999979
21
-41.6913610000000006
0
LINE
8
BLACK
6
CONTINUOUS
10
29.0339609999999979
20
-41.6913610000000006
11
29.2244369999999982
21
-41.4056469999999948
0
LINE
8
BLACK
6
CONTINUOUS
10
29.2244369999999982
20
-41.4056469999999948
11
29.3196750000000002
21
-41.0246950000000012
0
LINE
8
BLACK
6
CONTINUOUS
10
29.3196750000000002
20
-41.0246950000000012
11
29.3196750000000002
21
-40.2627899999999954
0
LINE
8
BLACK
6
CONTINUOUS
10
29.3196750000000002
20
-40.2627899999999954
11
29.2244369999999982
21
-40.0723139999999987
0
LINE
8
BLACK
6
CONTINUOUS
10
29.2244369999999982
20
-40.0723139999999987
11
29.1291989999999998
21
-39.9770759999999967
0
LINE
8
BLACK
6
CONTINUOUS
10
29.1291989999999998
20
-39.9770759999999967
11
28.9387229999999995
21
-39.8818379999999948
0
LINE
8
BLACK
6
CONTINUOUS
10
28.9387229999999995
20
-39.8818379999999948
11
28.5577699999999979
21
-39.8818379999999948
0
LINE
8
BLACK
6
CONTINUOUS
10
28.5577699999999979
20
-39.8818379999999948
11
28.3672939999999976
21
-39.9770759999999967
0
LINE
8
BLACK
6
CONTINUOUS
10
28.3672939999999976
20
-39.9770759999999967
11
28.2720559999999992
21
-40.0723139999999987
0
LINE
8
BLACK
6
CONTINUOUS
10
28.2720559999999992
20
-40.0723139999999987
11
28.1768179999999973
21
-40.2627899999999954
0
LINE
8
BLACK
6
CONTINUOUS
10
28.1768179999999973
20
-40.2627899999999954
11
28.1768179999999973
21
-40.738979999999998
0
LINE
8
BLACK
6
CONTINUOUS
10
28.1768179999999973
20
-40.738979999999998
11
28.2720559999999992
21
-40.9294569999999993
0
LINE
8
BLACK
6
CONTINUOUS
10
28.2720559999999992
20
-40.9294569999999993
11
28.3672939999999976
21
-41.0246950000000012
0
LINE
8
BLACK
6
CONTINUOUS
10
28.3672939999999976
20
-41.0246950000000012
11
28.5577699999999979
21
-41.1199329999999961
0
LINE
8
BLACK
6
CONTINUOUS
10
28.5577699999999979
20
-41.1199329999999961
11
28.9387229999999995
21
-41.1199329999999961
0
LINE
8
BLACK
6
CONTINUOUS
10
28.9387229999999995
20
-41.1199329999999961
11
29.1291989999999998
21
-41.0246950000000012
0
LINE
8
BLACK
6
CONTINUOUS
10
29.1291989999999998
20
-41.0246950000000012
11
29.2244369999999982
21
-40.9294569999999993
0
LINE
8
BLACK
6
CONTINUOUS
10
29.2244369999999982
20
-40.9294569999999993
11
29.3196750000000002
21
-40.738979999999998
0
LINE
8
BLACK
6
CONTINUOUS
10
30.4625319999999995
20
-40.738979999999998
11
30.2720559999999992
21
-40.643741999999996
0
LINE
8
BLACK
6
CONTINUOUS
10
30.2720559999999992
20
-40.643741999999996
11
30.1768179999999973
21
-40.5485040000000012
0
LINE
8
BLACK
6
CONTINUOUS
10
30.1768179999999973
20
-40.5485040000000012
11
30.0815799999999989
21
-40.3580279999999973
0
LINE
8
BLACK
6
CONTINUOUS
10
30.0815799999999989
20
-40.3580279999999973
11
30.0815799999999989
21
-40.2627899999999954
0
LINE
8
BLACK
6
CONTINUOUS
10
30.0815799999999989
20
-40.2627899999999954
11
30.1768179999999973
21
-40.0723139999999987
0
LINE
8
BLACK
6
CONTINUOUS
10
30.1768179999999973
20
-40.0723139999999987
11
30.2720559999999992
21
-39.9770759999999967
0
LINE
8
BLACK
6
CONTINUOUS
10
30.2720559999999992
20
-39.9770759999999967
11
30.4625319999999995
21
-39.8818379999999948
0
LINE
8
BLACK
6
CONTINUOUS
10
30.4625319999999995
20
-39.8818379999999948
11
30.8434849999999976
21
-39.8818379999999948
0
LINE
8
BLACK
6
CONTINUOUS
10
30.8434849999999976
20
-39.8818379999999948
11
31.0339609999999979
21
-39.9770759999999967
0
LINE
8
BLACK
6
CONTINUOUS
10
31.0339609999999979
20
-39.9770759999999967
11
31.1291989999999998
21
-40.0723139999999987
0
LINE
8
BLACK
6
CONTINUOUS
10
31.1291989999999998
20
-40.0723139999999987
11
31.2244369999999982
21
-40.2627899999999954
0
LINE
8
BLACK
6
CONTINUOUS
10
31.2244369999999982
20
-40.2627899999999954
11
31.2244369999999982
21
-40.3580279999999973
0
LINE
8
BLACK
6
CONTINUOUS
10
31.2244369999999982
20
-40.3580279999999973
11
31.1291989999999998
21
-40.5485040000000012
0
LINE
8
BLACK
6
CONTINUOUS
10
31.1291989999999998
20
-40.5485040000000012
11
31.0339609999999979
21
-40.643741999999996
0
LINE
8
BLACK
6
CONTINUOUS
10
31.0339609999999979
20
-40.643741999999996
11
30.8434849999999976
21
-40.738979999999998
0
LINE
8
BLACK
6
CONTINUOUS
10
30.8434849999999976
20
-40.738979999999998
11
30.4625319999999995
21
-40.738979999999998
0
LINE
8
BLACK
6
CONTINUOUS
10
30.4625319999999995
20
-40.738979999999998
11
30.2720559999999992
21
-40.8342189999999974
0
LINE
8
BLACK
6
CONTINUOUS
10
30.2720559999999992
20
-40.8342189999999974
11
30.1768179999999973
21
-40.9294569999999993
0
LINE
8
BLACK
6
CONTINUOUS
10
30.1768179999999973
20
-40.9294569999999993
11
30.0815799999999989
21
-41.1199329999999961
0
LINE
8
BLACK
6
CONTINUOUS
10
30.0815799999999989
20
-41.1199329999999961
11
30.0815799999999989
21
-41.5008849999999967
0
LINE
8
BLACK
6
CONTINUOUS
10
30.0815799999999989
20
-41.5008849999999967
11
30.1768179999999973
21
-41.6913610000000006
0
LINE
8
BLACK
6
CONTINUOUS
10
30.1768179999999973
20
-41.6913610000000006
11
30.2720559999999992
21
-41.7866
0
LINE
8
BLACK
6
CONTINUOUS
10
30.2720559999999992
20
-41.7866
11
30.4625319999999995
21
-41.8818379999999948
0
LINE
8
BLACK
6
CONTINUOUS
10
30.4625319999999995
20
-41.8818379999999948
11
30.8434849999999976
21
-41.8818379999999948
0
LINE
8
BLACK
6
CONTINUOUS
10
30.8434849999999976
20
-41.8818379999999948
11
31.0339609999999979
21
-41.7866
0
LINE
8
BLACK
6
CONTINUOUS
10
31.0339609999999979
20
-41.7866
11
31.1291989999999998
21
-41.6913610000000006
0
LINE
8
BLACK
6
CONTINUOUS
10
31.1291989999999998
20
-41.6913610000000006
11
31.2244369999999982
21
-41.5008849999999967
0
LINE
8
BLACK
6
CONTINUOUS
10
31.2244369999999982
20
-41.5008849999999967
11
31.2244369999999982
21
-41.1199329999999961
0
LINE
8
BLACK
6
CONTINUOUS
10
31.2244369999999982
20
-41.1199329999999961
11
31.1291989999999998
21
-40.9294569999999993
0
LINE
8
BLACK
6
CONTINUOUS
10
31.1291989999999998
20
-40.9294569999999993
11
31.0339609999999979
21
-40.8342189999999974
0
LINE
8
BLACK
6
CONTINUOUS
10
31.0339609999999979
20
-40.8342189999999974
11
30.8434849999999976
21
-40.738979999999998
0
LINE
8
BLACK
6
CONTINUOUS
10
31.9863419999999969
20
-39.8818379999999948
11
31.9863419999999969
21
-40.2627899999999954
0
LINE
8
BLACK
6
CONTINUOUS
10
32.7482469999999992
20
-39.8818379999999948
11
32.7482469999999992
21
-40.2627899999999954
0
LINE
8
BLACK
6
CONTINUOUS
10
35.7006289999999993
20
-42.643741999999996
11
35.6053899999999999
21
-42.5485040000000012
0
LINE
8
BLACK
6
CONTINUOUS
10
35.6053899999999999
20
-42.5485040000000012
11
35.414913999999996
21
-42.2627899999999954
0
LINE
8
BLACK
6
CONTINUOUS
10
35.414913999999996
20
-42.2627899999999954
11
35.3196760000000012
21
-42.0723139999999987
0
LINE
8
BLACK
6
CONTINUOUS
10
35.3196760000000012
20
-42.0723139999999987
11
35.2244379999999992
21
-41.7866
0
LINE
8
BLACK
6
CONTINUOUS
10
35.2244379999999992
20
-41.7866
11
35.1291999999999973
21
-41.3104089999999999
0
LINE
8
BLACK
6
CONTINUOUS
10
35.1291999999999973
20
-41.3104089999999999
11
35.1291999999999973
21
-40.9294569999999993
0
LINE
8
BLACK
6
CONTINUOUS
10
35.1291999999999973
20
-40.9294569999999993
11
35.2244379999999992
21
-40.4532659999999993
0
LINE
8
BLACK
6
CONTINUOUS
10
35.2244379999999992
20
-40.4532659999999993
11
35.3196760000000012
21
-40.1675520000000006
0
LINE
8
BLACK
6
CONTINUOUS
10
35.3196760000000012
20
-40.1675520000000006
11
35.414913999999996
21
-39.9770759999999967
0
LINE
8
BLACK
6
CONTINUOUS
10
35.414913999999996
20
-39.9770759999999967
11
35.6053899999999999
21
-39.6913610000000006
0
LINE
8
BLACK
6
CONTINUOUS
10
35.6053899999999999
20
-39.6913610000000006
11
35.7006289999999993
21
-39.5961229999999986
0
LINE
8
BLACK
6
CONTINUOUS
10
37.3196760000000012
20
-39.8818379999999948
11
36.938722999999996
21
-39.8818379999999948
0
LINE
8
BLACK
6
CONTINUOUS
10
36.938722999999996
20
-39.8818379999999948
11
36.7482469999999992
21
-39.9770759999999967
0
LINE
8
BLACK
6
CONTINUOUS
10
36.7482469999999992
20
-39.9770759999999967
11
36.6530089999999973
21
-40.0723139999999987
0
LINE
8
BLACK
6
CONTINUOUS
10
36.6530089999999973
20
-40.0723139999999987
11
36.4625330000000005
21
-40.3580279999999973
0
LINE
8
BLACK
6
CONTINUOUS
10
36.4625330000000005
20
-40.3580279999999973
11
36.3672949999999986
21
-40.738979999999998
0
LINE
8
BLACK
6
CONTINUOUS
10
36.3672949999999986
20
-40.738979999999998
11
36.3672949999999986
21
-41.5008849999999967
0
LINE
8
BLACK
6
CONTINUOUS
10
36.3672949999999986
20
-41.5008849999999967
11
36.4625330000000005
21
-41.6913610000000006
0
LINE
8
BLACK
6
CONTINUOUS
10
36.4625330000000005
20
-41.6913610000000006
11
36.5577709999999954
21
-41.7866
0
LINE
8
BLACK
6
CONTINUOUS
10
36.5577709999999954
20
-41.7866
11
36.7482469999999992
21
-41.8818379999999948
0
LINE
8
BLACK
6
CONTINUOUS
10
36.7482469999999992
20
-41.8818379999999948
11
37.1291999999999973
21
-41.8818379999999948
0
LINE
8
BLACK
6
CONTINUOUS
10
37.1291999999999973
20
-41.8818379999999948
11
37.3196760000000012
21
-41.7866
0
LINE
8
BLACK
6
CONTINUOUS
10
37.3196760000000012
20
-41.7866
11
37.414913999999996
21
-41.6913610000000006
0
LINE
8
BLACK
6
CONTINUOUS
10
37.414913999999996
20
-41.6913610000000006
11
37.5101519999999979
21
-41.5008849999999967
0
LINE
8
BLACK
6
CONTINUOUS
10
37.5101519999999979
20
-41.5008849999999967
11
37.5101519999999979
21
-41.0246950000000012
0
LINE
8
BLACK
6
CONTINUOUS
10
37.5101519999999979
20
-41.0246950000000012
11
37.414913999999996
21
-40.8342189999999974
0
LINE
8
BLACK
6
CONTINUOUS
10
37.414913999999996
20
-40.8342189999999974
11
37.3196760000000012
21
-40.738979999999998
0
LINE
8
BLACK
6
CONTINUOUS
10
37.3196760000000012
20
-40.738979999999998
11
37.1291999999999973
21
-40.643741999999996
0
LINE
8
BLACK
6
CONTINUOUS
10
37.1291999999999973
20
-40.643741999999996
11
36.7482469999999992
21
-40.643741999999996
0
LINE
8
BLACK
6
CONTINUOUS
10
36.7482469999999992
20
-40.643741999999996
11
36.5577709999999954
21
-40.738979999999998
0
LINE
8
BLACK
6
CONTINUOUS
10
36.5577709999999954
20
-40.738979999999998
11
36.4625330000000005
21
-40.8342189999999974
0
LINE
8
BLACK
6
CONTINUOUS
10
36.4625330000000005
20
-40.8342189999999974
11
36.3672949999999986
21
-41.0246950000000012
0
LINE
8
BLACK
6
CONTINUOUS
10
39.414913999999996
20
-41.8818379999999948
11
38.2720569999999967
21
-41.8818379999999948
0
LINE
8
BLACK
6
CONTINUOUS
10
38.8434850000000012
20
-41.8818379999999948
11
38.8434850000000012
21
-39.8818379999999948
0
LINE
8
BLACK
6
CONTINUOUS
10
38.8434850000000012
20
-39.8818379999999948
11
38.6530089999999973
21
-40.1675520000000006
0
LINE
8
BLACK
6
CONTINUOUS
10
38.6530089999999973
20
-40.1675520000000006
11
38.4625330000000005
21
-40.3580279999999973
0
LINE
8
BLACK
6
CONTINUOUS
10
38.4625330000000005
20
-40.3580279999999973
11
38.2720569999999967
21
-40.4532659999999993
0
LINE
8
BLACK
6
CONTINUOUS
10
41.7958670000000012
20
-41.8818379999999948
11
41.7958670000000012
21
-39.8818379999999948
0
LINE
8
BLACK
6
CONTINUOUS
10
42.6530099999999948
20
-41.8818379999999948
11
42.6530099999999948
21
-40.8342189999999974
0
LINE
8
BLACK
6
CONTINUOUS
10
42.6530099999999948
20
-40.8342189999999974
11
42.5577719999999999
21
-40.643741999999996
0
LINE
8
BLACK
6
CONTINUOUS
10
42.5577719999999999
20
-40.643741999999996
11
42.3672959999999961
21
-40.5485040000000012
0
LINE
8
BLACK
6
CONTINUOUS
10
42.3672959999999961
20
-40.5485040000000012
11
42.0815809999999999
21
-40.5485040000000012
0
LINE
8
BLACK
6
CONTINUOUS
10
42.0815809999999999
20
-40.5485040000000012
11
41.891104999999996
21
-40.643741999999996
0
LINE
8
BLACK
6
CONTINUOUS
10
41.891104999999996
20
-40.643741999999996
11
41.7958670000000012
21
-40.738979999999998
0
LINE
8
BLACK
6
CONTINUOUS
10
43.891104999999996
20
-41.8818379999999948
11
43.7006289999999993
21
-41.7866
0
LINE
8
BLACK
6
CONTINUOUS
10
43.7006289999999993
20
-41.7866
11
43.6053909999999973
21
-41.6913610000000006
0
LINE
8
BLACK
6
CONTINUOUS
10
43.6053909999999973
20
-41.6913610000000006
11
43.5101529999999954
21
-41.5008849999999967
0
LINE
8
BLACK
6
CONTINUOUS
10
43.5101529999999954
20
-41.5008849999999967
11
43.5101529999999954
21
-40.9294569999999993
0
LINE
8
BLACK
6
CONTINUOUS
10
43.5101529999999954
20
-40.9294569999999993
11
43.6053909999999973
21
-40.738979999999998
0
LINE
8
BLACK
6
CONTINUOUS
10
43.6053909999999973
20
-40.738979999999998
11
43.7006289999999993
21
-40.643741999999996
0
LINE
8
BLACK
6
CONTINUOUS
10
43.7006289999999993
20
-40.643741999999996
11
43.891104999999996
21
-40.5485040000000012
0
LINE
8
BLACK
6
CONTINUOUS
10
43.891104999999996
20
-40.5485040000000012
11
44.1768199999999993
21
-40.5485040000000012
0
LINE
8
BLACK
6
CONTINUOUS
10
44.1768199999999993
20
-40.5485040000000012
11
44.3672959999999961
21
-40.643741999999996
0
LINE
8
BLACK
6
CONTINUOUS
10
44.3672959999999961
20
-40.643741999999996
11
44.462533999999998
21
-40.738979999999998
0
LINE
8
BLACK
6
CONTINUOUS
10
44.462533999999998
20
-40.738979999999998
11
44.5577719999999999
21
-40.9294569999999993
0
LINE
8
BLACK
6
CONTINUOUS
10
44.5577719999999999
20
-40.9294569999999993
11
44.5577719999999999
21
-41.5008849999999967
0
LINE
8
BLACK
6
CONTINUOUS
10
44.5577719999999999
20
-41.5008849999999967
11
44.462533999999998
21
-41.6913610000000006
0
LINE
8
BLACK
6
CONTINUOUS
10
44.462533999999998
20
-41.6913610000000006
11
44.3672959999999961
21
-41.7866
0
LINE
8
BLACK
6
CONTINUOUS
10
44.3672959999999961
20
-41.7866
11
44.1768199999999993
21
-41.8818379999999948
0
LINE
8
BLACK
6
CONTINUOUS
10
44.1768199999999993
20
-41.8818379999999948
11
43.891104999999996
21
-41.8818379999999948
0
LINE
8
BLACK
6
CONTINUOUS
10
45.7006289999999993
20
-41.8818379999999948
11
45.5101529999999954
21
-41.7866
0
LINE
8
BLACK
6
CONTINUOUS
10
45.5101529999999954
20
-41.7866
11
45.4149150000000006
21
-41.5961229999999986
0
LINE
8
BLACK
6
CONTINUOUS
10
45.4149150000000006
20
-41.5961229999999986
11
45.4149150000000006
21
-39.8818379999999948
0
LINE
8
BLACK
6
CONTINUOUS
10
47.2244389999999967
20
-41.7866
11
47.033963
21
-41.8818379999999948
0
LINE
8
BLACK
6
CONTINUOUS
10
47.033963
20
-41.8818379999999948
11
46.6530099999999948
21
-41.8818379999999948
0
LINE
8
BLACK
6
CONTINUOUS
10
46.6530099999999948
20
-41.8818379999999948
11
46.462533999999998
21
-41.7866
0
LINE
8
BLACK
6
CONTINUOUS
10
46.462533999999998
20
-41.7866
11
46.3672959999999961
21
-41.5961229999999986
0
LINE
8
BLACK
6
CONTINUOUS
10
46.3672959999999961
20
-41.5961229999999986
11
46.3672959999999961
21
-40.8342189999999974
0
LINE
8
BLACK
6
CONTINUOUS
10
46.3672959999999961
20
-40.8342189999999974
11
46.462533999999998
21
-40.643741999999996
0
LINE
8
BLACK
6
CONTINUOUS
10
46.462533999999998
20
-40.643741999999996
11
46.6530099999999948
21
-40.5485040000000012
0
LINE
8
BLACK
6
CONTINUOUS
10
46.6530099999999948
20
-40.5485040000000012
11
47.033963
21
-40.5485040000000012
0
LINE
8
BLACK
6
CONTINUOUS
10
47.033963
20
-40.5485040000000012
11
47.2244389999999967
21
-40.643741999999996
0
LINE
8
BLACK
6
CONTINUOUS
10
47.2244389999999967
20
-40.643741999999996
11
47.3196769999999987
21
-40.8342189999999974
0
LINE
8
BLACK
6
CONTINUOUS
10
47.3196769999999987
20
-40.8342189999999974
11
47.3196769999999987
21
-41.0246950000000012
0
LINE
8
BLACK
6
CONTINUOUS
10
47.3196769999999987
20
-41.0246950000000012
11
46.3672959999999961
21
-41.215170999999998
0
LINE
8
BLACK
6
CONTINUOUS
10
48.0815819999999974
20
-41.7866
11
48.2720580000000012
21
-41.8818379999999948
0
LINE
8
BLACK
6
CONTINUOUS
10
48.2720580000000012
20
-41.8818379999999948
11
48.6530099999999948
21
-41.8818379999999948
0
LINE
8
BLACK
6
CONTINUOUS
10
48.6530099999999948
20
-41.8818379999999948
11
48.8434869999999961
21
-41.7866
0
LINE
8
BLACK
6
CONTINUOUS
10
48.8434869999999961
20
-41.7866
11
48.938724999999998
21
-41.5961229999999986
0
LINE
8
BLACK
6
CONTINUOUS
10
48.938724999999998
20
-41.5961229999999986
11
48.938724999999998
21
-41.5008849999999967
0
LINE
8
BLACK
6
CONTINUOUS
10
48.938724999999998
20
-41.5008849999999967
11
48.8434869999999961
21
-41.3104089999999999
0
LINE
8
BLACK
6
CONTINUOUS
10
48.8434869999999961
20
-41.3104089999999999
11
48.6530099999999948
21
-41.215170999999998
0
LINE
8
BLACK
6
CONTINUOUS
10
48.6530099999999948
20
-41.215170999999998
11
48.3672959999999961
21
-41.215170999999998
0
LINE
8
BLACK
6
CONTINUOUS
10
48.3672959999999961
20
-41.215170999999998
11
48.1768199999999993
21
-41.1199329999999961
0
LINE
8
BLACK
6
CONTINUOUS
10
48.1768199999999993
20
-41.1199329999999961
11
48.0815819999999974
21
-40.9294569999999993
0
LINE
8
BLACK
6
CONTINUOUS
10
48.0815819999999974
20
-40.9294569999999993
11
48.0815819999999974
21
-40.8342189999999974
0
LINE
8
BLACK
6
CONTINUOUS
10
48.0815819999999974
20
-40.8342189999999974
11
48.1768199999999993
21
-40.643741999999996
0
LINE
8
BLACK
6
CONTINUOUS
10
48.1768199999999993
20
-40.643741999999996
11
48.3672959999999961
21
-40.5485040000000012
0
LINE
8
BLACK
6
CONTINUOUS
10
48.3672959999999961
20
-40.5485040000000012
11
48.6530099999999948
21
-40.5485040000000012
0
LINE
8
BLACK
6
CONTINUOUS
10
48.6530099999999948
20
-40.5485040000000012
11
48.8434869999999961
21
-40.643741999999996
0
LINE
8
BLACK
6
CONTINUOUS
10
49.6053919999999948
20
-42.643741999999996
11
49.7006299999999968
21
-42.5485040000000012
0
LINE
8
BLACK
6
CONTINUOUS
10
49.7006299999999968
20
-42.5485040000000012
11
49.8911060000000006
21
-42.2627899999999954
0
LINE
8
BLACK
6
CONTINUOUS
10
49.8911060000000006
20
-42.2627899999999954
11
49.9863439999999954
21
-42.0723139999999987
0
LINE
8
BLACK
6
CONTINUOUS
10
49.9863439999999954
20
-42.0723139999999987
11
50.0815819999999974
21
-41.7866
0
LINE
8
BLACK
6
CONTINUOUS
10
50.0815819999999974
20
-41.7866
11
50.1768199999999993
21
-41.3104089999999999
0
LINE
8
BLACK
6
CONTINUOUS
10
50.1768199999999993
20
-41.3104089999999999
11
50.1768199999999993
21
-40.9294569999999993
0
LINE
8
BLACK
6
CONTINUOUS
10
50.1768199999999993
20
-40.9294569999999993
11
50.0815819999999974
21
-40.4532659999999993
0
LINE
8
BLACK
6
CONTINUOUS
10
50.0815819999999974
20
-40.4532659999999993
11
49.9863439999999954
21
-40.1675520000000006
0
LINE
8
BLACK
6
CONTINUOUS
10
49.9863439999999954
20
-40.1675520000000006
11
49.8911060000000006
21
-39.9770759999999967
0
LINE
8
BLACK
6
CONTINUOUS
10
49.8911060000000006
20
-39.9770759999999967
11
49.7006299999999968
21
-39.6913610000000006
0
LINE
8
BLACK
6
CONTINUOUS
10
49.7006299999999968
20
-39.6913610000000006
11
49.6053919999999948
21
-39.5961229999999986
0
LINE
8
BLACK
6
CONTINUOUS
10
-0.35
20
-43.3069999999999951
11
-0.35
21
-43.9069999999999965
0
LINE
8
BLACK
6
CONTINUOUS
10
-0.65
20
-43.6069999999999993
11
-0.05
21
-43.6069999999999993
0
LINE
8
BLACK
6
CONTINUOUS
10
2.93872
20
-42.5218379999999954
11
3.129197
21
-42.5218379999999954
0
LINE
8
BLACK
6
CONTINUOUS
10
3.129197
20
-42.5218379999999954
11
3.3196729999999999
21
-42.6170759999999973
0
LINE
8
BLACK
6
CONTINUOUS
10
3.3196729999999999
20
-42.6170759999999973
11
3.414911
21
-42.7123139999999992
0
LINE
8
BLACK
6
CONTINUOUS
10
3.414911
20
-42.7123139999999992
11
3.5101489999999997
21
-42.902789999999996
0
LINE
8
BLACK
6
CONTINUOUS
10
3.5101489999999997
20
-42.902789999999996
11
3.6053869999999999
21
-43.2837419999999966
0
LINE
8
BLACK
6
CONTINUOUS
10
3.6053869999999999
20
-43.2837419999999966
11
3.6053869999999999
21
-43.7599329999999966
0
LINE
8
BLACK
6
CONTINUOUS
10
3.6053869999999999
20
-43.7599329999999966
11
3.5101489999999997
21
-44.1408849999999973
0
LINE
8
BLACK
6
CONTINUOUS
10
3.5101489999999997
20
-44.1408849999999973
11
3.414911
21
-44.3313610000000011
0
LINE
8
BLACK
6
CONTINUOUS
10
3.414911
20
-44.3313610000000011
11
3.3196729999999999
21
-44.4266000000000005
0
LINE
8
BLACK
6
CONTINUOUS
10
3.3196729999999999
20
-44.4266000000000005
11
3.129197
21
-44.5218379999999954
0
LINE
8
BLACK
6
CONTINUOUS
10
3.129197
20
-44.5218379999999954
11
2.93872
21
-44.5218379999999954
0
LINE
8
BLACK
6
CONTINUOUS
10
2.93872
20
-44.5218379999999954
11
2.7482439999999997
21
-44.4266000000000005
0
LINE
8
BLACK
6
CONTINUOUS
10
2.7482439999999997
20
-44.4266000000000005
11
2.653006
21
-44.3313610000000011
0
LINE
8
BLACK
6
CONTINUOUS
10
2.653006
20
-44.3313610000000011
11
2.5577679999999998
21
-44.1408849999999973
0
LINE
8
BLACK
6
CONTINUOUS
10
2.5577679999999998
20
-44.1408849999999973
11
2.4625300000000001
21
-43.7599329999999966
0
LINE
8
BLACK
6
CONTINUOUS
10
2.4625300000000001
20
-43.7599329999999966
11
2.4625300000000001
21
-43.2837419999999966
0
LINE
8
BLACK
6
CONTINUOUS
10
2.4625300000000001
20
-43.2837419999999966
11
2.5577679999999998
21
-42.902789999999996
0
LINE
8
BLACK
6
CONTINUOUS
10
2.5577679999999998
20
-42.902789999999996
11
2.653006
21
-42.7123139999999992
0
LINE
8
BLACK
6
CONTINUOUS
10
2.653006
20
-42.7123139999999992
11
2.7482439999999997
21
-42.6170759999999973
0
LINE
8
BLACK
6
CONTINUOUS
10
2.7482439999999997
20
-42.6170759999999973
11
2.93872
21
-42.5218379999999954
0
LINE
8
BLACK
6
CONTINUOUS
10
4.4625300000000001
20
-44.3313610000000011
11
4.5577679999999994
21
-44.4266000000000005
0
LINE
8
BLACK
6
CONTINUOUS
10
4.5577679999999994
20
-44.4266000000000005
11
4.4625300000000001
21
-44.5218379999999954
0
LINE
8
BLACK
6
CONTINUOUS
10
4.4625300000000001
20
-44.5218379999999954
11
4.367292
21
-44.4266000000000005
0
LINE
8
BLACK
6
CONTINUOUS
10
4.367292
20
-44.4266000000000005
11
4.4625300000000001
21
-44.3313610000000011
0
LINE
8
BLACK
6
CONTINUOUS
10
4.4625300000000001
20
-44.3313610000000011
11
4.4625300000000001
21
-44.5218379999999954
0
LINE
8
BLACK
6
CONTINUOUS
10
6.2720539999999998
20
-42.5218379999999954
11
5.8911009999999999
21
-42.5218379999999954
0
LINE
8
BLACK
6
CONTINUOUS
10
5.8911009999999999
20
-42.5218379999999954
11
5.7006249999999996
21
-42.6170759999999973
0
LINE
8
BLACK
6
CONTINUOUS
10
5.7006249999999996
20
-42.6170759999999973
11
5.6053869999999995
21
-42.7123139999999992
0
LINE
8
BLACK
6
CONTINUOUS
10
5.6053869999999995
20
-42.7123139999999992
11
5.414911
21
-42.9980279999999979
0
LINE
8
BLACK
6
CONTINUOUS
10
5.414911
20
-42.9980279999999979
11
5.3196729999999999
21
-43.3789799999999985
0
LINE
8
BLACK
6
CONTINUOUS
10
5.3196729999999999
20
-43.3789799999999985
11
5.3196729999999999
21
-44.1408849999999973
0
LINE
8
BLACK
6
CONTINUOUS
10
5.3196729999999999
20
-44.1408849999999973
11
5.414911
21
-44.3313610000000011
0
LINE
8
BLACK
6
CONTINUOUS
10
5.414911
20
-44.3313610000000011
11
5.5101490000000002
21
-44.4266000000000005
0
LINE
8
BLACK
6
CONTINUOUS
10
5.5101490000000002
20
-44.4266000000000005
11
5.7006249999999996
21
-44.5218379999999954
0
LINE
8
BLACK
6
CONTINUOUS
10
5.7006249999999996
20
-44.5218379999999954
11
6.0815779999999995
21
-44.5218379999999954
0
LINE
8
BLACK
6
CONTINUOUS
10
6.0815779999999995
20
-44.5218379999999954
11
6.2720539999999998
21
-44.4266000000000005
0
LINE
8
BLACK
6
CONTINUOUS
10
6.2720539999999998
20
-44.4266000000000005
11
6.367292
21
-44.3313610000000011
0
LINE
8
BLACK
6
CONTINUOUS
10
6.367292
20
-44.3313610000000011
11
6.4625300000000001
21
-44.1408849999999973
0
LINE
8
BLACK
6
CONTINUOUS
10
6.4625300000000001
20
-44.1408849999999973
11
6.4625300000000001
21
-43.6646949999999947
0
LINE
8
BLACK
6
CONTINUOUS
10
6.4625300000000001
20
-43.6646949999999947
11
6.367292
21
-43.4742189999999979
0
LINE
8
BLACK
6
CONTINUOUS
10
6.367292
20
-43.4742189999999979
11
6.2720539999999998
21
-43.3789799999999985
0
LINE
8
BLACK
6
CONTINUOUS
10
6.2720539999999998
20
-43.3789799999999985
11
6.0815779999999995
21
-43.2837419999999966
0
LINE
8
BLACK
6
CONTINUOUS
10
6.0815779999999995
20
-43.2837419999999966
11
5.7006249999999996
21
-43.2837419999999966
0
LINE
8
BLACK
6
CONTINUOUS
10
5.7006249999999996
20
-43.2837419999999966
11
5.5101490000000002
21
-43.3789799999999985
0
LINE
8
BLACK
6
CONTINUOUS
10
5.5101490000000002
20
-43.3789799999999985
11
5.414911
21
-43.4742189999999979
0
LINE
8
BLACK
6
CONTINUOUS
10
5.414911
20
-43.4742189999999979
11
5.3196729999999999
21
-43.6646949999999947
0
LINE
8
BLACK
6
CONTINUOUS
10
7.7006249999999996
20
-42.5218379999999954
11
7.8911020000000001
21
-42.5218379999999954
0
LINE
8
BLACK
6
CONTINUOUS
10
7.8911020000000001
20
-42.5218379999999954
11
8.0815780000000004
21
-42.6170759999999973
0
LINE
8
BLACK
6
CONTINUOUS
10
8.0815780000000004
20
-42.6170759999999973
11
8.1768159999999988
21
-42.7123139999999992
0
LINE
8
BLACK
6
CONTINUOUS
10
8.1768159999999988
20
-42.7123139999999992
11
8.2720539999999989
21
-42.902789999999996
0
LINE
8
BLACK
6
CONTINUOUS
10
8.2720539999999989
20
-42.902789999999996
11
8.3672919999999991
21
-43.2837419999999966
0
LINE
8
BLACK
6
CONTINUOUS
10
8.3672919999999991
20
-43.2837419999999966
11
8.3672919999999991
21
-43.7599329999999966
0
LINE
8
BLACK
6
CONTINUOUS
10
8.3672919999999991
20
-43.7599329999999966
11
8.2720539999999989
21
-44.1408849999999973
0
LINE
8
BLACK
6
CONTINUOUS
10
8.2720539999999989
20
-44.1408849999999973
11
8.1768159999999988
21
-44.3313610000000011
0
LINE
8
BLACK
6
CONTINUOUS
10
8.1768159999999988
20
-44.3313610000000011
11
8.0815780000000004
21
-44.4266000000000005
0
LINE
8
BLACK
6
CONTINUOUS
10
8.0815780000000004
20
-44.4266000000000005
11
7.8911020000000001
21
-44.5218379999999954
0
LINE
8
BLACK
6
CONTINUOUS
10
7.8911020000000001
20
-44.5218379999999954
11
7.7006249999999996
21
-44.5218379999999954
0
LINE
8
BLACK
6
CONTINUOUS
10
7.7006249999999996
20
-44.5218379999999954
11
7.5101489999999993
21
-44.4266000000000005
0
LINE
8
BLACK
6
CONTINUOUS
10
7.5101489999999993
20
-44.4266000000000005
11
7.414911
21
-44.3313610000000011
0
LINE
8
BLACK
6
CONTINUOUS
10
7.414911
20
-44.3313610000000011
11
7.3196729999999999
21
-44.1408849999999973
0
LINE
8
BLACK
6
CONTINUOUS
10
7.3196729999999999
20
-44.1408849999999973
11
7.2244349999999997
21
-43.7599329999999966
0
LINE
8
BLACK
6
CONTINUOUS
10
7.2244349999999997
20
-43.7599329999999966
11
7.2244349999999997
21
-43.2837419999999966
0
LINE
8
BLACK
6
CONTINUOUS
10
7.2244349999999997
20
-43.2837419999999966
11
7.3196729999999999
21
-42.902789999999996
0
LINE
8
BLACK
6
CONTINUOUS
10
7.3196729999999999
20
-42.902789999999996
11
7.414911
21
-42.7123139999999992
0
LINE
8
BLACK
6
CONTINUOUS
10
7.414911
20
-42.7123139999999992
11
7.5101489999999993
21
-42.6170759999999973
0
LINE
8
BLACK
6
CONTINUOUS
10
7.5101489999999993
20
-42.6170759999999973
11
7.7006249999999996
21
-42.5218379999999954
0
LINE
8
BLACK
6
CONTINUOUS
10
9.6053870000000003
20
-42.5218379999999954
11
9.7958639999999999
21
-42.5218379999999954
0
LINE
8
BLACK
6
CONTINUOUS
10
9.7958639999999999
20
-42.5218379999999954
11
9.9863400000000002
21
-42.6170759999999973
0
LINE
8
BLACK
6
CONTINUOUS
10
9.9863400000000002
20
-42.6170759999999973
11
10.0815780000000004
21
-42.7123139999999992
0
LINE
8
BLACK
6
CONTINUOUS
10
10.0815780000000004
20
-42.7123139999999992
11
10.1768159999999988
21
-42.902789999999996
0
LINE
8
BLACK
6
CONTINUOUS
10
10.1768159999999988
20
-42.902789999999996
11
10.2720539999999989
21
-43.2837419999999966
0
LINE
8
BLACK
6
CONTINUOUS
10
10.2720539999999989
20
-43.2837419999999966
11
10.2720539999999989
21
-43.7599329999999966
0
LINE
8
BLACK
6
CONTINUOUS
10
10.2720539999999989
20
-43.7599329999999966
11
10.1768159999999988
21
-44.1408849999999973
0
LINE
8
BLACK
6
CONTINUOUS
10
10.1768159999999988
20
-44.1408849999999973
11
10.0815780000000004
21
-44.3313610000000011
0
LINE
8
BLACK
6
CONTINUOUS
10
10.0815780000000004
20
-44.3313610000000011
11
9.9863400000000002
21
-44.4266000000000005
0
LINE
8
BLACK
6
CONTINUOUS
10
9.9863400000000002
20
-44.4266000000000005
11
9.7958639999999999
21
-44.5218379999999954
0
LINE
8
BLACK
6
CONTINUOUS
10
9.7958639999999999
20
-44.5218379999999954
11
9.6053870000000003
21
-44.5218379999999954
0
LINE
8
BLACK
6
CONTINUOUS
10
9.6053870000000003
20
-44.5218379999999954
11
9.414911
21
-44.4266000000000005
0
LINE
8
BLACK
6
CONTINUOUS
10
9.414911
20
-44.4266000000000005
11
9.3196729999999999
21
-44.3313610000000011
0
LINE
8
BLACK
6
CONTINUOUS
10
9.3196729999999999
20
-44.3313610000000011
11
9.2244349999999997
21
-44.1408849999999973
0
LINE
8
BLACK
6
CONTINUOUS
10
9.2244349999999997
20
-44.1408849999999973
11
9.1291969999999996
21
-43.7599329999999966
0
LINE
8
BLACK
6
CONTINUOUS
10
9.1291969999999996
20
-43.7599329999999966
11
9.1291969999999996
21
-43.2837419999999966
0
LINE
8
BLACK
6
CONTINUOUS
10
9.1291969999999996
20
-43.2837419999999966
11
9.2244349999999997
21
-42.902789999999996
0
LINE
8
BLACK
6
CONTINUOUS
10
9.2244349999999997
20
-42.902789999999996
11
9.3196729999999999
21
-42.7123139999999992
0
LINE
8
BLACK
6
CONTINUOUS
10
9.3196729999999999
20
-42.7123139999999992
11
9.414911
21
-42.6170759999999973
0
LINE
8
BLACK
6
CONTINUOUS
10
9.414911
20
-42.6170759999999973
11
9.6053870000000003
21
-42.5218379999999954
0
LINE
8
BLACK
6
CONTINUOUS
10
11.1291969999999996
20
-44.5218379999999954
11
11.1291969999999996
21
-43.1885039999999947
0
LINE
8
BLACK
6
CONTINUOUS
10
11.1291969999999996
20
-43.3789799999999985
11
11.2244349999999997
21
-43.2837419999999966
0
LINE
8
BLACK
6
CONTINUOUS
10
11.2244349999999997
20
-43.2837419999999966
11
11.414911
21
-43.1885039999999947
0
LINE
8
BLACK
6
CONTINUOUS
10
11.414911
20
-43.1885039999999947
11
11.7006259999999997
21
-43.1885039999999947
0
LINE
8
BLACK
6
CONTINUOUS
10
11.7006259999999997
20
-43.1885039999999947
11
11.8911020000000001
21
-43.2837419999999966
0
LINE
8
BLACK
6
CONTINUOUS
10
11.8911020000000001
20
-43.2837419999999966
11
11.9863400000000002
21
-43.4742189999999979
0
LINE
8
BLACK
6
CONTINUOUS
10
11.9863400000000002
20
-43.4742189999999979
11
11.9863400000000002
21
-44.5218379999999954
0
LINE
8
BLACK
6
CONTINUOUS
10
11.9863400000000002
20
-43.4742189999999979
11
12.0815779999999986
21
-43.2837419999999966
0
LINE
8
BLACK
6
CONTINUOUS
10
12.0815779999999986
20
-43.2837419999999966
11
12.2720539999999989
21
-43.1885039999999947
0
LINE
8
BLACK
6
CONTINUOUS
10
12.2720539999999989
20
-43.1885039999999947
11
12.5577679999999994
21
-43.1885039999999947
0
LINE
8
BLACK
6
CONTINUOUS
10
12.5577679999999994
20
-43.1885039999999947
11
12.7482449999999989
21
-43.2837419999999966
0
LINE
8
BLACK
6
CONTINUOUS
10
12.7482449999999989
20
-43.2837419999999966
11
12.8434829999999991
21
-43.4742189999999979
0
LINE
8
BLACK
6
CONTINUOUS
10
12.8434829999999991
20
-43.4742189999999979
11
12.8434829999999991
21
-44.5218379999999954
0
LINE
8
BLACK
6
CONTINUOUS
10
13.7958639999999999
20
-44.5218379999999954
11
13.7958639999999999
21
-43.1885039999999947
0
LINE
8
BLACK
6
CONTINUOUS
10
13.7958639999999999
20
-43.3789799999999985
11
13.8911020000000001
21
-43.2837419999999966
0
LINE
8
BLACK
6
CONTINUOUS
10
13.8911020000000001
20
-43.2837419999999966
11
14.0815779999999986
21
-43.1885039999999947
0
LINE
8
BLACK
6
CONTINUOUS
10
14.0815779999999986
20
-43.1885039999999947
11
14.3672930000000001
21
-43.1885039999999947
0
LINE
8
BLACK
6
CONTINUOUS
10
14.3672930000000001
20
-43.1885039999999947
11
14.5577689999999986
21
-43.2837419999999966
0
LINE
8
BLACK
6
CONTINUOUS
10
14.5577689999999986
20
-43.2837419999999966
11
14.6530069999999988
21
-43.4742189999999979
0
LINE
8
BLACK
6
CONTINUOUS
10
14.6530069999999988
20
-43.4742189999999979
11
14.6530069999999988
21
-44.5218379999999954
0
LINE
8
BLACK
6
CONTINUOUS
10
14.6530069999999988
20
-43.4742189999999979
11
14.7482449999999989
21
-43.2837419999999966
0
LINE
8
BLACK
6
CONTINUOUS
10
14.7482449999999989
20
-43.2837419999999966
11
14.9387209999999993
21
-43.1885039999999947
0
LINE
8
BLACK
6
CONTINUOUS
10
14.9387209999999993
20
-43.1885039999999947
11
15.2244349999999997
21
-43.1885039999999947
0
LINE
8
BLACK
6
CONTINUOUS
10
15.2244349999999997
20
-43.1885039999999947
11
15.4149119999999993
21
-43.2837419999999966
0
LINE
8
BLACK
6
CONTINUOUS
10
15.4149119999999993
20
-43.2837419999999966
11
15.5101499999999994
21
-43.4742189999999979
0
LINE
8
BLACK
6
CONTINUOUS
10
15.5101499999999994
20
-43.4742189999999979
11
15.5101499999999994
21
-44.5218379999999954
0
LINE
8
BLACK
6
CONTINUOUS
10
19.4149119999999975
20
-42.4266000000000005
11
17.7006270000000008
21
-44.9980279999999979
0
LINE
8
BLACK
6
CONTINUOUS
10
21.9863409999999995
20
-42.5218379999999954
11
22.1768179999999973
21
-42.5218379999999954
0
LINE
8
BLACK
6
CONTINUOUS
10
22.1768179999999973
20
-42.5218379999999954
11
22.3672939999999976
21
-42.6170759999999973
0
LINE
8
BLACK
6
CONTINUOUS
10
22.3672939999999976
20
-42.6170759999999973
11
22.4625319999999995
21
-42.7123139999999992
0
LINE
8
BLACK
6
CONTINUOUS
10
22.4625319999999995
20
-42.7123139999999992
11
22.5577699999999979
21
-42.902789999999996
0
LINE
8
BLACK
6
CONTINUOUS
10
22.5577699999999979
20
-42.902789999999996
11
22.6530079999999998
21
-43.2837419999999966
0
LINE
8
BLACK
6
CONTINUOUS
10
22.6530079999999998
20
-43.2837419999999966
11
22.6530079999999998
21
-43.7599329999999966
0
LINE
8
BLACK
6
CONTINUOUS
10
22.6530079999999998
20
-43.7599329999999966
11
22.5577699999999979
21
-44.1408849999999973
0
LINE
8
BLACK
6
CONTINUOUS
10
22.5577699999999979
20
-44.1408849999999973
11
22.4625319999999995
21
-44.3313610000000011
0
LINE
8
BLACK
6
CONTINUOUS
10
22.4625319999999995
20
-44.3313610000000011
11
22.3672939999999976
21
-44.4266000000000005
0
LINE
8
BLACK
6
CONTINUOUS
10
22.3672939999999976
20
-44.4266000000000005
11
22.1768179999999973
21
-44.5218379999999954
0
LINE
8
BLACK
6
CONTINUOUS
10
22.1768179999999973
20
-44.5218379999999954
11
21.9863409999999995
21
-44.5218379999999954
0
LINE
8
BLACK
6
CONTINUOUS
10
21.9863409999999995
20
-44.5218379999999954
11
21.7958649999999992
21
-44.4266000000000005
0
LINE
8
BLACK
6
CONTINUOUS
10
21.7958649999999992
20
-44.4266000000000005
11
21.7006270000000008
21
-44.3313610000000011
0
LINE
8
BLACK
6
CONTINUOUS
10
21.7006270000000008
20
-44.3313610000000011
11
21.6053889999999988
21
-44.1408849999999973
0
LINE
8
BLACK
6
CONTINUOUS
10
21.6053889999999988
20
-44.1408849999999973
11
21.5101510000000005
21
-43.7599329999999966
0
LINE
8
BLACK
6
CONTINUOUS
10
21.5101510000000005
20
-43.7599329999999966
11
21.5101510000000005
21
-43.2837419999999966
0
LINE
8
BLACK
6
CONTINUOUS
10
21.5101510000000005
20
-43.2837419999999966
11
21.6053889999999988
21
-42.902789999999996
0
LINE
8
BLACK
6
CONTINUOUS
10
21.6053889999999988
20
-42.902789999999996
11
21.7006270000000008
21
-42.7123139999999992
0
LINE
8
BLACK
6
CONTINUOUS
10
21.7006270000000008
20
-42.7123139999999992
11
21.7958649999999992
21
-42.6170759999999973
0
LINE
8
BLACK
6
CONTINUOUS
10
21.7958649999999992
20
-42.6170759999999973
11
21.9863409999999995
21
-42.5218379999999954
0
LINE
8
BLACK
6
CONTINUOUS
10
23.5101510000000005
20
-44.3313610000000011
11
23.6053889999999988
21
-44.4266000000000005
0
LINE
8
BLACK
6
CONTINUOUS
10
23.6053889999999988
20
-44.4266000000000005
11
23.5101510000000005
21
-44.5218379999999954
0
LINE
8
BLACK
6
CONTINUOUS
10
23.5101510000000005
20
-44.5218379999999954
11
23.4149129999999985
21
-44.4266000000000005
0
LINE
8
BLACK
6
CONTINUOUS
10
23.4149129999999985
20
-44.4266000000000005
11
23.5101510000000005
21
-44.3313610000000011
0
LINE
8
BLACK
6
CONTINUOUS
10
23.5101510000000005
20
-44.3313610000000011
11
23.5101510000000005
21
-44.5218379999999954
0
LINE
8
BLACK
6
CONTINUOUS
10
24.8434840000000001
20
-42.5218379999999954
11
25.0339609999999979
21
-42.5218379999999954
0
LINE
8
BLACK
6
CONTINUOUS
10
25.0339609999999979
20
-42.5218379999999954
11
25.2244369999999982
21
-42.6170759999999973
0
LINE
8
BLACK
6
CONTINUOUS
10
25.2244369999999982
20
-42.6170759999999973
11
25.3196750000000002
21
-42.7123139999999992
0
LINE
8
BLACK
6
CONTINUOUS
10
25.3196750000000002
20
-42.7123139999999992
11
25.4149129999999985
21
-42.902789999999996
0
LINE
8
BLACK
6
CONTINUOUS
10
25.4149129999999985
20
-42.902789999999996
11
25.5101510000000005
21
-43.2837419999999966
0
LINE
8
BLACK
6
CONTINUOUS
10
25.5101510000000005
20
-43.2837419999999966
11
25.5101510000000005
21
-43.7599329999999966
0
LINE
8
BLACK
6
CONTINUOUS
10
25.5101510000000005
20
-43.7599329999999966
11
25.4149129999999985
21
-44.1408849999999973
0
LINE
8
BLACK
6
CONTINUOUS
10
25.4149129999999985
20
-44.1408849999999973
11
25.3196750000000002
21
-44.3313610000000011
0
LINE
8
BLACK
6
CONTINUOUS
10
25.3196750000000002
20
-44.3313610000000011
11
25.2244369999999982
21
-44.4266000000000005
0
LINE
8
BLACK
6
CONTINUOUS
10
25.2244369999999982
20
-44.4266000000000005
11
25.0339609999999979
21
-44.5218379999999954
0
LINE
8
BLACK
6
CONTINUOUS
10
25.0339609999999979
20
-44.5218379999999954
11
24.8434840000000001
21
-44.5218379999999954
0
LINE
8
BLACK
6
CONTINUOUS
10
24.8434840000000001
20
-44.5218379999999954
11
24.6530079999999998
21
-44.4266000000000005
0
LINE
8
BLACK
6
CONTINUOUS
10
24.6530079999999998
20
-44.4266000000000005
11
24.5577699999999979
21
-44.3313610000000011
0
LINE
8
BLACK
6
CONTINUOUS
10
24.5577699999999979
20
-44.3313610000000011
11
24.4625319999999995
21
-44.1408849999999973
0
LINE
8
BLACK
6
CONTINUOUS
10
24.4625319999999995
20
-44.1408849999999973
11
24.3672939999999976
21
-43.7599329999999966
0
LINE
8
BLACK
6
CONTINUOUS
10
24.3672939999999976
20
-43.7599329999999966
11
24.3672939999999976
21
-43.2837419999999966
0
LINE
8
BLACK
6
CONTINUOUS
10
24.3672939999999976
20
-43.2837419999999966
11
24.4625319999999995
21
-42.902789999999996
0
LINE
8
BLACK
6
CONTINUOUS
10
24.4625319999999995
20
-42.902789999999996
11
24.5577699999999979
21
-42.7123139999999992
0
LINE
8
BLACK
6
CONTINUOUS
10
24.5577699999999979
20
-42.7123139999999992
11
24.6530079999999998
21
-42.6170759999999973
0
LINE
8
BLACK
6
CONTINUOUS
10
24.6530079999999998
20
-42.6170759999999973
11
24.8434840000000001
21
-42.5218379999999954
0
LINE
8
BLACK
6
CONTINUOUS
10
26.2720559999999992
20
-42.7123139999999992
11
26.3672939999999976
21
-42.6170759999999973
0
LINE
8
BLACK
6
CONTINUOUS
10
26.3672939999999976
20
-42.6170759999999973
11
26.5577699999999979
21
-42.5218379999999954
0
LINE
8
BLACK
6
CONTINUOUS
10
26.5577699999999979
20
-42.5218379999999954
11
27.0339609999999979
21
-42.5218379999999954
0
LINE
8
BLACK
6
CONTINUOUS
10
27.0339609999999979
20
-42.5218379999999954
11
27.2244369999999982
21
-42.6170759999999973
0
LINE
8
BLACK
6
CONTINUOUS
10
27.2244369999999982
20
-42.6170759999999973
11
27.3196750000000002
21
-42.7123139999999992
0
LINE
8
BLACK
6
CONTINUOUS
10
27.3196750000000002
20
-42.7123139999999992
11
27.4149129999999985
21
-42.902789999999996
0
LINE
8
BLACK
6
CONTINUOUS
10
27.4149129999999985
20
-42.902789999999996
11
27.4149129999999985
21
-43.0932659999999998
0
LINE
8
BLACK
6
CONTINUOUS
10
27.4149129999999985
20
-43.0932659999999998
11
27.3196750000000002
21
-43.3789799999999985
0
LINE
8
BLACK
6
CONTINUOUS
10
27.3196750000000002
20
-43.3789799999999985
11
26.1768179999999973
21
-44.5218379999999954
0
LINE
8
BLACK
6
CONTINUOUS
10
26.1768179999999973
20
-44.5218379999999954
11
27.4149129999999985
21
-44.5218379999999954
0
LINE
8
BLACK
6
CONTINUOUS
10
28.0815799999999989
20
-42.5218379999999954
11
29.3196750000000002
21
-42.5218379999999954
0
LINE
8
BLACK
6
CONTINUOUS
10
29.3196750000000002
20
-42.5218379999999954
11
28.6530079999999998
21
-43.2837419999999966
0
LINE
8
BLACK
6
CONTINUOUS
10
28.6530079999999998
20
-43.2837419999999966
11
28.9387229999999995
21
-43.2837419999999966
0
LINE
8
BLACK
6
CONTINUOUS
10
28.9387229999999995
20
-43.2837419999999966
11
29.1291989999999998
21
-43.3789799999999985
0
LINE
8
BLACK
6
CONTINUOUS
10
29.1291989999999998
20
-43.3789799999999985
11
29.2244369999999982
21
-43.4742189999999979
0
LINE
8
BLACK
6
CONTINUOUS
10
29.2244369999999982
20
-43.4742189999999979
11
29.3196750000000002
21
-43.6646949999999947
0
LINE
8
BLACK
6
CONTINUOUS
10
29.3196750000000002
20
-43.6646949999999947
11
29.3196750000000002
21
-44.1408849999999973
0
LINE
8
BLACK
6
CONTINUOUS
10
29.3196750000000002
20
-44.1408849999999973
11
29.2244369999999982
21
-44.3313610000000011
0
LINE
8
BLACK
6
CONTINUOUS
10
29.2244369999999982
20
-44.3313610000000011
11
29.1291989999999998
21
-44.4266000000000005
0
LINE
8
BLACK
6
CONTINUOUS
10
29.1291989999999998
20
-44.4266000000000005
11
28.9387229999999995
21
-44.5218379999999954
0
LINE
8
BLACK
6
CONTINUOUS
10
28.9387229999999995
20
-44.5218379999999954
11
28.3672939999999976
21
-44.5218379999999954
0
LINE
8
BLACK
6
CONTINUOUS
10
28.3672939999999976
20
-44.5218379999999954
11
28.1768179999999973
21
-44.4266000000000005
0
LINE
8
BLACK
6
CONTINUOUS
10
28.1768179999999973
20
-44.4266000000000005
11
28.0815799999999989
21
-44.3313610000000011
0
LINE
8
BLACK
6
CONTINUOUS
10
31.0339609999999979
20
-42.5218379999999954
11
30.6530079999999998
21
-42.5218379999999954
0
LINE
8
BLACK
6
CONTINUOUS
10
30.6530079999999998
20
-42.5218379999999954
11
30.4625319999999995
21
-42.6170759999999973
0
LINE
8
BLACK
6
CONTINUOUS
10
30.4625319999999995
20
-42.6170759999999973
11
30.3672939999999976
21
-42.7123139999999992
0
LINE
8
BLACK
6
CONTINUOUS
10
30.3672939999999976
20
-42.7123139999999992
11
30.1768179999999973
21
-42.9980279999999979
0
LINE
8
BLACK
6
CONTINUOUS
10
30.1768179999999973
20
-42.9980279999999979
11
30.0815799999999989
21
-43.3789799999999985
0
LINE
8
BLACK
6
CONTINUOUS
10
30.0815799999999989
20
-43.3789799999999985
11
30.0815799999999989
21
-44.1408849999999973
0
LINE
8
BLACK
6
CONTINUOUS
10
30.0815799999999989
20
-44.1408849999999973
11
30.1768179999999973
21
-44.3313610000000011
0
LINE
8
BLACK
6
CONTINUOUS
10
30.1768179999999973
20
-44.3313610000000011
11
30.2720559999999992
21
-44.4266000000000005
0
LINE
8
BLACK
6
CONTINUOUS
10
30.2720559999999992
20
-44.4266000000000005
11
30.4625319999999995
21
-44.5218379999999954
0
LINE
8
BLACK
6
CONTINUOUS
10
30.4625319999999995
20
-44.5218379999999954
11
30.8434849999999976
21
-44.5218379999999954
0
LINE
8
BLACK
6
CONTINUOUS
10
30.8434849999999976
20
-44.5218379999999954
11
31.0339609999999979
21
-44.4266000000000005
0
LINE
8
BLACK
6
CONTINUOUS
10
31.0339609999999979
20
-44.4266000000000005
11
31.1291989999999998
21
-44.3313610000000011
0
LINE
8
BLACK
6
CONTINUOUS
10
31.1291989999999998
20
-44.3313610000000011
11
31.2244369999999982
21
-44.1408849999999973
0
LINE
8
BLACK
6
CONTINUOUS
10
31.2244369999999982
20
-44.1408849999999973
11
31.2244369999999982
21
-43.6646949999999947
0
LINE
8
BLACK
6
CONTINUOUS
10
31.2244369999999982
20
-43.6646949999999947
11
31.1291989999999998
21
-43.4742189999999979
0
LINE
8
BLACK
6
CONTINUOUS
10
31.1291989999999998
20
-43.4742189999999979
11
31.0339609999999979
21
-43.3789799999999985
0
LINE
8
BLACK
6
CONTINUOUS
10
31.0339609999999979
20
-43.3789799999999985
11
30.8434849999999976
21
-43.2837419999999966
0
LINE
8
BLACK
6
CONTINUOUS
10
30.8434849999999976
20
-43.2837419999999966
11
30.4625319999999995
21
-43.2837419999999966
0
LINE
8
BLACK
6
CONTINUOUS
10
30.4625319999999995
20
-43.2837419999999966
11
30.2720559999999992
21
-43.3789799999999985
0
LINE
8
BLACK
6
CONTINUOUS
10
30.2720559999999992
20
-43.3789799999999985
11
30.1768179999999973
21
-43.4742189999999979
0
LINE
8
BLACK
6
CONTINUOUS
10
30.1768179999999973
20
-43.4742189999999979
11
30.0815799999999989
21
-43.6646949999999947
0
LINE
8
BLACK
6
CONTINUOUS
10
31.9863419999999969
20
-42.5218379999999954
11
31.9863419999999969
21
-42.902789999999996
0
LINE
8
BLACK
6
CONTINUOUS
10
32.7482469999999992
20
-42.5218379999999954
11
32.7482469999999992
21
-42.902789999999996
0
LINE
8
BLACK
6
CONTINUOUS
10
35.7006289999999993
20
-45.2837419999999966
11
35.6053899999999999
21
-45.1885039999999947
0
LINE
8
BLACK
6
CONTINUOUS
10
35.6053899999999999
20
-45.1885039999999947
11
35.414913999999996
21
-44.902789999999996
0
LINE
8
BLACK
6
CONTINUOUS
10
35.414913999999996
20
-44.902789999999996
11
35.3196760000000012
21
-44.7123139999999992
0
LINE
8
BLACK
6
CONTINUOUS
10
35.3196760000000012
20
-44.7123139999999992
11
35.2244379999999992
21
-44.4266000000000005
0
LINE
8
BLACK
6
CONTINUOUS
10
35.2244379999999992
20
-44.4266000000000005
11
35.1291999999999973
21
-43.9504090000000005
0
LINE
8
BLACK
6
CONTINUOUS
10
35.1291999999999973
20
-43.9504090000000005
11
35.1291999999999973
21
-43.5694569999999999
0
LINE
8
BLACK
6
CONTINUOUS
10
35.1291999999999973
20
-43.5694569999999999
11
35.2244379999999992
21
-43.0932659999999998
0
LINE
8
BLACK
6
CONTINUOUS
10
35.2244379999999992
20
-43.0932659999999998
11
35.3196760000000012
21
-42.8075520000000012
0
LINE
8
BLACK
6
CONTINUOUS
10
35.3196760000000012
20
-42.8075520000000012
11
35.414913999999996
21
-42.6170759999999973
0
LINE
8
BLACK
6
CONTINUOUS
10
35.414913999999996
20
-42.6170759999999973
11
35.6053899999999999
21
-42.3313610000000011
0
LINE
8
BLACK
6
CONTINUOUS
10
35.6053899999999999
20
-42.3313610000000011
11
35.7006289999999993
21
-42.2361229999999992
0
LINE
8
BLACK
6
CONTINUOUS
10
36.8434850000000012
20
-42.5218379999999954
11
37.0339619999999954
21
-42.5218379999999954
0
LINE
8
BLACK
6
CONTINUOUS
10
37.0339619999999954
20
-42.5218379999999954
11
37.2244379999999992
21
-42.6170759999999973
0
LINE
8
BLACK
6
CONTINUOUS
10
37.2244379999999992
20
-42.6170759999999973
11
37.3196760000000012
21
-42.7123139999999992
0
LINE
8
BLACK
6
CONTINUOUS
10
37.3196760000000012
20
-42.7123139999999992
11
37.414913999999996
21
-42.902789999999996
0
LINE
8
BLACK
6
CONTINUOUS
10
37.414913999999996
20
-42.902789999999996
11
37.5101519999999979
21
-43.2837419999999966
0
LINE
8
BLACK
6
CONTINUOUS
10
37.5101519999999979
20
-43.2837419999999966
11
37.5101519999999979
21
-43.7599329999999966
0
LINE
8
BLACK
6
CONTINUOUS
10
37.5101519999999979
20
-43.7599329999999966
11
37.414913999999996
21
-44.1408849999999973
0
LINE
8
BLACK
6
CONTINUOUS
10
37.414913999999996
20
-44.1408849999999973
11
37.3196760000000012
21
-44.3313610000000011
0
LINE
8
BLACK
6
CONTINUOUS
10
37.3196760000000012
20
-44.3313610000000011
11
37.2244379999999992
21
-44.4266000000000005
0
LINE
8
BLACK
6
CONTINUOUS
10
37.2244379999999992
20
-44.4266000000000005
11
37.0339619999999954
21
-44.5218379999999954
0
LINE
8
BLACK
6
CONTINUOUS
10
37.0339619999999954
20
-44.5218379999999954
11
36.8434850000000012
21
-44.5218379999999954
0
LINE
8
BLACK
6
CONTINUOUS
10
36.8434850000000012
20
-44.5218379999999954
11
36.6530089999999973
21
-44.4266000000000005
0
LINE
8
BLACK
6
CONTINUOUS
10
36.6530089999999973
20
-44.4266000000000005
11
36.5577709999999954
21
-44.3313610000000011
0
LINE
8
BLACK
6
CONTINUOUS
10
36.5577709999999954
20
-44.3313610000000011
11
36.4625330000000005
21
-44.1408849999999973
0
LINE
8
BLACK
6
CONTINUOUS
10
36.4625330000000005
20
-44.1408849999999973
11
36.3672949999999986
21
-43.7599329999999966
0
LINE
8
BLACK
6
CONTINUOUS
10
36.3672949999999986
20
-43.7599329999999966
11
36.3672949999999986
21
-43.2837419999999966
0
LINE
8
BLACK
6
CONTINUOUS
10
36.3672949999999986
20
-43.2837419999999966
11
36.4625330000000005
21
-42.902789999999996
0
LINE
8
BLACK
6
CONTINUOUS
10
36.4625330000000005
20
-42.902789999999996
11
36.5577709999999954
21
-42.7123139999999992
0
LINE
8
BLACK
6
CONTINUOUS
10
36.5577709999999954
20
-42.7123139999999992
11
36.6530089999999973
21
-42.6170759999999973
0
LINE
8
BLACK
6
CONTINUOUS
10
36.6530089999999973
20
-42.6170759999999973
11
36.8434850000000012
21
-42.5218379999999954
0
LINE
8
BLACK
6
CONTINUOUS
10
39.891104999999996
20
-44.5218379999999954
11
39.891104999999996
21
-42.5218379999999954
0
LINE
8
BLACK
6
CONTINUOUS
10
40.7482479999999967
20
-44.5218379999999954
11
40.7482479999999967
21
-43.4742189999999979
0
LINE
8
BLACK
6
CONTINUOUS
10
40.7482479999999967
20
-43.4742189999999979
11
40.6530099999999948
21
-43.2837419999999966
0
LINE
8
BLACK
6
CONTINUOUS
10
40.6530099999999948
20
-43.2837419999999966
11
40.462533999999998
21
-43.1885039999999947
0
LINE
8
BLACK
6
CONTINUOUS
10
40.462533999999998
20
-43.1885039999999947
11
40.1768189999999947
21
-43.1885039999999947
0
LINE
8
BLACK
6
CONTINUOUS
10
40.1768189999999947
20
-43.1885039999999947
11
39.986342999999998
21
-43.2837419999999966
0
LINE
8
BLACK
6
CONTINUOUS
10
39.986342999999998
20
-43.2837419999999966
11
39.891104999999996
21
-43.3789799999999985
0
LINE
8
BLACK
6
CONTINUOUS
10
41.986342999999998
20
-44.5218379999999954
11
41.7958670000000012
21
-44.4266000000000005
0
LINE
8
BLACK
6
CONTINUOUS
10
41.7958670000000012
20
-44.4266000000000005
11
41.7006289999999993
21
-44.3313610000000011
0
LINE
8
BLACK
6
CONTINUOUS
10
41.7006289999999993
20
-44.3313610000000011
11
41.6053909999999973
21
-44.1408849999999973
0
LINE
8
BLACK
6
CONTINUOUS
10
41.6053909999999973
20
-44.1408849999999973
11
41.6053909999999973
21
-43.5694569999999999
0
LINE
8
BLACK
6
CONTINUOUS
10
41.6053909999999973
20
-43.5694569999999999
11
41.7006289999999993
21
-43.3789799999999985
0
LINE
8
BLACK
6
CONTINUOUS
10
41.7006289999999993
20
-43.3789799999999985
11
41.7958670000000012
21
-43.2837419999999966
0
LINE
8
BLACK
6
CONTINUOUS
10
41.7958670000000012
20
-43.2837419999999966
11
41.986342999999998
21
-43.1885039999999947
0
LINE
8
BLACK
6
CONTINUOUS
10
41.986342999999998
20
-43.1885039999999947
11
42.2720580000000012
21
-43.1885039999999947
0
LINE
8
BLACK
6
CONTINUOUS
10
42.2720580000000012
20
-43.1885039999999947
11
42.462533999999998
21
-43.2837419999999966
0
LINE
8
BLACK
6
CONTINUOUS
10
42.462533999999998
20
-43.2837419999999966
11
42.5577719999999999
21
-43.3789799999999985
0
LINE
8
BLACK
6
CONTINUOUS
10
42.5577719999999999
20
-43.3789799999999985
11
42.6530099999999948
21
-43.5694569999999999
0
LINE
8
BLACK
6
CONTINUOUS
10
42.6530099999999948
20
-43.5694569999999999
11
42.6530099999999948
21
-44.1408849999999973
0
LINE
8
BLACK
6
CONTINUOUS
10
42.6530099999999948
20
-44.1408849999999973
11
42.5577719999999999
21
-44.3313610000000011
0
LINE
8
BLACK
6
CONTINUOUS
10
42.5577719999999999
20
-44.3313610000000011
11
42.462533999999998
21
-44.4266000000000005
0
LINE
8
BLACK
6
CONTINUOUS
10
42.462533999999998
20
-44.4266000000000005
11
42.2720580000000012
21
-44.5218379999999954
0
LINE
8
BLACK
6
CONTINUOUS
10
42.2720580000000012
20
-44.5218379999999954
11
41.986342999999998
21
-44.5218379999999954
0
LINE
8
BLACK
6
CONTINUOUS
10
43.7958670000000012
20
-44.5218379999999954
11
43.6053909999999973
21
-44.4266000000000005
0
LINE
8
BLACK
6
CONTINUOUS
10
43.6053909999999973
20
-44.4266000000000005
11
43.5101529999999954
21
-44.2361229999999992
0
LINE
8
BLACK
6
CONTINUOUS
10
43.5101529999999954
20
-44.2361229999999992
11
43.5101529999999954
21
-42.5218379999999954
0
LINE
8
BLACK
6
CONTINUOUS
10
45.3196769999999987
20
-44.4266000000000005
11
45.1292009999999948
21
-44.5218379999999954
0
LINE
8
BLACK
6
CONTINUOUS
10
45.1292009999999948
20
-44.5218379999999954
11
44.7482479999999967
21
-44.5218379999999954
0
LINE
8
BLACK
6
CONTINUOUS
10
44.7482479999999967
20
-44.5218379999999954
11
44.5577719999999999
21
-44.4266000000000005
0
LINE
8
BLACK
6
CONTINUOUS
10
44.5577719999999999
20
-44.4266000000000005
11
44.462533999999998
21
-44.2361229999999992
0
LINE
8
BLACK
6
CONTINUOUS
10
44.462533999999998
20
-44.2361229999999992
11
44.462533999999998
21
-43.4742189999999979
0
LINE
8
BLACK
6
CONTINUOUS
10
44.462533999999998
20
-43.4742189999999979
11
44.5577719999999999
21
-43.2837419999999966
0
LINE
8
BLACK
6
CONTINUOUS
10
44.5577719999999999
20
-43.2837419999999966
11
44.7482479999999967
21
-43.1885039999999947
0
LINE
8
BLACK
6
CONTINUOUS
10
44.7482479999999967
20
-43.1885039999999947
11
45.1292009999999948
21
-43.1885039999999947
0
LINE
8
BLACK
6
CONTINUOUS
10
45.1292009999999948
20
-43.1885039999999947
11
45.3196769999999987
21
-43.2837419999999966
0
LINE
8
BLACK
6
CONTINUOUS
10
45.3196769999999987
20
-43.2837419999999966
11
45.4149150000000006
21
-43.4742189999999979
0
LINE
8
BLACK
6
CONTINUOUS
10
45.4149150000000006
20
-43.4742189999999979
11
45.4149150000000006
21
-43.6646949999999947
0
LINE
8
BLACK
6
CONTINUOUS
10
45.4149150000000006
20
-43.6646949999999947
11
44.462533999999998
21
-43.8551709999999986
0
LINE
8
BLACK
6
CONTINUOUS
10
46.1768199999999993
20
-44.4266000000000005
11
46.3672959999999961
21
-44.5218379999999954
0
LINE
8
BLACK
6
CONTINUOUS
10
46.3672959999999961
20
-44.5218379999999954
11
46.7482479999999967
21
-44.5218379999999954
0
LINE
8
BLACK
6
CONTINUOUS
10
46.7482479999999967
20
-44.5218379999999954
11
46.938724999999998
21
-44.4266000000000005
0
LINE
8
BLACK
6
CONTINUOUS
10
46.938724999999998
20
-44.4266000000000005
11
47.033963
21
-44.2361229999999992
0
LINE
8
BLACK
6
CONTINUOUS
10
47.033963
20
-44.2361229999999992
11
47.033963
21
-44.1408849999999973
0
LINE
8
BLACK
6
CONTINUOUS
10
47.033963
20
-44.1408849999999973
11
46.938724999999998
21
-43.9504090000000005
0
LINE
8
BLACK
6
CONTINUOUS
10
46.938724999999998
20
-43.9504090000000005
11
46.7482479999999967
21
-43.8551709999999986
0
LINE
8
BLACK
6
CONTINUOUS
10
46.7482479999999967
20
-43.8551709999999986
11
46.462533999999998
21
-43.8551709999999986
0
LINE
8
BLACK
6
CONTINUOUS
10
46.462533999999998
20
-43.8551709999999986
11
46.2720580000000012
21
-43.7599329999999966
0
LINE
8
BLACK
6
CONTINUOUS
10
46.2720580000000012
20
-43.7599329999999966
11
46.1768199999999993
21
-43.5694569999999999
0
LINE
8
BLACK
6
CONTINUOUS
10
46.1768199999999993
20
-43.5694569999999999
11
46.1768199999999993
21
-43.4742189999999979
0
LINE
8
BLACK
6
CONTINUOUS
10
46.1768199999999993
20
-43.4742189999999979
11
46.2720580000000012
21
-43.2837419999999966
0
LINE
8
BLACK
6
CONTINUOUS
10
46.2720580000000012
20
-43.2837419999999966
11
46.462533999999998
21
-43.1885039999999947
0
LINE
8
BLACK
6
CONTINUOUS
10
46.462533999999998
20
-43.1885039999999947
11
46.7482479999999967
21
-43.1885039999999947
0
LINE
8
BLACK
6
CONTINUOUS
10
46.7482479999999967
20
-43.1885039999999947
11
46.938724999999998
21
-43.2837419999999966
0
LINE
8
BLACK
6
CONTINUOUS
10
49.4149159999999981
20
-43.7599329999999966
11
50.9387259999999955
21
-43.7599329999999966
0
LINE
8
BLACK
6
CONTINUOUS
10
50.1768209999999968
20
-44.5218379999999954
11
50.1768209999999968
21
-42.9980279999999979
0
LINE
8
BLACK
6
CONTINUOUS
10
54.2720589999999987
20
-43.1885039999999947
11
54.2720589999999987
21
-44.5218379999999954
0
LINE
8
BLACK
6
CONTINUOUS
10
53.7958679999999987
20
-42.4266000000000005
11
53.3196779999999961
21
-43.8551709999999986
0
LINE
8
BLACK
6
CONTINUOUS
10
53.3196779999999961
20
-43.8551709999999986
11
54.5577729999999974
21
-43.8551709999999986
0
LINE
8
BLACK
6
CONTINUOUS
10
56.7482499999999987
20
-44.4266000000000005
11
56.9387259999999955
21
-44.5218379999999954
0
LINE
8
BLACK
6
CONTINUOUS
10
56.9387259999999955
20
-44.5218379999999954
11
57.3196779999999961
21
-44.5218379999999954
0
LINE
8
BLACK
6
CONTINUOUS
10
57.3196779999999961
20
-44.5218379999999954
11
57.5101549999999975
21
-44.4266000000000005
0
LINE
8
BLACK
6
CONTINUOUS
10
57.5101549999999975
20
-44.4266000000000005
11
57.6053929999999994
21
-44.2361229999999992
0
LINE
8
BLACK
6
CONTINUOUS
10
57.6053929999999994
20
-44.2361229999999992
11
57.6053929999999994
21
-44.1408849999999973
0
LINE
8
BLACK
6
CONTINUOUS
10
57.6053929999999994
20
-44.1408849999999973
11
57.5101549999999975
21
-43.9504090000000005
0
LINE
8
BLACK
6
CONTINUOUS
10
57.5101549999999975
20
-43.9504090000000005
11
57.3196779999999961
21
-43.8551709999999986
0
LINE
8
BLACK
6
CONTINUOUS
10
57.3196779999999961
20
-43.8551709999999986
11
57.0339639999999974
21
-43.8551709999999986
0
LINE
8
BLACK
6
CONTINUOUS
10
57.0339639999999974
20
-43.8551709999999986
11
56.8434880000000007
21
-43.7599329999999966
0
LINE
8
BLACK
6
CONTINUOUS
10
56.8434880000000007
20
-43.7599329999999966
11
56.7482499999999987
21
-43.5694569999999999
0
LINE
8
BLACK
6
CONTINUOUS
10
56.7482499999999987
20
-43.5694569999999999
11
56.7482499999999987
21
-43.4742189999999979
0
LINE
8
BLACK
6
CONTINUOUS
10
56.7482499999999987
20
-43.4742189999999979
11
56.8434880000000007
21
-43.2837419999999966
0
LINE
8
BLACK
6
CONTINUOUS
10
56.8434880000000007
20
-43.2837419999999966
11
57.0339639999999974
21
-43.1885039999999947
0
LINE
8
BLACK
6
CONTINUOUS
10
57.0339639999999974
20
-43.1885039999999947
11
57.3196779999999961
21
-43.1885039999999947
0
LINE
8
BLACK
6
CONTINUOUS
10
57.3196779999999961
20
-43.1885039999999947
11
57.5101549999999975
21
-43.2837419999999966
0
LINE
8
BLACK
6
CONTINUOUS
10
58.7482499999999987
20
-44.5218379999999954
11
58.5577739999999949
21
-44.4266000000000005
0
LINE
8
BLACK
6
CONTINUOUS
10
58.5577739999999949
20
-44.4266000000000005
11
58.4625360000000001
21
-44.2361229999999992
0
LINE
8
BLACK
6
CONTINUOUS
10
58.4625360000000001
20
-44.2361229999999992
11
58.4625360000000001
21
-42.5218379999999954
0
LINE
8
BLACK
6
CONTINUOUS
10
59.7958689999999962
20
-44.5218379999999954
11
59.6053929999999994
21
-44.4266000000000005
0
LINE
8
BLACK
6
CONTINUOUS
10
59.6053929999999994
20
-44.4266000000000005
11
59.5101549999999975
21
-44.3313610000000011
0
LINE
8
BLACK
6
CONTINUOUS
10
59.5101549999999975
20
-44.3313610000000011
11
59.4149169999999955
21
-44.1408849999999973
0
LINE
8
BLACK
6
CONTINUOUS
10
59.4149169999999955
20
-44.1408849999999973
11
59.4149169999999955
21
-43.5694569999999999
0
LINE
8
BLACK
6
CONTINUOUS
10
59.4149169999999955
20
-43.5694569999999999
11
59.5101549999999975
21
-43.3789799999999985
0
LINE
8
BLACK
6
CONTINUOUS
10
59.5101549999999975
20
-43.3789799999999985
11
59.6053929999999994
21
-43.2837419999999966
0
LINE
8
BLACK
6
CONTINUOUS
10
59.6053929999999994
20
-43.2837419999999966
11
59.7958689999999962
21
-43.1885039999999947
0
LINE
8
BLACK
6
CONTINUOUS
10
59.7958689999999962
20
-43.1885039999999947
11
60.0815839999999994
21
-43.1885039999999947
0
LINE
8
BLACK
6
CONTINUOUS
10
60.0815839999999994
20
-43.1885039999999947
11
60.2720599999999962
21
-43.2837419999999966
0
LINE
8
BLACK
6
CONTINUOUS
10
60.2720599999999962
20
-43.2837419999999966
11
60.3672979999999981
21
-43.3789799999999985
0
LINE
8
BLACK
6
CONTINUOUS
10
60.3672979999999981
20
-43.3789799999999985
11
60.4625360000000001
21
-43.5694569999999999
0
LINE
8
BLACK
6
CONTINUOUS
10
60.4625360000000001
20
-43.5694569999999999
11
60.4625360000000001
21
-44.1408849999999973
0
LINE
8
BLACK
6
CONTINUOUS
10
60.4625360000000001
20
-44.1408849999999973
11
60.3672979999999981
21
-44.3313610000000011
0
LINE
8
BLACK
6
CONTINUOUS
10
60.3672979999999981
20
-44.3313610000000011
11
60.2720599999999962
21
-44.4266000000000005
0
LINE
8
BLACK
6
CONTINUOUS
10
60.2720599999999962
20
-44.4266000000000005
11
60.0815839999999994
21
-44.5218379999999954
0
LINE
8
BLACK
6
CONTINUOUS
10
60.0815839999999994
20
-44.5218379999999954
11
59.7958689999999962
21
-44.5218379999999954
0
LINE
8
BLACK
6
CONTINUOUS
10
61.0339649999999949
20
-43.1885039999999947
11
61.7958689999999962
21
-43.1885039999999947
0
LINE
8
BLACK
6
CONTINUOUS
10
61.3196790000000007
20
-42.5218379999999954
11
61.3196790000000007
21
-44.2361229999999992
0
LINE
8
BLACK
6
CONTINUOUS
10
61.3196790000000007
20
-44.2361229999999992
11
61.4149169999999955
21
-44.4266000000000005
0
LINE
8
BLACK
6
CONTINUOUS
10
61.4149169999999955
20
-44.4266000000000005
11
61.6053929999999994
21
-44.5218379999999954
0
LINE
8
BLACK
6
CONTINUOUS
10
61.6053929999999994
20
-44.5218379999999954
11
61.7958689999999962
21
-44.5218379999999954
0
LINE
8
BLACK
6
CONTINUOUS
10
62.3672979999999981
20
-44.4266000000000005
11
62.5577739999999949
21
-44.5218379999999954
0
LINE
8
BLACK
6
CONTINUOUS
10
62.5577739999999949
20
-44.5218379999999954
11
62.9387259999999955
21
-44.5218379999999954
0
LINE
8
BLACK
6
CONTINUOUS
10
62.9387259999999955
20
-44.5218379999999954
11
63.1292029999999968
21
-44.4266000000000005
0
LINE
8
BLACK
6
CONTINUOUS
10
63.1292029999999968
20
-44.4266000000000005
11
63.2244409999999988
21
-44.2361229999999992
0
LINE
8
BLACK
6
CONTINUOUS
10
63.2244409999999988
20
-44.2361229999999992
11
63.2244409999999988
21
-44.1408849999999973
0
LINE
8
BLACK
6
CONTINUOUS
10
63.2244409999999988
20
-44.1408849999999973
11
63.1292029999999968
21
-43.9504090000000005
0
LINE
8
BLACK
6
CONTINUOUS
10
63.1292029999999968
20
-43.9504090000000005
11
62.9387259999999955
21
-43.8551709999999986
0
LINE
8
BLACK
6
CONTINUOUS
10
62.9387259999999955
20
-43.8551709999999986
11
62.6530119999999968
21
-43.8551709999999986
0
LINE
8
BLACK
6
CONTINUOUS
10
62.6530119999999968
20
-43.8551709999999986
11
62.4625360000000001
21
-43.7599329999999966
0
LINE
8
BLACK
6
CONTINUOUS
10
62.4625360000000001
20
-43.7599329999999966
11
62.3672979999999981
21
-43.5694569999999999
0
LINE
8
BLACK
6
CONTINUOUS
10
62.3672979999999981
20
-43.5694569999999999
11
62.3672979999999981
21
-43.4742189999999979
0
LINE
8
BLACK
6
CONTINUOUS
10
62.3672979999999981
20
-43.4742189999999979
11
62.4625360000000001
21
-43.2837419999999966
0
LINE
8
BLACK
6
CONTINUOUS
10
62.4625360000000001
20
-43.2837419999999966
11
62.6530119999999968
21
-43.1885039999999947
0
LINE
8
BLACK
6
CONTINUOUS
10
62.6530119999999968
20
-43.1885039999999947
11
62.9387259999999955
21
-43.1885039999999947
0
LINE
8
BLACK
6
CONTINUOUS
10
62.9387259999999955
20
-43.1885039999999947
11
63.1292029999999968
21
-43.2837419999999966
0
LINE
8
BLACK
6
CONTINUOUS
10
63.8911079999999956
20
-45.2837419999999966
11
63.9863459999999975
21
-45.1885039999999947
0
LINE
8
BLACK
6
CONTINUOUS
10
63.9863459999999975
20
-45.1885039999999947
11
64.1768220000000014
21
-44.902789999999996
0
LINE
8
BLACK
6
CONTINUOUS
10
64.1768220000000014
20
-44.902789999999996
11
64.2720599999999962
21
-44.7123139999999992
0
LINE
8
BLACK
6
CONTINUOUS
10
64.2720599999999962
20
-44.7123139999999992
11
64.367297999999991
21
-44.4266000000000005
0
LINE
8
BLACK
6
CONTINUOUS
10
64.367297999999991
20
-44.4266000000000005
11
64.4625360000000001
21
-43.9504090000000005
0
LINE
8
BLACK
6
CONTINUOUS
10
64.4625360000000001
20
-43.9504090000000005
11
64.4625360000000001
21
-43.5694569999999999
0
LINE
8
BLACK
6
CONTINUOUS
10
64.4625360000000001
20
-43.5694569999999999
11
64.367297999999991
21
-43.0932659999999998
0
LINE
8
BLACK
6
CONTINUOUS
10
64.367297999999991
20
-43.0932659999999998
11
64.2720599999999962
21
-42.8075520000000012
0
LINE
8
BLACK
6
CONTINUOUS
10
64.2720599999999962
20
-42.8075520000000012
11
64.1768220000000014
21
-42.6170759999999973
0
LINE
8
BLACK
6
CONTINUOUS
10
64.1768220000000014
20
-42.6170759999999973
11
63.9863459999999975
21
-42.3313610000000011
0
LINE
8
BLACK
6
CONTINUOUS
10
63.9863459999999975
20
-42.3313610000000011
11
63.8911079999999956
21
-42.2361229999999992
0
LINE
8
BLACK
6
CONTINUOUS
10
-0.196443
20
-46.6005569999999949
11
-0.196443
21
-45.8934429999999978
0
LINE
8
BLACK
6
CONTINUOUS
10
-0.196443
20
-45.8934429999999978
11
-0.9035569999999999
21
-45.8934429999999978
0
LINE
8
BLACK
6
CONTINUOUS
10
-0.9035569999999999
20
-45.8934429999999978
11
-0.9035569999999999
21
-46.6005569999999949
0
LINE
8
BLACK
6
CONTINUOUS
10
-0.9035569999999999
20
-46.6005569999999949
11
-0.196443
21
-46.6005569999999949
0
LINE
8
BLACK
6
CONTINUOUS
10
3.6053869999999999
20
-47.1618379999999959
11
2.4625300000000001
21
-47.1618379999999959
0
LINE
8
BLACK
6
CONTINUOUS
10
3.0339579999999997
20
-47.1618379999999959
11
3.0339579999999997
21
-45.1618379999999959
0
LINE
8
BLACK
6
CONTINUOUS
10
3.0339579999999997
20
-45.1618379999999959
11
2.8434819999999998
21
-45.4475519999999946
0
LINE
8
BLACK
6
CONTINUOUS
10
2.8434819999999998
20
-45.4475519999999946
11
2.653006
21
-45.6380279999999985
0
LINE
8
BLACK
6
CONTINUOUS
10
2.653006
20
-45.6380279999999985
11
2.4625300000000001
21
-45.7332660000000004
0
LINE
8
BLACK
6
CONTINUOUS
10
4.4625300000000001
20
-46.9713609999999946
11
4.5577679999999994
21
-47.0666000000000011
0
LINE
8
BLACK
6
CONTINUOUS
10
4.5577679999999994
20
-47.0666000000000011
11
4.4625300000000001
21
-47.1618379999999959
0
LINE
8
BLACK
6
CONTINUOUS
10
4.4625300000000001
20
-47.1618379999999959
11
4.367292
21
-47.0666000000000011
0
LINE
8
BLACK
6
CONTINUOUS
10
4.367292
20
-47.0666000000000011
11
4.4625300000000001
21
-46.9713609999999946
0
LINE
8
BLACK
6
CONTINUOUS
10
4.4625300000000001
20
-46.9713609999999946
11
4.4625300000000001
21
-47.1618379999999959
0
LINE
8
BLACK
6
CONTINUOUS
10
5.7958629999999998
20
-45.1618379999999959
11
5.9863399999999993
21
-45.1618379999999959
0
LINE
8
BLACK
6
CONTINUOUS
10
5.9863399999999993
20
-45.1618379999999959
11
6.1768159999999996
21
-45.2570759999999979
0
LINE
8
BLACK
6
CONTINUOUS
10
6.1768159999999996
20
-45.2570759999999979
11
6.2720539999999998
21
-45.3523139999999998
0
LINE
8
BLACK
6
CONTINUOUS
10
6.2720539999999998
20
-45.3523139999999998
11
6.367292
21
-45.5427899999999966
0
LINE
8
BLACK
6
CONTINUOUS
10
6.367292
20
-45.5427899999999966
11
6.4625300000000001
21
-45.9237419999999972
0
LINE
8
BLACK
6
CONTINUOUS
10
6.4625300000000001
20
-45.9237419999999972
11
6.4625300000000001
21
-46.3999329999999972
0
LINE
8
BLACK
6
CONTINUOUS
10
6.4625300000000001
20
-46.3999329999999972
11
6.367292
21
-46.7808849999999978
0
LINE
8
BLACK
6
CONTINUOUS
10
6.367292
20
-46.7808849999999978
11
6.2720539999999998
21
-46.9713609999999946
0
LINE
8
BLACK
6
CONTINUOUS
10
6.2720539999999998
20
-46.9713609999999946
11
6.1768159999999996
21
-47.0666000000000011
0
LINE
8
BLACK
6
CONTINUOUS
10
6.1768159999999996
20
-47.0666000000000011
11
5.9863399999999993
21
-47.1618379999999959
0
LINE
8
BLACK
6
CONTINUOUS
10
5.9863399999999993
20
-47.1618379999999959
11
5.7958629999999998
21
-47.1618379999999959
0
LINE
8
BLACK
6
CONTINUOUS
10
5.7958629999999998
20
-47.1618379999999959
11
5.6053869999999995
21
-47.0666000000000011
0
LINE
8
BLACK
6
CONTINUOUS
10
5.6053869999999995
20
-47.0666000000000011
11
5.5101490000000002
21
-46.9713609999999946
0
LINE
8
BLACK
6
CONTINUOUS
10
5.5101490000000002
20
-46.9713609999999946
11
5.414911
21
-46.7808849999999978
0
LINE
8
BLACK
6
CONTINUOUS
10
5.414911
20
-46.7808849999999978
11
5.3196729999999999
21
-46.3999329999999972
0
LINE
8
BLACK
6
CONTINUOUS
10
5.3196729999999999
20
-46.3999329999999972
11
5.3196729999999999
21
-45.9237419999999972
0
LINE
8
BLACK
6
CONTINUOUS
10
5.3196729999999999
20
-45.9237419999999972
11
5.414911
21
-45.5427899999999966
0
LINE
8
BLACK
6
CONTINUOUS
10
5.414911
20
-45.5427899999999966
11
5.5101490000000002
21
-45.3523139999999998
0
LINE
8
BLACK
6
CONTINUOUS
10
5.5101490000000002
20
-45.3523139999999998
11
5.6053869999999995
21
-45.2570759999999979
0
LINE
8
BLACK
6
CONTINUOUS
10
5.6053869999999995
20
-45.2570759999999979
11
5.7958629999999998
21
-45.1618379999999959
0
LINE
8
BLACK
6
CONTINUOUS
10
7.7006249999999996
20
-45.1618379999999959
11
7.8911020000000001
21
-45.1618379999999959
0
LINE
8
BLACK
6
CONTINUOUS
10
7.8911020000000001
20
-45.1618379999999959
11
8.0815780000000004
21
-45.2570759999999979
0
LINE
8
BLACK
6
CONTINUOUS
10
8.0815780000000004
20
-45.2570759999999979
11
8.1768159999999988
21
-45.3523139999999998
0
LINE
8
BLACK
6
CONTINUOUS
10
8.1768159999999988
20
-45.3523139999999998
11
8.2720539999999989
21
-45.5427899999999966
0
LINE
8
BLACK
6
CONTINUOUS
10
8.2720539999999989
20
-45.5427899999999966
11
8.3672919999999991
21
-45.9237419999999972
0
LINE
8
BLACK
6
CONTINUOUS
10
8.3672919999999991
20
-45.9237419999999972
11
8.3672919999999991
21
-46.3999329999999972
0
LINE
8
BLACK
6
CONTINUOUS
10
8.3672919999999991
20
-46.3999329999999972
11
8.2720539999999989
21
-46.7808849999999978
0
LINE
8
BLACK
6
CONTINUOUS
10
8.2720539999999989
20
-46.7808849999999978
11
8.1768159999999988
21
-46.9713609999999946
0
LINE
8
BLACK
6
CONTINUOUS
10
8.1768159999999988
20
-46.9713609999999946
11
8.0815780000000004
21
-47.0666000000000011
0
LINE
8
BLACK
6
CONTINUOUS
10
8.0815780000000004
20
-47.0666000000000011
11
7.8911020000000001
21
-47.1618379999999959
0
LINE
8
BLACK
6
CONTINUOUS
10
7.8911020000000001
20
-47.1618379999999959
11
7.7006249999999996
21
-47.1618379999999959
0
LINE
8
BLACK
6
CONTINUOUS
10
7.7006249999999996
20
-47.1618379999999959
11
7.5101489999999993
21
-47.0666000000000011
0
LINE
8
BLACK
6
CONTINUOUS
10
7.5101489999999993
20
-47.0666000000000011
11
7.414911
21
-46.9713609999999946
0
LINE
8
BLACK
6
CONTINUOUS
10
7.414911
20
-46.9713609999999946
11
7.3196729999999999
21
-46.7808849999999978
0
LINE
8
BLACK
6
CONTINUOUS
10
7.3196729999999999
20
-46.7808849999999978
11
7.2244349999999997
21
-46.3999329999999972
0
LINE
8
BLACK
6
CONTINUOUS
10
7.2244349999999997
20
-46.3999329999999972
11
7.2244349999999997
21
-45.9237419999999972
0
LINE
8
BLACK
6
CONTINUOUS
10
7.2244349999999997
20
-45.9237419999999972
11
7.3196729999999999
21
-45.5427899999999966
0
LINE
8
BLACK
6
CONTINUOUS
10
7.3196729999999999
20
-45.5427899999999966
11
7.414911
21
-45.3523139999999998
0
LINE
8
BLACK
6
CONTINUOUS
10
7.414911
20
-45.3523139999999998
11
7.5101489999999993
21
-45.2570759999999979
0
LINE
8
BLACK
6
CONTINUOUS
10
7.5101489999999993
20
-45.2570759999999979
11
7.7006249999999996
21
-45.1618379999999959
0
LINE
8
BLACK
6
CONTINUOUS
10
9.6053870000000003
20
-45.1618379999999959
11
9.7958639999999999
21
-45.1618379999999959
0
LINE
8
BLACK
6
CONTINUOUS
10
9.7958639999999999
20
-45.1618379999999959
11
9.9863400000000002
21
-45.2570759999999979
0
LINE
8
BLACK
6
CONTINUOUS
10
9.9863400000000002
20
-45.2570759999999979
11
10.0815780000000004
21
-45.3523139999999998
0
LINE
8
BLACK
6
CONTINUOUS
10
10.0815780000000004
20
-45.3523139999999998
11
10.1768159999999988
21
-45.5427899999999966
0
LINE
8
BLACK
6
CONTINUOUS
10
10.1768159999999988
20
-45.5427899999999966
11
10.2720539999999989
21
-45.9237419999999972
0
LINE
8
BLACK
6
CONTINUOUS
10
10.2720539999999989
20
-45.9237419999999972
11
10.2720539999999989
21
-46.3999329999999972
0
LINE
8
BLACK
6
CONTINUOUS
10
10.2720539999999989
20
-46.3999329999999972
11
10.1768159999999988
21
-46.7808849999999978
0
LINE
8
BLACK
6
CONTINUOUS
10
10.1768159999999988
20
-46.7808849999999978
11
10.0815780000000004
21
-46.9713609999999946
0
LINE
8
BLACK
6
CONTINUOUS
10
10.0815780000000004
20
-46.9713609999999946
11
9.9863400000000002
21
-47.0666000000000011
0
LINE
8
BLACK
6
CONTINUOUS
10
9.9863400000000002
20
-47.0666000000000011
11
9.7958639999999999
21
-47.1618379999999959
0
LINE
8
BLACK
6
CONTINUOUS
10
9.7958639999999999
20
-47.1618379999999959
11
9.6053870000000003
21
-47.1618379999999959
0
LINE
8
BLACK
6
CONTINUOUS
10
9.6053870000000003
20
-47.1618379999999959
11
9.414911
21
-47.0666000000000011
0
LINE
8
BLACK
6
CONTINUOUS
10
9.414911
20
-47.0666000000000011
11
9.3196729999999999
21
-46.9713609999999946
0
LINE
8
BLACK
6
CONTINUOUS
10
9.3196729999999999
20
-46.9713609999999946
11
9.2244349999999997
21
-46.7808849999999978
0
LINE
8
BLACK
6
CONTINUOUS
10
9.2244349999999997
20
-46.7808849999999978
11
9.1291969999999996
21
-46.3999329999999972
0
LINE
8
BLACK
6
CONTINUOUS
10
9.1291969999999996
20
-46.3999329999999972
11
9.1291969999999996
21
-45.9237419999999972
0
LINE
8
BLACK
6
CONTINUOUS
10
9.1291969999999996
20
-45.9237419999999972
11
9.2244349999999997
21
-45.5427899999999966
0
LINE
8
BLACK
6
CONTINUOUS
10
9.2244349999999997
20
-45.5427899999999966
11
9.3196729999999999
21
-45.3523139999999998
0
LINE
8
BLACK
6
CONTINUOUS
10
9.3196729999999999
20
-45.3523139999999998
11
9.414911
21
-45.2570759999999979
0
LINE
8
BLACK
6
CONTINUOUS
10
9.414911
20
-45.2570759999999979
11
9.6053870000000003
21
-45.1618379999999959
0
LINE
8
BLACK
6
CONTINUOUS
10
11.1291969999999996
20
-47.1618379999999959
11
11.1291969999999996
21
-45.8285039999999952
0
LINE
8
BLACK
6
CONTINUOUS
10
11.1291969999999996
20
-46.0189799999999991
11
11.2244349999999997
21
-45.9237419999999972
0
LINE
8
BLACK
6
CONTINUOUS
10
11.2244349999999997
20
-45.9237419999999972
11
11.414911
21
-45.8285039999999952
0
LINE
8
BLACK
6
CONTINUOUS
10
11.414911
20
-45.8285039999999952
11
11.7006259999999997
21
-45.8285039999999952
0
LINE
8
BLACK
6
CONTINUOUS
10
11.7006259999999997
20
-45.8285039999999952
11
11.8911020000000001
21
-45.9237419999999972
0
LINE
8
BLACK
6
CONTINUOUS
10
11.8911020000000001
20
-45.9237419999999972
11
11.9863400000000002
21
-46.1142189999999985
0
LINE
8
BLACK
6
CONTINUOUS
10
11.9863400000000002
20
-46.1142189999999985
11
11.9863400000000002
21
-47.1618379999999959
0
LINE
8
BLACK
6
CONTINUOUS
10
11.9863400000000002
20
-46.1142189999999985
11
12.0815779999999986
21
-45.9237419999999972
0
LINE
8
BLACK
6
CONTINUOUS
10
12.0815779999999986
20
-45.9237419999999972
11
12.2720539999999989
21
-45.8285039999999952
0
LINE
8
BLACK
6
CONTINUOUS
10
12.2720539999999989
20
-45.8285039999999952
11
12.5577679999999994
21
-45.8285039999999952
0
LINE
8
BLACK
6
CONTINUOUS
10
12.5577679999999994
20
-45.8285039999999952
11
12.7482449999999989
21
-45.9237419999999972
0
LINE
8
BLACK
6
CONTINUOUS
10
12.7482449999999989
20
-45.9237419999999972
11
12.8434829999999991
21
-46.1142189999999985
0
LINE
8
BLACK
6
CONTINUOUS
10
12.8434829999999991
20
-46.1142189999999985
11
12.8434829999999991
21
-47.1618379999999959
0
LINE
8
BLACK
6
CONTINUOUS
10
13.7958639999999999
20
-47.1618379999999959
11
13.7958639999999999
21
-45.8285039999999952
0
LINE
8
BLACK
6
CONTINUOUS
10
13.7958639999999999
20
-46.0189799999999991
11
13.8911020000000001
21
-45.9237419999999972
0
LINE
8
BLACK
6
CONTINUOUS
10
13.8911020000000001
20
-45.9237419999999972
11
14.0815779999999986
21
-45.8285039999999952
0
LINE
8
BLACK
6
CONTINUOUS
10
14.0815779999999986
20
-45.8285039999999952
11
14.3672930000000001
21
-45.8285039999999952
0
LINE
8
BLACK
6
CONTINUOUS
10
14.3672930000000001
20
-45.8285039999999952
11
14.5577689999999986
21
-45.9237419999999972
0
LINE
8
BLACK
6
CONTINUOUS
10
14.5577689999999986
20
-45.9237419999999972
11
14.6530069999999988
21
-46.1142189999999985
0
LINE
8
BLACK
6
CONTINUOUS
10
14.6530069999999988
20
-46.1142189999999985
11
14.6530069999999988
21
-47.1618379999999959
0
LINE
8
BLACK
6
CONTINUOUS
10
14.6530069999999988
20
-46.1142189999999985
11
14.7482449999999989
21
-45.9237419999999972
0
LINE
8
BLACK
6
CONTINUOUS
10
14.7482449999999989
20
-45.9237419999999972
11
14.9387209999999993
21
-45.8285039999999952
0
LINE
8
BLACK
6
CONTINUOUS
10
14.9387209999999993
20
-45.8285039999999952
11
15.2244349999999997
21
-45.8285039999999952
0
LINE
8
BLACK
6
CONTINUOUS
10
15.2244349999999997
20
-45.8285039999999952
11
15.4149119999999993
21
-45.9237419999999972
0
LINE
8
BLACK
6
CONTINUOUS
10
15.4149119999999993
20
-45.9237419999999972
11
15.5101499999999994
21
-46.1142189999999985
0
LINE
8
BLACK
6
CONTINUOUS
10
15.5101499999999994
20
-46.1142189999999985
11
15.5101499999999994
21
-47.1618379999999959
0
LINE
8
BLACK
6
CONTINUOUS
10
19.4149119999999975
20
-45.0666000000000011
11
17.7006270000000008
21
-47.6380279999999985
0
LINE
8
BLACK
6
CONTINUOUS
10
21.9863409999999995
20
-45.1618379999999959
11
22.1768179999999973
21
-45.1618379999999959
0
LINE
8
BLACK
6
CONTINUOUS
10
22.1768179999999973
20
-45.1618379999999959
11
22.3672939999999976
21
-45.2570759999999979
0
LINE
8
BLACK
6
CONTINUOUS
10
22.3672939999999976
20
-45.2570759999999979
11
22.4625319999999995
21
-45.3523139999999998
0
LINE
8
BLACK
6
CONTINUOUS
10
22.4625319999999995
20
-45.3523139999999998
11
22.5577699999999979
21
-45.5427899999999966
0
LINE
8
BLACK
6
CONTINUOUS
10
22.5577699999999979
20
-45.5427899999999966
11
22.6530079999999998
21
-45.9237419999999972
0
LINE
8
BLACK
6
CONTINUOUS
10
22.6530079999999998
20
-45.9237419999999972
11
22.6530079999999998
21
-46.3999329999999972
0
LINE
8
BLACK
6
CONTINUOUS
10
22.6530079999999998
20
-46.3999329999999972
11
22.5577699999999979
21
-46.7808849999999978
0
LINE
8
BLACK
6
CONTINUOUS
10
22.5577699999999979
20
-46.7808849999999978
11
22.4625319999999995
21
-46.9713609999999946
0
LINE
8
BLACK
6
CONTINUOUS
10
22.4625319999999995
20
-46.9713609999999946
11
22.3672939999999976
21
-47.0666000000000011
0
LINE
8
BLACK
6
CONTINUOUS
10
22.3672939999999976
20
-47.0666000000000011
11
22.1768179999999973
21
-47.1618379999999959
0
LINE
8
BLACK
6
CONTINUOUS
10
22.1768179999999973
20
-47.1618379999999959
11
21.9863409999999995
21
-47.1618379999999959
0
LINE
8
BLACK
6
CONTINUOUS
10
21.9863409999999995
20
-47.1618379999999959
11
21.7958649999999992
21
-47.0666000000000011
0
LINE
8
BLACK
6
CONTINUOUS
10
21.7958649999999992
20
-47.0666000000000011
11
21.7006270000000008
21
-46.9713609999999946
0
LINE
8
BLACK
6
CONTINUOUS
10
21.7006270000000008
20
-46.9713609999999946
11
21.6053889999999988
21
-46.7808849999999978
0
LINE
8
BLACK
6
CONTINUOUS
10
21.6053889999999988
20
-46.7808849999999978
11
21.5101510000000005
21
-46.3999329999999972
0
LINE
8
BLACK
6
CONTINUOUS
10
21.5101510000000005
20
-46.3999329999999972
11
21.5101510000000005
21
-45.9237419999999972
0
LINE
8
BLACK
6
CONTINUOUS
10
21.5101510000000005
20
-45.9237419999999972
11
21.6053889999999988
21
-45.5427899999999966
0
LINE
8
BLACK
6
CONTINUOUS
10
21.6053889999999988
20
-45.5427899999999966
11
21.7006270000000008
21
-45.3523139999999998
0
LINE
8
BLACK
6
CONTINUOUS
10
21.7006270000000008
20
-45.3523139999999998
11
21.7958649999999992
21
-45.2570759999999979
0
LINE
8
BLACK
6
CONTINUOUS
10
21.7958649999999992
20
-45.2570759999999979
11
21.9863409999999995
21
-45.1618379999999959
0
LINE
8
BLACK
6
CONTINUOUS
10
23.5101510000000005
20
-46.9713609999999946
11
23.6053889999999988
21
-47.0666000000000011
0
LINE
8
BLACK
6
CONTINUOUS
10
23.6053889999999988
20
-47.0666000000000011
11
23.5101510000000005
21
-47.1618379999999959
0
LINE
8
BLACK
6
CONTINUOUS
10
23.5101510000000005
20
-47.1618379999999959
11
23.4149129999999985
21
-47.0666000000000011
0
LINE
8
BLACK
6
CONTINUOUS
10
23.4149129999999985
20
-47.0666000000000011
11
23.5101510000000005
21
-46.9713609999999946
0
LINE
8
BLACK
6
CONTINUOUS
10
23.5101510000000005
20
-46.9713609999999946
11
23.5101510000000005
21
-47.1618379999999959
0
LINE
8
BLACK
6
CONTINUOUS
10
24.8434840000000001
20
-45.1618379999999959
11
25.0339609999999979
21
-45.1618379999999959
0
LINE
8
BLACK
6
CONTINUOUS
10
25.0339609999999979
20
-45.1618379999999959
11
25.2244369999999982
21
-45.2570759999999979
0
LINE
8
BLACK
6
CONTINUOUS
10
25.2244369999999982
20
-45.2570759999999979
11
25.3196750000000002
21
-45.3523139999999998
0
LINE
8
BLACK
6
CONTINUOUS
10
25.3196750000000002
20
-45.3523139999999998
11
25.4149129999999985
21
-45.5427899999999966
0
LINE
8
BLACK
6
CONTINUOUS
10
25.4149129999999985
20
-45.5427899999999966
11
25.5101510000000005
21
-45.9237419999999972
0
LINE
8
BLACK
6
CONTINUOUS
10
25.5101510000000005
20
-45.9237419999999972
11
25.5101510000000005
21
-46.3999329999999972
0
LINE
8
BLACK
6
CONTINUOUS
10
25.5101510000000005
20
-46.3999329999999972
11
25.4149129999999985
21
-46.7808849999999978
0
LINE
8
BLACK
6
CONTINUOUS
10
25.4149129999999985
20
-46.7808849999999978
11
25.3196750000000002
21
-46.9713609999999946
0
LINE
8
BLACK
6
CONTINUOUS
10
25.3196750000000002
20
-46.9713609999999946
11
25.2244369999999982
21
-47.0666000000000011
0
LINE
8
BLACK
6
CONTINUOUS
10
25.2244369999999982
20
-47.0666000000000011
11
25.0339609999999979
21
-47.1618379999999959
0
LINE
8
BLACK
6
CONTINUOUS
10
25.0339609999999979
20
-47.1618379999999959
11
24.8434840000000001
21
-47.1618379999999959
0
LINE
8
BLACK
6
CONTINUOUS
10
24.8434840000000001
20
-47.1618379999999959
11
24.6530079999999998
21
-47.0666000000000011
0
LINE
8
BLACK
6
CONTINUOUS
10
24.6530079999999998
20
-47.0666000000000011
11
24.5577699999999979
21
-46.9713609999999946
0
LINE
8
BLACK
6
CONTINUOUS
10
24.5577699999999979
20
-46.9713609999999946
11
24.4625319999999995
21
-46.7808849999999978
0
LINE
8
BLACK
6
CONTINUOUS
10
24.4625319999999995
20
-46.7808849999999978
11
24.3672939999999976
21
-46.3999329999999972
0
LINE
8
BLACK
6
CONTINUOUS
10
24.3672939999999976
20
-46.3999329999999972
11
24.3672939999999976
21
-45.9237419999999972
0
LINE
8
BLACK
6
CONTINUOUS
10
24.3672939999999976
20
-45.9237419999999972
11
24.4625319999999995
21
-45.5427899999999966
0
LINE
8
BLACK
6
CONTINUOUS
10
24.4625319999999995
20
-45.5427899999999966
11
24.5577699999999979
21
-45.3523139999999998
0
LINE
8
BLACK
6
CONTINUOUS
10
24.5577699999999979
20
-45.3523139999999998
11
24.6530079999999998
21
-45.2570759999999979
0
LINE
8
BLACK
6
CONTINUOUS
10
24.6530079999999998
20
-45.2570759999999979
11
24.8434840000000001
21
-45.1618379999999959
0
LINE
8
BLACK
6
CONTINUOUS
10
26.1768179999999973
20
-45.1618379999999959
11
27.4149129999999985
21
-45.1618379999999959
0
LINE
8
BLACK
6
CONTINUOUS
10
27.4149129999999985
20
-45.1618379999999959
11
26.7482459999999982
21
-45.9237419999999972
0
LINE
8
BLACK
6
CONTINUOUS
10
26.7482459999999982
20
-45.9237419999999972
11
27.0339609999999979
21
-45.9237419999999972
0
LINE
8
BLACK
6
CONTINUOUS
10
27.0339609999999979
20
-45.9237419999999972
11
27.2244369999999982
21
-46.0189799999999991
0
LINE
8
BLACK
6
CONTINUOUS
10
27.2244369999999982
20
-46.0189799999999991
11
27.3196750000000002
21
-46.1142189999999985
0
LINE
8
BLACK
6
CONTINUOUS
10
27.3196750000000002
20
-46.1142189999999985
11
27.4149129999999985
21
-46.3046949999999953
0
LINE
8
BLACK
6
CONTINUOUS
10
27.4149129999999985
20
-46.3046949999999953
11
27.4149129999999985
21
-46.7808849999999978
0
LINE
8
BLACK
6
CONTINUOUS
10
27.4149129999999985
20
-46.7808849999999978
11
27.3196750000000002
21
-46.9713609999999946
0
LINE
8
BLACK
6
CONTINUOUS
10
27.3196750000000002
20
-46.9713609999999946
11
27.2244369999999982
21
-47.0666000000000011
0
LINE
8
BLACK
6
CONTINUOUS
10
27.2244369999999982
20
-47.0666000000000011
11
27.0339609999999979
21
-47.1618379999999959
0
LINE
8
BLACK
6
CONTINUOUS
10
27.0339609999999979
20
-47.1618379999999959
11
26.4625319999999995
21
-47.1618379999999959
0
LINE
8
BLACK
6
CONTINUOUS
10
26.4625319999999995
20
-47.1618379999999959
11
26.2720559999999992
21
-47.0666000000000011
0
LINE
8
BLACK
6
CONTINUOUS
10
26.2720559999999992
20
-47.0666000000000011
11
26.1768179999999973
21
-46.9713609999999946
0
LINE
8
BLACK
6
CONTINUOUS
10
28.3672939999999976
20
-47.1618379999999959
11
28.7482459999999982
21
-47.1618379999999959
0
LINE
8
BLACK
6
CONTINUOUS
10
28.7482459999999982
20
-47.1618379999999959
11
28.9387229999999995
21
-47.0666000000000011
0
LINE
8
BLACK
6
CONTINUOUS
10
28.9387229999999995
20
-47.0666000000000011
11
29.0339609999999979
21
-46.9713609999999946
0
LINE
8
BLACK
6
CONTINUOUS
10
29.0339609999999979
20
-46.9713609999999946
11
29.2244369999999982
21
-46.6856469999999959
0
LINE
8
BLACK
6
CONTINUOUS
10
29.2244369999999982
20
-46.6856469999999959
11
29.3196750000000002
21
-46.3046949999999953
0
LINE
8
BLACK
6
CONTINUOUS
10
29.3196750000000002
20
-46.3046949999999953
11
29.3196750000000002
21
-45.5427899999999966
0
LINE
8
BLACK
6
CONTINUOUS
10
29.3196750000000002
20
-45.5427899999999966
11
29.2244369999999982
21
-45.3523139999999998
0
LINE
8
BLACK
6
CONTINUOUS
10
29.2244369999999982
20
-45.3523139999999998
11
29.1291989999999998
21
-45.2570759999999979
0
LINE
8
BLACK
6
CONTINUOUS
10
29.1291989999999998
20
-45.2570759999999979
11
28.9387229999999995
21
-45.1618379999999959
0
LINE
8
BLACK
6
CONTINUOUS
10
28.9387229999999995
20
-45.1618379999999959
11
28.5577699999999979
21
-45.1618379999999959
0
LINE
8
BLACK
6
CONTINUOUS
10
28.5577699999999979
20
-45.1618379999999959
11
28.3672939999999976
21
-45.2570759999999979
0
LINE
8
BLACK
6
CONTINUOUS
10
28.3672939999999976
20
-45.2570759999999979
11
28.2720559999999992
21
-45.3523139999999998
0
LINE
8
BLACK
6
CONTINUOUS
10
28.2720559999999992
20
-45.3523139999999998
11
28.1768179999999973
21
-45.5427899999999966
0
LINE
8
BLACK
6
CONTINUOUS
10
28.1768179999999973
20
-45.5427899999999966
11
28.1768179999999973
21
-46.0189799999999991
0
LINE
8
BLACK
6
CONTINUOUS
10
28.1768179999999973
20
-46.0189799999999991
11
28.2720559999999992
21
-46.2094570000000004
0
LINE
8
BLACK
6
CONTINUOUS
10
28.2720559999999992
20
-46.2094570000000004
11
28.3672939999999976
21
-46.3046949999999953
0
LINE
8
BLACK
6
CONTINUOUS
10
28.3672939999999976
20
-46.3046949999999953
11
28.5577699999999979
21
-46.3999329999999972
0
LINE
8
BLACK
6
CONTINUOUS
10
28.5577699999999979
20
-46.3999329999999972
11
28.9387229999999995
21
-46.3999329999999972
0
LINE
8
BLACK
6
CONTINUOUS
10
28.9387229999999995
20
-46.3999329999999972
11
29.1291989999999998
21
-46.3046949999999953
0
LINE
8
BLACK
6
CONTINUOUS
10
29.1291989999999998
20
-46.3046949999999953
11
29.2244369999999982
21
-46.2094570000000004
0
LINE
8
BLACK
6
CONTINUOUS
10
29.2244369999999982
20
-46.2094570000000004
11
29.3196750000000002
21
-46.0189799999999991
0
LINE
8
BLACK
6
CONTINUOUS
10
31.0339609999999979
20
-45.8285039999999952
11
31.0339609999999979
21
-47.1618379999999959
0
LINE
8
BLACK
6
CONTINUOUS
10
30.5577699999999979
20
-45.0666000000000011
11
30.0815799999999989
21
-46.4951709999999991
0
LINE
8
BLACK
6
CONTINUOUS
10
30.0815799999999989
20
-46.4951709999999991
11
31.3196750000000002
21
-46.4951709999999991
0
LINE
8
BLACK
6
CONTINUOUS
10
31.9863419999999969
20
-45.1618379999999959
11
31.9863419999999969
21
-45.5427899999999966
0
LINE
8
BLACK
6
CONTINUOUS
10
32.7482469999999992
20
-45.1618379999999959
11
32.7482469999999992
21
-45.5427899999999966
0
LINE
8
BLACK
6
CONTINUOUS
10
35.7006289999999993
20
-47.9237419999999972
11
35.6053899999999999
21
-47.8285039999999952
0
LINE
8
BLACK
6
CONTINUOUS
10
35.6053899999999999
20
-47.8285039999999952
11
35.414913999999996
21
-47.5427899999999966
0
LINE
8
BLACK
6
CONTINUOUS
10
35.414913999999996
20
-47.5427899999999966
11
35.3196760000000012
21
-47.3523139999999998
0
LINE
8
BLACK
6
CONTINUOUS
10
35.3196760000000012
20
-47.3523139999999998
11
35.2244379999999992
21
-47.0666000000000011
0
LINE
8
BLACK
6
CONTINUOUS
10
35.2244379999999992
20
-47.0666000000000011
11
35.1291999999999973
21
-46.5904090000000011
0
LINE
8
BLACK
6
CONTINUOUS
10
35.1291999999999973
20
-46.5904090000000011
11
35.1291999999999973
21
-46.2094570000000004
0
LINE
8
BLACK
6
CONTINUOUS
10
35.1291999999999973
20
-46.2094570000000004
11
35.2244379999999992
21
-45.7332660000000004
0
LINE
8
BLACK
6
CONTINUOUS
10
35.2244379999999992
20
-45.7332660000000004
11
35.3196760000000012
21
-45.4475519999999946
0
LINE
8
BLACK
6
CONTINUOUS
10
35.3196760000000012
20
-45.4475519999999946
11
35.414913999999996
21
-45.2570759999999979
0
LINE
8
BLACK
6
CONTINUOUS
10
35.414913999999996
20
-45.2570759999999979
11
35.6053899999999999
21
-44.9713609999999946
0
LINE
8
BLACK
6
CONTINUOUS
10
35.6053899999999999
20
-44.9713609999999946
11
35.7006289999999993
21
-44.8761229999999998
0
LINE
8
BLACK
6
CONTINUOUS
10
37.414913999999996
20
-45.1618379999999959
11
36.4625330000000005
21
-45.1618379999999959
0
LINE
8
BLACK
6
CONTINUOUS
10
36.4625330000000005
20
-45.1618379999999959
11
36.3672949999999986
21
-46.1142189999999985
0
LINE
8
BLACK
6
CONTINUOUS
10
36.3672949999999986
20
-46.1142189999999985
11
36.4625330000000005
21
-46.0189799999999991
0
LINE
8
BLACK
6
CONTINUOUS
10
36.4625330000000005
20
-46.0189799999999991
11
36.6530089999999973
21
-45.9237419999999972
0
LINE
8
BLACK
6
CONTINUOUS
10
36.6530089999999973
20
-45.9237419999999972
11
37.1291999999999973
21
-45.9237419999999972
0
LINE
8
BLACK
6
CONTINUOUS
10
37.1291999999999973
20
-45.9237419999999972
11
37.3196760000000012
21
-46.0189799999999991
0
LINE
8
BLACK
6
CONTINUOUS
10
37.3196760000000012
20
-46.0189799999999991
11
37.414913999999996
21
-46.1142189999999985
0
LINE
8
BLACK
6
CONTINUOUS
10
37.414913999999996
20
-46.1142189999999985
11
37.5101519999999979
21
-46.3046949999999953
0
LINE
8
BLACK
6
CONTINUOUS
10
37.5101519999999979
20
-46.3046949999999953
11
37.5101519999999979
21
-46.7808849999999978
0
LINE
8
BLACK
6
CONTINUOUS
10
37.5101519999999979
20
-46.7808849999999978
11
37.414913999999996
21
-46.9713609999999946
0
LINE
8
BLACK
6
CONTINUOUS
10
37.414913999999996
20
-46.9713609999999946
11
37.3196760000000012
21
-47.0666000000000011
0
LINE
8
BLACK
6
CONTINUOUS
10
37.3196760000000012
20
-47.0666000000000011
11
37.1291999999999973
21
-47.1618379999999959
0
LINE
8
BLACK
6
CONTINUOUS
10
37.1291999999999973
20
-47.1618379999999959
11
36.6530089999999973
21
-47.1618379999999959
0
LINE
8
BLACK
6
CONTINUOUS
10
36.6530089999999973
20
-47.1618379999999959
11
36.4625330000000005
21
-47.0666000000000011
0
LINE
8
BLACK
6
CONTINUOUS
10
36.4625330000000005
20
-47.0666000000000011
11
36.3672949999999986
21
-46.9713609999999946
0
LINE
8
BLACK
6
CONTINUOUS
10
38.6530089999999973
20
-46.0189799999999991
11
38.4625330000000005
21
-45.9237419999999972
0
LINE
8
BLACK
6
CONTINUOUS
10
38.4625330000000005
20
-45.9237419999999972
11
38.3672949999999986
21
-45.8285039999999952
0
LINE
8
BLACK
6
CONTINUOUS
10
38.3672949999999986
20
-45.8285039999999952
11
38.2720569999999967
21
-45.6380279999999985
0
LINE
8
BLACK
6
CONTINUOUS
10
38.2720569999999967
20
-45.6380279999999985
11
38.2720569999999967
21
-45.5427899999999966
0
LINE
8
BLACK
6
CONTINUOUS
10
38.2720569999999967
20
-45.5427899999999966
11
38.3672949999999986
21
-45.3523139999999998
0
LINE
8
BLACK
6
CONTINUOUS
10
38.3672949999999986
20
-45.3523139999999998
11
38.4625330000000005
21
-45.2570759999999979
0
LINE
8
BLACK
6
CONTINUOUS
10
38.4625330000000005
20
-45.2570759999999979
11
38.6530089999999973
21
-45.1618379999999959
0
LINE
8
BLACK
6
CONTINUOUS
10
38.6530089999999973
20
-45.1618379999999959
11
39.0339619999999954
21
-45.1618379999999959
0
LINE
8
BLACK
6
CONTINUOUS
10
39.0339619999999954
20
-45.1618379999999959
11
39.2244379999999992
21
-45.2570759999999979
0
LINE
8
BLACK
6
CONTINUOUS
10
39.2244379999999992
20
-45.2570759999999979
11
39.3196760000000012
21
-45.3523139999999998
0
LINE
8
BLACK
6
CONTINUOUS
10
39.3196760000000012
20
-45.3523139999999998
11
39.414913999999996
21
-45.5427899999999966
0
LINE
8
BLACK
6
CONTINUOUS
10
39.414913999999996
20
-45.5427899999999966
11
39.414913999999996
21
-45.6380279999999985
0
LINE
8
BLACK
6
CONTINUOUS
10
39.414913999999996
20
-45.6380279999999985
11
39.3196760000000012
21
-45.8285039999999952
0
LINE
8
BLACK
6
CONTINUOUS
10
39.3196760000000012
20
-45.8285039999999952
11
39.2244379999999992
21
-45.9237419999999972
0
LINE
8
BLACK
6
CONTINUOUS
10
39.2244379999999992
20
-45.9237419999999972
11
39.0339619999999954
21
-46.0189799999999991
0
LINE
8
BLACK
6
CONTINUOUS
10
39.0339619999999954
20
-46.0189799999999991
11
38.6530089999999973
21
-46.0189799999999991
0
LINE
8
BLACK
6
CONTINUOUS
10
38.6530089999999973
20
-46.0189799999999991
11
38.4625330000000005
21
-46.1142189999999985
0
LINE
8
BLACK
6
CONTINUOUS
10
38.4625330000000005
20
-46.1142189999999985
11
38.3672949999999986
21
-46.2094570000000004
0
LINE
8
BLACK
6
CONTINUOUS
10
38.3672949999999986
20
-46.2094570000000004
11
38.2720569999999967
21
-46.3999329999999972
0
LINE
8
BLACK
6
CONTINUOUS
10
38.2720569999999967
20
-46.3999329999999972
11
38.2720569999999967
21
-46.7808849999999978
0
LINE
8
BLACK
6
CONTINUOUS
10
38.2720569999999967
20
-46.7808849999999978
11
38.3672949999999986
21
-46.9713609999999946
0
LINE
8
BLACK
6
CONTINUOUS
10
38.3672949999999986
20
-46.9713609999999946
11
38.4625330000000005
21
-47.0666000000000011
0
LINE
8
BLACK
6
CONTINUOUS
10
38.4625330000000005
20
-47.0666000000000011
11
38.6530089999999973
21
-47.1618379999999959
0
LINE
8
BLACK
6
CONTINUOUS
10
38.6530089999999973
20
-47.1618379999999959
11
39.0339619999999954
21
-47.1618379999999959
0
LINE
8
BLACK
6
CONTINUOUS
10
39.0339619999999954
20
-47.1618379999999959
11
39.2244379999999992
21
-47.0666000000000011
0
LINE
8
BLACK
6
CONTINUOUS
10
39.2244379999999992
20
-47.0666000000000011
11
39.3196760000000012
21
-46.9713609999999946
0
LINE
8
BLACK
6
CONTINUOUS
10
39.3196760000000012
20
-46.9713609999999946
11
39.414913999999996
21
-46.7808849999999978
0
LINE
8
BLACK
6
CONTINUOUS
10
39.414913999999996
20
-46.7808849999999978
11
39.414913999999996
21
-46.3999329999999972
0
LINE
8
BLACK
6
CONTINUOUS
10
39.414913999999996
20
-46.3999329999999972
11
39.3196760000000012
21
-46.2094570000000004
0
LINE
8
BLACK
6
CONTINUOUS
10
39.3196760000000012
20
-46.2094570000000004
11
39.2244379999999992
21
-46.1142189999999985
0
LINE
8
BLACK
6
CONTINUOUS
10
39.2244379999999992
20
-46.1142189999999985
11
39.0339619999999954
21
-46.0189799999999991
0
LINE
8
BLACK
6
CONTINUOUS
10
41.7958670000000012
20
-47.1618379999999959
11
41.7958670000000012
21
-45.1618379999999959
0
LINE
8
BLACK
6
CONTINUOUS
10
42.6530099999999948
20
-47.1618379999999959
11
42.6530099999999948
21
-46.1142189999999985
0
LINE
8
BLACK
6
CONTINUOUS
10
42.6530099999999948
20
-46.1142189999999985
11
42.5577719999999999
21
-45.9237419999999972
0
LINE
8
BLACK
6
CONTINUOUS
10
42.5577719999999999
20
-45.9237419999999972
11
42.3672959999999961
21
-45.8285039999999952
0
LINE
8
BLACK
6
CONTINUOUS
10
42.3672959999999961
20
-45.8285039999999952
11
42.0815809999999999
21
-45.8285039999999952
0
LINE
8
BLACK
6
CONTINUOUS
10
42.0815809999999999
20
-45.8285039999999952
11
41.891104999999996
21
-45.9237419999999972
0
LINE
8
BLACK
6
CONTINUOUS
10
41.891104999999996
20
-45.9237419999999972
11
41.7958670000000012
21
-46.0189799999999991
0
LINE
8
BLACK
6
CONTINUOUS
10
43.891104999999996
20
-47.1618379999999959
11
43.7006289999999993
21
-47.0666000000000011
0
LINE
8
BLACK
6
CONTINUOUS
10
43.7006289999999993
20
-47.0666000000000011
11
43.6053909999999973
21
-46.9713609999999946
0
LINE
8
BLACK
6
CONTINUOUS
10
43.6053909999999973
20
-46.9713609999999946
11
43.5101529999999954
21
-46.7808849999999978
0
LINE
8
BLACK
6
CONTINUOUS
10
43.5101529999999954
20
-46.7808849999999978
11
43.5101529999999954
21
-46.2094570000000004
0
LINE
8
BLACK
6
CONTINUOUS
10
43.5101529999999954
20
-46.2094570000000004
11
43.6053909999999973
21
-46.0189799999999991
0
LINE
8
BLACK
6
CONTINUOUS
10
43.6053909999999973
20
-46.0189799999999991
11
43.7006289999999993
21
-45.9237419999999972
0
LINE
8
BLACK
6
CONTINUOUS
10
43.7006289999999993
20
-45.9237419999999972
11
43.891104999999996
21
-45.8285039999999952
0
LINE
8
BLACK
6
CONTINUOUS
10
43.891104999999996
20
-45.8285039999999952
11
44.1768199999999993
21
-45.8285039999999952
0
LINE
8
BLACK
6
CONTINUOUS
10
44.1768199999999993
20
-45.8285039999999952
11
44.3672959999999961
21
-45.9237419999999972
0
LINE
8
BLACK
6
CONTINUOUS
10
44.3672959999999961
20
-45.9237419999999972
11
44.462533999999998
21
-46.0189799999999991
0
LINE
8
BLACK
6
CONTINUOUS
10
44.462533999999998
20
-46.0189799999999991
11
44.5577719999999999
21
-46.2094570000000004
0
LINE
8
BLACK
6
CONTINUOUS
10
44.5577719999999999
20
-46.2094570000000004
11
44.5577719999999999
21
-46.7808849999999978
0
LINE
8
BLACK
6
CONTINUOUS
10
44.5577719999999999
20
-46.7808849999999978
11
44.462533999999998
21
-46.9713609999999946
0
LINE
8
BLACK
6
CONTINUOUS
10
44.462533999999998
20
-46.9713609999999946
11
44.3672959999999961
21
-47.0666000000000011
0
LINE
8
BLACK
6
CONTINUOUS
10
44.3672959999999961
20
-47.0666000000000011
11
44.1768199999999993
21
-47.1618379999999959
0
LINE
8
BLACK
6
CONTINUOUS
10
44.1768199999999993
20
-47.1618379999999959
11
43.891104999999996
21
-47.1618379999999959
0
LINE
8
BLACK
6
CONTINUOUS
10
45.7006289999999993
20
-47.1618379999999959
11
45.5101529999999954
21
-47.0666000000000011
0
LINE
8
BLACK
6
CONTINUOUS
10
45.5101529999999954
20
-47.0666000000000011
11
45.4149150000000006
21
-46.8761229999999998
0
LINE
8
BLACK
6
CONTINUOUS
10
45.4149150000000006
20
-46.8761229999999998
11
45.4149150000000006
21
-45.1618379999999959
0
LINE
8
BLACK
6
CONTINUOUS
10
47.2244389999999967
20
-47.0666000000000011
11
47.033963
21
-47.1618379999999959
0
LINE
8
BLACK
6
CONTINUOUS
10
47.033963
20
-47.1618379999999959
11
46.6530099999999948
21
-47.1618379999999959
0
LINE
8
BLACK
6
CONTINUOUS
10
46.6530099999999948
20
-47.1618379999999959
11
46.462533999999998
21
-47.0666000000000011
0
LINE
8
BLACK
6
CONTINUOUS
10
46.462533999999998
20
-47.0666000000000011
11
46.3672959999999961
21
-46.8761229999999998
0
LINE
8
BLACK
6
CONTINUOUS
10
46.3672959999999961
20
-46.8761229999999998
11
46.3672959999999961
21
-46.1142189999999985
0
LINE
8
BLACK
6
CONTINUOUS
10
46.3672959999999961
20
-46.1142189999999985
11
46.462533999999998
21
-45.9237419999999972
0
LINE
8
BLACK
6
CONTINUOUS
10
46.462533999999998
20
-45.9237419999999972
11
46.6530099999999948
21
-45.8285039999999952
0
LINE
8
BLACK
6
CONTINUOUS
10
46.6530099999999948
20
-45.8285039999999952
11
47.033963
21
-45.8285039999999952
0
LINE
8
BLACK
6
CONTINUOUS
10
47.033963
20
-45.8285039999999952
11
47.2244389999999967
21
-45.9237419999999972
0
LINE
8
BLACK
6
CONTINUOUS
10
47.2244389999999967
20
-45.9237419999999972
11
47.3196769999999987
21
-46.1142189999999985
0
LINE
8
BLACK
6
CONTINUOUS
10
47.3196769999999987
20
-46.1142189999999985
11
47.3196769999999987
21
-46.3046949999999953
0
LINE
8
BLACK
6
CONTINUOUS
10
47.3196769999999987
20
-46.3046949999999953
11
46.3672959999999961
21
-46.4951709999999991
0
LINE
8
BLACK
6
CONTINUOUS
10
48.0815819999999974
20
-47.0666000000000011
11
48.2720580000000012
21
-47.1618379999999959
0
LINE
8
BLACK
6
CONTINUOUS
10
48.2720580000000012
20
-47.1618379999999959
11
48.6530099999999948
21
-47.1618379999999959
0
LINE
8
BLACK
6
CONTINUOUS
10
48.6530099999999948
20
-47.1618379999999959
11
48.8434869999999961
21
-47.0666000000000011
0
LINE
8
BLACK
6
CONTINUOUS
10
48.8434869999999961
20
-47.0666000000000011
11
48.938724999999998
21
-46.8761229999999998
0
LINE
8
BLACK
6
CONTINUOUS
10
48.938724999999998
20
-46.8761229999999998
11
48.938724999999998
21
-46.7808849999999978
0
LINE
8
BLACK
6
CONTINUOUS
10
48.938724999999998
20
-46.7808849999999978
11
48.8434869999999961
21
-46.5904090000000011
0
LINE
8
BLACK
6
CONTINUOUS
10
48.8434869999999961
20
-46.5904090000000011
11
48.6530099999999948
21
-46.4951709999999991
0
LINE
8
BLACK
6
CONTINUOUS
10
48.6530099999999948
20
-46.4951709999999991
11
48.3672959999999961
21
-46.4951709999999991
0
LINE
8
BLACK
6
CONTINUOUS
10
48.3672959999999961
20
-46.4951709999999991
11
48.1768199999999993
21
-46.3999329999999972
0
LINE
8
BLACK
6
CONTINUOUS
10
48.1768199999999993
20
-46.3999329999999972
11
48.0815819999999974
21
-46.2094570000000004
0
LINE
8
BLACK
6
CONTINUOUS
10
48.0815819999999974
20
-46.2094570000000004
11
48.0815819999999974
21
-46.1142189999999985
0
LINE
8
BLACK
6
CONTINUOUS
10
48.0815819999999974
20
-46.1142189999999985
11
48.1768199999999993
21
-45.9237419999999972
0
LINE
8
BLACK
6
CONTINUOUS
10
48.1768199999999993
20
-45.9237419999999972
11
48.3672959999999961
21
-45.8285039999999952
0
LINE
8
BLACK
6
CONTINUOUS
10
48.3672959999999961
20
-45.8285039999999952
11
48.6530099999999948
21
-45.8285039999999952
0
LINE
8
BLACK
6
CONTINUOUS
10
48.6530099999999948
20
-45.8285039999999952
11
48.8434869999999961
21
-45.9237419999999972
0
LINE
8
BLACK
6
CONTINUOUS
10
49.6053919999999948
20
-47.9237419999999972
11
49.7006299999999968
21
-47.8285039999999952
0
LINE
8
BLACK
6
CONTINUOUS
10
49.7006299999999968
20
-47.8285039999999952
11
49.8911060000000006
21
-47.5427899999999966
0
LINE
8
BLACK
6
CONTINUOUS
10
49.8911060000000006
20
-47.5427899999999966
11
49.9863439999999954
21
-47.3523139999999998
0
LINE
8
BLACK
6
CONTINUOUS
10
49.9863439999999954
20
-47.3523139999999998
11
50.0815819999999974
21
-47.0666000000000011
0
LINE
8
BLACK
6
CONTINUOUS
10
50.0815819999999974
20
-47.0666000000000011
11
50.1768199999999993
21
-46.5904090000000011
0
LINE
8
BLACK
6
CONTINUOUS
10
50.1768199999999993
20
-46.5904090000000011
11
50.1768199999999993
21
-46.2094570000000004
0
LINE
8
BLACK
6
CONTINUOUS
10
50.1768199999999993
20
-46.2094570000000004
11
50.0815819999999974
21
-45.7332660000000004
0
LINE
8
BLACK
6
CONTINUOUS
10
50.0815819999999974
20
-45.7332660000000004
11
49.9863439999999954
21
-45.4475519999999946
0
LINE
8
BLACK
6
CONTINUOUS
10
49.9863439999999954
20
-45.4475519999999946
11
49.8911060000000006
21
-45.2570759999999979
0
LINE
8
BLACK
6
CONTINUOUS
10
49.8911060000000006
20
-45.2570759999999979
11
49.7006299999999968
21
-44.9713609999999946
0
LINE
8
BLACK
6
CONTINUOUS
10
49.7006299999999968
20
-44.9713609999999946
11
49.6053919999999948
21
-44.8761229999999998
  0
ENDSEC
  0
EOF
