M48
; DRILL file {KiCad 8.0.0} date 2024-04-25T20:32:54+0700
; FORMAT={-:-/ absolute / metric / decimal}
; #@! TF.CreationDate,2024-04-25T20:32:54+07:00
; #@! TF.GenerationSoftware,Kicad,Pcbnew,8.0.0
; #@! TF.FileFunction,MixedPlating,1,2
FMAT,2
METRIC
; #@! TA.AperFunction,Plated,PTH,ComponentDrill
T1C0.200
; #@! TA.AperFunction,Plated,PTH,ViaDrill
T2C0.250
; #@! TA.AperFunction,Plated,PTH,ComponentDrill
T3C0.600
; #@! TA.AperFunction,Plated,PTH,ComponentDrill
T4C1.000
%
G90
G05
T1
X8.04Y-15.75
X8.04Y-16.6
X8.04Y-17.45
X8.89Y-15.75
X8.89Y-16.6
X8.89Y-17.45
X9.74Y-15.75
X9.74Y-16.6
X9.74Y-17.45
T2
X2.3Y-11.0
X2.4Y-18.2
X2.7Y-12.7
X2.7Y-18.9
X3.0Y-13.45
X3.5Y-15.0
X3.6Y-11.4
X4.1Y-24.5
X4.2Y-6.5
X4.2Y-25.5
X4.8Y-20.3
X5.0Y-17.8
X5.0Y-18.6
X5.0Y-26.0
X5.7Y-7.0
X5.8Y-12.0
X6.1Y-20.4
X6.3Y-11.4
X6.3Y-12.7
X6.503Y-7.2
X6.8Y-9.5
X7.1Y-22.9
X7.2Y-20.4
X7.7Y-7.3
X7.7Y-13.3
X8.653Y-7.2
X8.89Y-25.5
X9.52Y-20.7
X9.6Y-13.3
X9.653Y-7.2
X10.35Y-13.3
X10.503Y-7.2
X10.6Y-19.5
X10.8Y-23.225
X10.9Y-21.0
X11.303Y-7.2
X11.303Y-9.9
X11.4Y-12.6
X11.4Y-19.4
X11.5Y-11.8
X11.6Y-14.15
X11.6Y-14.95
X11.8Y-24.1
X12.4Y-7.2
X12.6Y-9.7
X13.0Y-6.25
X13.05Y-14.0
X13.1Y-11.3
X13.2Y-10.5
X13.2Y-12.1
X13.6Y-22.5
X13.8Y-9.7
X13.8Y-20.6
X14.0Y-21.8
X14.2Y-25.2
X14.2Y-28.6
X14.3Y-17.75
X14.3Y-26.3
X14.4Y-14.6
X14.95Y-15.85
X15.4Y-13.3
T4
X-0.13Y-2.146
X-0.13Y-4.686
X-0.13Y-7.226
X-0.13Y-9.766
X-0.13Y-12.306
X-0.13Y-14.846
X-0.13Y-17.386
X-0.13Y-19.926
X-0.13Y-22.466
X-0.13Y-25.006
X-0.13Y-27.546
X-0.13Y-30.086
X1.27Y-2.146
X1.27Y-4.686
X1.27Y-7.226
X1.27Y-9.766
X1.27Y-12.306
X1.27Y-14.846
X1.27Y-17.386
X1.27Y-19.926
X1.27Y-22.466
X1.27Y-25.006
X1.27Y-27.546
X1.27Y-30.086
X3.78Y-31.862
X3.81Y-30.162
X6.32Y-31.862
X6.35Y-30.162
X8.86Y-31.862
X8.89Y-30.162
X11.4Y-31.862
X11.43Y-30.162
X13.94Y-31.862
X13.97Y-30.162
X16.51Y-2.146
X16.51Y-4.686
X16.51Y-7.226
X16.51Y-9.766
X16.51Y-12.306
X16.51Y-14.846
X16.51Y-17.386
X16.51Y-19.926
X16.51Y-22.466
X16.51Y-25.006
X16.51Y-27.546
X16.51Y-30.086
X17.91Y-2.146
X17.91Y-4.686
X17.91Y-7.226
X17.91Y-9.766
X17.91Y-12.306
X17.91Y-14.846
X17.91Y-17.386
X17.91Y-19.926
X17.91Y-22.466
X17.91Y-25.006
X17.91Y-27.546
X17.91Y-30.086
T3
X3.328Y-0.65G85X3.328Y-1.85
G05
X3.328Y-4.85G85X3.328Y-5.65
G05
X14.478Y-0.65G85X14.478Y-1.85
G05
X14.478Y-4.85G85X14.478Y-5.65
G05
M30
