G04 #@! TF.GenerationSoftware,KiCad,Pcbnew,8.0.0*
G04 #@! TF.CreationDate,2024-04-25T17:25:40+07:00*
G04 #@! TF.ProjectId,artemisia,61727465-6d69-4736-9961-2e6b69636164,2*
G04 #@! TF.SameCoordinates,Original*
G04 #@! TF.FileFunction,Legend,Top*
G04 #@! TF.FilePolarity,Positive*
%FSLAX46Y46*%
G04 Gerber Fmt 4.6, Leading zero omitted, Abs format (unit mm)*
G04 Created by KiCad (PCBNEW 8.0.0) date 2024-04-25 17:25:40*
%MOMM*%
%LPD*%
G01*
G04 APERTURE LIST*
G04 Aperture macros list*
%AMRoundRect*
0 Rectangle with rounded corners*
0 $1 Rounding radius*
0 $2 $3 $4 $5 $6 $7 $8 $9 X,Y pos of 4 corners*
0 Add a 4 corners polygon primitive as box body*
4,1,4,$2,$3,$4,$5,$6,$7,$8,$9,$2,$3,0*
0 Add four circle primitives for the rounded corners*
1,1,$1+$1,$2,$3*
1,1,$1+$1,$4,$5*
1,1,$1+$1,$6,$7*
1,1,$1+$1,$8,$9*
0 Add four rect primitives between the rounded corners*
20,1,$1+$1,$2,$3,$4,$5,0*
20,1,$1+$1,$4,$5,$6,$7,0*
20,1,$1+$1,$6,$7,$8,$9,0*
20,1,$1+$1,$8,$9,$2,$3,0*%
%AMFreePoly0*
4,1,14,0.085355,0.385355,0.100000,0.350000,0.100000,-0.350000,0.085355,-0.385355,0.050000,-0.400000,0.020711,-0.400000,-0.014644,-0.385355,-0.085355,-0.314644,-0.100000,-0.279289,-0.100000,0.350000,-0.085355,0.385355,-0.050000,0.400000,0.050000,0.400000,0.085355,0.385355,0.085355,0.385355,$1*%
%AMFreePoly1*
4,1,14,0.085355,0.385355,0.100000,0.350000,0.100000,-0.279289,0.085355,-0.314644,0.014644,-0.385355,-0.020711,-0.400000,-0.050000,-0.400000,-0.085355,-0.385355,-0.100000,-0.350000,-0.100000,0.350000,-0.085355,0.385355,-0.050000,0.400000,0.050000,0.400000,0.085355,0.385355,0.085355,0.385355,$1*%
%AMFreePoly2*
4,1,14,0.385355,0.085355,0.400000,0.050000,0.400000,-0.050000,0.385355,-0.085355,0.350000,-0.100000,-0.350000,-0.100000,-0.385355,-0.085355,-0.400000,-0.050000,-0.400000,-0.020711,-0.385355,0.014644,-0.314644,0.085355,-0.279289,0.100000,0.350000,0.100000,0.385355,0.085355,0.385355,0.085355,$1*%
%AMFreePoly3*
4,1,14,0.385355,0.085355,0.400000,0.050000,0.400000,-0.050000,0.385355,-0.085355,0.350000,-0.100000,-0.279289,-0.100000,-0.314644,-0.085355,-0.385355,-0.014644,-0.400000,0.020711,-0.400000,0.050000,-0.385355,0.085355,-0.350000,0.100000,0.350000,0.100000,0.385355,0.085355,0.385355,0.085355,$1*%
%AMFreePoly4*
4,1,14,0.014644,0.385355,0.085355,0.314644,0.100000,0.279289,0.100000,-0.350000,0.085355,-0.385355,0.050000,-0.400000,-0.050000,-0.400000,-0.085355,-0.385355,-0.100000,-0.350000,-0.100000,0.350000,-0.085355,0.385355,-0.050000,0.400000,-0.020711,0.400000,0.014644,0.385355,0.014644,0.385355,$1*%
%AMFreePoly5*
4,1,14,0.085355,0.385355,0.100000,0.350000,0.100000,-0.350000,0.085355,-0.385355,0.050000,-0.400000,-0.050000,-0.400000,-0.085355,-0.385355,-0.100000,-0.350000,-0.100000,0.279289,-0.085355,0.314644,-0.014644,0.385355,0.020711,0.400000,0.050000,0.400000,0.085355,0.385355,0.085355,0.385355,$1*%
%AMFreePoly6*
4,1,14,0.385355,0.085355,0.400000,0.050000,0.400000,0.020711,0.385355,-0.014644,0.314644,-0.085355,0.279289,-0.100000,-0.350000,-0.100000,-0.385355,-0.085355,-0.400000,-0.050000,-0.400000,0.050000,-0.385355,0.085355,-0.350000,0.100000,0.350000,0.100000,0.385355,0.085355,0.385355,0.085355,$1*%
%AMFreePoly7*
4,1,14,0.314644,0.085355,0.385355,0.014644,0.400000,-0.020711,0.400000,-0.050000,0.385355,-0.085355,0.350000,-0.100000,-0.350000,-0.100000,-0.385355,-0.085355,-0.400000,-0.050000,-0.400000,0.050000,-0.385355,0.085355,-0.350000,0.100000,0.279289,0.100000,0.314644,0.085355,0.314644,0.085355,$1*%
G04 Aperture macros list end*
%ADD10C,0.120000*%
%ADD11C,0.100000*%
%ADD12RoundRect,0.140000X-0.140000X-0.170000X0.140000X-0.170000X0.140000X0.170000X-0.140000X0.170000X0*%
%ADD13RoundRect,0.135000X-0.135000X-0.185000X0.135000X-0.185000X0.135000X0.185000X-0.135000X0.185000X0*%
%ADD14RoundRect,0.135000X0.135000X0.185000X-0.135000X0.185000X-0.135000X-0.185000X0.135000X-0.185000X0*%
%ADD15RoundRect,0.140000X0.140000X0.170000X-0.140000X0.170000X-0.140000X-0.170000X0.140000X-0.170000X0*%
%ADD16RoundRect,0.150000X-0.512500X-0.150000X0.512500X-0.150000X0.512500X0.150000X-0.512500X0.150000X0*%
%ADD17RoundRect,0.140000X0.170000X-0.140000X0.170000X0.140000X-0.170000X0.140000X-0.170000X-0.140000X0*%
%ADD18R,0.600000X0.800000*%
%ADD19R,0.300000X0.800000*%
%ADD20O,1.000000X2.200000*%
%ADD21O,1.000000X1.800000*%
%ADD22C,1.700000*%
%ADD23R,1.700000X0.900000*%
%ADD24R,2.650000X2.650000*%
%ADD25FreePoly0,90.000000*%
%ADD26RoundRect,0.050000X0.350000X-0.050000X0.350000X0.050000X-0.350000X0.050000X-0.350000X-0.050000X0*%
%ADD27FreePoly1,90.000000*%
%ADD28FreePoly2,90.000000*%
%ADD29RoundRect,0.050000X0.050000X-0.350000X0.050000X0.350000X-0.050000X0.350000X-0.050000X-0.350000X0*%
%ADD30FreePoly3,90.000000*%
%ADD31FreePoly4,90.000000*%
%ADD32FreePoly5,90.000000*%
%ADD33FreePoly6,90.000000*%
%ADD34FreePoly7,90.000000*%
%ADD35RoundRect,0.150000X-0.150000X0.512500X-0.150000X-0.512500X0.150000X-0.512500X0.150000X0.512500X0*%
%ADD36RoundRect,0.218750X-0.256250X0.218750X-0.256250X-0.218750X0.256250X-0.218750X0.256250X0.218750X0*%
%ADD37RoundRect,0.140000X-0.170000X0.140000X-0.170000X-0.140000X0.170000X-0.140000X0.170000X0.140000X0*%
%ADD38RoundRect,0.125000X0.125000X-0.125000X0.125000X0.125000X-0.125000X0.125000X-0.125000X-0.125000X0*%
%ADD39R,1.400000X1.200000*%
%ADD40RoundRect,0.135000X0.185000X-0.135000X0.185000X0.135000X-0.185000X0.135000X-0.185000X-0.135000X0*%
%ADD41RoundRect,0.135000X-0.185000X0.135000X-0.185000X-0.135000X0.185000X-0.135000X0.185000X0.135000X0*%
%ADD42RoundRect,0.147500X0.147500X0.172500X-0.147500X0.172500X-0.147500X-0.172500X0.147500X-0.172500X0*%
G04 #@! TA.AperFunction,Profile*
%ADD43C,0.100000*%
G04 #@! TD*
G04 APERTURE END LIST*
D10*
X2600000Y-9575000D02*
X2600000Y-9800000D01*
X2350000Y-7200000D02*
X2575000Y-7200000D01*
X2600000Y-9800000D02*
X2350000Y-9800000D01*
X2575000Y-7200000D02*
X2575000Y-7450000D01*
G36*
X15199605Y-9452533D02*
G01*
X15175047Y-9470408D01*
X15145721Y-9479682D01*
X15114867Y-9479553D01*
X15085930Y-9469423D01*
X14630091Y-9227048D01*
X14617760Y-9218240D01*
X14605014Y-9191402D01*
X14609818Y-9161351D01*
X14618381Y-9150056D01*
X14642440Y-9133075D01*
X14667603Y-9125912D01*
X14697385Y-9126868D01*
X14722109Y-9136067D01*
X14938474Y-9260208D01*
X14964335Y-9275061D01*
X14992030Y-9291491D01*
X15018208Y-9307287D01*
X15025311Y-9311605D01*
X15052635Y-9328010D01*
X15079705Y-9343942D01*
X15105227Y-9358510D01*
X15116189Y-9364556D01*
X15120023Y-9364246D01*
X15119712Y-9361033D01*
X15104581Y-9334721D01*
X15088210Y-9306672D01*
X15072650Y-9280225D01*
X15068418Y-9273057D01*
X15052240Y-9245571D01*
X15036486Y-9218551D01*
X15020748Y-9191136D01*
X15015985Y-9182697D01*
X14889979Y-8964673D01*
X14879782Y-8936968D01*
X14879513Y-8913380D01*
X14888624Y-8884494D01*
X14902828Y-8865609D01*
X14929138Y-8852034D01*
X14943137Y-8852242D01*
X14968732Y-8864988D01*
X14978058Y-8876594D01*
X15220537Y-9334816D01*
X15230667Y-9363753D01*
X15230796Y-9394607D01*
X15221522Y-9423933D01*
X15203647Y-9448491D01*
X15199605Y-9452533D01*
G37*
G36*
X15620213Y-9048298D02*
G01*
X15595869Y-9070298D01*
X15570049Y-9089085D01*
X15542754Y-9104659D01*
X15526952Y-9111922D01*
X15497730Y-9122242D01*
X15467771Y-9129070D01*
X15437074Y-9132406D01*
X15419702Y-9132751D01*
X15387947Y-9130286D01*
X15355636Y-9123592D01*
X15326446Y-9114091D01*
X15304265Y-9104772D01*
X15274855Y-9089417D01*
X15249664Y-9073228D01*
X15224978Y-9054472D01*
X15200798Y-9033146D01*
X15190590Y-9023221D01*
X15168593Y-8999667D01*
X15149026Y-8975429D01*
X15131889Y-8950507D01*
X15117181Y-8924900D01*
X15109868Y-8909960D01*
X15097711Y-8879942D01*
X15088910Y-8850299D01*
X15083463Y-8821032D01*
X15081371Y-8792140D01*
X15082625Y-8760143D01*
X15087437Y-8728850D01*
X15095806Y-8698263D01*
X15101992Y-8681574D01*
X15115731Y-8652608D01*
X15132699Y-8625395D01*
X15152897Y-8599937D01*
X15165513Y-8586551D01*
X15190696Y-8564553D01*
X15218278Y-8546520D01*
X15248260Y-8532455D01*
X15280642Y-8522357D01*
X15300224Y-8518367D01*
X15329540Y-8522437D01*
X15341051Y-8531217D01*
X15355301Y-8557780D01*
X15356180Y-8564998D01*
X15349319Y-8594365D01*
X15343953Y-8601680D01*
X15340430Y-8606447D01*
X15314373Y-8621714D01*
X15310068Y-8622716D01*
X15282099Y-8633004D01*
X15255681Y-8649477D01*
X15243127Y-8660642D01*
X15223533Y-8684174D01*
X15208109Y-8713739D01*
X15200120Y-8746154D01*
X15199229Y-8776854D01*
X15200020Y-8786027D01*
X15206516Y-8818203D01*
X15218933Y-8849992D01*
X15234289Y-8876932D01*
X15253994Y-8903588D01*
X15273737Y-8925584D01*
X15278048Y-8929960D01*
X15300472Y-8950860D01*
X15327421Y-8971961D01*
X15354413Y-8988719D01*
X15381449Y-9001134D01*
X15413046Y-9010130D01*
X15422085Y-9011615D01*
X15452766Y-9012912D01*
X15485584Y-9007023D01*
X15516006Y-8993272D01*
X15540659Y-8974790D01*
X15547366Y-8968404D01*
X15566479Y-8945425D01*
X15580817Y-8919490D01*
X15590378Y-8890601D01*
X15591717Y-8884469D01*
X15603963Y-8857261D01*
X15607882Y-8852967D01*
X15610265Y-8850584D01*
X15637406Y-8838162D01*
X15645912Y-8838356D01*
X15674697Y-8848395D01*
X15681351Y-8854107D01*
X15695559Y-8879874D01*
X15695962Y-8893173D01*
X15690489Y-8925622D01*
X15680987Y-8956518D01*
X15667455Y-8985862D01*
X15649895Y-9013655D01*
X15628305Y-9039896D01*
X15620213Y-9048298D01*
G37*
G36*
X15987869Y-8680642D02*
G01*
X15963525Y-8702642D01*
X15937705Y-8721429D01*
X15910410Y-8737003D01*
X15894608Y-8744266D01*
X15865386Y-8754586D01*
X15835427Y-8761414D01*
X15804730Y-8764750D01*
X15787358Y-8765095D01*
X15755603Y-8762630D01*
X15723292Y-8755936D01*
X15694102Y-8746435D01*
X15671921Y-8737116D01*
X15642512Y-8721761D01*
X15617320Y-8705572D01*
X15592634Y-8686816D01*
X15568454Y-8665490D01*
X15558246Y-8655565D01*
X15536249Y-8632011D01*
X15516682Y-8607773D01*
X15499545Y-8582850D01*
X15484837Y-8557244D01*
X15477524Y-8542304D01*
X15465367Y-8512286D01*
X15456566Y-8482643D01*
X15451119Y-8453376D01*
X15449027Y-8424484D01*
X15450281Y-8392487D01*
X15455093Y-8361194D01*
X15463462Y-8330607D01*
X15469648Y-8313918D01*
X15483387Y-8284952D01*
X15500355Y-8257739D01*
X15520553Y-8232281D01*
X15533169Y-8218895D01*
X15558352Y-8196896D01*
X15585934Y-8178864D01*
X15615916Y-8164799D01*
X15648298Y-8154701D01*
X15667880Y-8150711D01*
X15697196Y-8154781D01*
X15708708Y-8163560D01*
X15722957Y-8190124D01*
X15723837Y-8197342D01*
X15716976Y-8226708D01*
X15711609Y-8234024D01*
X15708086Y-8238791D01*
X15682029Y-8254058D01*
X15677724Y-8255060D01*
X15649755Y-8265348D01*
X15623337Y-8281821D01*
X15610783Y-8292986D01*
X15591189Y-8316518D01*
X15575765Y-8346083D01*
X15567776Y-8378498D01*
X15566885Y-8409198D01*
X15567676Y-8418371D01*
X15574172Y-8450547D01*
X15586589Y-8482336D01*
X15601945Y-8509276D01*
X15621650Y-8535932D01*
X15641393Y-8557928D01*
X15645704Y-8562304D01*
X15668128Y-8583204D01*
X15695077Y-8604305D01*
X15722069Y-8621063D01*
X15749105Y-8633478D01*
X15780702Y-8642474D01*
X15789741Y-8643959D01*
X15820422Y-8645256D01*
X15853240Y-8639367D01*
X15883662Y-8625616D01*
X15908315Y-8607134D01*
X15915022Y-8600748D01*
X15934136Y-8577769D01*
X15948473Y-8551834D01*
X15958034Y-8522945D01*
X15959373Y-8516813D01*
X15971619Y-8489605D01*
X15975538Y-8485311D01*
X15977921Y-8482928D01*
X16005062Y-8470506D01*
X16013568Y-8470700D01*
X16042353Y-8480739D01*
X16049007Y-8486451D01*
X16063215Y-8512218D01*
X16063618Y-8525517D01*
X16058145Y-8557966D01*
X16048643Y-8588862D01*
X16035111Y-8618206D01*
X16017551Y-8645999D01*
X15995961Y-8672240D01*
X15987869Y-8680642D01*
G37*
G36*
X1717416Y-11185927D02*
G01*
X1696633Y-11163206D01*
X1678324Y-11139084D01*
X1662490Y-11113560D01*
X1649129Y-11086635D01*
X1638243Y-11058308D01*
X1629831Y-11028579D01*
X1627160Y-11016296D01*
X1630681Y-10986334D01*
X1637625Y-10975572D01*
X1641770Y-10971427D01*
X1667866Y-10957348D01*
X1676692Y-10956194D01*
X1706481Y-10961643D01*
X1717001Y-10968525D01*
X1722700Y-10973188D01*
X1738366Y-10998841D01*
X1740213Y-11005830D01*
X1749617Y-11037176D01*
X1762077Y-11065310D01*
X1777595Y-11090231D01*
X1796169Y-11111940D01*
X1819112Y-11131724D01*
X1845501Y-11146233D01*
X1861349Y-11150384D01*
X1891037Y-11147897D01*
X1916891Y-11131110D01*
X1933302Y-11105846D01*
X1935232Y-11084791D01*
X1928004Y-11054144D01*
X1918377Y-11026252D01*
X1912746Y-11011736D01*
X1910362Y-11005830D01*
X1876063Y-10921377D01*
X1865639Y-10890517D01*
X1859313Y-10859722D01*
X1857085Y-10828993D01*
X1857618Y-10811950D01*
X1862980Y-10782144D01*
X1874751Y-10753928D01*
X1892933Y-10727302D01*
X1905803Y-10713197D01*
X1930930Y-10692195D01*
X1958437Y-10677065D01*
X1988325Y-10667805D01*
X2020592Y-10664416D01*
X2040099Y-10665116D01*
X2069484Y-10669708D01*
X2097950Y-10678512D01*
X2125499Y-10691528D01*
X2152129Y-10708754D01*
X2177841Y-10730192D01*
X2186208Y-10738274D01*
X2207557Y-10762006D01*
X2225752Y-10787348D01*
X2240791Y-10814300D01*
X2252676Y-10842862D01*
X2261406Y-10873035D01*
X2263615Y-10883450D01*
X2258644Y-10913098D01*
X2253149Y-10920651D01*
X2250247Y-10923553D01*
X2223458Y-10937949D01*
X2217606Y-10938785D01*
X2188389Y-10932832D01*
X2180820Y-10927698D01*
X2174499Y-10922413D01*
X2159080Y-10897462D01*
X2158126Y-10894434D01*
X2147717Y-10866867D01*
X2131522Y-10839137D01*
X2112485Y-10816288D01*
X2110356Y-10814126D01*
X2086527Y-10794334D01*
X2058821Y-10781315D01*
X2051394Y-10779620D01*
X2022011Y-10781835D01*
X1999582Y-10796614D01*
X1984971Y-10820551D01*
X1985056Y-10850011D01*
X1985282Y-10851120D01*
X1992835Y-10879790D01*
X1993365Y-10881378D01*
X2004984Y-10909278D01*
X2008908Y-10917853D01*
X2011188Y-10923656D01*
X2044451Y-11005830D01*
X2055345Y-11036036D01*
X2062326Y-11064895D01*
X2065505Y-11095751D01*
X2064554Y-11118572D01*
X2057216Y-11149955D01*
X2043931Y-11177264D01*
X2024319Y-11203689D01*
X2013571Y-11215149D01*
X1987614Y-11236892D01*
X1959158Y-11252704D01*
X1928202Y-11262585D01*
X1894748Y-11266537D01*
X1874509Y-11266132D01*
X1843854Y-11261607D01*
X1813753Y-11252230D01*
X1784206Y-11238000D01*
X1755212Y-11218918D01*
X1731474Y-11199310D01*
X1717416Y-11185927D01*
G37*
G36*
X2434595Y-11009590D02*
G01*
X2456251Y-11024689D01*
X2526715Y-11095153D01*
X2551066Y-11121218D01*
X2572257Y-11147548D01*
X2590288Y-11174143D01*
X2605158Y-11201004D01*
X2616867Y-11228131D01*
X2627060Y-11262413D01*
X2632314Y-11297110D01*
X2633032Y-11311104D01*
X2631135Y-11346139D01*
X2623757Y-11381036D01*
X2613910Y-11408856D01*
X2600555Y-11436588D01*
X2583694Y-11464233D01*
X2563325Y-11491790D01*
X2539450Y-11519260D01*
X2526197Y-11532962D01*
X2498869Y-11558512D01*
X2471393Y-11580655D01*
X2443767Y-11599391D01*
X2415993Y-11614721D01*
X2388070Y-11626644D01*
X2359998Y-11635161D01*
X2324698Y-11641016D01*
X2303406Y-11641974D01*
X2268239Y-11639525D01*
X2233719Y-11632178D01*
X2199848Y-11619934D01*
X2173216Y-11606612D01*
X2147000Y-11590155D01*
X2121197Y-11570564D01*
X2095810Y-11547838D01*
X2089527Y-11541667D01*
X2014400Y-11466540D01*
X1997958Y-11441733D01*
X1997478Y-11439079D01*
X2129112Y-11439079D01*
X2150769Y-11460737D01*
X2175953Y-11483256D01*
X2201457Y-11500765D01*
X2235957Y-11516315D01*
X2271024Y-11522956D01*
X2306657Y-11520690D01*
X2342857Y-11509515D01*
X2370379Y-11495287D01*
X2398220Y-11476049D01*
X2426380Y-11451799D01*
X2435837Y-11442603D01*
X2458366Y-11418394D01*
X2477120Y-11394600D01*
X2494643Y-11366595D01*
X2506731Y-11339187D01*
X2513963Y-11307967D01*
X2514798Y-11294836D01*
X2512027Y-11264608D01*
X2502988Y-11234857D01*
X2487682Y-11205582D01*
X2469574Y-11180868D01*
X2450966Y-11160539D01*
X2429309Y-11138882D01*
X2417703Y-11138882D01*
X2129215Y-11427370D01*
X2129112Y-11439079D01*
X1997478Y-11439079D01*
X1993261Y-11415764D01*
X1999250Y-11386651D01*
X2014297Y-11365092D01*
X2354700Y-11024689D01*
X2379478Y-11008276D01*
X2405372Y-11003654D01*
X2434595Y-11009590D01*
G37*
G36*
X2904940Y-11500321D02*
G01*
X2934499Y-11509673D01*
X2959550Y-11527988D01*
X2961830Y-11530268D01*
X2980145Y-11555319D01*
X2989497Y-11584878D01*
X2989601Y-11615809D01*
X2979964Y-11645186D01*
X2742770Y-12106207D01*
X2733340Y-12118953D01*
X2707745Y-12131906D01*
X2677868Y-12127275D01*
X2666296Y-12118435D01*
X2649285Y-12094347D01*
X2642048Y-12069110D01*
X2643261Y-12039584D01*
X2652928Y-12015329D01*
X2698419Y-11934814D01*
X2697175Y-11921965D01*
X2565470Y-11790259D01*
X2552103Y-11788498D01*
X2469826Y-11835750D01*
X2441348Y-11845881D01*
X2417703Y-11846009D01*
X2389069Y-11836646D01*
X2370243Y-11822383D01*
X2356777Y-11795104D01*
X2357394Y-11782798D01*
X2369000Y-11757100D01*
X2381331Y-11748292D01*
X2405711Y-11735753D01*
X2650856Y-11735753D01*
X2652928Y-11741349D01*
X2746189Y-11834610D01*
X2751370Y-11836268D01*
X2756034Y-11832849D01*
X2787017Y-11778653D01*
X2802142Y-11751731D01*
X2817942Y-11724203D01*
X2834574Y-11695577D01*
X2843803Y-11679797D01*
X2859173Y-11653613D01*
X2874941Y-11626534D01*
X2889789Y-11600502D01*
X2891884Y-11596691D01*
X2891884Y-11594411D01*
X2888982Y-11593789D01*
X2861346Y-11610697D01*
X2833487Y-11627483D01*
X2805406Y-11644148D01*
X2777101Y-11660691D01*
X2748575Y-11677113D01*
X2719825Y-11693413D01*
X2708263Y-11699900D01*
X2654068Y-11730883D01*
X2650856Y-11735753D01*
X2405711Y-11735753D01*
X2844735Y-11509958D01*
X2874035Y-11500243D01*
X2904940Y-11500321D01*
G37*
G36*
X15318978Y-13522098D02*
G01*
X15348606Y-13536756D01*
X15376651Y-13559810D01*
X15395505Y-13582460D01*
X15410655Y-13610410D01*
X15418308Y-13633590D01*
X15422723Y-13664828D01*
X15419648Y-13694346D01*
X15413437Y-13713069D01*
X15413437Y-13716592D01*
X15416339Y-13717214D01*
X15442708Y-13704009D01*
X15472334Y-13695278D01*
X15502303Y-13692801D01*
X15511361Y-13693277D01*
X15541040Y-13699567D01*
X15569585Y-13713387D01*
X15594306Y-13732261D01*
X15602343Y-13739908D01*
X15623603Y-13764491D01*
X15639356Y-13790210D01*
X15650772Y-13821653D01*
X15654690Y-13854643D01*
X15652082Y-13884152D01*
X15644541Y-13914090D01*
X15632643Y-13943751D01*
X15616388Y-13973136D01*
X15599514Y-13997411D01*
X15579614Y-14021495D01*
X15561515Y-14040623D01*
X15454265Y-14147873D01*
X15429458Y-14164316D01*
X15403489Y-14169012D01*
X15374377Y-14163024D01*
X15352818Y-14147977D01*
X15112618Y-13907778D01*
X15301420Y-13907778D01*
X15301524Y-13919487D01*
X15418100Y-14036064D01*
X15429706Y-14036064D01*
X15485145Y-13980625D01*
X15505955Y-13957719D01*
X15524924Y-13930239D01*
X15537354Y-13898953D01*
X15538512Y-13869510D01*
X15528399Y-13841911D01*
X15511361Y-13820320D01*
X15486516Y-13802032D01*
X15457726Y-13795145D01*
X15441416Y-13797004D01*
X15411747Y-13808866D01*
X15385153Y-13826899D01*
X15362654Y-13846659D01*
X15356859Y-13852339D01*
X15301420Y-13907778D01*
X15112618Y-13907778D01*
X15012414Y-13807574D01*
X14996001Y-13782796D01*
X14991379Y-13756902D01*
X14994474Y-13741669D01*
X15123706Y-13741669D01*
X15223910Y-13841873D01*
X15235619Y-13841977D01*
X15281110Y-13796486D01*
X15301215Y-13773988D01*
X15318018Y-13747759D01*
X15326601Y-13720737D01*
X15323862Y-13689587D01*
X15308652Y-13663553D01*
X15303804Y-13658356D01*
X15279967Y-13640950D01*
X15250977Y-13635360D01*
X15242977Y-13636492D01*
X15215391Y-13647438D01*
X15189993Y-13665383D01*
X15170337Y-13683433D01*
X15123706Y-13730063D01*
X15123706Y-13741669D01*
X14994474Y-13741669D01*
X14997316Y-13727679D01*
X15012414Y-13706023D01*
X15107955Y-13610482D01*
X15137451Y-13582903D01*
X15166055Y-13560047D01*
X15193769Y-13541914D01*
X15220592Y-13528505D01*
X15254971Y-13517972D01*
X15287766Y-13515837D01*
X15318978Y-13522098D01*
G37*
G36*
X15628584Y-13168798D02*
G01*
X15646694Y-13171429D01*
X15677651Y-13179341D01*
X15709256Y-13191806D01*
X15741509Y-13208825D01*
X15767778Y-13225719D01*
X15794461Y-13245527D01*
X15821558Y-13268250D01*
X15849070Y-13293887D01*
X15856013Y-13300751D01*
X15882544Y-13328539D01*
X15906180Y-13355944D01*
X15926921Y-13382967D01*
X15944767Y-13409608D01*
X15959717Y-13435867D01*
X15974335Y-13468153D01*
X15984429Y-13499842D01*
X15987200Y-13512351D01*
X15991073Y-13542748D01*
X15990043Y-13577236D01*
X15982820Y-13609552D01*
X15969404Y-13639696D01*
X15949795Y-13667670D01*
X15937668Y-13680842D01*
X15915233Y-13700373D01*
X15886361Y-13718093D01*
X15855362Y-13729575D01*
X15822235Y-13734821D01*
X15786980Y-13733830D01*
X15768555Y-13730996D01*
X15737105Y-13722711D01*
X15705057Y-13709903D01*
X15678989Y-13696400D01*
X15652539Y-13680001D01*
X15625707Y-13660708D01*
X15598493Y-13638519D01*
X15570897Y-13613436D01*
X15556956Y-13599809D01*
X15530452Y-13572049D01*
X15506899Y-13544726D01*
X15486296Y-13517841D01*
X15468643Y-13491393D01*
X15453939Y-13465382D01*
X15439709Y-13433483D01*
X15430088Y-13402266D01*
X15427530Y-13389971D01*
X15424180Y-13360066D01*
X15425763Y-13326016D01*
X15425933Y-13325310D01*
X15528459Y-13325310D01*
X15528829Y-13355441D01*
X15532915Y-13371630D01*
X15544837Y-13399126D01*
X15560210Y-13424204D01*
X15568147Y-13435462D01*
X15586627Y-13459188D01*
X15606288Y-13481909D01*
X15628817Y-13505924D01*
X15639751Y-13517014D01*
X15669414Y-13545499D01*
X15697397Y-13569945D01*
X15723698Y-13590354D01*
X15748318Y-13606724D01*
X15778529Y-13622269D01*
X15812089Y-13631605D01*
X15846198Y-13628001D01*
X15869484Y-13612658D01*
X15886338Y-13584365D01*
X15887082Y-13549304D01*
X15875397Y-13514915D01*
X15857994Y-13484020D01*
X15840243Y-13458874D01*
X15818465Y-13432037D01*
X15792659Y-13403507D01*
X15773218Y-13383547D01*
X15744208Y-13355704D01*
X15716826Y-13331826D01*
X15691073Y-13311910D01*
X15659269Y-13291523D01*
X15630360Y-13278181D01*
X15598294Y-13271413D01*
X15565786Y-13277825D01*
X15547733Y-13290907D01*
X15531218Y-13315932D01*
X15528459Y-13325310D01*
X15425933Y-13325310D01*
X15433460Y-13293969D01*
X15447269Y-13263927D01*
X15467192Y-13235888D01*
X15479445Y-13222619D01*
X15501807Y-13203091D01*
X15530485Y-13185293D01*
X15561174Y-13173646D01*
X15593874Y-13168147D01*
X15628584Y-13168798D01*
G37*
G36*
X2179055Y-3327923D02*
G01*
X2214328Y-3345029D01*
X2240126Y-3364014D01*
X2257012Y-3379602D01*
X2277612Y-3402660D01*
X2297402Y-3432434D01*
X2310568Y-3463266D01*
X2317110Y-3495155D01*
X2317030Y-3528101D01*
X2310326Y-3562105D01*
X2303125Y-3583015D01*
X2307684Y-3592341D01*
X2517004Y-3649956D01*
X2535138Y-3660007D01*
X2545604Y-3678556D01*
X2542222Y-3707703D01*
X2534516Y-3717622D01*
X2511322Y-3735716D01*
X2482567Y-3747788D01*
X2480632Y-3748295D01*
X2449648Y-3751818D01*
X2419080Y-3746844D01*
X2235459Y-3692545D01*
X2221573Y-3696068D01*
X2171938Y-3745704D01*
X2171938Y-3757310D01*
X2289032Y-3874404D01*
X2304940Y-3900594D01*
X2307373Y-3919066D01*
X2300112Y-3948413D01*
X2289032Y-3963106D01*
X2263377Y-3978722D01*
X2244992Y-3981447D01*
X2215443Y-3974339D01*
X2200434Y-3963002D01*
X1853710Y-3616278D01*
X1837296Y-3591501D01*
X1832674Y-3565606D01*
X1835305Y-3552654D01*
X1967281Y-3552654D01*
X2090282Y-3675655D01*
X2101992Y-3675758D01*
X2153285Y-3624465D01*
X2174258Y-3600672D01*
X2190563Y-3574620D01*
X2199989Y-3546431D01*
X2200745Y-3541359D01*
X2198865Y-3511695D01*
X2185765Y-3483634D01*
X2170798Y-3465817D01*
X2146559Y-3446746D01*
X2117503Y-3437120D01*
X2099401Y-3438150D01*
X2070937Y-3448807D01*
X2045525Y-3465658D01*
X2021339Y-3487018D01*
X2018575Y-3489754D01*
X1967281Y-3541048D01*
X1967281Y-3552654D01*
X1835305Y-3552654D01*
X1838611Y-3536384D01*
X1853710Y-3514727D01*
X1956815Y-3411622D01*
X1987679Y-3383115D01*
X2017980Y-3359885D01*
X2047718Y-3341932D01*
X2076894Y-3329256D01*
X2105506Y-3321857D01*
X2142781Y-3320199D01*
X2179055Y-3327923D01*
G37*
G36*
X2644668Y-3607470D02*
G01*
X2616614Y-3619206D01*
X2607467Y-3617936D01*
X2588193Y-3607988D01*
X2578867Y-3590580D01*
X2496590Y-3310175D01*
X2486124Y-3299709D01*
X2230278Y-3224374D01*
X2212144Y-3214530D01*
X2202299Y-3195360D01*
X2205109Y-3165640D01*
X2212765Y-3155672D01*
X2237194Y-3137253D01*
X2266131Y-3126347D01*
X2296959Y-3123601D01*
X2327062Y-3130077D01*
X2396386Y-3154014D01*
X2424601Y-3163894D01*
X2445400Y-3171526D01*
X2473351Y-3181526D01*
X2497212Y-3189557D01*
X2501046Y-3189246D01*
X2501357Y-3185412D01*
X2488288Y-3155602D01*
X2476712Y-3127841D01*
X2465598Y-3099400D01*
X2461669Y-3088731D01*
X2435452Y-3018164D01*
X2429099Y-2987888D01*
X2431411Y-2960445D01*
X2441540Y-2932752D01*
X2459285Y-2909152D01*
X2486525Y-2897650D01*
X2497212Y-2899204D01*
X2515242Y-2909152D01*
X2525294Y-2926042D01*
X2604462Y-3189453D01*
X2615653Y-3199401D01*
X2888908Y-3278051D01*
X2906939Y-3287999D01*
X2916887Y-3307273D01*
X2913215Y-3337175D01*
X2906421Y-3345717D01*
X2881603Y-3364577D01*
X2852537Y-3375768D01*
X2821657Y-3378722D01*
X2791606Y-3373074D01*
X2709951Y-3346339D01*
X2681138Y-3336406D01*
X2657206Y-3327998D01*
X2627956Y-3317512D01*
X2603944Y-3308931D01*
X2600939Y-3309656D01*
X2600421Y-3312454D01*
X2612298Y-3341870D01*
X2624206Y-3372084D01*
X2635629Y-3402078D01*
X2640627Y-3415663D01*
X2669745Y-3498458D01*
X2675470Y-3527343D01*
X2672750Y-3556798D01*
X2662206Y-3584285D01*
X2644668Y-3607470D01*
G37*
G36*
X2068978Y-28572098D02*
G01*
X2098606Y-28586756D01*
X2126651Y-28609810D01*
X2145505Y-28632460D01*
X2160655Y-28660410D01*
X2168308Y-28683590D01*
X2172723Y-28714828D01*
X2169648Y-28744346D01*
X2163437Y-28763069D01*
X2163437Y-28766592D01*
X2166339Y-28767214D01*
X2192708Y-28754009D01*
X2222334Y-28745278D01*
X2252303Y-28742801D01*
X2261361Y-28743277D01*
X2291040Y-28749567D01*
X2319585Y-28763387D01*
X2344306Y-28782261D01*
X2352343Y-28789908D01*
X2373603Y-28814491D01*
X2389356Y-28840210D01*
X2400772Y-28871653D01*
X2404690Y-28904643D01*
X2402082Y-28934152D01*
X2394541Y-28964090D01*
X2382643Y-28993751D01*
X2366388Y-29023136D01*
X2349514Y-29047411D01*
X2329614Y-29071495D01*
X2311515Y-29090623D01*
X2204265Y-29197873D01*
X2179458Y-29214316D01*
X2153489Y-29219012D01*
X2124377Y-29213024D01*
X2102818Y-29197977D01*
X1862618Y-28957778D01*
X2051420Y-28957778D01*
X2051524Y-28969487D01*
X2168100Y-29086064D01*
X2179706Y-29086064D01*
X2235145Y-29030625D01*
X2255955Y-29007719D01*
X2274924Y-28980239D01*
X2287354Y-28948953D01*
X2288512Y-28919510D01*
X2278399Y-28891911D01*
X2261361Y-28870320D01*
X2236516Y-28852032D01*
X2207726Y-28845145D01*
X2191416Y-28847004D01*
X2161747Y-28858866D01*
X2135153Y-28876899D01*
X2112654Y-28896659D01*
X2106859Y-28902339D01*
X2051420Y-28957778D01*
X1862618Y-28957778D01*
X1762414Y-28857574D01*
X1746001Y-28832796D01*
X1741379Y-28806902D01*
X1744474Y-28791669D01*
X1873706Y-28791669D01*
X1973910Y-28891873D01*
X1985619Y-28891977D01*
X2031110Y-28846486D01*
X2051215Y-28823988D01*
X2068018Y-28797759D01*
X2076601Y-28770737D01*
X2073862Y-28739587D01*
X2058652Y-28713553D01*
X2053804Y-28708356D01*
X2029967Y-28690950D01*
X2000977Y-28685360D01*
X1992977Y-28686492D01*
X1965391Y-28697438D01*
X1939993Y-28715383D01*
X1920337Y-28733433D01*
X1873706Y-28780063D01*
X1873706Y-28791669D01*
X1744474Y-28791669D01*
X1747316Y-28777679D01*
X1762414Y-28756023D01*
X1857955Y-28660482D01*
X1887451Y-28632903D01*
X1916055Y-28610047D01*
X1943769Y-28591914D01*
X1970592Y-28578505D01*
X2004971Y-28567972D01*
X2037766Y-28565837D01*
X2068978Y-28572098D01*
G37*
G36*
X2390722Y-28212168D02*
G01*
X2421719Y-28221274D01*
X2450928Y-28237349D01*
X2475019Y-28257130D01*
X2478349Y-28260392D01*
X2497943Y-28284416D01*
X2512117Y-28311880D01*
X2518555Y-28332099D01*
X2524029Y-28363502D01*
X2524753Y-28394759D01*
X2522596Y-28415516D01*
X2524151Y-28419350D01*
X2527259Y-28420179D01*
X2561750Y-28412638D01*
X2594501Y-28410481D01*
X2625511Y-28413707D01*
X2654781Y-28422316D01*
X2682310Y-28436310D01*
X2708098Y-28455686D01*
X2717926Y-28464945D01*
X2737349Y-28488304D01*
X2752710Y-28517806D01*
X2760778Y-28550300D01*
X2761855Y-28581187D01*
X2761137Y-28590433D01*
X2754971Y-28622682D01*
X2743182Y-28654148D01*
X2728601Y-28680496D01*
X2709890Y-28706268D01*
X2687047Y-28731464D01*
X2662814Y-28753357D01*
X2637759Y-28771396D01*
X2611880Y-28785581D01*
X2580648Y-28797258D01*
X2548295Y-28803690D01*
X2516527Y-28804627D01*
X2487050Y-28799822D01*
X2456167Y-28787300D01*
X2431598Y-28770191D01*
X2421771Y-28761100D01*
X2401281Y-28736967D01*
X2386053Y-28710811D01*
X2376087Y-28682630D01*
X2371384Y-28652425D01*
X2371942Y-28620197D01*
X2377763Y-28585944D01*
X2381565Y-28571677D01*
X2380736Y-28568568D01*
X2376902Y-28567014D01*
X2347019Y-28570028D01*
X2313484Y-28568610D01*
X2282484Y-28561698D01*
X2281367Y-28561211D01*
X2445708Y-28561211D01*
X2447009Y-28594157D01*
X2454438Y-28624188D01*
X2467993Y-28651305D01*
X2487675Y-28675507D01*
X2511321Y-28693178D01*
X2539962Y-28701864D01*
X2556688Y-28702035D01*
X2587382Y-28694689D01*
X2613408Y-28679651D01*
X2627567Y-28667218D01*
X2646410Y-28643209D01*
X2657064Y-28615441D01*
X2658447Y-28605043D01*
X2654010Y-28574574D01*
X2637831Y-28548478D01*
X2632852Y-28543180D01*
X2608652Y-28525305D01*
X2579213Y-28516991D01*
X2561973Y-28517274D01*
X2530995Y-28523073D01*
X2501005Y-28532097D01*
X2470838Y-28543353D01*
X2454516Y-28550123D01*
X2449231Y-28553128D01*
X2445708Y-28561211D01*
X2281367Y-28561211D01*
X2254020Y-28549292D01*
X2228091Y-28531393D01*
X2216078Y-28520383D01*
X2195673Y-28496408D01*
X2180881Y-28470905D01*
X2170849Y-28439890D01*
X2168148Y-28406879D01*
X2168618Y-28398315D01*
X2170439Y-28387331D01*
X2268304Y-28387331D01*
X2274470Y-28416190D01*
X2292014Y-28441269D01*
X2293588Y-28442873D01*
X2317723Y-28460748D01*
X2346851Y-28469135D01*
X2358042Y-28469400D01*
X2387643Y-28465398D01*
X2418720Y-28456609D01*
X2446951Y-28445774D01*
X2454516Y-28434686D01*
X2449261Y-28402984D01*
X2438745Y-28374675D01*
X2422966Y-28349760D01*
X2411926Y-28337384D01*
X2386978Y-28318346D01*
X2358002Y-28308821D01*
X2351928Y-28308266D01*
X2322465Y-28313035D01*
X2297021Y-28329073D01*
X2291827Y-28333964D01*
X2274288Y-28358964D01*
X2268304Y-28387331D01*
X2170439Y-28387331D01*
X2173545Y-28368597D01*
X2183520Y-28339920D01*
X2198542Y-28312285D01*
X2218612Y-28285691D01*
X2232347Y-28270961D01*
X2254538Y-28251044D01*
X2281219Y-28232761D01*
X2308753Y-28219814D01*
X2337140Y-28212201D01*
X2357938Y-28210031D01*
X2390722Y-28212168D01*
G37*
G36*
X8671083Y-28425484D02*
G01*
X8707471Y-28429549D01*
X8739890Y-28436323D01*
X8768339Y-28445808D01*
X8800096Y-28462670D01*
X8824795Y-28484350D01*
X8842438Y-28510847D01*
X8853024Y-28542162D01*
X8856552Y-28578295D01*
X8853868Y-28607643D01*
X8844818Y-28638119D01*
X8833838Y-28659921D01*
X8814872Y-28685131D01*
X8791825Y-28703829D01*
X8774194Y-28712677D01*
X8771702Y-28715168D01*
X8773314Y-28717660D01*
X8801297Y-28726968D01*
X8828420Y-28741743D01*
X8851363Y-28761183D01*
X8857432Y-28767925D01*
X8873970Y-28793359D01*
X8884382Y-28823315D01*
X8888517Y-28854142D01*
X8888792Y-28865231D01*
X8886443Y-28897648D01*
X8879395Y-28926973D01*
X8865234Y-28957278D01*
X8844678Y-28983377D01*
X8821968Y-29002398D01*
X8795466Y-29018235D01*
X8766079Y-29030796D01*
X8733807Y-29040080D01*
X8704709Y-29045313D01*
X8673608Y-29048271D01*
X8647285Y-29049000D01*
X8495610Y-29049000D01*
X8466442Y-29043085D01*
X8444759Y-29028043D01*
X8428408Y-29003223D01*
X8423803Y-28977339D01*
X8423803Y-28944366D01*
X8549099Y-28944366D01*
X8557306Y-28952572D01*
X8635708Y-28952572D01*
X8666620Y-28951091D01*
X8699464Y-28945072D01*
X8730376Y-28931739D01*
X8752014Y-28911739D01*
X8764379Y-28885072D01*
X8767599Y-28857757D01*
X8762962Y-28827258D01*
X8747474Y-28802030D01*
X8734626Y-28791812D01*
X8705260Y-28779220D01*
X8673704Y-28773167D01*
X8643822Y-28771230D01*
X8635708Y-28771149D01*
X8557306Y-28771149D01*
X8549099Y-28779502D01*
X8549099Y-28944366D01*
X8423803Y-28944366D01*
X8423803Y-28669739D01*
X8549099Y-28669739D01*
X8557306Y-28678092D01*
X8621640Y-28678092D01*
X8651765Y-28676400D01*
X8682193Y-28669735D01*
X8707369Y-28656697D01*
X8727459Y-28632733D01*
X8735113Y-28603570D01*
X8735359Y-28596466D01*
X8730812Y-28567304D01*
X8714266Y-28542851D01*
X8707808Y-28537995D01*
X8680562Y-28526229D01*
X8649914Y-28520959D01*
X8623252Y-28519823D01*
X8557306Y-28519823D01*
X8549099Y-28528030D01*
X8549099Y-28669739D01*
X8423803Y-28669739D01*
X8423803Y-28495936D01*
X8429717Y-28466809D01*
X8444759Y-28445231D01*
X8469621Y-28428765D01*
X8495610Y-28424129D01*
X8630725Y-28424129D01*
X8671083Y-28425484D01*
G37*
G36*
X8991228Y-29049000D02*
G01*
X8965729Y-29038741D01*
X8955031Y-29012656D01*
X8960827Y-28982025D01*
X8978215Y-28956353D01*
X8981409Y-28953305D01*
X9003735Y-28932704D01*
X9031835Y-28906024D01*
X9058030Y-28880247D01*
X9082320Y-28855372D01*
X9104705Y-28831399D01*
X9125184Y-28808329D01*
X9148105Y-28780759D01*
X9164298Y-28759718D01*
X9181903Y-28734361D01*
X9199090Y-28705057D01*
X9211981Y-28676978D01*
X9221589Y-28645770D01*
X9225348Y-28616230D01*
X9225408Y-28612147D01*
X9222481Y-28581712D01*
X9211477Y-28552219D01*
X9200642Y-28537555D01*
X9175185Y-28519222D01*
X9144764Y-28511392D01*
X9131326Y-28510737D01*
X9101204Y-28515147D01*
X9073773Y-28526938D01*
X9051458Y-28542098D01*
X9024153Y-28553819D01*
X9015994Y-28554408D01*
X8987497Y-28545018D01*
X8983021Y-28541219D01*
X8968928Y-28515051D01*
X8968220Y-28506634D01*
X8978475Y-28478839D01*
X8983754Y-28473661D01*
X9011135Y-28452893D01*
X9040083Y-28436422D01*
X9070596Y-28424248D01*
X9102676Y-28416371D01*
X9136322Y-28412790D01*
X9147885Y-28412551D01*
X9179762Y-28414406D01*
X9209228Y-28419970D01*
X9240558Y-28431150D01*
X9268606Y-28447379D01*
X9290035Y-28465308D01*
X9311105Y-28490009D01*
X9327000Y-28517949D01*
X9337720Y-28549130D01*
X9342790Y-28578434D01*
X9344110Y-28604673D01*
X9340952Y-28641023D01*
X9331480Y-28679146D01*
X9320231Y-28708901D01*
X9305429Y-28739652D01*
X9287076Y-28771401D01*
X9265170Y-28804147D01*
X9239712Y-28837889D01*
X9220766Y-28860938D01*
X9200242Y-28884430D01*
X9178138Y-28908365D01*
X9154456Y-28932743D01*
X9142023Y-28945099D01*
X9142023Y-28948469D01*
X9144515Y-28950081D01*
X9175231Y-28947318D01*
X9205227Y-28945309D01*
X9235480Y-28944371D01*
X9237718Y-28944366D01*
X9320956Y-28944366D01*
X9349342Y-28952239D01*
X9358471Y-28959607D01*
X9372760Y-28986177D01*
X9373712Y-28996683D01*
X9365139Y-29025726D01*
X9358471Y-29033759D01*
X9331654Y-29048047D01*
X9320956Y-29049000D01*
X8991228Y-29049000D01*
G37*
G36*
X15790273Y-1261866D02*
G01*
X15765714Y-1279741D01*
X15736388Y-1289015D01*
X15705534Y-1288885D01*
X15676598Y-1278756D01*
X15220758Y-1036381D01*
X15208427Y-1027573D01*
X15195681Y-1000735D01*
X15200485Y-970684D01*
X15209049Y-959389D01*
X15233107Y-942408D01*
X15258270Y-935244D01*
X15288052Y-936201D01*
X15312776Y-945400D01*
X15529141Y-1069540D01*
X15555002Y-1084394D01*
X15582697Y-1100824D01*
X15608875Y-1116620D01*
X15615978Y-1120938D01*
X15643302Y-1137343D01*
X15670372Y-1153274D01*
X15695894Y-1167842D01*
X15706856Y-1173889D01*
X15710690Y-1173578D01*
X15710379Y-1170366D01*
X15695248Y-1144054D01*
X15678877Y-1116005D01*
X15663317Y-1089558D01*
X15659085Y-1082390D01*
X15642907Y-1054904D01*
X15627153Y-1027883D01*
X15611415Y-1000469D01*
X15606652Y-992030D01*
X15480646Y-774006D01*
X15470449Y-746301D01*
X15470180Y-722713D01*
X15479291Y-693827D01*
X15493495Y-674942D01*
X15519805Y-661366D01*
X15533804Y-661575D01*
X15559399Y-674321D01*
X15568726Y-685926D01*
X15811204Y-1144149D01*
X15821334Y-1173086D01*
X15821463Y-1203940D01*
X15812189Y-1233266D01*
X15794314Y-1257824D01*
X15790273Y-1261866D01*
G37*
G36*
X15829235Y-435987D02*
G01*
X16290256Y-673181D01*
X16303001Y-682610D01*
X16315954Y-708205D01*
X16311324Y-738082D01*
X16302483Y-749655D01*
X16278396Y-766665D01*
X16253159Y-773903D01*
X16223633Y-772690D01*
X16199378Y-763022D01*
X16118863Y-717532D01*
X16106013Y-718775D01*
X15974308Y-850480D01*
X15972546Y-863848D01*
X16019799Y-946125D01*
X16029930Y-974602D01*
X16030057Y-998248D01*
X16020695Y-1026882D01*
X16006431Y-1045707D01*
X15979153Y-1059174D01*
X15966847Y-1058556D01*
X15941148Y-1046951D01*
X15932340Y-1034619D01*
X15694006Y-571215D01*
X15684292Y-541916D01*
X15684329Y-526968D01*
X15777838Y-526968D01*
X15794745Y-554604D01*
X15811532Y-582463D01*
X15828196Y-610545D01*
X15844740Y-638849D01*
X15861162Y-667376D01*
X15877462Y-696125D01*
X15883948Y-707687D01*
X15914932Y-761882D01*
X15919802Y-765095D01*
X15925398Y-763022D01*
X16018659Y-669761D01*
X16020317Y-664580D01*
X16016897Y-659917D01*
X15962702Y-628934D01*
X15935780Y-613808D01*
X15908251Y-598008D01*
X15879625Y-581377D01*
X15863845Y-572148D01*
X15837661Y-556778D01*
X15810583Y-541009D01*
X15784551Y-526162D01*
X15780739Y-524067D01*
X15778459Y-524067D01*
X15777838Y-526968D01*
X15684329Y-526968D01*
X15684369Y-511010D01*
X15693721Y-481451D01*
X15712037Y-456400D01*
X15714317Y-454121D01*
X15739368Y-435805D01*
X15768926Y-426453D01*
X15799858Y-426350D01*
X15829235Y-435987D01*
G37*
G36*
X11206520Y-28428891D02*
G01*
X11234034Y-28443180D01*
X11255979Y-28464978D01*
X11269938Y-28492565D01*
X11428207Y-28986278D01*
X11430552Y-29001958D01*
X11421612Y-29029216D01*
X11397212Y-29047068D01*
X11382778Y-29049000D01*
X11353717Y-29043995D01*
X11330754Y-29031267D01*
X11310734Y-29009532D01*
X11300419Y-28985545D01*
X11275653Y-28896445D01*
X11265688Y-28888239D01*
X11079428Y-28888239D01*
X11068730Y-28896445D01*
X11043964Y-28988036D01*
X11030991Y-29015337D01*
X11014362Y-29032147D01*
X10987494Y-29045774D01*
X10964097Y-29049000D01*
X10935286Y-29039233D01*
X10927021Y-29030095D01*
X10917056Y-29003717D01*
X10919547Y-28988769D01*
X10985350Y-28783605D01*
X11100091Y-28783605D01*
X11101264Y-28789321D01*
X11106686Y-28791812D01*
X11238577Y-28791812D01*
X11243413Y-28789321D01*
X11244292Y-28783605D01*
X11227879Y-28723375D01*
X11219537Y-28693643D01*
X11211244Y-28663005D01*
X11202763Y-28631003D01*
X11198130Y-28613319D01*
X11190484Y-28583936D01*
X11182487Y-28553638D01*
X11174578Y-28524733D01*
X11173364Y-28520556D01*
X11171752Y-28518944D01*
X11169261Y-28520556D01*
X11161674Y-28552053D01*
X11153845Y-28583622D01*
X11145772Y-28615262D01*
X11137456Y-28646974D01*
X11128896Y-28678758D01*
X11120094Y-28710613D01*
X11116504Y-28723375D01*
X11100091Y-28783605D01*
X10985350Y-28783605D01*
X11078696Y-28492565D01*
X11092544Y-28464978D01*
X11114453Y-28443180D01*
X11141967Y-28428891D01*
X11172631Y-28424129D01*
X11175855Y-28424129D01*
X11206520Y-28428891D01*
G37*
G36*
X11514522Y-29049000D02*
G01*
X11489024Y-29038741D01*
X11478326Y-29012656D01*
X11484122Y-28982025D01*
X11501510Y-28956353D01*
X11504704Y-28953305D01*
X11527029Y-28932704D01*
X11555129Y-28906024D01*
X11581324Y-28880247D01*
X11605614Y-28855372D01*
X11627999Y-28831399D01*
X11648479Y-28808329D01*
X11671400Y-28780759D01*
X11687593Y-28759718D01*
X11705198Y-28734361D01*
X11722385Y-28705057D01*
X11735275Y-28676978D01*
X11744883Y-28645770D01*
X11748643Y-28616230D01*
X11748703Y-28612147D01*
X11745776Y-28581712D01*
X11734772Y-28552219D01*
X11723936Y-28537555D01*
X11698479Y-28519222D01*
X11668059Y-28511392D01*
X11654620Y-28510737D01*
X11624498Y-28515147D01*
X11597067Y-28526938D01*
X11574753Y-28542098D01*
X11547447Y-28553819D01*
X11539289Y-28554408D01*
X11510792Y-28545018D01*
X11506316Y-28541219D01*
X11492223Y-28515051D01*
X11491515Y-28506634D01*
X11501770Y-28478839D01*
X11507049Y-28473661D01*
X11534430Y-28452893D01*
X11563377Y-28436422D01*
X11593891Y-28424248D01*
X11625970Y-28416371D01*
X11659616Y-28412790D01*
X11671180Y-28412551D01*
X11703057Y-28414406D01*
X11732523Y-28419970D01*
X11763853Y-28431150D01*
X11791900Y-28447379D01*
X11813329Y-28465308D01*
X11834400Y-28490009D01*
X11850295Y-28517949D01*
X11861015Y-28549130D01*
X11866084Y-28578434D01*
X11867405Y-28604673D01*
X11864247Y-28641023D01*
X11854774Y-28679146D01*
X11843525Y-28708901D01*
X11828724Y-28739652D01*
X11810370Y-28771401D01*
X11788464Y-28804147D01*
X11763006Y-28837889D01*
X11744061Y-28860938D01*
X11723536Y-28884430D01*
X11701433Y-28908365D01*
X11677751Y-28932743D01*
X11665318Y-28945099D01*
X11665318Y-28948469D01*
X11667809Y-28950081D01*
X11698525Y-28947318D01*
X11728522Y-28945309D01*
X11758774Y-28944371D01*
X11761012Y-28944366D01*
X11844250Y-28944366D01*
X11872637Y-28952239D01*
X11881766Y-28959607D01*
X11896054Y-28986177D01*
X11897007Y-28996683D01*
X11888434Y-29025726D01*
X11881766Y-29033759D01*
X11854948Y-29048047D01*
X11844250Y-29049000D01*
X11514522Y-29049000D01*
G37*
G36*
X15436255Y-28331635D02*
G01*
X15465814Y-28340987D01*
X15490865Y-28359303D01*
X15493144Y-28361583D01*
X15511460Y-28386634D01*
X15520812Y-28416192D01*
X15520915Y-28447124D01*
X15511278Y-28476501D01*
X15274084Y-28937522D01*
X15264655Y-28950268D01*
X15239060Y-28963220D01*
X15209183Y-28958590D01*
X15197610Y-28949749D01*
X15180600Y-28925662D01*
X15173362Y-28900425D01*
X15174575Y-28870899D01*
X15184243Y-28846644D01*
X15229734Y-28766129D01*
X15228490Y-28753279D01*
X15096785Y-28621574D01*
X15083417Y-28619812D01*
X15001140Y-28667065D01*
X14972663Y-28677196D01*
X14949018Y-28677323D01*
X14920383Y-28667961D01*
X14901558Y-28653697D01*
X14888091Y-28626419D01*
X14888709Y-28614113D01*
X14900315Y-28588414D01*
X14912646Y-28579606D01*
X14937024Y-28567068D01*
X15182170Y-28567068D01*
X15184243Y-28572664D01*
X15277504Y-28665925D01*
X15282685Y-28667583D01*
X15287348Y-28664163D01*
X15318332Y-28609968D01*
X15333457Y-28583046D01*
X15349257Y-28555517D01*
X15365888Y-28526891D01*
X15375117Y-28511111D01*
X15390487Y-28484927D01*
X15406256Y-28457849D01*
X15421103Y-28431817D01*
X15423199Y-28428005D01*
X15423199Y-28425726D01*
X15420297Y-28425104D01*
X15392661Y-28442011D01*
X15364802Y-28458798D01*
X15336720Y-28475462D01*
X15308416Y-28492006D01*
X15279889Y-28508428D01*
X15251140Y-28524728D01*
X15239578Y-28531214D01*
X15185383Y-28562198D01*
X15182170Y-28567068D01*
X14937024Y-28567068D01*
X15376050Y-28341272D01*
X15405349Y-28331558D01*
X15436255Y-28331635D01*
G37*
G36*
X15762171Y-28663951D02*
G01*
X15794217Y-28671647D01*
X15824260Y-28685457D01*
X15852299Y-28705379D01*
X15865567Y-28717633D01*
X15885096Y-28739995D01*
X15902893Y-28768673D01*
X15914541Y-28799361D01*
X15920039Y-28832061D01*
X15919389Y-28866772D01*
X15916757Y-28884881D01*
X15908846Y-28915839D01*
X15896381Y-28947444D01*
X15879362Y-28979697D01*
X15862468Y-29005965D01*
X15842659Y-29032648D01*
X15819937Y-29059746D01*
X15794300Y-29087258D01*
X15787435Y-29094201D01*
X15759648Y-29120731D01*
X15732243Y-29144367D01*
X15705220Y-29165108D01*
X15678579Y-29182954D01*
X15652320Y-29197905D01*
X15620034Y-29212523D01*
X15588344Y-29222617D01*
X15575836Y-29225388D01*
X15545438Y-29229261D01*
X15510951Y-29228231D01*
X15478635Y-29221008D01*
X15448490Y-29207592D01*
X15420517Y-29187983D01*
X15407344Y-29175856D01*
X15387814Y-29153421D01*
X15370094Y-29124549D01*
X15358611Y-29093549D01*
X15353365Y-29060422D01*
X15353650Y-29050277D01*
X15456582Y-29050277D01*
X15460186Y-29084385D01*
X15475528Y-29107672D01*
X15503821Y-29124525D01*
X15538883Y-29125270D01*
X15573271Y-29113584D01*
X15604166Y-29096181D01*
X15629312Y-29078430D01*
X15656150Y-29056652D01*
X15684680Y-29030847D01*
X15704640Y-29011405D01*
X15732482Y-28982395D01*
X15756361Y-28955014D01*
X15776276Y-28929261D01*
X15796664Y-28897457D01*
X15810005Y-28868547D01*
X15816773Y-28836482D01*
X15810362Y-28803974D01*
X15797279Y-28785921D01*
X15772254Y-28769406D01*
X15762876Y-28766647D01*
X15732746Y-28767016D01*
X15716557Y-28771103D01*
X15689061Y-28783024D01*
X15663982Y-28798398D01*
X15652725Y-28806335D01*
X15628998Y-28824815D01*
X15606278Y-28844475D01*
X15582262Y-28867004D01*
X15571173Y-28877938D01*
X15542688Y-28907602D01*
X15518241Y-28935584D01*
X15497833Y-28961885D01*
X15481462Y-28986505D01*
X15465917Y-29016716D01*
X15456582Y-29050277D01*
X15353650Y-29050277D01*
X15354356Y-29025167D01*
X15357190Y-29006742D01*
X15365475Y-28975292D01*
X15378283Y-28943245D01*
X15391787Y-28917177D01*
X15408185Y-28890727D01*
X15427479Y-28863895D01*
X15449667Y-28836681D01*
X15474750Y-28809085D01*
X15488378Y-28795143D01*
X15516137Y-28768640D01*
X15543460Y-28745087D01*
X15570345Y-28724483D01*
X15596794Y-28706830D01*
X15622805Y-28692127D01*
X15654704Y-28677896D01*
X15685920Y-28668275D01*
X15698215Y-28665718D01*
X15728121Y-28662367D01*
X15762171Y-28663951D01*
G37*
G36*
X2239422Y-7930377D02*
G01*
X2240732Y-7898833D01*
X2244661Y-7868534D01*
X2251210Y-7839482D01*
X2260378Y-7811675D01*
X2273744Y-7782194D01*
X2290100Y-7754915D01*
X2309447Y-7729839D01*
X2321488Y-7716860D01*
X2345684Y-7695476D01*
X2370034Y-7678765D01*
X2397058Y-7664216D01*
X2422898Y-7653259D01*
X2454551Y-7643193D01*
X2483811Y-7636745D01*
X2514530Y-7632498D01*
X2546707Y-7630453D01*
X2560944Y-7630251D01*
X2593153Y-7631373D01*
X2624128Y-7634739D01*
X2653869Y-7640349D01*
X2682375Y-7648203D01*
X2698110Y-7653698D01*
X2727933Y-7666567D01*
X2755117Y-7681579D01*
X2779663Y-7698734D01*
X2801572Y-7718032D01*
X2823311Y-7742097D01*
X2842036Y-7768295D01*
X2857747Y-7796626D01*
X2865173Y-7813287D01*
X2874918Y-7840993D01*
X2881879Y-7869743D01*
X2886055Y-7899538D01*
X2887448Y-7930377D01*
X2885794Y-7962154D01*
X2880832Y-7992530D01*
X2872563Y-8021505D01*
X2860987Y-8049079D01*
X2846103Y-8075251D01*
X2840406Y-8083664D01*
X2816799Y-8101515D01*
X2802451Y-8103447D01*
X2773592Y-8094740D01*
X2767866Y-8090258D01*
X2751952Y-8064641D01*
X2750574Y-8055673D01*
X2749695Y-8049958D01*
X2756789Y-8021067D01*
X2759660Y-8016106D01*
X2772162Y-7987591D01*
X2778894Y-7956563D01*
X2780176Y-7934480D01*
X2777392Y-7901317D01*
X2769040Y-7871072D01*
X2755121Y-7843743D01*
X2735633Y-7819332D01*
X2721997Y-7806692D01*
X2694652Y-7787735D01*
X2668098Y-7775191D01*
X2638670Y-7766069D01*
X2606367Y-7760367D01*
X2571189Y-7758086D01*
X2565047Y-7758039D01*
X2533726Y-7759187D01*
X2499174Y-7763598D01*
X2467929Y-7771315D01*
X2439991Y-7782341D01*
X2411578Y-7799384D01*
X2404286Y-7805080D01*
X2382131Y-7827743D01*
X2365417Y-7854572D01*
X2354145Y-7885566D01*
X2348815Y-7915448D01*
X2347427Y-7942687D01*
X2349982Y-7973255D01*
X2358518Y-8001441D01*
X2365598Y-8014494D01*
X2378787Y-8021089D01*
X2485912Y-8021089D01*
X2494119Y-8012735D01*
X2494119Y-7961738D01*
X2503153Y-7932761D01*
X2508920Y-7925834D01*
X2534968Y-7911546D01*
X2545263Y-7910593D01*
X2573647Y-7919166D01*
X2581460Y-7925834D01*
X2595474Y-7951745D01*
X2596408Y-7961738D01*
X2596408Y-8061389D01*
X2590452Y-8090515D01*
X2575305Y-8112093D01*
X2550599Y-8128559D01*
X2524747Y-8133196D01*
X2386261Y-8133196D01*
X2354982Y-8130335D01*
X2326283Y-8121752D01*
X2318557Y-8118248D01*
X2293426Y-8101281D01*
X2275186Y-8078131D01*
X2273274Y-8074578D01*
X2260084Y-8045137D01*
X2250133Y-8014519D01*
X2243422Y-7982723D01*
X2239951Y-7949748D01*
X2239422Y-7930377D01*
G37*
G36*
X2268292Y-8365031D02*
G01*
X2253043Y-8339116D01*
X2251000Y-8322973D01*
X2258447Y-8293686D01*
X2268292Y-8280914D01*
X2294207Y-8265665D01*
X2310351Y-8263622D01*
X2811537Y-8263622D01*
X2840226Y-8270131D01*
X2856819Y-8282086D01*
X2872726Y-8306926D01*
X2875870Y-8327076D01*
X2871569Y-8357485D01*
X2860630Y-8382324D01*
X2841500Y-8406263D01*
X2819743Y-8421891D01*
X2542772Y-8572833D01*
X2410148Y-8634529D01*
X2407657Y-8637460D01*
X2410148Y-8639511D01*
X2446714Y-8635665D01*
X2480573Y-8632331D01*
X2511725Y-8629510D01*
X2546859Y-8626705D01*
X2577765Y-8624701D01*
X2609269Y-8623355D01*
X2626889Y-8623098D01*
X2816519Y-8623098D01*
X2845806Y-8630546D01*
X2858578Y-8640391D01*
X2873827Y-8666243D01*
X2875870Y-8682303D01*
X2868423Y-8711590D01*
X2858578Y-8724361D01*
X2832663Y-8739740D01*
X2816519Y-8741800D01*
X2314454Y-8741800D01*
X2285868Y-8735239D01*
X2269464Y-8723189D01*
X2253596Y-8697017D01*
X2251000Y-8678346D01*
X2255177Y-8648582D01*
X2265801Y-8623831D01*
X2284909Y-8600213D01*
X2307127Y-8585143D01*
X2585710Y-8434347D01*
X2717601Y-8371626D01*
X2719213Y-8368695D01*
X2717601Y-8366643D01*
X2688421Y-8369754D01*
X2667189Y-8371626D01*
X2637473Y-8374238D01*
X2609157Y-8376608D01*
X2579528Y-8378795D01*
X2557573Y-8380272D01*
X2527971Y-8381811D01*
X2501593Y-8382324D01*
X2310351Y-8382324D01*
X2281064Y-8374876D01*
X2268292Y-8365031D01*
G37*
G36*
X2833190Y-8897924D02*
G01*
X2854768Y-8912966D01*
X2871234Y-8937827D01*
X2875870Y-8963817D01*
X2875870Y-9063468D01*
X2874659Y-9099118D01*
X2871025Y-9132720D01*
X2864969Y-9164276D01*
X2856490Y-9193784D01*
X2845588Y-9221245D01*
X2828554Y-9252693D01*
X2807735Y-9280943D01*
X2798348Y-9291347D01*
X2772233Y-9314778D01*
X2742340Y-9334237D01*
X2715705Y-9346945D01*
X2686652Y-9357112D01*
X2655182Y-9364737D01*
X2621293Y-9369820D01*
X2584986Y-9372362D01*
X2565926Y-9372680D01*
X2528536Y-9371423D01*
X2493450Y-9367651D01*
X2460667Y-9361366D01*
X2430188Y-9352566D01*
X2402013Y-9341252D01*
X2376140Y-9327424D01*
X2347039Y-9306604D01*
X2331307Y-9292226D01*
X2308171Y-9265627D01*
X2288957Y-9236023D01*
X2273664Y-9203414D01*
X2264253Y-9175163D01*
X2257352Y-9144988D01*
X2252960Y-9112890D01*
X2251078Y-9078869D01*
X2251000Y-9070063D01*
X2251000Y-9056141D01*
X2351530Y-9056141D01*
X2353414Y-9089873D01*
X2359067Y-9120287D01*
X2372467Y-9155677D01*
X2392567Y-9185170D01*
X2419366Y-9208764D01*
X2452866Y-9226459D01*
X2482387Y-9235860D01*
X2515677Y-9241943D01*
X2552736Y-9244707D01*
X2565926Y-9244892D01*
X2598975Y-9243704D01*
X2629061Y-9240140D01*
X2661254Y-9232728D01*
X2689181Y-9221896D01*
X2716372Y-9204933D01*
X2726247Y-9196239D01*
X2745662Y-9172905D01*
X2760308Y-9145477D01*
X2770185Y-9113953D01*
X2774856Y-9083673D01*
X2776073Y-9056141D01*
X2776073Y-9025513D01*
X2767866Y-9017306D01*
X2359883Y-9017306D01*
X2351530Y-9025513D01*
X2351530Y-9056141D01*
X2251000Y-9056141D01*
X2251000Y-8963817D01*
X2256914Y-8934649D01*
X2271956Y-8912966D01*
X2296776Y-8896614D01*
X2322660Y-8892010D01*
X2804063Y-8892010D01*
X2833190Y-8897924D01*
G37*
G36*
X5879443Y-28428891D02*
G01*
X5906957Y-28443180D01*
X5928902Y-28464978D01*
X5942861Y-28492565D01*
X6101130Y-28986278D01*
X6103475Y-29001958D01*
X6094535Y-29029216D01*
X6070135Y-29047068D01*
X6055701Y-29049000D01*
X6026640Y-29043995D01*
X6003677Y-29031267D01*
X5983657Y-29009532D01*
X5973342Y-28985545D01*
X5948576Y-28896445D01*
X5938611Y-28888239D01*
X5752351Y-28888239D01*
X5741653Y-28896445D01*
X5716887Y-28988036D01*
X5703914Y-29015337D01*
X5687285Y-29032147D01*
X5660417Y-29045774D01*
X5637020Y-29049000D01*
X5608209Y-29039233D01*
X5599944Y-29030095D01*
X5589979Y-29003717D01*
X5592470Y-28988769D01*
X5658273Y-28783605D01*
X5773014Y-28783605D01*
X5774187Y-28789321D01*
X5779609Y-28791812D01*
X5911500Y-28791812D01*
X5916336Y-28789321D01*
X5917215Y-28783605D01*
X5900802Y-28723375D01*
X5892460Y-28693643D01*
X5884167Y-28663005D01*
X5875686Y-28631003D01*
X5871053Y-28613319D01*
X5863407Y-28583936D01*
X5855410Y-28553638D01*
X5847501Y-28524733D01*
X5846287Y-28520556D01*
X5844675Y-28518944D01*
X5842184Y-28520556D01*
X5834597Y-28552053D01*
X5826768Y-28583622D01*
X5818695Y-28615262D01*
X5810379Y-28646974D01*
X5801819Y-28678758D01*
X5793017Y-28710613D01*
X5789427Y-28723375D01*
X5773014Y-28783605D01*
X5658273Y-28783605D01*
X5751619Y-28492565D01*
X5765467Y-28464978D01*
X5787376Y-28443180D01*
X5814890Y-28428891D01*
X5845554Y-28424129D01*
X5848778Y-28424129D01*
X5879443Y-28428891D01*
G37*
G36*
X6234487Y-29049000D02*
G01*
X6205779Y-29039966D01*
X6199023Y-29034198D01*
X6184930Y-29007444D01*
X6184221Y-28998734D01*
X6193255Y-28970026D01*
X6199023Y-28963270D01*
X6225727Y-28949177D01*
X6234487Y-28948469D01*
X6310251Y-28948469D01*
X6318457Y-28940116D01*
X6318457Y-28561882D01*
X6310251Y-28553528D01*
X6243572Y-28553528D01*
X6216755Y-28542391D01*
X6205617Y-28514840D01*
X6215244Y-28486332D01*
X6215875Y-28485531D01*
X6240648Y-28469225D01*
X6242693Y-28468678D01*
X6271608Y-28460050D01*
X6300043Y-28449567D01*
X6309518Y-28445524D01*
X6338890Y-28434241D01*
X6369018Y-28426657D01*
X6396859Y-28424129D01*
X6424692Y-28433831D01*
X6428953Y-28437757D01*
X6441820Y-28464512D01*
X6442142Y-28470290D01*
X6442142Y-28940116D01*
X6450348Y-28948469D01*
X6509699Y-28948469D01*
X6538408Y-28957503D01*
X6545164Y-28963270D01*
X6559396Y-28989975D01*
X6560111Y-28998734D01*
X6550988Y-29027392D01*
X6545164Y-29034198D01*
X6518459Y-29048291D01*
X6509699Y-29049000D01*
X6234487Y-29049000D01*
G37*
G36*
X6840746Y-29060577D02*
G01*
X6809104Y-29059267D01*
X6779114Y-29055339D01*
X6745308Y-29047168D01*
X6713883Y-29035225D01*
X6684838Y-29019512D01*
X6666796Y-29006941D01*
X6650045Y-28982072D01*
X6648625Y-28973089D01*
X6648625Y-28968253D01*
X6656867Y-28939130D01*
X6660202Y-28934401D01*
X6685581Y-28918187D01*
X6691563Y-28917108D01*
X6697278Y-28917108D01*
X6726053Y-28925635D01*
X6726880Y-28926194D01*
X6754572Y-28942133D01*
X6782913Y-28952856D01*
X6811904Y-28958362D01*
X6828290Y-28959167D01*
X6859401Y-28956483D01*
X6888009Y-28947433D01*
X6905813Y-28936452D01*
X6925548Y-28913043D01*
X6934231Y-28882565D01*
X6934682Y-28872558D01*
X6930725Y-28842526D01*
X6917509Y-28816130D01*
X6906545Y-28804561D01*
X6879535Y-28788934D01*
X6851379Y-28780648D01*
X6820669Y-28775755D01*
X6807773Y-28774519D01*
X6779798Y-28763557D01*
X6775533Y-28759718D01*
X6762550Y-28732823D01*
X6762344Y-28728357D01*
X6772442Y-28700035D01*
X6775533Y-28696557D01*
X6801337Y-28682113D01*
X6806894Y-28681316D01*
X6838009Y-28675799D01*
X6868385Y-28664767D01*
X6894226Y-28645814D01*
X6909730Y-28620312D01*
X6914898Y-28588260D01*
X6910719Y-28558888D01*
X6895707Y-28533151D01*
X6893063Y-28530521D01*
X6866575Y-28515024D01*
X6835764Y-28509939D01*
X6830781Y-28509858D01*
X6800762Y-28513753D01*
X6771155Y-28524119D01*
X6751646Y-28534624D01*
X6723525Y-28544356D01*
X6720286Y-28544443D01*
X6714570Y-28544443D01*
X6687383Y-28533337D01*
X6681598Y-28527150D01*
X6669396Y-28499875D01*
X6669288Y-28496669D01*
X6670020Y-28490953D01*
X6682249Y-28464213D01*
X6689071Y-28458713D01*
X6715335Y-28443026D01*
X6742247Y-28430583D01*
X6774465Y-28420170D01*
X6807567Y-28414174D01*
X6836643Y-28412551D01*
X6870194Y-28414092D01*
X6901057Y-28418713D01*
X6933664Y-28427999D01*
X6962610Y-28441478D01*
X6984508Y-28456369D01*
X7005863Y-28477172D01*
X7023847Y-28505102D01*
X7033963Y-28533178D01*
X7038834Y-28564648D01*
X7039316Y-28579174D01*
X7036740Y-28608766D01*
X7027956Y-28638376D01*
X7012937Y-28664903D01*
X6992084Y-28687849D01*
X6968407Y-28705343D01*
X6940237Y-28719631D01*
X6937173Y-28720884D01*
X6934682Y-28723815D01*
X6937173Y-28726745D01*
X6966546Y-28737361D01*
X6992511Y-28751733D01*
X7017364Y-28772106D01*
X7026127Y-28781554D01*
X7043978Y-28807897D01*
X7055218Y-28838019D01*
X7059681Y-28868360D01*
X7059979Y-28879153D01*
X7057748Y-28909167D01*
X7049506Y-28941149D01*
X7035192Y-28969863D01*
X7014805Y-28995309D01*
X6996524Y-29011484D01*
X6971714Y-29028168D01*
X6944874Y-29041400D01*
X6916004Y-29051180D01*
X6885104Y-29057508D01*
X6852174Y-29060385D01*
X6840746Y-29060577D01*
G37*
G36*
X15156501Y-26388721D02*
G01*
X15617522Y-26625915D01*
X15630268Y-26635344D01*
X15643220Y-26660939D01*
X15638590Y-26690816D01*
X15629749Y-26702389D01*
X15605662Y-26719399D01*
X15580425Y-26726637D01*
X15550899Y-26725424D01*
X15526644Y-26715756D01*
X15446129Y-26670265D01*
X15433279Y-26671509D01*
X15301574Y-26803214D01*
X15299812Y-26816582D01*
X15347065Y-26898859D01*
X15357196Y-26927336D01*
X15357323Y-26950981D01*
X15347961Y-26979616D01*
X15333697Y-26998441D01*
X15306419Y-27011908D01*
X15294113Y-27011290D01*
X15268414Y-26999684D01*
X15259606Y-26987353D01*
X15021272Y-26523949D01*
X15011558Y-26494650D01*
X15011595Y-26479702D01*
X15105104Y-26479702D01*
X15122011Y-26507338D01*
X15138798Y-26535197D01*
X15155462Y-26563279D01*
X15172006Y-26591583D01*
X15188428Y-26620110D01*
X15204728Y-26648859D01*
X15211214Y-26660421D01*
X15242198Y-26714616D01*
X15247068Y-26717829D01*
X15252664Y-26715756D01*
X15345925Y-26622495D01*
X15347583Y-26617314D01*
X15344163Y-26612651D01*
X15289968Y-26581667D01*
X15263046Y-26566542D01*
X15235517Y-26550742D01*
X15206891Y-26534111D01*
X15191111Y-26524882D01*
X15164927Y-26509512D01*
X15137849Y-26493743D01*
X15111817Y-26478896D01*
X15108005Y-26476800D01*
X15105726Y-26476800D01*
X15105104Y-26479702D01*
X15011595Y-26479702D01*
X15011635Y-26463744D01*
X15020987Y-26434185D01*
X15039303Y-26409134D01*
X15041583Y-26406855D01*
X15066634Y-26388539D01*
X15096192Y-26379187D01*
X15127124Y-26379084D01*
X15156501Y-26388721D01*
G37*
G36*
X15829535Y-26413901D02*
G01*
X15843938Y-26439706D01*
X15846426Y-26460013D01*
X15839418Y-26488479D01*
X15827256Y-26504882D01*
X15801520Y-26520175D01*
X15783009Y-26522395D01*
X15753878Y-26513685D01*
X15744461Y-26506022D01*
X15740937Y-26502499D01*
X15719154Y-26476104D01*
X15698672Y-26449975D01*
X15679492Y-26424111D01*
X15661614Y-26398513D01*
X15645037Y-26373180D01*
X15629762Y-26348113D01*
X15612500Y-26317153D01*
X15603118Y-26298775D01*
X15588725Y-26267497D01*
X15575597Y-26234670D01*
X15563734Y-26200296D01*
X15555154Y-26171681D01*
X15547384Y-26142075D01*
X15540424Y-26111479D01*
X15534273Y-26079892D01*
X15532861Y-26071840D01*
X15530271Y-26068628D01*
X15525919Y-26069457D01*
X15369655Y-26225721D01*
X15343347Y-26239904D01*
X15332972Y-26240850D01*
X15304255Y-26232340D01*
X15296289Y-26225721D01*
X15282009Y-26199316D01*
X15281056Y-26188934D01*
X15289567Y-26160218D01*
X15296185Y-26152252D01*
X15526437Y-25922000D01*
X15553275Y-25910913D01*
X15580114Y-25922000D01*
X15598622Y-25946776D01*
X15609355Y-25976312D01*
X15610994Y-25985625D01*
X15615857Y-26017629D01*
X15621693Y-26048408D01*
X15628499Y-26077963D01*
X15636278Y-26106295D01*
X15647367Y-26139988D01*
X15659973Y-26171768D01*
X15674098Y-26201635D01*
X15677105Y-26207379D01*
X15693668Y-26236465D01*
X15712918Y-26266730D01*
X15730252Y-26291791D01*
X15749306Y-26317606D01*
X15770079Y-26344176D01*
X15792572Y-26371500D01*
X15816785Y-26399579D01*
X15829535Y-26413901D01*
G37*
G36*
X1688391Y-1014831D02*
G01*
X1659141Y-1007667D01*
X1644351Y-996490D01*
X1628589Y-970689D01*
X1626009Y-952450D01*
X1633384Y-923168D01*
X1644765Y-908203D01*
X1962993Y-589975D01*
X1962889Y-578266D01*
X1881338Y-496714D01*
X1867096Y-470348D01*
X1866105Y-459928D01*
X1874615Y-431211D01*
X1881234Y-423245D01*
X1907638Y-408964D01*
X1918020Y-408012D01*
X1946834Y-416619D01*
X1954807Y-423245D01*
X2218839Y-687277D01*
X2233023Y-713585D01*
X2233968Y-723960D01*
X2225400Y-752735D01*
X2218736Y-760746D01*
X2192428Y-774930D01*
X2182053Y-775876D01*
X2153336Y-767365D01*
X2145370Y-760746D01*
X2062575Y-677951D01*
X2050969Y-677951D01*
X1732742Y-996179D01*
X1706674Y-1012208D01*
X1688391Y-1014831D01*
G37*
G36*
X1872840Y-1224980D02*
G01*
X1861104Y-1196926D01*
X1862374Y-1187779D01*
X1872322Y-1168505D01*
X1889731Y-1159179D01*
X2170136Y-1076902D01*
X2180602Y-1066436D01*
X2255936Y-810589D01*
X2265781Y-792455D01*
X2284951Y-782611D01*
X2314671Y-785420D01*
X2324639Y-793077D01*
X2343058Y-817506D01*
X2353964Y-846443D01*
X2356710Y-877271D01*
X2350234Y-907374D01*
X2326297Y-976698D01*
X2316417Y-1004913D01*
X2308784Y-1025712D01*
X2298784Y-1053663D01*
X2290754Y-1077523D01*
X2291065Y-1081357D01*
X2294899Y-1081668D01*
X2324709Y-1068600D01*
X2352469Y-1057023D01*
X2380911Y-1045910D01*
X2391579Y-1041981D01*
X2462147Y-1015764D01*
X2492423Y-1009411D01*
X2519865Y-1011723D01*
X2547559Y-1021852D01*
X2571159Y-1039597D01*
X2582661Y-1066837D01*
X2581107Y-1077523D01*
X2571159Y-1095554D01*
X2554268Y-1105605D01*
X2290857Y-1184774D01*
X2280910Y-1195965D01*
X2202259Y-1469220D01*
X2192312Y-1487251D01*
X2173038Y-1497198D01*
X2143136Y-1493526D01*
X2134593Y-1486732D01*
X2115734Y-1461915D01*
X2104542Y-1432848D01*
X2101589Y-1401968D01*
X2107237Y-1371918D01*
X2133972Y-1290262D01*
X2143905Y-1261450D01*
X2152313Y-1237518D01*
X2162799Y-1208268D01*
X2171380Y-1184256D01*
X2170654Y-1181251D01*
X2167856Y-1180732D01*
X2138440Y-1192610D01*
X2108227Y-1204517D01*
X2078233Y-1215940D01*
X2064647Y-1220938D01*
X1981852Y-1250056D01*
X1952967Y-1255782D01*
X1923512Y-1253062D01*
X1896026Y-1242518D01*
X1872840Y-1224980D01*
G37*
G36*
X15156501Y-21388721D02*
G01*
X15617522Y-21625915D01*
X15630268Y-21635344D01*
X15643220Y-21660939D01*
X15638590Y-21690816D01*
X15629749Y-21702389D01*
X15605662Y-21719399D01*
X15580425Y-21726637D01*
X15550899Y-21725424D01*
X15526644Y-21715756D01*
X15446129Y-21670265D01*
X15433279Y-21671509D01*
X15301574Y-21803214D01*
X15299812Y-21816582D01*
X15347065Y-21898859D01*
X15357196Y-21927336D01*
X15357323Y-21950981D01*
X15347961Y-21979616D01*
X15333697Y-21998441D01*
X15306419Y-22011908D01*
X15294113Y-22011290D01*
X15268414Y-21999684D01*
X15259606Y-21987353D01*
X15021272Y-21523949D01*
X15011558Y-21494650D01*
X15011595Y-21479702D01*
X15105104Y-21479702D01*
X15122011Y-21507338D01*
X15138798Y-21535197D01*
X15155462Y-21563279D01*
X15172006Y-21591583D01*
X15188428Y-21620110D01*
X15204728Y-21648859D01*
X15211214Y-21660421D01*
X15242198Y-21714616D01*
X15247068Y-21717829D01*
X15252664Y-21715756D01*
X15345925Y-21622495D01*
X15347583Y-21617314D01*
X15344163Y-21612651D01*
X15289968Y-21581667D01*
X15263046Y-21566542D01*
X15235517Y-21550742D01*
X15206891Y-21534111D01*
X15191111Y-21524882D01*
X15164927Y-21509512D01*
X15137849Y-21493743D01*
X15111817Y-21478896D01*
X15108005Y-21476800D01*
X15105726Y-21476800D01*
X15105104Y-21479702D01*
X15011595Y-21479702D01*
X15011635Y-21463744D01*
X15020987Y-21434185D01*
X15039303Y-21409134D01*
X15041583Y-21406855D01*
X15066634Y-21388539D01*
X15096192Y-21379187D01*
X15127124Y-21379084D01*
X15156501Y-21388721D01*
G37*
G36*
X15844768Y-21503743D02*
G01*
X15822111Y-21524578D01*
X15798569Y-21542656D01*
X15769149Y-21560710D01*
X15738454Y-21574792D01*
X15706484Y-21584904D01*
X15684463Y-21589439D01*
X15654504Y-21584157D01*
X15647158Y-21578870D01*
X15642495Y-21575450D01*
X15628022Y-21549394D01*
X15627262Y-21545088D01*
X15632604Y-21516162D01*
X15636692Y-21510167D01*
X15640734Y-21506126D01*
X15667116Y-21491608D01*
X15668090Y-21491411D01*
X15698090Y-21483451D01*
X15725140Y-21471229D01*
X15751734Y-21452650D01*
X15761351Y-21443745D01*
X15780149Y-21420798D01*
X15792786Y-21394013D01*
X15796998Y-21365612D01*
X15791528Y-21334253D01*
X15777042Y-21306532D01*
X15758450Y-21284579D01*
X15734442Y-21264498D01*
X15707333Y-21250777D01*
X15679489Y-21245824D01*
X15649582Y-21250093D01*
X15621570Y-21264301D01*
X15603947Y-21279294D01*
X15585326Y-21302160D01*
X15571537Y-21329917D01*
X15569544Y-21335873D01*
X15554519Y-21361468D01*
X15527680Y-21375457D01*
X15497503Y-21374387D01*
X15475247Y-21360328D01*
X15472345Y-21357426D01*
X15340536Y-21209452D01*
X15325269Y-21183529D01*
X15321366Y-21156915D01*
X15327853Y-21127141D01*
X15343438Y-21104999D01*
X15492034Y-20956403D01*
X15518438Y-20942123D01*
X15528820Y-20941171D01*
X15557595Y-20949739D01*
X15565607Y-20956403D01*
X15579790Y-20982711D01*
X15580736Y-20993086D01*
X15572167Y-21021861D01*
X15565503Y-21029872D01*
X15447787Y-21147589D01*
X15447165Y-21159816D01*
X15521774Y-21249554D01*
X15526230Y-21251109D01*
X15529960Y-21248414D01*
X15543425Y-21220641D01*
X15561332Y-21196437D01*
X15567264Y-21190178D01*
X15590090Y-21169873D01*
X15618037Y-21151240D01*
X15647403Y-21138051D01*
X15678186Y-21130306D01*
X15701042Y-21128108D01*
X15733320Y-21130345D01*
X15765053Y-21139416D01*
X15791818Y-21152629D01*
X15818183Y-21170862D01*
X15844146Y-21194116D01*
X15865966Y-21218668D01*
X15883549Y-21244451D01*
X15896897Y-21271464D01*
X15906010Y-21299708D01*
X15911436Y-21331765D01*
X15911977Y-21363002D01*
X15907633Y-21393419D01*
X15903108Y-21409963D01*
X15891623Y-21438580D01*
X15876285Y-21465443D01*
X15857094Y-21490551D01*
X15844768Y-21503743D01*
G37*
G36*
X13746520Y-28428891D02*
G01*
X13774034Y-28443180D01*
X13795979Y-28464978D01*
X13809938Y-28492565D01*
X13968207Y-28986278D01*
X13970552Y-29001958D01*
X13961612Y-29029216D01*
X13937212Y-29047068D01*
X13922778Y-29049000D01*
X13893717Y-29043995D01*
X13870754Y-29031267D01*
X13850734Y-29009532D01*
X13840419Y-28985545D01*
X13815653Y-28896445D01*
X13805688Y-28888239D01*
X13619428Y-28888239D01*
X13608730Y-28896445D01*
X13583964Y-28988036D01*
X13570991Y-29015337D01*
X13554362Y-29032147D01*
X13527494Y-29045774D01*
X13504097Y-29049000D01*
X13475286Y-29039233D01*
X13467021Y-29030095D01*
X13457056Y-29003717D01*
X13459547Y-28988769D01*
X13525350Y-28783605D01*
X13640091Y-28783605D01*
X13641264Y-28789321D01*
X13646686Y-28791812D01*
X13778577Y-28791812D01*
X13783413Y-28789321D01*
X13784292Y-28783605D01*
X13767879Y-28723375D01*
X13759537Y-28693643D01*
X13751244Y-28663005D01*
X13742763Y-28631003D01*
X13738130Y-28613319D01*
X13730484Y-28583936D01*
X13722487Y-28553638D01*
X13714578Y-28524733D01*
X13713364Y-28520556D01*
X13711752Y-28518944D01*
X13709261Y-28520556D01*
X13701674Y-28552053D01*
X13693845Y-28583622D01*
X13685772Y-28615262D01*
X13677456Y-28646974D01*
X13668896Y-28678758D01*
X13660094Y-28710613D01*
X13656504Y-28723375D01*
X13640091Y-28783605D01*
X13525350Y-28783605D01*
X13618696Y-28492565D01*
X13632544Y-28464978D01*
X13654453Y-28443180D01*
X13681967Y-28428891D01*
X13712631Y-28424129D01*
X13715855Y-28424129D01*
X13746520Y-28428891D01*
G37*
G36*
X14213671Y-29060577D02*
G01*
X14182029Y-29059267D01*
X14152039Y-29055339D01*
X14118233Y-29047168D01*
X14086808Y-29035225D01*
X14057763Y-29019512D01*
X14039721Y-29006941D01*
X14022970Y-28982072D01*
X14021550Y-28973089D01*
X14021550Y-28968253D01*
X14029792Y-28939130D01*
X14033127Y-28934401D01*
X14058506Y-28918187D01*
X14064488Y-28917108D01*
X14070203Y-28917108D01*
X14098978Y-28925635D01*
X14099805Y-28926194D01*
X14127497Y-28942133D01*
X14155838Y-28952856D01*
X14184829Y-28958362D01*
X14201215Y-28959167D01*
X14232326Y-28956483D01*
X14260933Y-28947433D01*
X14278737Y-28936452D01*
X14298472Y-28913043D01*
X14307156Y-28882565D01*
X14307607Y-28872558D01*
X14303650Y-28842526D01*
X14290434Y-28816130D01*
X14279470Y-28804561D01*
X14252460Y-28788934D01*
X14224304Y-28780648D01*
X14193594Y-28775755D01*
X14180698Y-28774519D01*
X14152723Y-28763557D01*
X14148458Y-28759718D01*
X14135475Y-28732823D01*
X14135269Y-28728357D01*
X14145367Y-28700035D01*
X14148458Y-28696557D01*
X14174262Y-28682113D01*
X14179819Y-28681316D01*
X14210934Y-28675799D01*
X14241310Y-28664767D01*
X14267151Y-28645814D01*
X14282655Y-28620312D01*
X14287823Y-28588260D01*
X14283644Y-28558888D01*
X14268632Y-28533151D01*
X14265988Y-28530521D01*
X14239500Y-28515024D01*
X14208689Y-28509939D01*
X14203706Y-28509858D01*
X14173687Y-28513753D01*
X14144080Y-28524119D01*
X14124571Y-28534624D01*
X14096449Y-28544356D01*
X14093211Y-28544443D01*
X14087495Y-28544443D01*
X14060308Y-28533337D01*
X14054522Y-28527150D01*
X14042321Y-28499875D01*
X14042213Y-28496669D01*
X14042945Y-28490953D01*
X14055174Y-28464213D01*
X14061996Y-28458713D01*
X14088259Y-28443026D01*
X14115172Y-28430583D01*
X14147390Y-28420170D01*
X14180492Y-28414174D01*
X14209568Y-28412551D01*
X14243119Y-28414092D01*
X14273982Y-28418713D01*
X14306588Y-28427999D01*
X14335535Y-28441478D01*
X14357432Y-28456369D01*
X14378788Y-28477172D01*
X14396772Y-28505102D01*
X14406888Y-28533178D01*
X14411759Y-28564648D01*
X14412241Y-28579174D01*
X14409665Y-28608766D01*
X14400880Y-28638376D01*
X14385862Y-28664903D01*
X14365009Y-28687849D01*
X14341332Y-28705343D01*
X14313162Y-28719631D01*
X14310098Y-28720884D01*
X14307607Y-28723815D01*
X14310098Y-28726745D01*
X14339471Y-28737361D01*
X14365436Y-28751733D01*
X14390288Y-28772106D01*
X14399051Y-28781554D01*
X14416903Y-28807897D01*
X14428143Y-28838019D01*
X14432606Y-28868360D01*
X14432903Y-28879153D01*
X14430673Y-28909167D01*
X14422431Y-28941149D01*
X14408117Y-28969863D01*
X14387729Y-28995309D01*
X14369449Y-29011484D01*
X14344639Y-29028168D01*
X14317799Y-29041400D01*
X14288929Y-29051180D01*
X14258029Y-29057508D01*
X14225099Y-29060385D01*
X14213671Y-29060577D01*
G37*
G36*
X2161545Y-18306926D02*
G01*
X2191104Y-18316278D01*
X2216155Y-18334593D01*
X2218435Y-18336873D01*
X2236750Y-18361924D01*
X2246102Y-18391482D01*
X2246206Y-18422414D01*
X2236569Y-18451791D01*
X1999375Y-18912812D01*
X1989945Y-18925558D01*
X1964350Y-18938511D01*
X1934473Y-18933880D01*
X1922900Y-18925040D01*
X1905890Y-18900952D01*
X1898653Y-18875715D01*
X1899865Y-18846189D01*
X1909533Y-18821934D01*
X1955024Y-18741419D01*
X1953780Y-18728570D01*
X1822075Y-18596864D01*
X1808707Y-18595102D01*
X1726430Y-18642355D01*
X1697953Y-18652486D01*
X1674308Y-18652614D01*
X1645674Y-18643251D01*
X1626848Y-18628987D01*
X1613381Y-18601709D01*
X1613999Y-18589403D01*
X1625605Y-18563705D01*
X1637936Y-18554897D01*
X1662316Y-18542358D01*
X1907461Y-18542358D01*
X1909533Y-18547954D01*
X2002794Y-18641215D01*
X2007975Y-18642873D01*
X2012638Y-18639453D01*
X2043622Y-18585258D01*
X2058747Y-18558336D01*
X2074547Y-18530807D01*
X2091178Y-18502181D01*
X2100407Y-18486401D01*
X2115777Y-18460218D01*
X2131546Y-18433139D01*
X2146393Y-18407107D01*
X2148489Y-18403295D01*
X2148489Y-18401016D01*
X2145587Y-18400394D01*
X2117951Y-18417302D01*
X2090092Y-18434088D01*
X2062010Y-18450753D01*
X2033706Y-18467296D01*
X2005179Y-18483718D01*
X1976430Y-18500018D01*
X1964868Y-18506504D01*
X1910673Y-18537488D01*
X1907461Y-18542358D01*
X1662316Y-18542358D01*
X2101340Y-18316563D01*
X2130640Y-18306848D01*
X2161545Y-18306926D01*
G37*
G36*
X2049321Y-19051460D02*
G01*
X2035409Y-19024773D01*
X2034710Y-19015917D01*
X2043663Y-18987034D01*
X2049321Y-18980375D01*
X2076009Y-18966463D01*
X2084864Y-18965764D01*
X2113712Y-18974681D01*
X2120407Y-18980375D01*
X2173980Y-19033948D01*
X2185690Y-19033844D01*
X2453142Y-18766392D01*
X2453245Y-18754683D01*
X2406097Y-18707534D01*
X2395009Y-18680695D01*
X2406615Y-18653339D01*
X2433581Y-18639988D01*
X2434593Y-18639868D01*
X2463640Y-18645855D01*
X2465473Y-18646914D01*
X2492020Y-18661259D01*
X2519539Y-18673953D01*
X2529098Y-18677794D01*
X2557845Y-18690585D01*
X2584512Y-18706525D01*
X2605986Y-18724425D01*
X2618806Y-18750966D01*
X2619043Y-18756755D01*
X2609223Y-18784772D01*
X2605365Y-18789086D01*
X2273148Y-19121302D01*
X2273044Y-19133012D01*
X2315012Y-19174979D01*
X2328923Y-19201667D01*
X2329623Y-19210522D01*
X2320803Y-19239469D01*
X2315115Y-19246169D01*
X2288400Y-19259982D01*
X2279469Y-19260676D01*
X2250621Y-19251758D01*
X2243926Y-19246065D01*
X2049321Y-19051460D01*
G37*
G36*
X2470965Y-19489477D02*
G01*
X2450129Y-19466820D01*
X2432051Y-19443277D01*
X2413998Y-19413857D01*
X2399915Y-19383163D01*
X2389803Y-19351193D01*
X2385268Y-19329171D01*
X2390551Y-19299212D01*
X2395838Y-19291867D01*
X2399257Y-19287204D01*
X2425314Y-19272730D01*
X2429619Y-19271971D01*
X2458545Y-19277312D01*
X2464540Y-19281401D01*
X2468582Y-19285442D01*
X2483100Y-19311825D01*
X2483296Y-19312799D01*
X2491256Y-19342799D01*
X2503478Y-19369848D01*
X2522058Y-19396442D01*
X2530963Y-19406060D01*
X2553910Y-19424858D01*
X2580694Y-19437494D01*
X2609095Y-19441706D01*
X2640454Y-19436237D01*
X2668176Y-19421750D01*
X2690129Y-19403158D01*
X2710210Y-19379151D01*
X2723930Y-19352041D01*
X2728884Y-19324197D01*
X2724614Y-19294290D01*
X2710406Y-19266278D01*
X2695413Y-19248656D01*
X2672547Y-19230034D01*
X2644791Y-19216245D01*
X2638835Y-19214253D01*
X2613240Y-19199227D01*
X2599251Y-19172389D01*
X2600321Y-19142211D01*
X2614380Y-19119955D01*
X2617281Y-19117054D01*
X2765256Y-18985245D01*
X2791179Y-18969977D01*
X2817793Y-18966074D01*
X2847566Y-18972562D01*
X2869708Y-18988146D01*
X3018304Y-19136742D01*
X3032585Y-19163147D01*
X3033537Y-19173529D01*
X3024968Y-19202304D01*
X3018304Y-19210315D01*
X2991997Y-19224498D01*
X2981621Y-19225444D01*
X2952846Y-19216876D01*
X2944835Y-19210211D01*
X2827119Y-19092495D01*
X2814891Y-19091873D01*
X2725153Y-19166482D01*
X2723599Y-19170938D01*
X2726293Y-19174669D01*
X2754067Y-19188133D01*
X2778270Y-19206041D01*
X2784530Y-19211973D01*
X2804834Y-19234799D01*
X2823468Y-19262746D01*
X2836657Y-19292111D01*
X2844402Y-19322895D01*
X2846600Y-19345751D01*
X2844362Y-19378029D01*
X2835292Y-19409761D01*
X2822078Y-19436527D01*
X2803845Y-19462891D01*
X2780592Y-19488855D01*
X2756040Y-19510674D01*
X2730257Y-19528258D01*
X2703243Y-19541606D01*
X2675000Y-19550718D01*
X2642943Y-19556144D01*
X2611706Y-19556685D01*
X2581288Y-19552341D01*
X2564744Y-19547817D01*
X2536127Y-19536331D01*
X2509265Y-19520993D01*
X2484156Y-19501803D01*
X2470965Y-19489477D01*
G37*
G36*
X14212960Y-3281471D02*
G01*
X14191581Y-3258240D01*
X14172935Y-3234038D01*
X14157022Y-3208864D01*
X14143843Y-3182718D01*
X14132447Y-3152421D01*
X14124724Y-3121566D01*
X14120673Y-3090155D01*
X14120009Y-3072463D01*
X14121998Y-3040233D01*
X14127400Y-3011199D01*
X14136221Y-2981802D01*
X14146744Y-2955783D01*
X14162009Y-2926282D01*
X14178139Y-2901033D01*
X14196858Y-2876309D01*
X14218165Y-2852110D01*
X14228089Y-2841900D01*
X14251657Y-2819919D01*
X14275940Y-2800396D01*
X14300937Y-2783333D01*
X14326647Y-2768729D01*
X14341660Y-2761489D01*
X14371847Y-2749501D01*
X14401684Y-2740894D01*
X14431171Y-2735667D01*
X14460309Y-2733821D01*
X14492697Y-2735466D01*
X14524462Y-2740750D01*
X14555604Y-2749674D01*
X14572637Y-2756204D01*
X14599119Y-2768904D01*
X14624371Y-2784312D01*
X14648392Y-2802426D01*
X14671182Y-2823248D01*
X14692483Y-2846888D01*
X14710454Y-2871875D01*
X14725095Y-2898211D01*
X14736407Y-2925894D01*
X14744389Y-2954925D01*
X14746310Y-2964902D01*
X14742240Y-2994217D01*
X14733460Y-3005729D01*
X14706897Y-3019979D01*
X14699679Y-3020858D01*
X14670312Y-3013997D01*
X14662996Y-3008631D01*
X14658333Y-3005211D01*
X14642921Y-2979766D01*
X14641443Y-2974228D01*
X14630120Y-2945224D01*
X14612940Y-2918524D01*
X14598232Y-2902002D01*
X14572813Y-2880521D01*
X14545521Y-2865040D01*
X14516354Y-2855558D01*
X14485313Y-2852077D01*
X14466733Y-2852781D01*
X14433992Y-2858712D01*
X14406347Y-2868619D01*
X14379087Y-2882977D01*
X14352214Y-2901787D01*
X14325727Y-2925049D01*
X14321350Y-2929359D01*
X14300015Y-2952318D01*
X14278701Y-2979869D01*
X14262064Y-3007420D01*
X14250106Y-3034970D01*
X14242066Y-3067113D01*
X14240938Y-3076297D01*
X14241297Y-3107988D01*
X14248449Y-3138777D01*
X14262395Y-3168664D01*
X14279755Y-3193563D01*
X14298034Y-3213805D01*
X14321457Y-3233613D01*
X14347423Y-3247508D01*
X14361659Y-3251731D01*
X14375648Y-3247068D01*
X14451397Y-3171319D01*
X14451294Y-3159610D01*
X14415233Y-3123549D01*
X14401131Y-3096672D01*
X14400311Y-3087695D01*
X14408627Y-3059173D01*
X14415233Y-3051220D01*
X14441365Y-3037211D01*
X14451604Y-3036402D01*
X14479835Y-3044815D01*
X14487562Y-3051220D01*
X14558026Y-3121684D01*
X14574410Y-3146491D01*
X14578958Y-3172459D01*
X14573131Y-3201572D01*
X14558129Y-3223131D01*
X14460205Y-3321055D01*
X14436064Y-3341150D01*
X14409702Y-3355374D01*
X14401761Y-3358360D01*
X14371994Y-3364132D01*
X14342726Y-3360661D01*
X14338862Y-3359500D01*
X14308718Y-3348009D01*
X14280031Y-3333395D01*
X14252802Y-3315657D01*
X14227031Y-3294795D01*
X14212960Y-3281471D01*
G37*
G36*
X14540721Y-3568405D02*
G01*
X14511613Y-3560863D01*
X14498753Y-3550892D01*
X14483310Y-3524917D01*
X14481241Y-3508925D01*
X14488783Y-3479817D01*
X14498753Y-3466957D01*
X14853145Y-3112565D01*
X14878035Y-3096882D01*
X14898222Y-3093602D01*
X14927033Y-3099918D01*
X14943505Y-3111943D01*
X14961966Y-3136487D01*
X14971794Y-3161786D01*
X14975195Y-3192241D01*
X14970862Y-3218675D01*
X14881745Y-3521256D01*
X14831592Y-3658661D01*
X14831902Y-3662495D01*
X14835115Y-3662184D01*
X14858250Y-3633608D01*
X14879835Y-3607309D01*
X14899868Y-3583286D01*
X14922729Y-3556459D01*
X14943165Y-3533188D01*
X14964490Y-3509959D01*
X14976768Y-3497319D01*
X15110857Y-3363230D01*
X15136832Y-3347787D01*
X15152824Y-3345718D01*
X15181887Y-3353215D01*
X15194688Y-3363127D01*
X15210131Y-3389101D01*
X15212201Y-3405094D01*
X15204750Y-3434293D01*
X15194792Y-3447165D01*
X14839778Y-3802179D01*
X14814925Y-3817753D01*
X14794805Y-3820831D01*
X14765078Y-3813545D01*
X14750040Y-3802179D01*
X14731947Y-3778179D01*
X14721958Y-3753165D01*
X14718769Y-3722953D01*
X14723823Y-3696587D01*
X14814183Y-3392970D01*
X14863093Y-3255358D01*
X14862161Y-3252146D01*
X14859570Y-3251835D01*
X14841136Y-3274668D01*
X14827447Y-3291005D01*
X14808281Y-3313865D01*
X14789935Y-3335563D01*
X14770530Y-3358060D01*
X14756050Y-3374629D01*
X14736206Y-3396649D01*
X14717917Y-3415664D01*
X14582688Y-3550892D01*
X14556713Y-3566335D01*
X14540721Y-3568405D01*
G37*
G36*
X15372093Y-3547088D02*
G01*
X15393749Y-3562187D01*
X15464213Y-3632651D01*
X15488564Y-3658716D01*
X15509755Y-3685046D01*
X15527786Y-3711641D01*
X15542656Y-3738503D01*
X15554365Y-3765629D01*
X15564558Y-3799911D01*
X15569812Y-3834608D01*
X15570531Y-3848602D01*
X15568633Y-3883637D01*
X15561255Y-3918534D01*
X15551408Y-3946354D01*
X15538053Y-3974086D01*
X15521192Y-4001731D01*
X15500823Y-4029288D01*
X15476948Y-4056758D01*
X15463695Y-4070460D01*
X15436367Y-4096010D01*
X15408891Y-4118153D01*
X15381266Y-4136889D01*
X15353491Y-4152219D01*
X15325568Y-4164142D01*
X15297496Y-4172659D01*
X15262196Y-4178514D01*
X15240904Y-4179472D01*
X15205737Y-4177023D01*
X15171218Y-4169677D01*
X15137346Y-4157432D01*
X15110714Y-4144110D01*
X15084498Y-4127653D01*
X15058695Y-4108062D01*
X15033308Y-4085336D01*
X15027025Y-4079165D01*
X14951898Y-4004038D01*
X14935456Y-3979231D01*
X14934976Y-3976577D01*
X15066610Y-3976577D01*
X15088267Y-3998235D01*
X15113451Y-4020754D01*
X15138955Y-4038263D01*
X15173455Y-4053813D01*
X15208522Y-4060455D01*
X15244155Y-4058188D01*
X15280355Y-4047013D01*
X15307877Y-4032785D01*
X15335718Y-4013547D01*
X15363878Y-3989297D01*
X15373335Y-3980101D01*
X15395864Y-3955892D01*
X15414619Y-3932098D01*
X15432141Y-3904093D01*
X15444229Y-3876685D01*
X15451461Y-3845465D01*
X15452296Y-3832334D01*
X15449525Y-3802106D01*
X15440486Y-3772355D01*
X15425180Y-3743080D01*
X15407072Y-3718366D01*
X15388464Y-3698038D01*
X15366807Y-3676380D01*
X15355201Y-3676380D01*
X15066713Y-3964868D01*
X15066610Y-3976577D01*
X14934976Y-3976577D01*
X14930759Y-3953262D01*
X14936748Y-3924149D01*
X14951795Y-3902590D01*
X15292198Y-3562187D01*
X15316976Y-3545774D01*
X15342870Y-3541152D01*
X15372093Y-3547088D01*
G37*
G36*
X2272320Y-20797316D02*
G01*
X2293976Y-20812414D01*
X2389517Y-20907955D01*
X2417096Y-20937451D01*
X2439952Y-20966055D01*
X2458085Y-20993769D01*
X2471494Y-21020592D01*
X2482027Y-21054971D01*
X2484162Y-21087766D01*
X2477901Y-21118978D01*
X2463243Y-21148606D01*
X2440189Y-21176651D01*
X2417539Y-21195505D01*
X2389589Y-21210655D01*
X2366409Y-21218308D01*
X2335171Y-21222723D01*
X2305653Y-21219648D01*
X2286930Y-21213437D01*
X2283407Y-21213437D01*
X2282785Y-21216339D01*
X2295990Y-21242708D01*
X2304721Y-21272334D01*
X2307198Y-21302303D01*
X2306722Y-21311361D01*
X2300432Y-21341040D01*
X2286612Y-21369585D01*
X2267738Y-21394306D01*
X2260091Y-21402343D01*
X2235508Y-21423603D01*
X2209789Y-21439356D01*
X2178346Y-21450772D01*
X2145356Y-21454690D01*
X2115847Y-21452082D01*
X2085909Y-21444541D01*
X2056248Y-21432643D01*
X2026863Y-21416388D01*
X2002588Y-21399514D01*
X1978504Y-21379614D01*
X1959376Y-21361515D01*
X1852126Y-21254265D01*
X1835847Y-21229706D01*
X1963935Y-21229706D01*
X2019374Y-21285145D01*
X2042280Y-21305955D01*
X2069760Y-21324924D01*
X2101046Y-21337354D01*
X2130489Y-21338512D01*
X2158088Y-21328399D01*
X2179679Y-21311361D01*
X2197967Y-21286516D01*
X2204854Y-21257726D01*
X2202995Y-21241416D01*
X2191133Y-21211747D01*
X2173100Y-21185153D01*
X2153340Y-21162654D01*
X2147660Y-21156859D01*
X2092221Y-21101420D01*
X2080512Y-21101524D01*
X1963935Y-21218100D01*
X1963935Y-21229706D01*
X1835847Y-21229706D01*
X1835683Y-21229458D01*
X1830987Y-21203489D01*
X1836975Y-21174377D01*
X1852022Y-21152818D01*
X1969221Y-21035619D01*
X2158022Y-21035619D01*
X2203513Y-21081110D01*
X2226011Y-21101215D01*
X2252240Y-21118018D01*
X2279262Y-21126601D01*
X2310412Y-21123862D01*
X2336446Y-21108652D01*
X2341643Y-21103804D01*
X2359049Y-21079967D01*
X2364639Y-21050977D01*
X2363507Y-21042977D01*
X2352561Y-21015391D01*
X2334616Y-20989993D01*
X2316566Y-20970337D01*
X2269936Y-20923706D01*
X2258330Y-20923706D01*
X2158126Y-21023910D01*
X2158022Y-21035619D01*
X1969221Y-21035619D01*
X2192425Y-20812414D01*
X2217203Y-20796001D01*
X2243097Y-20791379D01*
X2272320Y-20797316D01*
G37*
G36*
X2306929Y-21725441D02*
G01*
X2285480Y-21702140D01*
X2267052Y-21678156D01*
X2248926Y-21648474D01*
X2235149Y-21617809D01*
X2225722Y-21586160D01*
X2221854Y-21564514D01*
X2227594Y-21535084D01*
X2232942Y-21527727D01*
X2236362Y-21524308D01*
X2262782Y-21509542D01*
X2268485Y-21508557D01*
X2297895Y-21515038D01*
X2302888Y-21518505D01*
X2306929Y-21522546D01*
X2321247Y-21548922D01*
X2321436Y-21549903D01*
X2329747Y-21580754D01*
X2342205Y-21608377D01*
X2358811Y-21632769D01*
X2369829Y-21644925D01*
X2393725Y-21665026D01*
X2420353Y-21678855D01*
X2440707Y-21683681D01*
X2471215Y-21681082D01*
X2498906Y-21665671D01*
X2506301Y-21658915D01*
X2524739Y-21634880D01*
X2534058Y-21606870D01*
X2534486Y-21590938D01*
X2526438Y-21560788D01*
X2512387Y-21535020D01*
X2494132Y-21509844D01*
X2485887Y-21499852D01*
X2473857Y-21472320D01*
X2473556Y-21466589D01*
X2483393Y-21438391D01*
X2486405Y-21435088D01*
X2513572Y-21422201D01*
X2518217Y-21421928D01*
X2546677Y-21429960D01*
X2551170Y-21433326D01*
X2577072Y-21451426D01*
X2606353Y-21465104D01*
X2638026Y-21469975D01*
X2667022Y-21462905D01*
X2693341Y-21443896D01*
X2711155Y-21420171D01*
X2718739Y-21391358D01*
X2718729Y-21387628D01*
X2710957Y-21357940D01*
X2692766Y-21332558D01*
X2689300Y-21328977D01*
X2665319Y-21310505D01*
X2637054Y-21296899D01*
X2615831Y-21290533D01*
X2589064Y-21277530D01*
X2586712Y-21275300D01*
X2582671Y-21271259D01*
X2571299Y-21244182D01*
X2571583Y-21235716D01*
X2582242Y-21207802D01*
X2584433Y-21205458D01*
X2588992Y-21201935D01*
X2616547Y-21191674D01*
X2625260Y-21192609D01*
X2654924Y-21200087D01*
X2682752Y-21210319D01*
X2712897Y-21225737D01*
X2740543Y-21244904D01*
X2762251Y-21264316D01*
X2784886Y-21289130D01*
X2803441Y-21314221D01*
X2819932Y-21343843D01*
X2830869Y-21373842D01*
X2835823Y-21399856D01*
X2836214Y-21429667D01*
X2829181Y-21462133D01*
X2816481Y-21489139D01*
X2797673Y-21514835D01*
X2787742Y-21525447D01*
X2764995Y-21544551D01*
X2737847Y-21559277D01*
X2708470Y-21567415D01*
X2677499Y-21568894D01*
X2648387Y-21564523D01*
X2618365Y-21554707D01*
X2615313Y-21553426D01*
X2611478Y-21553737D01*
X2611168Y-21557571D01*
X2624431Y-21585847D01*
X2632629Y-21614369D01*
X2635796Y-21646349D01*
X2635312Y-21659225D01*
X2629307Y-21690476D01*
X2615955Y-21719724D01*
X2597657Y-21744333D01*
X2590236Y-21752176D01*
X2567435Y-21771821D01*
X2538993Y-21788608D01*
X2508567Y-21798790D01*
X2476158Y-21802367D01*
X2451795Y-21800879D01*
X2422454Y-21795132D01*
X2394119Y-21785510D01*
X2366789Y-21772011D01*
X2340464Y-21754637D01*
X2315145Y-21733386D01*
X2306929Y-21725441D01*
G37*
G36*
X2272320Y-25897316D02*
G01*
X2293976Y-25912414D01*
X2389517Y-26007955D01*
X2417096Y-26037451D01*
X2439952Y-26066055D01*
X2458085Y-26093769D01*
X2471494Y-26120592D01*
X2482027Y-26154971D01*
X2484162Y-26187766D01*
X2477901Y-26218978D01*
X2463243Y-26248606D01*
X2440189Y-26276651D01*
X2417539Y-26295505D01*
X2389589Y-26310655D01*
X2366409Y-26318308D01*
X2335171Y-26322723D01*
X2305653Y-26319648D01*
X2286930Y-26313437D01*
X2283407Y-26313437D01*
X2282785Y-26316339D01*
X2295990Y-26342708D01*
X2304721Y-26372334D01*
X2307198Y-26402303D01*
X2306722Y-26411361D01*
X2300432Y-26441040D01*
X2286612Y-26469585D01*
X2267738Y-26494306D01*
X2260091Y-26502343D01*
X2235508Y-26523603D01*
X2209789Y-26539356D01*
X2178346Y-26550772D01*
X2145356Y-26554690D01*
X2115847Y-26552082D01*
X2085909Y-26544541D01*
X2056248Y-26532643D01*
X2026863Y-26516388D01*
X2002588Y-26499514D01*
X1978504Y-26479614D01*
X1959376Y-26461515D01*
X1852126Y-26354265D01*
X1835847Y-26329706D01*
X1963935Y-26329706D01*
X2019374Y-26385145D01*
X2042280Y-26405955D01*
X2069760Y-26424924D01*
X2101046Y-26437354D01*
X2130489Y-26438512D01*
X2158088Y-26428399D01*
X2179679Y-26411361D01*
X2197967Y-26386516D01*
X2204854Y-26357726D01*
X2202995Y-26341416D01*
X2191133Y-26311747D01*
X2173100Y-26285153D01*
X2153340Y-26262654D01*
X2147660Y-26256859D01*
X2092221Y-26201420D01*
X2080512Y-26201524D01*
X1963935Y-26318100D01*
X1963935Y-26329706D01*
X1835847Y-26329706D01*
X1835683Y-26329458D01*
X1830987Y-26303489D01*
X1836975Y-26274377D01*
X1852022Y-26252818D01*
X1969221Y-26135619D01*
X2158022Y-26135619D01*
X2203513Y-26181110D01*
X2226011Y-26201215D01*
X2252240Y-26218018D01*
X2279262Y-26226601D01*
X2310412Y-26223862D01*
X2336446Y-26208652D01*
X2341643Y-26203804D01*
X2359049Y-26179967D01*
X2364639Y-26150977D01*
X2363507Y-26142977D01*
X2352561Y-26115391D01*
X2334616Y-26089993D01*
X2316566Y-26070337D01*
X2269936Y-26023706D01*
X2258330Y-26023706D01*
X2158126Y-26123910D01*
X2158022Y-26135619D01*
X1969221Y-26135619D01*
X2192425Y-25912414D01*
X2217203Y-25896001D01*
X2243097Y-25891379D01*
X2272320Y-25897316D01*
G37*
G36*
X2308069Y-26826581D02*
G01*
X2287233Y-26803924D01*
X2269156Y-26780381D01*
X2251102Y-26750961D01*
X2237019Y-26720267D01*
X2226907Y-26688297D01*
X2222372Y-26666275D01*
X2227655Y-26636316D01*
X2232942Y-26628971D01*
X2236362Y-26624308D01*
X2262418Y-26609834D01*
X2266723Y-26609075D01*
X2295649Y-26614416D01*
X2301644Y-26618505D01*
X2305686Y-26622546D01*
X2320204Y-26648929D01*
X2320400Y-26649903D01*
X2328360Y-26679903D01*
X2340582Y-26706952D01*
X2359162Y-26733546D01*
X2368067Y-26743164D01*
X2391014Y-26761962D01*
X2417798Y-26774598D01*
X2446199Y-26778810D01*
X2477558Y-26773341D01*
X2505280Y-26758854D01*
X2527233Y-26740262D01*
X2547314Y-26716255D01*
X2561034Y-26689145D01*
X2565988Y-26661301D01*
X2561718Y-26631395D01*
X2547510Y-26603382D01*
X2532517Y-26585760D01*
X2509651Y-26567138D01*
X2481895Y-26553349D01*
X2475939Y-26551357D01*
X2450344Y-26536331D01*
X2436355Y-26509493D01*
X2437425Y-26479315D01*
X2451484Y-26457059D01*
X2454385Y-26454158D01*
X2602360Y-26322349D01*
X2628283Y-26307081D01*
X2654897Y-26303179D01*
X2684670Y-26309666D01*
X2706812Y-26325250D01*
X2855408Y-26473846D01*
X2869689Y-26500251D01*
X2870641Y-26510633D01*
X2862072Y-26539408D01*
X2855408Y-26547419D01*
X2829101Y-26561602D01*
X2818725Y-26562548D01*
X2789950Y-26553980D01*
X2781939Y-26547315D01*
X2664223Y-26429599D01*
X2651995Y-26428977D01*
X2562257Y-26503586D01*
X2560703Y-26508042D01*
X2563397Y-26511773D01*
X2591171Y-26525237D01*
X2615374Y-26543145D01*
X2621634Y-26549077D01*
X2641938Y-26571903D01*
X2660572Y-26599850D01*
X2673761Y-26629215D01*
X2681506Y-26659999D01*
X2683704Y-26682855D01*
X2681466Y-26715133D01*
X2672396Y-26746865D01*
X2659182Y-26773631D01*
X2640949Y-26799995D01*
X2617696Y-26825959D01*
X2593144Y-26847778D01*
X2567361Y-26865362D01*
X2540347Y-26878710D01*
X2512104Y-26887822D01*
X2480047Y-26893248D01*
X2448810Y-26893789D01*
X2418393Y-26889445D01*
X2401848Y-26884921D01*
X2373231Y-26873435D01*
X2346369Y-26858097D01*
X2321260Y-26838907D01*
X2308069Y-26826581D01*
G37*
G36*
X3339443Y-28428891D02*
G01*
X3366957Y-28443180D01*
X3388902Y-28464978D01*
X3402861Y-28492565D01*
X3561130Y-28986278D01*
X3563475Y-29001958D01*
X3554535Y-29029216D01*
X3530135Y-29047068D01*
X3515701Y-29049000D01*
X3486640Y-29043995D01*
X3463677Y-29031267D01*
X3443657Y-29009532D01*
X3433342Y-28985545D01*
X3408576Y-28896445D01*
X3398611Y-28888239D01*
X3212351Y-28888239D01*
X3201653Y-28896445D01*
X3176887Y-28988036D01*
X3163914Y-29015337D01*
X3147285Y-29032147D01*
X3120417Y-29045774D01*
X3097020Y-29049000D01*
X3068209Y-29039233D01*
X3059944Y-29030095D01*
X3049979Y-29003717D01*
X3052470Y-28988769D01*
X3118273Y-28783605D01*
X3233014Y-28783605D01*
X3234187Y-28789321D01*
X3239609Y-28791812D01*
X3371500Y-28791812D01*
X3376336Y-28789321D01*
X3377215Y-28783605D01*
X3360802Y-28723375D01*
X3352460Y-28693643D01*
X3344167Y-28663005D01*
X3335686Y-28631003D01*
X3331053Y-28613319D01*
X3323407Y-28583936D01*
X3315410Y-28553638D01*
X3307501Y-28524733D01*
X3306287Y-28520556D01*
X3304675Y-28518944D01*
X3302184Y-28520556D01*
X3294597Y-28552053D01*
X3286768Y-28583622D01*
X3278695Y-28615262D01*
X3270379Y-28646974D01*
X3261819Y-28678758D01*
X3253017Y-28710613D01*
X3249427Y-28723375D01*
X3233014Y-28783605D01*
X3118273Y-28783605D01*
X3211619Y-28492565D01*
X3225467Y-28464978D01*
X3247376Y-28443180D01*
X3274890Y-28428891D01*
X3305554Y-28424129D01*
X3308778Y-28424129D01*
X3339443Y-28428891D01*
G37*
G36*
X3694487Y-29049000D02*
G01*
X3665779Y-29039966D01*
X3659023Y-29034198D01*
X3644930Y-29007444D01*
X3644221Y-28998734D01*
X3653255Y-28970026D01*
X3659023Y-28963270D01*
X3685727Y-28949177D01*
X3694487Y-28948469D01*
X3770251Y-28948469D01*
X3778457Y-28940116D01*
X3778457Y-28561882D01*
X3770251Y-28553528D01*
X3703572Y-28553528D01*
X3676755Y-28542391D01*
X3665617Y-28514840D01*
X3675244Y-28486332D01*
X3675875Y-28485531D01*
X3700648Y-28469225D01*
X3702693Y-28468678D01*
X3731608Y-28460050D01*
X3760043Y-28449567D01*
X3769518Y-28445524D01*
X3798890Y-28434241D01*
X3829018Y-28426657D01*
X3856859Y-28424129D01*
X3884692Y-28433831D01*
X3888953Y-28437757D01*
X3901820Y-28464512D01*
X3902142Y-28470290D01*
X3902142Y-28940116D01*
X3910348Y-28948469D01*
X3969699Y-28948469D01*
X3998408Y-28957503D01*
X4005164Y-28963270D01*
X4019396Y-28989975D01*
X4020111Y-28998734D01*
X4010988Y-29027392D01*
X4005164Y-29034198D01*
X3978459Y-29048291D01*
X3969699Y-29049000D01*
X3694487Y-29049000D01*
G37*
G36*
X4425421Y-28430084D02*
G01*
X4446999Y-28445231D01*
X4463465Y-28469979D01*
X4468101Y-28495936D01*
X4468101Y-28784338D01*
X4476308Y-28792691D01*
X4495212Y-28792691D01*
X4523298Y-28801688D01*
X4528625Y-28806320D01*
X4541921Y-28833557D01*
X4542254Y-28839586D01*
X4533256Y-28867671D01*
X4528625Y-28872998D01*
X4502415Y-28886148D01*
X4495212Y-28886627D01*
X4476308Y-28886627D01*
X4468101Y-28894833D01*
X4468101Y-28991260D01*
X4460780Y-29019646D01*
X4451102Y-29032147D01*
X4424605Y-29047354D01*
X4410362Y-29049000D01*
X4380773Y-29041034D01*
X4369476Y-29032147D01*
X4354615Y-29006869D01*
X4352623Y-28991260D01*
X4352623Y-28894833D01*
X4344417Y-28886627D01*
X4129288Y-28886627D01*
X4101407Y-28876517D01*
X4099099Y-28874317D01*
X4087276Y-28846711D01*
X4087229Y-28844568D01*
X4090238Y-28813849D01*
X4099128Y-28785217D01*
X4211646Y-28785217D01*
X4212086Y-28790200D01*
X4215750Y-28792691D01*
X4344417Y-28792691D01*
X4352623Y-28784338D01*
X4352623Y-28664903D01*
X4353446Y-28633421D01*
X4354769Y-28600150D01*
X4356171Y-28568249D01*
X4357606Y-28537115D01*
X4355847Y-28535503D01*
X4353503Y-28537115D01*
X4339997Y-28566327D01*
X4326352Y-28594612D01*
X4312567Y-28621969D01*
X4304850Y-28636766D01*
X4211646Y-28785217D01*
X4099128Y-28785217D01*
X4099264Y-28784778D01*
X4108625Y-28766313D01*
X4281695Y-28485092D01*
X4301146Y-28461395D01*
X4325427Y-28442785D01*
X4329030Y-28440688D01*
X4357312Y-28428802D01*
X4387204Y-28424193D01*
X4391311Y-28424129D01*
X4396294Y-28424129D01*
X4425421Y-28430084D01*
G37*
G36*
X15156501Y-16188721D02*
G01*
X15617522Y-16425915D01*
X15630268Y-16435344D01*
X15643220Y-16460939D01*
X15638590Y-16490816D01*
X15629749Y-16502389D01*
X15605662Y-16519399D01*
X15580425Y-16526637D01*
X15550899Y-16525424D01*
X15526644Y-16515756D01*
X15446129Y-16470265D01*
X15433279Y-16471509D01*
X15301574Y-16603214D01*
X15299812Y-16616582D01*
X15347065Y-16698859D01*
X15357196Y-16727336D01*
X15357323Y-16750981D01*
X15347961Y-16779616D01*
X15333697Y-16798441D01*
X15306419Y-16811908D01*
X15294113Y-16811290D01*
X15268414Y-16799684D01*
X15259606Y-16787353D01*
X15021272Y-16323949D01*
X15011558Y-16294650D01*
X15011595Y-16279702D01*
X15105104Y-16279702D01*
X15122011Y-16307338D01*
X15138798Y-16335197D01*
X15155462Y-16363279D01*
X15172006Y-16391583D01*
X15188428Y-16420110D01*
X15204728Y-16448859D01*
X15211214Y-16460421D01*
X15242198Y-16514616D01*
X15247068Y-16517829D01*
X15252664Y-16515756D01*
X15345925Y-16422495D01*
X15347583Y-16417314D01*
X15344163Y-16412651D01*
X15289968Y-16381667D01*
X15263046Y-16366542D01*
X15235517Y-16350742D01*
X15206891Y-16334111D01*
X15191111Y-16324882D01*
X15164927Y-16309512D01*
X15137849Y-16293743D01*
X15111817Y-16278896D01*
X15108005Y-16276800D01*
X15105726Y-16276800D01*
X15105104Y-16279702D01*
X15011595Y-16279702D01*
X15011635Y-16263744D01*
X15020987Y-16234185D01*
X15039303Y-16209134D01*
X15041583Y-16206855D01*
X15066634Y-16188539D01*
X15096192Y-16179187D01*
X15127124Y-16179084D01*
X15156501Y-16188721D01*
G37*
G36*
X15756170Y-16375968D02*
G01*
X15729482Y-16389880D01*
X15720627Y-16390579D01*
X15691744Y-16381626D01*
X15685084Y-16375968D01*
X15671173Y-16349281D01*
X15670473Y-16340425D01*
X15679391Y-16311577D01*
X15685084Y-16304882D01*
X15738658Y-16251309D01*
X15738554Y-16239600D01*
X15471102Y-15972147D01*
X15459392Y-15972044D01*
X15412244Y-16019193D01*
X15385405Y-16030280D01*
X15358049Y-16018674D01*
X15344697Y-15991708D01*
X15344578Y-15990696D01*
X15350564Y-15961649D01*
X15351624Y-15959816D01*
X15365969Y-15933269D01*
X15378662Y-15905750D01*
X15382504Y-15896191D01*
X15395295Y-15867444D01*
X15411235Y-15840778D01*
X15429134Y-15819303D01*
X15455676Y-15806483D01*
X15461465Y-15806246D01*
X15489482Y-15816066D01*
X15493795Y-15819925D01*
X15826012Y-16152141D01*
X15837722Y-16152245D01*
X15879689Y-16110278D01*
X15906377Y-16096366D01*
X15915232Y-16095667D01*
X15944179Y-16104486D01*
X15950879Y-16110174D01*
X15964692Y-16136889D01*
X15965386Y-16145820D01*
X15956468Y-16174669D01*
X15950775Y-16181363D01*
X15756170Y-16375968D01*
G37*
G36*
X6238159Y-23025484D02*
G01*
X6274547Y-23029549D01*
X6306966Y-23036323D01*
X6335415Y-23045808D01*
X6367172Y-23062670D01*
X6391871Y-23084350D01*
X6409514Y-23110847D01*
X6420100Y-23142162D01*
X6423628Y-23178295D01*
X6420944Y-23207643D01*
X6411894Y-23238119D01*
X6400914Y-23259921D01*
X6381948Y-23285131D01*
X6358901Y-23303829D01*
X6341270Y-23312677D01*
X6338778Y-23315168D01*
X6340390Y-23317660D01*
X6368373Y-23326968D01*
X6395496Y-23341743D01*
X6418439Y-23361183D01*
X6424508Y-23367925D01*
X6441046Y-23393359D01*
X6451458Y-23423315D01*
X6455593Y-23454142D01*
X6455868Y-23465231D01*
X6453519Y-23497648D01*
X6446471Y-23526973D01*
X6432310Y-23557278D01*
X6411754Y-23583377D01*
X6389044Y-23602398D01*
X6362542Y-23618235D01*
X6333155Y-23630796D01*
X6300883Y-23640080D01*
X6271785Y-23645313D01*
X6240684Y-23648271D01*
X6214361Y-23649000D01*
X6062686Y-23649000D01*
X6033518Y-23643085D01*
X6011835Y-23628043D01*
X5995484Y-23603223D01*
X5990879Y-23577339D01*
X5990879Y-23544366D01*
X6116175Y-23544366D01*
X6124382Y-23552572D01*
X6202784Y-23552572D01*
X6233696Y-23551091D01*
X6266540Y-23545072D01*
X6297452Y-23531739D01*
X6319090Y-23511739D01*
X6331455Y-23485072D01*
X6334675Y-23457757D01*
X6330038Y-23427258D01*
X6314550Y-23402030D01*
X6301702Y-23391812D01*
X6272336Y-23379220D01*
X6240780Y-23373167D01*
X6210898Y-23371230D01*
X6202784Y-23371149D01*
X6124382Y-23371149D01*
X6116175Y-23379502D01*
X6116175Y-23544366D01*
X5990879Y-23544366D01*
X5990879Y-23269739D01*
X6116175Y-23269739D01*
X6124382Y-23278092D01*
X6188716Y-23278092D01*
X6218841Y-23276400D01*
X6249269Y-23269735D01*
X6274445Y-23256697D01*
X6294535Y-23232733D01*
X6302189Y-23203570D01*
X6302435Y-23196466D01*
X6297888Y-23167304D01*
X6281342Y-23142851D01*
X6274884Y-23137995D01*
X6247638Y-23126229D01*
X6216990Y-23120959D01*
X6190328Y-23119823D01*
X6124382Y-23119823D01*
X6116175Y-23128030D01*
X6116175Y-23269739D01*
X5990879Y-23269739D01*
X5990879Y-23095936D01*
X5996793Y-23066809D01*
X6011835Y-23045231D01*
X6036697Y-23028765D01*
X6062686Y-23024129D01*
X6197801Y-23024129D01*
X6238159Y-23025484D01*
G37*
G36*
X15156501Y-23788721D02*
G01*
X15617522Y-24025915D01*
X15630268Y-24035344D01*
X15643220Y-24060939D01*
X15638590Y-24090816D01*
X15629749Y-24102389D01*
X15605662Y-24119399D01*
X15580425Y-24126637D01*
X15550899Y-24125424D01*
X15526644Y-24115756D01*
X15446129Y-24070265D01*
X15433279Y-24071509D01*
X15301574Y-24203214D01*
X15299812Y-24216582D01*
X15347065Y-24298859D01*
X15357196Y-24327336D01*
X15357323Y-24350981D01*
X15347961Y-24379616D01*
X15333697Y-24398441D01*
X15306419Y-24411908D01*
X15294113Y-24411290D01*
X15268414Y-24399684D01*
X15259606Y-24387353D01*
X15021272Y-23923949D01*
X15011558Y-23894650D01*
X15011595Y-23879702D01*
X15105104Y-23879702D01*
X15122011Y-23907338D01*
X15138798Y-23935197D01*
X15155462Y-23963279D01*
X15172006Y-23991583D01*
X15188428Y-24020110D01*
X15204728Y-24048859D01*
X15211214Y-24060421D01*
X15242198Y-24114616D01*
X15247068Y-24117829D01*
X15252664Y-24115756D01*
X15345925Y-24022495D01*
X15347583Y-24017314D01*
X15344163Y-24012651D01*
X15289968Y-23981667D01*
X15263046Y-23966542D01*
X15235517Y-23950742D01*
X15206891Y-23934111D01*
X15191111Y-23924882D01*
X15164927Y-23909512D01*
X15137849Y-23893743D01*
X15111817Y-23878896D01*
X15108005Y-23876800D01*
X15105726Y-23876800D01*
X15105104Y-23879702D01*
X15011595Y-23879702D01*
X15011635Y-23863744D01*
X15020987Y-23834185D01*
X15039303Y-23809134D01*
X15041583Y-23806855D01*
X15066634Y-23788539D01*
X15096192Y-23779187D01*
X15127124Y-23779084D01*
X15156501Y-23788721D01*
G37*
G36*
X15572517Y-23349791D02*
G01*
X15581254Y-23356922D01*
X15594765Y-23383711D01*
X15595243Y-23389563D01*
X15586950Y-23418557D01*
X15582394Y-23424588D01*
X15579492Y-23427489D01*
X15554353Y-23443481D01*
X15549130Y-23445001D01*
X15520945Y-23457488D01*
X15497940Y-23475260D01*
X15479128Y-23499433D01*
X15467922Y-23526721D01*
X15464323Y-23557124D01*
X15465610Y-23575360D01*
X15473531Y-23606389D01*
X15486996Y-23635483D01*
X15503392Y-23661866D01*
X15524269Y-23689582D01*
X15545089Y-23713697D01*
X15547991Y-23714319D01*
X15549752Y-23711314D01*
X15550748Y-23681663D01*
X15556430Y-23652320D01*
X15560633Y-23638881D01*
X15573210Y-23610294D01*
X15590252Y-23586049D01*
X15594103Y-23581992D01*
X15616159Y-23562398D01*
X15642932Y-23544724D01*
X15670825Y-23532633D01*
X15699839Y-23526125D01*
X15721249Y-23524895D01*
X15751553Y-23528390D01*
X15781808Y-23538419D01*
X15807702Y-23552218D01*
X15833559Y-23570818D01*
X15859379Y-23594219D01*
X15881960Y-23619634D01*
X15899884Y-23646062D01*
X15913154Y-23673502D01*
X15921767Y-23701955D01*
X15925724Y-23731421D01*
X15926009Y-23741468D01*
X15924089Y-23770927D01*
X15916702Y-23803242D01*
X15903770Y-23833345D01*
X15885296Y-23861237D01*
X15868705Y-23879806D01*
X15845272Y-23900153D01*
X15819856Y-23916312D01*
X15795029Y-23927369D01*
X15765816Y-23935328D01*
X15734741Y-23938830D01*
X15704876Y-23938146D01*
X15673504Y-23932999D01*
X15644006Y-23923885D01*
X15616780Y-23912219D01*
X15599284Y-23903224D01*
X15571040Y-23886133D01*
X15546316Y-23868554D01*
X15521582Y-23848525D01*
X15496838Y-23826046D01*
X15486231Y-23815663D01*
X15464916Y-23793364D01*
X15445502Y-23770999D01*
X15426058Y-23745862D01*
X15609162Y-23745862D01*
X15612133Y-23771415D01*
X15620320Y-23784161D01*
X15646344Y-23803315D01*
X15674204Y-23820262D01*
X15703147Y-23833026D01*
X15726741Y-23838771D01*
X15758319Y-23838387D01*
X15787496Y-23826756D01*
X15801039Y-23815663D01*
X15817703Y-23790867D01*
X15822902Y-23761272D01*
X15822282Y-23751934D01*
X15814087Y-23723154D01*
X15798050Y-23696594D01*
X15778864Y-23674735D01*
X15755342Y-23654451D01*
X15727597Y-23639141D01*
X15704876Y-23633907D01*
X15674462Y-23637545D01*
X15648422Y-23652148D01*
X15638972Y-23660642D01*
X15620803Y-23685450D01*
X15610946Y-23715225D01*
X15609162Y-23745862D01*
X15426058Y-23745862D01*
X15425256Y-23744825D01*
X15407599Y-23718561D01*
X15394524Y-23695978D01*
X15380133Y-23666328D01*
X15369395Y-23637793D01*
X15361681Y-23607022D01*
X15358878Y-23584064D01*
X15358742Y-23552506D01*
X15362351Y-23522465D01*
X15369704Y-23493942D01*
X15371623Y-23488420D01*
X15384833Y-23459281D01*
X15402377Y-23432420D01*
X15422088Y-23409977D01*
X15445609Y-23389084D01*
X15470747Y-23371830D01*
X15497501Y-23358216D01*
X15525872Y-23348241D01*
X15542809Y-23344176D01*
X15572517Y-23349791D01*
G37*
G36*
X11650188Y-23025795D02*
G01*
X11688040Y-23030795D01*
X11721763Y-23039129D01*
X11751356Y-23050795D01*
X11776820Y-23065795D01*
X11804349Y-23090981D01*
X11824537Y-23122092D01*
X11837384Y-23159129D01*
X11842201Y-23190796D01*
X11843119Y-23213759D01*
X11841381Y-23244630D01*
X11834321Y-23279676D01*
X11821829Y-23310787D01*
X11803907Y-23337962D01*
X11780553Y-23361202D01*
X11751769Y-23380506D01*
X11731891Y-23390200D01*
X11728520Y-23400018D01*
X11835792Y-23588769D01*
X11841507Y-23608699D01*
X11835792Y-23629216D01*
X11812790Y-23647435D01*
X11800328Y-23649000D01*
X11771133Y-23645393D01*
X11742264Y-23633596D01*
X11740537Y-23632586D01*
X11716137Y-23613169D01*
X11698039Y-23588036D01*
X11606594Y-23419802D01*
X11594284Y-23412475D01*
X11524089Y-23412475D01*
X11515882Y-23420681D01*
X11515882Y-23586278D01*
X11508612Y-23616045D01*
X11497271Y-23630828D01*
X11471385Y-23646444D01*
X11453161Y-23649000D01*
X11423978Y-23641901D01*
X11409051Y-23630828D01*
X11393183Y-23604908D01*
X11390586Y-23586278D01*
X11390586Y-23305203D01*
X11515882Y-23305203D01*
X11524089Y-23313556D01*
X11596629Y-23313556D01*
X11628283Y-23311563D01*
X11658233Y-23304670D01*
X11684831Y-23291403D01*
X11688953Y-23288351D01*
X11708599Y-23266046D01*
X11719178Y-23236940D01*
X11721193Y-23213759D01*
X11717539Y-23183134D01*
X11703800Y-23155782D01*
X11690272Y-23143710D01*
X11662609Y-23131118D01*
X11632725Y-23125065D01*
X11600518Y-23123067D01*
X11596629Y-23123047D01*
X11524089Y-23123047D01*
X11515882Y-23131254D01*
X11515882Y-23305203D01*
X11390586Y-23305203D01*
X11390586Y-23095936D01*
X11396500Y-23066809D01*
X11411542Y-23045231D01*
X11436404Y-23028765D01*
X11462393Y-23024129D01*
X11608206Y-23024129D01*
X11650188Y-23025795D01*
G37*
G36*
X15081652Y-6305327D02*
G01*
X15116925Y-6322432D01*
X15142723Y-6341417D01*
X15159609Y-6357006D01*
X15180209Y-6380063D01*
X15199998Y-6409837D01*
X15213164Y-6440669D01*
X15219707Y-6472558D01*
X15219627Y-6505504D01*
X15212923Y-6539508D01*
X15205722Y-6560418D01*
X15210281Y-6569744D01*
X15419601Y-6627359D01*
X15437735Y-6637411D01*
X15448201Y-6655959D01*
X15444819Y-6685106D01*
X15437113Y-6695025D01*
X15413919Y-6713119D01*
X15385164Y-6725191D01*
X15383229Y-6725698D01*
X15352245Y-6729221D01*
X15321676Y-6724247D01*
X15138056Y-6669948D01*
X15124170Y-6673472D01*
X15074534Y-6723107D01*
X15074534Y-6734713D01*
X15191629Y-6851808D01*
X15207537Y-6877997D01*
X15209970Y-6896469D01*
X15202709Y-6925816D01*
X15191629Y-6940509D01*
X15165974Y-6956126D01*
X15147589Y-6958851D01*
X15118040Y-6951743D01*
X15103031Y-6940406D01*
X14756307Y-6593682D01*
X14739893Y-6568904D01*
X14735271Y-6543010D01*
X14737903Y-6530057D01*
X14869878Y-6530057D01*
X14992879Y-6653058D01*
X15004589Y-6653161D01*
X15055882Y-6601868D01*
X15076855Y-6578075D01*
X15093160Y-6552024D01*
X15102586Y-6523834D01*
X15103342Y-6518762D01*
X15101462Y-6489098D01*
X15088362Y-6461037D01*
X15073395Y-6443220D01*
X15049156Y-6424149D01*
X15020100Y-6414523D01*
X15001998Y-6415553D01*
X14973534Y-6426210D01*
X14948122Y-6443061D01*
X14923936Y-6464422D01*
X14921172Y-6467157D01*
X14869878Y-6518451D01*
X14869878Y-6530057D01*
X14737903Y-6530057D01*
X14741208Y-6513787D01*
X14756307Y-6492131D01*
X14859412Y-6389025D01*
X14890276Y-6360518D01*
X14920577Y-6337288D01*
X14950315Y-6319335D01*
X14979491Y-6306659D01*
X15008103Y-6299260D01*
X15045378Y-6297603D01*
X15081652Y-6305327D01*
G37*
G36*
X15683944Y-6464567D02*
G01*
X15661223Y-6485350D01*
X15637101Y-6503658D01*
X15611577Y-6519493D01*
X15584652Y-6532853D01*
X15556325Y-6543739D01*
X15526596Y-6552151D01*
X15514312Y-6554823D01*
X15484351Y-6551301D01*
X15473588Y-6544357D01*
X15469443Y-6540212D01*
X15455365Y-6514116D01*
X15454211Y-6505291D01*
X15459659Y-6475501D01*
X15466542Y-6464981D01*
X15471205Y-6459282D01*
X15496858Y-6443617D01*
X15503846Y-6441770D01*
X15535193Y-6432366D01*
X15563326Y-6419905D01*
X15588248Y-6404387D01*
X15609957Y-6385813D01*
X15629741Y-6362870D01*
X15644250Y-6336482D01*
X15648401Y-6320634D01*
X15645914Y-6290946D01*
X15629127Y-6265092D01*
X15603863Y-6248680D01*
X15582808Y-6246750D01*
X15552161Y-6253978D01*
X15524269Y-6263605D01*
X15509753Y-6269236D01*
X15503846Y-6271620D01*
X15419393Y-6305919D01*
X15388533Y-6316344D01*
X15357739Y-6322670D01*
X15327010Y-6324897D01*
X15309967Y-6324364D01*
X15280161Y-6319003D01*
X15251945Y-6307231D01*
X15225319Y-6289050D01*
X15211214Y-6276179D01*
X15190212Y-6251052D01*
X15175082Y-6223545D01*
X15165822Y-6193658D01*
X15162433Y-6161390D01*
X15163132Y-6141883D01*
X15167725Y-6112499D01*
X15176529Y-6084032D01*
X15189544Y-6056484D01*
X15206771Y-6029853D01*
X15228209Y-6004141D01*
X15236291Y-5995774D01*
X15260022Y-5974425D01*
X15285364Y-5956230D01*
X15312317Y-5941191D01*
X15340879Y-5929306D01*
X15371052Y-5920576D01*
X15381467Y-5918367D01*
X15411115Y-5923339D01*
X15418668Y-5928833D01*
X15421569Y-5931735D01*
X15435966Y-5958525D01*
X15436802Y-5964376D01*
X15430849Y-5993594D01*
X15425714Y-6001163D01*
X15420430Y-6007484D01*
X15395479Y-6022902D01*
X15392451Y-6023856D01*
X15364884Y-6034265D01*
X15337154Y-6050460D01*
X15314304Y-6069497D01*
X15312143Y-6071627D01*
X15292351Y-6095455D01*
X15279332Y-6123161D01*
X15277636Y-6130588D01*
X15279852Y-6159971D01*
X15294631Y-6182400D01*
X15318568Y-6197011D01*
X15348028Y-6196926D01*
X15349137Y-6196700D01*
X15377807Y-6189147D01*
X15379395Y-6188617D01*
X15407294Y-6176999D01*
X15415870Y-6173074D01*
X15421673Y-6170794D01*
X15503846Y-6137531D01*
X15534053Y-6126638D01*
X15562912Y-6119656D01*
X15593768Y-6116477D01*
X15616589Y-6117428D01*
X15647971Y-6124767D01*
X15675281Y-6138051D01*
X15701706Y-6157663D01*
X15713166Y-6168411D01*
X15734908Y-6194368D01*
X15750720Y-6222824D01*
X15760602Y-6253780D01*
X15764553Y-6287235D01*
X15764149Y-6307474D01*
X15759624Y-6338128D01*
X15750247Y-6368229D01*
X15736017Y-6397777D01*
X15716935Y-6426770D01*
X15697327Y-6450508D01*
X15683944Y-6464567D01*
G37*
G36*
X16052533Y-6053907D02*
G01*
X16045368Y-6083156D01*
X16034191Y-6097947D01*
X16008391Y-6113709D01*
X15990151Y-6116288D01*
X15960870Y-6108913D01*
X15945904Y-6097532D01*
X15627676Y-5779305D01*
X15615967Y-5779408D01*
X15534415Y-5860960D01*
X15508050Y-5875202D01*
X15497629Y-5876193D01*
X15468912Y-5867683D01*
X15460946Y-5861064D01*
X15446666Y-5834659D01*
X15445714Y-5824277D01*
X15454321Y-5795463D01*
X15460946Y-5787491D01*
X15724979Y-5523458D01*
X15751286Y-5509275D01*
X15761662Y-5508329D01*
X15790437Y-5516898D01*
X15798448Y-5523562D01*
X15812631Y-5549869D01*
X15813577Y-5560245D01*
X15805067Y-5588961D01*
X15798448Y-5596927D01*
X15715653Y-5679723D01*
X15715653Y-5691328D01*
X16033880Y-6009556D01*
X16049910Y-6035624D01*
X16052533Y-6053907D01*
G37*
G36*
X2272320Y-23347316D02*
G01*
X2293976Y-23362414D01*
X2389517Y-23457955D01*
X2417096Y-23487451D01*
X2439952Y-23516055D01*
X2458085Y-23543769D01*
X2471494Y-23570592D01*
X2482027Y-23604971D01*
X2484162Y-23637766D01*
X2477901Y-23668978D01*
X2463243Y-23698606D01*
X2440189Y-23726651D01*
X2417539Y-23745505D01*
X2389589Y-23760655D01*
X2366409Y-23768308D01*
X2335171Y-23772723D01*
X2305653Y-23769648D01*
X2286930Y-23763437D01*
X2283407Y-23763437D01*
X2282785Y-23766339D01*
X2295990Y-23792708D01*
X2304721Y-23822334D01*
X2307198Y-23852303D01*
X2306722Y-23861361D01*
X2300432Y-23891040D01*
X2286612Y-23919585D01*
X2267738Y-23944306D01*
X2260091Y-23952343D01*
X2235508Y-23973603D01*
X2209789Y-23989356D01*
X2178346Y-24000772D01*
X2145356Y-24004690D01*
X2115847Y-24002082D01*
X2085909Y-23994541D01*
X2056248Y-23982643D01*
X2026863Y-23966388D01*
X2002588Y-23949514D01*
X1978504Y-23929614D01*
X1959376Y-23911515D01*
X1852126Y-23804265D01*
X1835847Y-23779706D01*
X1963935Y-23779706D01*
X2019374Y-23835145D01*
X2042280Y-23855955D01*
X2069760Y-23874924D01*
X2101046Y-23887354D01*
X2130489Y-23888512D01*
X2158088Y-23878399D01*
X2179679Y-23861361D01*
X2197967Y-23836516D01*
X2204854Y-23807726D01*
X2202995Y-23791416D01*
X2191133Y-23761747D01*
X2173100Y-23735153D01*
X2153340Y-23712654D01*
X2147660Y-23706859D01*
X2092221Y-23651420D01*
X2080512Y-23651524D01*
X1963935Y-23768100D01*
X1963935Y-23779706D01*
X1835847Y-23779706D01*
X1835683Y-23779458D01*
X1830987Y-23753489D01*
X1836975Y-23724377D01*
X1852022Y-23702818D01*
X1969221Y-23585619D01*
X2158022Y-23585619D01*
X2203513Y-23631110D01*
X2226011Y-23651215D01*
X2252240Y-23668018D01*
X2279262Y-23676601D01*
X2310412Y-23673862D01*
X2336446Y-23658652D01*
X2341643Y-23653804D01*
X2359049Y-23629967D01*
X2364639Y-23600977D01*
X2363507Y-23592977D01*
X2352561Y-23565391D01*
X2334616Y-23539993D01*
X2316566Y-23520337D01*
X2269936Y-23473706D01*
X2258330Y-23473706D01*
X2158126Y-23573910D01*
X2158022Y-23585619D01*
X1969221Y-23585619D01*
X2192425Y-23362414D01*
X2217203Y-23346001D01*
X2243097Y-23341379D01*
X2272320Y-23347316D01*
G37*
G36*
X2761226Y-23856048D02*
G01*
X2765256Y-23857113D01*
X2793659Y-23868707D01*
X2818055Y-23886585D01*
X2821005Y-23889443D01*
X2824528Y-23892967D01*
X2840913Y-23917773D01*
X2845460Y-23943742D01*
X2839604Y-23972884D01*
X2824528Y-23994518D01*
X2620597Y-24198449D01*
X2620494Y-24210158D01*
X2633861Y-24223525D01*
X2647358Y-24249747D01*
X2647850Y-24256789D01*
X2637992Y-24285450D01*
X2633965Y-24289948D01*
X2607744Y-24303445D01*
X2600702Y-24303937D01*
X2572870Y-24294702D01*
X2567438Y-24289948D01*
X2554071Y-24276581D01*
X2542465Y-24276581D01*
X2474281Y-24344765D01*
X2449033Y-24359660D01*
X2433350Y-24361655D01*
X2403860Y-24353672D01*
X2392626Y-24344765D01*
X2377336Y-24318210D01*
X2375631Y-24303937D01*
X2382997Y-24275555D01*
X2392626Y-24263110D01*
X2460810Y-24194925D01*
X2460810Y-24183320D01*
X2308691Y-24031200D01*
X2304183Y-24021563D01*
X2435422Y-24021563D01*
X2436251Y-24025915D01*
X2527233Y-24116897D01*
X2538942Y-24116793D01*
X2623395Y-24032340D01*
X2646238Y-24010660D01*
X2670700Y-23988070D01*
X2694248Y-23966504D01*
X2717278Y-23945504D01*
X2717174Y-23943120D01*
X2714377Y-23942602D01*
X2684171Y-23953708D01*
X2654522Y-23964060D01*
X2625431Y-23973657D01*
X2609510Y-23978663D01*
X2438635Y-24017729D01*
X2435422Y-24021563D01*
X2304183Y-24021563D01*
X2296125Y-24004336D01*
X2296049Y-24001149D01*
X2307208Y-23973268D01*
X2308691Y-23971720D01*
X2332540Y-23952126D01*
X2359479Y-23937952D01*
X2379155Y-23931514D01*
X2700387Y-23855040D01*
X2730898Y-23852038D01*
X2761226Y-23856048D01*
G37*
G36*
X15156501Y-18688721D02*
G01*
X15617522Y-18925915D01*
X15630268Y-18935344D01*
X15643220Y-18960939D01*
X15638590Y-18990816D01*
X15629749Y-19002389D01*
X15605662Y-19019399D01*
X15580425Y-19026637D01*
X15550899Y-19025424D01*
X15526644Y-19015756D01*
X15446129Y-18970265D01*
X15433279Y-18971509D01*
X15301574Y-19103214D01*
X15299812Y-19116582D01*
X15347065Y-19198859D01*
X15357196Y-19227336D01*
X15357323Y-19250981D01*
X15347961Y-19279616D01*
X15333697Y-19298441D01*
X15306419Y-19311908D01*
X15294113Y-19311290D01*
X15268414Y-19299684D01*
X15259606Y-19287353D01*
X15021272Y-18823949D01*
X15011558Y-18794650D01*
X15011595Y-18779702D01*
X15105104Y-18779702D01*
X15122011Y-18807338D01*
X15138798Y-18835197D01*
X15155462Y-18863279D01*
X15172006Y-18891583D01*
X15188428Y-18920110D01*
X15204728Y-18948859D01*
X15211214Y-18960421D01*
X15242198Y-19014616D01*
X15247068Y-19017829D01*
X15252664Y-19015756D01*
X15345925Y-18922495D01*
X15347583Y-18917314D01*
X15344163Y-18912651D01*
X15289968Y-18881667D01*
X15263046Y-18866542D01*
X15235517Y-18850742D01*
X15206891Y-18834111D01*
X15191111Y-18824882D01*
X15164927Y-18809512D01*
X15137849Y-18793743D01*
X15111817Y-18778896D01*
X15108005Y-18776800D01*
X15105726Y-18776800D01*
X15105104Y-18779702D01*
X15011595Y-18779702D01*
X15011635Y-18763744D01*
X15020987Y-18734185D01*
X15039303Y-18709134D01*
X15041583Y-18706855D01*
X15066634Y-18688539D01*
X15096192Y-18679187D01*
X15127124Y-18679084D01*
X15156501Y-18688721D01*
G37*
G36*
X15541072Y-18272207D02*
G01*
X15562705Y-18287283D01*
X15766636Y-18491214D01*
X15778345Y-18491318D01*
X15791713Y-18477950D01*
X15817934Y-18464453D01*
X15824976Y-18463961D01*
X15853637Y-18473819D01*
X15858136Y-18477847D01*
X15871633Y-18504068D01*
X15872125Y-18511110D01*
X15862890Y-18538941D01*
X15858136Y-18544373D01*
X15844768Y-18557740D01*
X15844768Y-18569346D01*
X15912952Y-18637531D01*
X15927847Y-18662779D01*
X15929843Y-18678462D01*
X15921860Y-18707951D01*
X15912952Y-18719186D01*
X15886397Y-18734476D01*
X15872125Y-18736180D01*
X15843742Y-18728815D01*
X15831297Y-18719186D01*
X15763113Y-18651002D01*
X15751507Y-18651002D01*
X15599388Y-18803121D01*
X15572524Y-18815687D01*
X15569337Y-18815763D01*
X15541456Y-18804603D01*
X15539908Y-18803121D01*
X15520313Y-18779271D01*
X15506140Y-18752332D01*
X15499702Y-18732657D01*
X15423228Y-18411424D01*
X15421851Y-18397435D01*
X15510790Y-18397435D01*
X15521895Y-18427641D01*
X15532247Y-18457290D01*
X15541845Y-18486381D01*
X15546851Y-18502302D01*
X15585917Y-18673177D01*
X15589751Y-18676389D01*
X15594103Y-18675560D01*
X15685084Y-18584579D01*
X15684981Y-18572869D01*
X15600528Y-18488416D01*
X15578848Y-18465573D01*
X15556258Y-18441112D01*
X15534691Y-18417563D01*
X15513691Y-18394534D01*
X15511308Y-18394637D01*
X15510790Y-18397435D01*
X15421851Y-18397435D01*
X15420225Y-18380914D01*
X15424236Y-18350586D01*
X15425300Y-18346556D01*
X15436894Y-18318152D01*
X15454772Y-18293756D01*
X15457631Y-18290806D01*
X15461154Y-18287283D01*
X15485961Y-18270899D01*
X15511930Y-18266351D01*
X15541072Y-18272207D01*
G37*
G36*
X2336255Y-15731635D02*
G01*
X2365814Y-15740987D01*
X2390865Y-15759303D01*
X2393144Y-15761583D01*
X2411460Y-15786634D01*
X2420812Y-15816192D01*
X2420915Y-15847124D01*
X2411278Y-15876501D01*
X2174084Y-16337522D01*
X2164655Y-16350268D01*
X2139060Y-16363220D01*
X2109183Y-16358590D01*
X2097610Y-16349749D01*
X2080600Y-16325662D01*
X2073362Y-16300425D01*
X2074575Y-16270899D01*
X2084243Y-16246644D01*
X2129734Y-16166129D01*
X2128490Y-16153279D01*
X1996785Y-16021574D01*
X1983417Y-16019812D01*
X1901140Y-16067065D01*
X1872663Y-16077196D01*
X1849018Y-16077323D01*
X1820383Y-16067961D01*
X1801558Y-16053697D01*
X1788091Y-16026419D01*
X1788709Y-16014113D01*
X1800315Y-15988414D01*
X1812646Y-15979606D01*
X1837024Y-15967068D01*
X2082170Y-15967068D01*
X2084243Y-15972664D01*
X2177504Y-16065925D01*
X2182685Y-16067583D01*
X2187348Y-16064163D01*
X2218332Y-16009968D01*
X2233457Y-15983046D01*
X2249257Y-15955517D01*
X2265888Y-15926891D01*
X2275117Y-15911111D01*
X2290487Y-15884927D01*
X2306256Y-15857849D01*
X2321103Y-15831817D01*
X2323199Y-15828005D01*
X2323199Y-15825726D01*
X2320297Y-15825104D01*
X2292661Y-15842011D01*
X2264802Y-15858798D01*
X2236720Y-15875462D01*
X2208416Y-15892006D01*
X2179889Y-15908428D01*
X2151140Y-15924728D01*
X2139578Y-15931214D01*
X2085383Y-15962198D01*
X2082170Y-15967068D01*
X1837024Y-15967068D01*
X2276050Y-15741272D01*
X2305349Y-15731558D01*
X2336255Y-15731635D01*
G37*
G36*
X2639872Y-16056806D02*
G01*
X2669590Y-16061733D01*
X2698266Y-16071707D01*
X2725902Y-16086729D01*
X2752496Y-16106799D01*
X2767225Y-16120534D01*
X2787143Y-16142725D01*
X2805425Y-16169406D01*
X2818373Y-16196940D01*
X2825985Y-16225327D01*
X2828156Y-16246126D01*
X2826018Y-16278910D01*
X2816913Y-16309906D01*
X2800838Y-16339115D01*
X2781056Y-16363207D01*
X2777795Y-16366536D01*
X2753770Y-16386131D01*
X2726307Y-16400305D01*
X2706087Y-16406742D01*
X2674684Y-16412217D01*
X2643427Y-16412940D01*
X2622670Y-16410784D01*
X2618836Y-16412338D01*
X2618007Y-16415447D01*
X2625548Y-16449938D01*
X2627706Y-16482689D01*
X2624480Y-16513699D01*
X2615870Y-16542968D01*
X2601877Y-16570497D01*
X2582500Y-16596286D01*
X2573242Y-16606114D01*
X2549882Y-16625536D01*
X2520380Y-16640897D01*
X2487886Y-16648965D01*
X2456999Y-16650043D01*
X2447754Y-16649325D01*
X2415504Y-16643159D01*
X2384038Y-16631369D01*
X2357691Y-16616789D01*
X2331919Y-16598077D01*
X2306722Y-16575234D01*
X2284829Y-16551002D01*
X2266790Y-16525947D01*
X2252605Y-16500068D01*
X2240928Y-16468835D01*
X2236166Y-16444876D01*
X2336151Y-16444876D01*
X2343497Y-16475570D01*
X2358536Y-16501595D01*
X2370969Y-16515754D01*
X2394977Y-16534598D01*
X2422745Y-16545252D01*
X2433143Y-16546634D01*
X2463612Y-16542197D01*
X2489708Y-16526018D01*
X2495006Y-16521039D01*
X2512881Y-16496840D01*
X2521195Y-16467401D01*
X2520912Y-16450161D01*
X2515114Y-16419183D01*
X2506089Y-16389193D01*
X2494833Y-16359025D01*
X2488063Y-16342703D01*
X2485058Y-16337418D01*
X2476976Y-16333895D01*
X2444030Y-16335197D01*
X2413999Y-16342625D01*
X2386882Y-16356181D01*
X2362679Y-16375863D01*
X2345008Y-16399508D01*
X2336323Y-16428150D01*
X2336151Y-16444876D01*
X2236166Y-16444876D01*
X2234497Y-16436482D01*
X2233560Y-16404714D01*
X2238365Y-16375237D01*
X2250887Y-16344354D01*
X2267996Y-16319786D01*
X2277086Y-16309958D01*
X2301219Y-16289468D01*
X2327376Y-16274240D01*
X2355557Y-16264275D01*
X2385761Y-16259571D01*
X2417990Y-16260130D01*
X2452242Y-16265950D01*
X2466510Y-16269752D01*
X2469618Y-16268923D01*
X2471173Y-16265089D01*
X2469270Y-16246230D01*
X2568786Y-16246230D01*
X2572789Y-16275830D01*
X2581578Y-16306907D01*
X2592412Y-16335139D01*
X2603500Y-16342703D01*
X2635202Y-16337449D01*
X2663511Y-16326932D01*
X2688427Y-16311154D01*
X2700802Y-16300114D01*
X2719840Y-16275165D01*
X2729365Y-16246190D01*
X2729921Y-16240116D01*
X2725151Y-16210653D01*
X2709114Y-16185209D01*
X2704222Y-16180014D01*
X2679223Y-16162476D01*
X2650856Y-16156492D01*
X2621997Y-16162657D01*
X2596918Y-16180201D01*
X2595314Y-16181776D01*
X2577438Y-16205911D01*
X2569051Y-16235038D01*
X2568786Y-16246230D01*
X2469270Y-16246230D01*
X2468158Y-16235206D01*
X2469577Y-16201671D01*
X2476489Y-16170671D01*
X2488894Y-16142207D01*
X2506794Y-16116279D01*
X2517803Y-16104265D01*
X2541779Y-16083860D01*
X2567281Y-16069068D01*
X2598297Y-16059036D01*
X2631308Y-16056336D01*
X2639872Y-16056806D01*
G37*
G36*
X1750990Y-13719501D02*
G01*
X1730207Y-13696781D01*
X1711898Y-13672658D01*
X1696064Y-13647134D01*
X1682703Y-13620209D01*
X1671817Y-13591882D01*
X1663406Y-13562154D01*
X1660734Y-13549870D01*
X1664255Y-13519908D01*
X1671200Y-13509146D01*
X1675345Y-13505001D01*
X1701440Y-13490922D01*
X1710266Y-13489768D01*
X1740055Y-13495217D01*
X1750575Y-13502099D01*
X1756274Y-13506762D01*
X1771940Y-13532415D01*
X1773787Y-13539404D01*
X1783191Y-13570750D01*
X1795651Y-13598884D01*
X1811169Y-13623805D01*
X1829744Y-13645514D01*
X1852687Y-13665298D01*
X1879075Y-13679807D01*
X1894923Y-13683959D01*
X1924611Y-13681472D01*
X1950465Y-13664685D01*
X1966877Y-13639420D01*
X1968806Y-13618365D01*
X1961578Y-13587718D01*
X1951951Y-13559826D01*
X1946320Y-13545310D01*
X1943937Y-13539404D01*
X1909637Y-13454951D01*
X1899213Y-13424091D01*
X1892887Y-13393296D01*
X1890659Y-13362568D01*
X1891192Y-13345524D01*
X1896554Y-13315718D01*
X1908325Y-13287502D01*
X1926507Y-13260876D01*
X1939377Y-13246771D01*
X1964504Y-13225770D01*
X1992011Y-13210639D01*
X2021899Y-13201379D01*
X2054166Y-13197990D01*
X2073673Y-13198690D01*
X2103058Y-13203282D01*
X2131524Y-13212086D01*
X2159073Y-13225102D01*
X2185703Y-13242328D01*
X2211415Y-13263766D01*
X2219782Y-13271848D01*
X2241132Y-13295580D01*
X2259326Y-13320922D01*
X2274366Y-13347874D01*
X2286250Y-13376436D01*
X2294980Y-13406609D01*
X2297189Y-13417024D01*
X2292218Y-13446672D01*
X2286723Y-13454225D01*
X2283822Y-13457127D01*
X2257032Y-13471523D01*
X2251180Y-13472359D01*
X2221963Y-13466407D01*
X2214394Y-13461272D01*
X2208073Y-13455987D01*
X2192654Y-13431037D01*
X2191700Y-13428009D01*
X2181291Y-13400441D01*
X2165096Y-13372712D01*
X2146060Y-13349862D01*
X2143930Y-13347700D01*
X2120102Y-13327908D01*
X2092395Y-13314889D01*
X2084968Y-13313194D01*
X2055585Y-13315410D01*
X2033156Y-13330188D01*
X2018545Y-13354125D01*
X2018630Y-13383585D01*
X2018856Y-13384694D01*
X2026410Y-13413364D01*
X2026939Y-13414952D01*
X2038558Y-13442852D01*
X2042483Y-13451427D01*
X2044762Y-13457230D01*
X2078025Y-13539404D01*
X2088919Y-13569610D01*
X2095900Y-13598469D01*
X2099079Y-13629325D01*
X2098128Y-13652146D01*
X2090790Y-13683529D01*
X2077505Y-13710838D01*
X2057893Y-13737263D01*
X2047146Y-13748723D01*
X2021188Y-13770466D01*
X1992732Y-13786278D01*
X1961776Y-13796159D01*
X1928322Y-13800111D01*
X1908083Y-13799706D01*
X1877428Y-13795181D01*
X1847327Y-13785804D01*
X1817780Y-13771575D01*
X1788786Y-13752493D01*
X1765048Y-13732884D01*
X1750990Y-13719501D01*
G37*
G36*
X2169110Y-14137622D02*
G01*
X2147110Y-14113278D01*
X2128323Y-14087458D01*
X2112749Y-14060163D01*
X2105486Y-14044361D01*
X2095166Y-14015139D01*
X2088338Y-13985180D01*
X2085002Y-13954483D01*
X2084657Y-13937111D01*
X2087122Y-13905356D01*
X2093816Y-13873045D01*
X2103317Y-13843855D01*
X2112636Y-13821674D01*
X2127991Y-13792264D01*
X2144180Y-13767073D01*
X2162936Y-13742387D01*
X2184262Y-13718207D01*
X2194187Y-13707999D01*
X2217741Y-13686002D01*
X2241979Y-13666435D01*
X2266901Y-13649298D01*
X2292508Y-13634590D01*
X2307448Y-13627276D01*
X2337466Y-13615120D01*
X2367109Y-13606319D01*
X2396376Y-13600872D01*
X2425268Y-13598780D01*
X2457265Y-13600034D01*
X2488558Y-13604846D01*
X2519145Y-13613215D01*
X2535834Y-13619401D01*
X2564800Y-13633140D01*
X2592013Y-13650108D01*
X2617471Y-13670306D01*
X2630857Y-13682922D01*
X2652855Y-13708105D01*
X2670888Y-13735687D01*
X2684953Y-13765669D01*
X2695051Y-13798051D01*
X2699041Y-13817633D01*
X2694971Y-13846949D01*
X2686191Y-13858460D01*
X2659628Y-13872710D01*
X2652410Y-13873589D01*
X2623043Y-13866728D01*
X2615728Y-13861362D01*
X2610961Y-13857839D01*
X2595694Y-13831782D01*
X2594692Y-13827477D01*
X2584404Y-13799508D01*
X2567931Y-13773090D01*
X2556766Y-13760536D01*
X2533234Y-13740942D01*
X2503669Y-13725518D01*
X2471254Y-13717529D01*
X2440554Y-13716638D01*
X2431381Y-13717429D01*
X2399205Y-13723925D01*
X2367416Y-13736342D01*
X2340476Y-13751698D01*
X2313820Y-13771403D01*
X2291824Y-13791146D01*
X2287448Y-13795457D01*
X2266548Y-13817881D01*
X2245447Y-13844830D01*
X2228689Y-13871822D01*
X2216274Y-13898858D01*
X2207278Y-13930455D01*
X2205793Y-13939494D01*
X2204496Y-13970175D01*
X2210385Y-14002993D01*
X2224136Y-14033415D01*
X2242618Y-14058068D01*
X2249004Y-14064775D01*
X2271983Y-14083888D01*
X2297918Y-14098226D01*
X2326807Y-14107787D01*
X2332939Y-14109126D01*
X2360147Y-14121372D01*
X2364441Y-14125291D01*
X2366824Y-14127674D01*
X2379246Y-14154815D01*
X2379052Y-14163321D01*
X2369013Y-14192106D01*
X2363301Y-14198760D01*
X2337534Y-14212968D01*
X2324235Y-14213371D01*
X2291786Y-14207898D01*
X2260890Y-14198396D01*
X2231546Y-14184864D01*
X2203753Y-14167304D01*
X2177512Y-14145714D01*
X2169110Y-14137622D01*
G37*
G36*
X2437599Y-14389738D02*
G01*
X2421156Y-14364931D01*
X2416460Y-14338962D01*
X2422448Y-14309850D01*
X2437495Y-14288291D01*
X2784323Y-13941463D01*
X2810107Y-13925879D01*
X2828570Y-13923329D01*
X2858232Y-13930372D01*
X2872921Y-13941359D01*
X2888464Y-13967184D01*
X2890951Y-13985710D01*
X2883957Y-14015324D01*
X2872921Y-14030061D01*
X2555315Y-14347667D01*
X2555211Y-14359376D01*
X2691062Y-14495227D01*
X2705567Y-14520866D01*
X2706813Y-14532531D01*
X2698128Y-14561423D01*
X2691373Y-14569525D01*
X2664774Y-14584000D01*
X2654379Y-14584965D01*
X2625313Y-14576105D01*
X2617075Y-14569214D01*
X2437599Y-14389738D01*
G37*
G36*
X15248978Y-11022098D02*
G01*
X15278606Y-11036756D01*
X15306651Y-11059810D01*
X15325505Y-11082460D01*
X15340655Y-11110410D01*
X15348308Y-11133590D01*
X15352723Y-11164828D01*
X15349648Y-11194346D01*
X15343437Y-11213069D01*
X15343437Y-11216592D01*
X15346339Y-11217214D01*
X15372708Y-11204009D01*
X15402334Y-11195278D01*
X15432303Y-11192801D01*
X15441361Y-11193277D01*
X15471040Y-11199567D01*
X15499585Y-11213387D01*
X15524306Y-11232261D01*
X15532343Y-11239908D01*
X15553603Y-11264491D01*
X15569356Y-11290210D01*
X15580772Y-11321653D01*
X15584690Y-11354643D01*
X15582082Y-11384152D01*
X15574541Y-11414090D01*
X15562643Y-11443751D01*
X15546388Y-11473136D01*
X15529514Y-11497411D01*
X15509614Y-11521495D01*
X15491515Y-11540623D01*
X15384265Y-11647873D01*
X15359458Y-11664316D01*
X15333489Y-11669012D01*
X15304377Y-11663024D01*
X15282818Y-11647977D01*
X15042618Y-11407778D01*
X15231420Y-11407778D01*
X15231524Y-11419487D01*
X15348100Y-11536064D01*
X15359706Y-11536064D01*
X15415145Y-11480625D01*
X15435955Y-11457719D01*
X15454924Y-11430239D01*
X15467354Y-11398953D01*
X15468512Y-11369510D01*
X15458399Y-11341911D01*
X15441361Y-11320320D01*
X15416516Y-11302032D01*
X15387726Y-11295145D01*
X15371416Y-11297004D01*
X15341747Y-11308866D01*
X15315153Y-11326899D01*
X15292654Y-11346659D01*
X15286859Y-11352339D01*
X15231420Y-11407778D01*
X15042618Y-11407778D01*
X14942414Y-11307574D01*
X14926001Y-11282796D01*
X14921379Y-11256902D01*
X14924474Y-11241669D01*
X15053706Y-11241669D01*
X15153910Y-11341873D01*
X15165619Y-11341977D01*
X15211110Y-11296486D01*
X15231215Y-11273988D01*
X15248018Y-11247759D01*
X15256601Y-11220737D01*
X15253862Y-11189587D01*
X15238652Y-11163553D01*
X15233804Y-11158356D01*
X15209967Y-11140950D01*
X15180977Y-11135360D01*
X15172977Y-11136492D01*
X15145391Y-11147438D01*
X15119993Y-11165383D01*
X15100337Y-11183433D01*
X15053706Y-11230063D01*
X15053706Y-11241669D01*
X14924474Y-11241669D01*
X14927316Y-11227679D01*
X14942414Y-11206023D01*
X15037955Y-11110482D01*
X15067451Y-11082903D01*
X15096055Y-11060047D01*
X15123769Y-11041914D01*
X15150592Y-11028505D01*
X15184971Y-11017972D01*
X15217766Y-11015837D01*
X15248978Y-11022098D01*
G37*
G36*
X15767983Y-11264156D02*
G01*
X15741295Y-11278067D01*
X15732440Y-11278767D01*
X15703556Y-11269813D01*
X15696897Y-11264156D01*
X15682985Y-11237468D01*
X15682286Y-11228613D01*
X15691204Y-11199765D01*
X15696897Y-11193070D01*
X15750470Y-11139497D01*
X15750367Y-11127787D01*
X15482914Y-10860335D01*
X15471205Y-10860231D01*
X15424056Y-10907380D01*
X15397218Y-10918468D01*
X15369861Y-10906862D01*
X15356510Y-10879896D01*
X15356390Y-10878884D01*
X15362377Y-10849837D01*
X15363437Y-10848004D01*
X15377781Y-10821456D01*
X15390475Y-10793938D01*
X15394316Y-10784379D01*
X15407107Y-10755632D01*
X15423048Y-10728965D01*
X15440947Y-10707490D01*
X15467488Y-10694671D01*
X15473277Y-10694434D01*
X15501294Y-10704254D01*
X15505608Y-10708112D01*
X15837825Y-11040329D01*
X15849534Y-11040433D01*
X15891502Y-10998465D01*
X15918189Y-10984553D01*
X15927045Y-10983854D01*
X15955991Y-10992673D01*
X15962691Y-10998361D01*
X15976504Y-11025077D01*
X15977198Y-11034008D01*
X15968281Y-11062856D01*
X15962587Y-11069551D01*
X15767983Y-11264156D01*
G37*
X8162164Y-27490000D02*
X8377836Y-27490000D01*
X8162164Y-28210000D02*
X8377836Y-28210000D01*
X3846359Y-11970000D02*
X4153641Y-11970000D01*
X3846359Y-12730000D02*
X4153641Y-12730000D01*
X13353641Y-14120000D02*
X13046359Y-14120000D01*
X13353641Y-14880000D02*
X13046359Y-14880000D01*
X10107836Y-21140000D02*
X9892164Y-21140000D01*
X10107836Y-21860000D02*
X9892164Y-21860000D01*
X8890000Y-7640000D02*
X8090000Y-7640000D01*
X8890000Y-7640000D02*
X9690000Y-7640000D01*
X8890000Y-10760000D02*
X8090000Y-10760000D01*
X8890000Y-10760000D02*
X9690000Y-10760000D01*
X7590000Y-7690000D02*
X7350000Y-7360000D01*
X7830000Y-7360000D01*
X7590000Y-7690000D01*
G36*
X7590000Y-7690000D02*
G01*
X7350000Y-7360000D01*
X7830000Y-7360000D01*
X7590000Y-7690000D01*
G37*
X13892164Y-6740000D02*
X14107836Y-6740000D01*
X13892164Y-7460000D02*
X14107836Y-7460000D01*
X4363641Y-21945000D02*
X4056359Y-21945000D01*
X4363641Y-22705000D02*
X4056359Y-22705000D01*
X14207836Y-11965000D02*
X13992164Y-11965000D01*
X14207836Y-12685000D02*
X13992164Y-12685000D01*
X12040000Y-12982836D02*
X12040000Y-12767164D01*
X12760000Y-12982836D02*
X12760000Y-12767164D01*
X4317836Y-20865000D02*
X4102164Y-20865000D01*
X4317836Y-21585000D02*
X4102164Y-21585000D01*
X11846359Y-21945000D02*
X12153641Y-21945000D01*
X11846359Y-22705000D02*
X12153641Y-22705000D01*
X11000000Y-18710000D02*
X10650000Y-18710000D01*
X11000000Y-18360000D02*
X11000000Y-18710000D01*
X11000000Y-14840000D02*
X11000000Y-14490000D01*
X11000000Y-14490000D02*
X10650000Y-14490000D01*
X6780000Y-18360000D02*
X6780000Y-18710000D01*
X6780000Y-14840000D02*
X6780000Y-14490000D01*
X6780000Y-14490000D02*
X7130000Y-14490000D01*
X11640000Y-9700000D02*
X11640000Y-8900000D01*
X11640000Y-9700000D02*
X11640000Y-10500000D01*
X4690000Y-9037221D02*
X4690000Y-9362779D01*
X5710000Y-9037221D02*
X5710000Y-9362779D01*
X5440000Y-21667164D02*
X5440000Y-21882836D01*
X6160000Y-21667164D02*
X6160000Y-21882836D01*
X9402164Y-22790000D02*
X9617836Y-22790000D01*
X9402164Y-23510000D02*
X9617836Y-23510000D01*
D11*
X13080000Y-16310000D02*
X13080000Y-16960000D01*
X13080000Y-16960000D02*
X13730000Y-16960000D01*
D10*
X13992164Y-13065000D02*
X14207836Y-13065000D01*
X13992164Y-13785000D02*
X14207836Y-13785000D01*
X6540000Y-21882836D02*
X6540000Y-21667164D01*
X7260000Y-21882836D02*
X7260000Y-21667164D01*
X10890000Y-23850000D02*
X6890000Y-23850000D01*
X10890000Y-27150000D02*
X10890000Y-23850000D01*
X7945000Y-12153641D02*
X7945000Y-11846359D01*
X8705000Y-12153641D02*
X8705000Y-11846359D01*
X11892164Y-20865000D02*
X12107836Y-20865000D01*
X11892164Y-21585000D02*
X12107836Y-21585000D01*
X6845000Y-11846359D02*
X6845000Y-12153641D01*
X7605000Y-11846359D02*
X7605000Y-12153641D01*
D11*
X5140000Y-14500000D02*
G75*
G02*
X5040000Y-14500000I-50000J0D01*
G01*
X5040000Y-14500000D02*
G75*
G02*
X5140000Y-14500000I50000J0D01*
G01*
D10*
X9045000Y-12153641D02*
X9045000Y-11846359D01*
X9805000Y-12153641D02*
X9805000Y-11846359D01*
X10170000Y-12153641D02*
X10170000Y-11846359D01*
X10930000Y-12153641D02*
X10930000Y-11846359D01*
X3846359Y-13070000D02*
X4153641Y-13070000D01*
X3846359Y-13830000D02*
X4153641Y-13830000D01*
%LPC*%
D12*
X7790000Y-27850000D03*
X8750000Y-27850000D03*
D13*
X3490000Y-12350000D03*
X4510000Y-12350000D03*
D14*
X13710000Y-14500000D03*
X12690000Y-14500000D03*
D15*
X10480000Y-21500000D03*
X9520000Y-21500000D03*
D16*
X7752500Y-8250000D03*
X7752500Y-9200000D03*
X7752500Y-10150000D03*
X10027500Y-10150000D03*
X10027500Y-9200000D03*
X10027500Y-8250000D03*
D12*
X13520000Y-7100000D03*
X14480000Y-7100000D03*
D14*
X4720000Y-22325000D03*
X3700000Y-22325000D03*
D15*
X14580000Y-12325000D03*
X13620000Y-12325000D03*
D17*
X12400000Y-13355000D03*
X12400000Y-12395000D03*
D18*
X12103000Y-6150474D03*
X11303000Y-6150474D03*
D19*
X10653000Y-6150474D03*
X10153000Y-6150474D03*
X9653000Y-6150474D03*
X9153000Y-6150474D03*
X8653000Y-6150474D03*
X8153000Y-6150474D03*
X7653000Y-6150474D03*
X7153000Y-6150474D03*
D18*
X6503000Y-6150474D03*
X5703000Y-6150474D03*
D20*
X3328000Y-1250474D03*
D21*
X3328000Y-5250474D03*
D20*
X14478000Y-1250474D03*
D21*
X14478000Y-5250474D03*
D15*
X4690000Y-21225000D03*
X3730000Y-21225000D03*
D22*
X3810000Y-30162500D03*
X6350000Y-30162500D03*
X8890000Y-30162500D03*
X11430000Y-30162500D03*
X13970000Y-30162500D03*
D13*
X11490000Y-22325000D03*
X12510000Y-22325000D03*
D23*
X4500000Y-23650000D03*
X4500000Y-27750000D03*
D24*
X8890000Y-16600000D03*
D25*
X6940000Y-18000000D03*
D26*
X6940000Y-17600000D03*
X6940000Y-17200000D03*
X6940000Y-16800000D03*
X6940000Y-16400000D03*
X6940000Y-16000000D03*
X6940000Y-15600000D03*
D27*
X6940000Y-15200000D03*
D28*
X7490000Y-14650000D03*
D29*
X7890000Y-14650000D03*
X8290000Y-14650000D03*
X8690000Y-14650000D03*
X9090000Y-14650000D03*
X9490000Y-14650000D03*
X9890000Y-14650000D03*
D30*
X10290000Y-14650000D03*
D31*
X10840000Y-15200000D03*
D26*
X10840000Y-15600000D03*
X10840000Y-16000000D03*
X10840000Y-16400000D03*
X10840000Y-16800000D03*
X10840000Y-17200000D03*
X10840000Y-17600000D03*
D32*
X10840000Y-18000000D03*
D33*
X10290000Y-18550000D03*
D29*
X9890000Y-18550000D03*
X9490000Y-18550000D03*
X9090000Y-18550000D03*
X8690000Y-18550000D03*
X8290000Y-18550000D03*
X7890000Y-18550000D03*
D34*
X7490000Y-18550000D03*
D35*
X14150000Y-8562500D03*
X13200000Y-8562500D03*
X12250000Y-8562500D03*
X12250000Y-10837500D03*
X14150000Y-10837500D03*
D36*
X5200000Y-8412500D03*
X5200000Y-9987500D03*
D23*
X13280000Y-23650000D03*
X13280000Y-27750000D03*
D37*
X5800000Y-21295000D03*
X5800000Y-22255000D03*
D12*
X9030000Y-23150000D03*
X9990000Y-23150000D03*
D38*
X14400000Y-16550000D03*
X14400000Y-15650000D03*
X13500000Y-15650000D03*
X13500000Y-16550000D03*
D12*
X13620000Y-13425000D03*
X14580000Y-13425000D03*
D17*
X6900000Y-22255000D03*
X6900000Y-21295000D03*
D39*
X9990000Y-24650000D03*
X7790000Y-24650000D03*
X7790000Y-26350000D03*
X9990000Y-26350000D03*
D40*
X8325000Y-12510000D03*
X8325000Y-11490000D03*
D12*
X11520000Y-21225000D03*
X12480000Y-21225000D03*
D41*
X7225000Y-11490000D03*
X7225000Y-12510000D03*
D42*
X4485000Y-14500000D03*
X3515000Y-14500000D03*
D40*
X9425000Y-12510000D03*
X9425000Y-11490000D03*
X10550000Y-12510000D03*
X10550000Y-11490000D03*
D22*
X1270000Y-2146300D03*
X1270000Y-4686300D03*
X1270000Y-7226300D03*
X1270000Y-9766300D03*
X1270000Y-12306300D03*
X1270000Y-14846300D03*
X1270000Y-17386300D03*
X1270000Y-19926300D03*
X1270000Y-22466300D03*
X1270000Y-25006300D03*
X1270000Y-27546300D03*
X1270000Y-30086300D03*
D13*
X3490000Y-13450000D03*
X4510000Y-13450000D03*
D22*
X16510000Y-2146300D03*
X16510000Y-4686300D03*
X16510000Y-7226300D03*
X16510000Y-9766300D03*
X16510000Y-12306300D03*
X16510000Y-14846300D03*
X16510000Y-17386300D03*
X16510000Y-19926300D03*
X16510000Y-22466300D03*
X16510000Y-25006300D03*
X16510000Y-27546300D03*
X16510000Y-30086300D03*
%LPD*%
D43*
X0Y-1270000D02*
X0Y-30607000D01*
X16510000Y0D02*
G75*
G02*
X17780000Y-1270000I0J-1270000D01*
G01*
X13462000Y-5711600D02*
X4318000Y-5711600D01*
X1270000Y-31877000D02*
G75*
G02*
X0Y-30607000I-3J1269997D01*
G01*
X0Y-1270000D02*
G75*
G02*
X1270000Y0I1270000J0D01*
G01*
X17780000Y-1270000D02*
X17780000Y-30607000D01*
X4318000Y-5711600D02*
X4318000Y0D01*
X13462000Y0D02*
X16510000Y0D01*
X1270000Y0D02*
X4318000Y0D01*
X1270000Y-31877000D02*
X16510000Y-31877000D01*
X13462000Y0D02*
X13462000Y-5711600D01*
X17780000Y-30607000D02*
G75*
G02*
X16510000Y-31877000I-1270000J0D01*
G01*
M02*
